<?xml version="1.0" encoding="utf-8"?>
<!-- Generator: Adobe Illustrator 23.0.2, SVG Export Plug-In . SVG Version: 6.00 Build 0)  -->
<svg version="1.1" xmlns="http://www.w3.org/2000/svg" xmlns:xlink="http://www.w3.org/1999/xlink" x="0px" y="0px"
	 viewBox="0 0 750 500" style="enable-background:new 0 0 750 500;" xml:space="preserve">
<style type="text/css">
	.st0{fill:#CBC3D5;}
	.st1{fill:#F2F2F2;}
	.st2{fill:url(#SVGID_1_);}
	.st3{fill:#5455CF;}
	.st4{fill:#3A3772;}
	.st5{fill:#A6BCFE;}
	.st6{fill:#F3D656;}
	.st7{fill:#7B6F88;}
	.st8{fill:#FA4A84;}
	.st9{fill:#260350;}
	.st10{fill:#B1A4C0;}
	.st11{opacity:0.44;fill:#A6BCFE;}
	.st12{opacity:0.5;fill:#260350;}
	.st13{fill:#E6E6E6;}
	.st14{opacity:0.5;fill:#E6E6E6;}
	.st15{fill:#C9DAF3;}
	.st16{opacity:0.59;fill:#A6BCFE;}
	.st17{fill:#985D63;}
	.st18{fill:#A46F74;}
	.st19{fill:url(#SVGID_2_);}
	.st20{fill:#C5DAF3;}
	.st21{fill:#C8C8C8;}
	.st22{fill:#FDFEFE;}
	.st23{fill:#8492C7;}
	.st24{fill:#A89AB9;}
	.st25{fill:#FFFFFF;}
	.st26{fill:url(#SVGID_3_);}
	.st27{font-family:'MyriadPro-Regular';}
	.st28{font-size:42px;}
	.st29{font-size:27px;}
</style>
<g id="BACKGROUND">
	<g>
		<g>
			<path class="st0" d="M676.1,176c-0.7-11.5-3.1-23.1-8.8-33.2c-12-21.2-36.7-32.3-60.8-35.7c-25.2-3.6-51.3,2.5-76-1.9
				c-37.3-6.5-68.7-29.8-105.5-38.3c-24.7-5.7-51.5-5.7-74.4,5.2c-0.1,0.1-0.3,0.1-0.4,0.2c-38.1,19-82.1,22.3-122.5,8.9
				c-13.5-4.5-26.2-8.3-36-10.6c-24.7-5.7-51.5-5.7-74.4,5.2c-14.1,6.7-26.2,17.3-35,30.2c-15.3,22.5-14,48.2-1.9,71.8
				c6,11.8,14.6,23.6,21.4,36c6,11,10.5,22.4,10.5,34.8c0,26.3-21.7,48.3-24.5,74.5c-1.9,18.4,6.6,37.6,21.7,48.2
				c9.5,6.7,326,5.8,443.1,5.3c34.9-0.2,63.7-27.5,65.4-62.3c0-0.2,0-0.4,0-0.6c0.9-19.6,8.3-36.8,19.6-52.6
				c11.7-16.3,26.8-31.2,34-50.2C675.6,199.8,676.8,187.8,676.1,176z"/>
		</g>
		<g>
			<g>
				<g id="XMLID_2_">
					<path class="st0" d="M92.7,239.8c0.8,1.6,2,3,3.6,3.9c0.6,0.4,0.6,1.3-0.1,1.6c-1.6,0.8-2.9,2.1-3.8,3.6
						c-0.4,0.6-1.3,0.6-1.6-0.1c-0.8-1.6-2-3-3.6-3.9c-0.6-0.4-0.6-1.3,0.1-1.6c1.6-0.8,2.9-2.1,3.8-3.6
						C91.4,239.1,92.4,239.1,92.7,239.8z"/>
				</g>
				<g id="XMLID_4_">
					<path class="st0" d="M68.3,237.9c0.8,1.6,2,3,3.6,3.9c0.6,0.4,0.6,1.3-0.1,1.6c-1.6,0.8-2.9,2.1-3.8,3.6
						c-0.4,0.6-1.3,0.6-1.6-0.1c-0.8-1.6-2-3-3.6-3.9c-0.6-0.4-0.6-1.3,0.1-1.6c1.6-0.8,2.9-2.1,3.8-3.6
						C67,237.2,67.9,237.3,68.3,237.9z"/>
				</g>
				<g id="XMLID_5_">
					<path class="st0" d="M75.1,215.2c0.8,1.6,2,3,3.6,3.9c0.6,0.4,0.6,1.3-0.1,1.6c-1.6,0.8-2.9,2.1-3.8,3.6
						c-0.4,0.6-1.3,0.6-1.6-0.1c-0.8-1.6-2-3-3.6-3.9c-0.6-0.4-0.6-1.3,0.1-1.6c1.6-0.8,2.9-2.1,3.8-3.6
						C73.9,214.5,74.8,214.6,75.1,215.2z"/>
				</g>
				<g id="XMLID_11_">
					<path class="st0" d="M272.3,77c-1.8-0.1-3.6,0.3-5.1,1.2c-0.6,0.4-1.4-0.1-1.4-0.8c0.1-1.8-0.4-3.6-1.3-5.1
						c-0.4-0.6,0.1-1.4,0.8-1.4c1.8,0.1,3.6-0.3,5.1-1.2c0.6-0.4,1.4,0.1,1.4,0.8c-0.1,1.8,0.4,3.6,1.3,5.1
						C273.6,76.2,273.1,77,272.3,77z"/>
				</g>
				<g id="XMLID_10_">
					<path class="st0" d="M272.3,47.8c-1.8-0.1-3.6,0.3-5.1,1.2c-0.6,0.4-1.4-0.1-1.4-0.8c0.1-1.8-0.4-3.6-1.3-5.1
						c-0.4-0.6,0.1-1.4,0.8-1.4c1.8,0.1,3.6-0.3,5.1-1.2c0.6-0.4,1.4,0.1,1.4,0.8c-0.1,1.8,0.4,3.6,1.3,5.1
						C273.6,47.1,273.1,47.9,272.3,47.8z"/>
				</g>
				<g id="XMLID_9_">
					<path class="st0" d="M237.8,59.9c-1.8-0.1-3.6,0.3-5.1,1.2c-0.6,0.4-1.4-0.1-1.4-0.8c0.1-1.8-0.4-3.6-1.3-5.1
						c-0.4-0.6,0.1-1.4,0.8-1.4c1.8,0.1,3.6-0.3,5.1-1.2c0.6-0.4,1.4,0.1,1.4,0.8c-0.1,1.8,0.4,3.6,1.3,5.1
						C239.1,59.2,238.6,60,237.8,59.9z"/>
				</g>
			</g>
			<g id="XMLID_15_">
				<path class="st0" d="M677.3,236c0.7,1.5,1.9,2.8,3.4,3.7c0.6,0.3,0.6,1.2,0,1.5c-1.5,0.8-2.8,2-3.6,3.5c-0.3,0.6-1.2,0.6-1.5,0
					c-0.7-1.5-1.9-2.8-3.4-3.7c-0.6-0.3-0.6-1.2,0-1.5c1.5-0.8,2.8-2,3.6-3.5C676.1,235.3,677,235.4,677.3,236z"/>
			</g>
			<g id="XMLID_14_">
				<path class="st0" d="M663.5,253.9c0.7,1.5,1.9,2.8,3.4,3.7c0.6,0.3,0.6,1.2,0,1.5c-1.5,0.8-2.8,2-3.6,3.5
					c-0.3,0.6-1.2,0.6-1.5,0c-0.7-1.5-1.9-2.8-3.4-3.7c-0.6-0.3-0.6-1.2,0-1.5c1.5-0.8,2.8-2,3.6-3.5
					C662.3,253.2,663.2,253.2,663.5,253.9z"/>
			</g>
			<g id="XMLID_13_">
				<path class="st0" d="M683.9,256.9c0.7,1.5,1.9,2.8,3.4,3.7c0.6,0.3,0.6,1.2,0,1.5c-1.5,0.8-2.8,2-3.6,3.5
					c-0.3,0.6-1.2,0.6-1.5,0c-0.7-1.5-1.9-2.8-3.4-3.7c-0.6-0.3-0.6-1.2,0-1.5c1.5-0.8,2.8-2,3.6-3.5
					C682.7,256.2,683.6,256.3,683.9,256.9z"/>
			</g>
			<g id="XMLID_12_">
				<path class="st0" d="M537.7,95.1c-1.7-0.1-3.4,0.3-4.9,1.2c-0.6,0.3-1.3-0.1-1.3-0.8c0.1-1.7-0.4-3.4-1.2-4.9
					c-0.4-0.6,0.1-1.4,0.8-1.3c1.7,0.1,3.4-0.3,4.9-1.2c0.6-0.3,1.3,0.1,1.3,0.8c-0.1,1.7,0.4,3.4,1.2,4.9
					C538.8,94.3,538.4,95.1,537.7,95.1z"/>
			</g>
			<g id="XMLID_3_">
				<path class="st0" d="M537.7,67.4c-1.7-0.1-3.4,0.3-4.9,1.2c-0.6,0.3-1.3-0.1-1.3-0.8c0.1-1.7-0.4-3.4-1.2-4.9
					c-0.4-0.6,0.1-1.4,0.8-1.3c1.7,0.1,3.4-0.3,4.9-1.2c0.6-0.3,1.3,0.1,1.3,0.8c-0.1,1.7,0.4,3.4,1.2,4.9
					C538.8,66.7,538.4,67.4,537.7,67.4z"/>
			</g>
			<g id="XMLID_1_">
				<path class="st0" d="M504.9,78.9c-1.7-0.1-3.4,0.3-4.9,1.2c-0.6,0.3-1.3-0.1-1.3-0.8c0.1-1.7-0.4-3.4-1.2-4.9
					c-0.4-0.6,0.1-1.4,0.8-1.3c1.7,0.1,3.4-0.3,4.9-1.2c0.6-0.3,1.3,0.1,1.3,0.8c-0.1,1.7,0.4,3.4,1.2,4.9
					C506.1,78.2,505.6,78.9,504.9,78.9z"/>
			</g>
		</g>
	</g>
</g>
<g id="OBJECTS">
	<ellipse class="st1" cx="375" cy="409.3" rx="341.4" ry="36.8"/>
	<g>
		<g>
			<linearGradient id="SVGID_1_" gradientUnits="userSpaceOnUse" x1="205.2993" y1="100.125" x2="246.4107" y2="100.125">
				<stop  offset="3.886220e-03" style="stop-color:#F1D660"/>
				<stop  offset="1" style="stop-color:#F59C36"/>
			</linearGradient>
			<path class="st2" d="M216,83.9c6.7,0.4,12.8,2.7,18.4,6.7c4.3,3.1,8.3,7.3,12,12.6c0,0,0.1,0.1,0.1,0.1l-10.1,13.1
				c0,0-0.1,0-0.1,0c-5.4-1-10.1-2.8-14.1-5.3c-6.1-3.8-10.7-9.4-13.9-16.6c-1.1-2.5-2-5.2-2.8-8.1c-0.2-0.9,0.4-1.7,1.3-1.9
				C209.9,83.9,213,83.7,216,83.9z"/>
			<path class="st3" d="M234.3,90.6c8,3.3,15.2,6.9,20.3,11.5l-8.4,1.1C242.7,97.9,238.7,93.7,234.3,90.6z"/>
			<path class="st3" d="M222,111.1c4.1,2.5,8.8,4.3,14.1,5.3l1.3,10.4C232.1,123.1,227,117.6,222,111.1z"/>
			<polygon class="st3" points="247.9,114.9 240.4,114.2 225.7,99.9 244.5,107.8 			"/>
			<path class="st3" d="M219,99.3c2.9-0.4,4.9-3,4.5-5.8c-0.4-2.9-3-4.9-5.8-4.5c-2.9,0.4-4.9,3-4.5,5.8
				C213.5,97.6,216.1,99.7,219,99.3z"/>
			<path class="st3" d="M216,83.9l-7.8,10.6c-0.4-0.3-1.2-2.4-2.8-8.1c-0.2-0.9,0.4-1.7,1.3-1.9C209.9,83.9,213,83.7,216,83.9z"/>
		</g>
		<g>
			<g>
				<path class="st3" d="M250.3,118.3c-0.1,0-0.2,0-0.3-0.1c-2-1.4-2-1.7-2-1.8c0-0.3,0.1-0.5,0.4-0.5c0.2,0,0.4,0.1,0.5,0.3
					c0.1,0.1,0.5,0.5,1.7,1.3c0.2,0.2,0.3,0.4,0.1,0.7C250.6,118.3,250.5,118.3,250.3,118.3z"/>
			</g>
			<g>
				<path class="st3" d="M529.1,190.2c-1.1,0-2.1,0-3.2-0.1c-0.3,0-0.5-0.2-0.5-0.5c0-0.3,0.2-0.5,0.5-0.5c1.6,0.1,3.2,0.1,4.7,0.1
					c0,0,0,0,0,0c0.3,0,0.5,0.2,0.5,0.5c0,0.3-0.2,0.5-0.5,0.5C530.2,190.2,529.6,190.2,529.1,190.2z M535.5,189.8
					c-0.2,0-0.5-0.2-0.5-0.4c0-0.3,0.2-0.5,0.4-0.5c1.6-0.2,3.1-0.4,4.7-0.7c0.3,0,0.5,0.1,0.6,0.4c0,0.3-0.1,0.5-0.4,0.6
					C538.7,189.4,537.1,189.7,535.5,189.8C535.5,189.8,535.5,189.8,535.5,189.8z M521.2,189.6C521.2,189.6,521.2,189.6,521.2,189.6
					c-1.6-0.2-3.2-0.5-4.8-0.8c-0.3-0.1-0.4-0.3-0.4-0.6c0.1-0.3,0.3-0.4,0.6-0.4c1.5,0.3,3.1,0.6,4.7,0.8c0.3,0,0.4,0.3,0.4,0.5
					C521.7,189.5,521.4,189.6,521.2,189.6z M544.8,188.1c-0.2,0-0.4-0.1-0.5-0.4c-0.1-0.3,0.1-0.5,0.3-0.6c1.5-0.4,3-0.9,4.5-1.4
					c0.3-0.1,0.5,0,0.6,0.3c0.1,0.2,0,0.5-0.3,0.6c-1.5,0.5-3,1-4.6,1.4C544.9,188.1,544.9,188.1,544.8,188.1z M511.9,187.7
					c0,0-0.1,0-0.1,0c-1.5-0.5-3.1-1-4.5-1.5c-0.2-0.1-0.4-0.4-0.3-0.6c0.1-0.2,0.4-0.4,0.6-0.3c1.5,0.6,3,1.1,4.5,1.5
					c0.3,0.1,0.4,0.3,0.3,0.6C512.3,187.5,512.1,187.7,511.9,187.7z M553.8,184.8c-0.2,0-0.4-0.1-0.4-0.3c-0.1-0.2,0-0.5,0.2-0.6
					c1.4-0.7,2.8-1.4,4.2-2.1c0.2-0.1,0.5,0,0.7,0.2c0.1,0.2,0,0.5-0.2,0.7c-1.4,0.8-2.8,1.5-4.3,2.2
					C553.9,184.8,553.9,184.8,553.8,184.8z M503,184.2c-0.1,0-0.1,0-0.2,0c-1.4-0.7-2.9-1.4-4.2-2.3c-0.2-0.1-0.3-0.4-0.2-0.7
					c0.1-0.2,0.4-0.3,0.7-0.2c1.4,0.8,2.8,1.5,4.2,2.2c0.2,0.1,0.3,0.4,0.2,0.6C503.4,184.1,503.2,184.2,503,184.2z M562.1,180.2
					c-0.2,0-0.3-0.1-0.4-0.2c-0.1-0.2-0.1-0.5,0.1-0.7c1.3-0.9,2.6-1.8,3.8-2.8c0.2-0.2,0.5-0.1,0.7,0.1c0.2,0.2,0.1,0.5-0.1,0.7
					c-1.2,1-2.5,2-3.9,2.9C562.3,180.2,562.2,180.2,562.1,180.2z M494.8,179.4c-0.1,0-0.2,0-0.3-0.1c-1.3-0.9-2.6-1.9-3.8-2.9
					c-0.2-0.2-0.2-0.5-0.1-0.7c0.2-0.2,0.5-0.2,0.7-0.1c1.2,1,2.5,2,3.8,2.9c0.2,0.2,0.3,0.5,0.1,0.7
					C495.1,179.4,494.9,179.4,494.8,179.4z M569.5,174.2c-0.1,0-0.3-0.1-0.3-0.1c-0.2-0.2-0.2-0.5,0-0.7c1.1-1.1,2.2-2.2,3.3-3.4
					c0.2-0.2,0.5-0.2,0.7,0c0.2,0.2,0.2,0.5,0,0.7c-1.1,1.2-2.2,2.4-3.3,3.5C569.7,174.2,569.6,174.2,569.5,174.2z M487.4,173.4
					c-0.1,0-0.2,0-0.3-0.1c-1.1-1.1-2.3-2.3-3.3-3.5c-0.2-0.2-0.2-0.5,0-0.7c0.2-0.2,0.5-0.2,0.7,0c1,1.2,2.1,2.3,3.2,3.4
					c0.2,0.2,0.2,0.5,0,0.7C487.7,173.3,487.6,173.4,487.4,173.4z M575.8,167.1c-0.1,0-0.2,0-0.3-0.1c-0.2-0.2-0.3-0.5-0.1-0.7
					c0.9-1.2,1.8-2.5,2.7-3.9c0.1-0.2,0.4-0.3,0.7-0.1c0.2,0.1,0.3,0.4,0.1,0.7c-0.9,1.4-1.8,2.7-2.7,3.9
					C576.1,167.1,576,167.1,575.8,167.1z M481.2,166.2c-0.1,0-0.3-0.1-0.4-0.2c-0.9-1.3-1.9-2.6-2.7-4c-0.1-0.2-0.1-0.5,0.2-0.7
					c0.2-0.1,0.5-0.1,0.7,0.2c0.8,1.3,1.7,2.6,2.7,3.9c0.2,0.2,0.1,0.5-0.1,0.7C481.4,166.2,481.3,166.2,481.2,166.2z M476.1,158.1
					c-0.2,0-0.3-0.1-0.4-0.3c-0.3-0.6-0.6-1.2-0.9-1.8c-0.4-0.8-0.8-1.6-1.2-2.4c-0.1-0.2,0-0.5,0.2-0.6c0.2-0.1,0.5,0,0.6,0.2
					c0.4,0.8,0.8,1.6,1.2,2.5c0.3,0.6,0.6,1.2,0.9,1.8c0.1,0.2,0,0.5-0.2,0.6C476.3,158.1,476.2,158.1,476.1,158.1z M471.8,149.6
					c-0.2,0-0.3-0.1-0.4-0.3c-0.8-1.4-1.5-2.8-2.3-4.2c-0.1-0.2-0.1-0.5,0.2-0.7c0.2-0.1,0.5-0.1,0.7,0.2c0.8,1.4,1.5,2.8,2.3,4.2
					c0.1,0.2,0,0.5-0.2,0.6C471.9,149.6,471.9,149.6,471.8,149.6z M467.1,141.4c-0.2,0-0.3-0.1-0.4-0.2c-0.8-1.4-1.7-2.7-2.5-4
					c-0.1-0.2-0.1-0.5,0.1-0.7c0.2-0.1,0.5-0.1,0.7,0.1c0.9,1.3,1.7,2.7,2.5,4c0.1,0.2,0.1,0.5-0.2,0.7
					C467.2,141.3,467.2,141.4,467.1,141.4z M461.9,133.4c-0.2,0-0.3-0.1-0.4-0.2c-0.9-1.3-1.8-2.6-2.8-3.9c-0.2-0.2-0.1-0.5,0.1-0.7
					c0.2-0.2,0.5-0.1,0.7,0.1c0.9,1.3,1.9,2.6,2.8,3.9c0.2,0.2,0.1,0.5-0.1,0.7C462.1,133.4,462,133.4,461.9,133.4z M282.7,129.1
					c-0.4,0-0.8,0-1.2,0c-0.3,0-0.5-0.2-0.5-0.5c0-0.3,0.2-0.5,0.5-0.5c1.6,0,3.2,0,4.7-0.1c0.3,0,0.5,0.2,0.5,0.4
					c0,0.3-0.2,0.5-0.4,0.5C285.1,129,283.9,129.1,282.7,129.1z M276.8,128.7C276.8,128.7,276.7,128.7,276.8,128.7
					c-1.6-0.2-3.2-0.5-4.8-0.9c-0.3-0.1-0.4-0.3-0.4-0.6c0.1-0.3,0.3-0.4,0.6-0.4c1.6,0.4,3.1,0.6,4.6,0.9c0.3,0,0.4,0.3,0.4,0.5
					C277.2,128.5,277,128.7,276.8,128.7z M291,128.2c-0.2,0-0.4-0.1-0.5-0.4c-0.1-0.3,0.1-0.5,0.4-0.6c1.5-0.4,3-0.8,4.5-1.4
					c0.2-0.1,0.5,0,0.6,0.3c0.1,0.2,0,0.5-0.3,0.6c-1.5,0.6-3,1.1-4.6,1.4C291.1,128.2,291,128.2,291,128.2z M267.5,126.6
					c0,0-0.1,0-0.1,0c-1.5-0.5-3-1-4.5-1.6c-0.2-0.1-0.4-0.4-0.3-0.6c0.1-0.2,0.4-0.4,0.6-0.3c1.5,0.6,3,1.1,4.5,1.6
					c0.3,0.1,0.4,0.3,0.3,0.6C267.9,126.4,267.7,126.6,267.5,126.6z M456.2,125.7c-0.1,0-0.3-0.1-0.4-0.2c-1-1.2-2-2.5-3-3.7
					c-0.2-0.2-0.1-0.5,0.1-0.7c0.2-0.2,0.5-0.1,0.7,0.1c1,1.2,2,2.4,3,3.7c0.2,0.2,0.1,0.5-0.1,0.7
					C456.4,125.7,456.3,125.7,456.2,125.7z M299.8,124.7c-0.2,0-0.3-0.1-0.4-0.2c-0.1-0.2-0.1-0.5,0.2-0.7c1.3-0.8,2.6-1.7,3.9-2.7
					c0.2-0.2,0.5-0.1,0.7,0.1c0.2,0.2,0.1,0.5-0.1,0.7c-1.3,1-2.6,1.9-4,2.7C300,124.7,299.9,124.7,299.8,124.7z M258.6,123
					c-0.1,0-0.1,0-0.2,0c-1.5-0.7-2.9-1.4-4.3-2.2c-0.2-0.1-0.3-0.4-0.2-0.7c0.1-0.2,0.4-0.3,0.7-0.2c1.3,0.8,2.8,1.5,4.2,2.2
					c0.2,0.1,0.3,0.4,0.2,0.6C259,122.9,258.8,123,258.6,123z M307.2,118.8c-0.1,0-0.2,0-0.3-0.1c-0.2-0.2-0.2-0.5,0-0.7
					c1.1-1.1,2.1-2.3,3-3.6c0.2-0.2,0.5-0.3,0.7-0.1c0.2,0.2,0.3,0.5,0.1,0.7c-1,1.3-2,2.5-3.1,3.7
					C307.5,118.7,307.4,118.8,307.2,118.8z M450,118.5c-0.1,0-0.3-0.1-0.4-0.2c-1.1-1.2-2.2-2.3-3.3-3.4c-0.2-0.2-0.2-0.5,0-0.7
					c0.2-0.2,0.5-0.2,0.7,0c1.1,1.1,2.2,2.3,3.3,3.5c0.2,0.2,0.2,0.5,0,0.7C450.3,118.4,450.1,118.5,450,118.5z M443.3,111.7
					c-0.1,0-0.2,0-0.3-0.1c-1.2-1.1-2.3-2.2-3.5-3.2c-0.2-0.2-0.2-0.5,0-0.7c0.2-0.2,0.5-0.2,0.7,0c1.2,1,2.4,2.1,3.6,3.2
					c0.2,0.2,0.2,0.5,0,0.7C443.6,111.6,443.5,111.7,443.3,111.7z M313.1,111.3c-0.1,0-0.2,0-0.3-0.1c-0.2-0.2-0.3-0.5-0.1-0.7
					c1-1.3,2-2.5,3-3.7c0.2-0.2,0.5-0.2,0.7-0.1c0.2,0.2,0.2,0.5,0.1,0.7c-1,1.2-2,2.4-3,3.7C313.4,111.2,313.3,111.3,313.1,111.3z
					 M436.1,105.5c-0.1,0-0.2,0-0.3-0.1c-1.2-1-2.5-2-3.8-2.9c-0.2-0.2-0.3-0.5-0.1-0.7c0.2-0.2,0.5-0.3,0.7-0.1
					c1.3,0.9,2.5,1.9,3.8,2.9c0.2,0.2,0.2,0.5,0.1,0.7C436.4,105.4,436.3,105.5,436.1,105.5z M319.3,104c-0.1,0-0.2,0-0.3-0.1
					c-0.2-0.2-0.2-0.5,0-0.7c1.1-1.1,2.3-2.3,3.4-3.3c0.2-0.2,0.5-0.2,0.7,0c0.2,0.2,0.2,0.5,0,0.7c-1.2,1.1-2.3,2.2-3.4,3.3
					C319.6,104,319.4,104,319.3,104z M428.4,99.8c-0.1,0-0.2,0-0.3-0.1c-1.3-0.9-2.7-1.7-4-2.6c-0.2-0.1-0.3-0.4-0.2-0.7
					c0.1-0.2,0.4-0.3,0.7-0.2c1.3,0.8,2.7,1.7,4,2.6c0.2,0.1,0.3,0.4,0.1,0.7C428.8,99.7,428.6,99.8,428.4,99.8z M326.4,97.6
					c-0.1,0-0.3-0.1-0.4-0.2c-0.2-0.2-0.1-0.5,0.1-0.7c1.2-1,2.5-2,3.8-2.9c0.2-0.2,0.5-0.1,0.7,0.1c0.2,0.2,0.1,0.5-0.1,0.7
					c-1.3,0.9-2.6,1.9-3.8,2.8C326.6,97.6,326.5,97.6,326.4,97.6z M420.3,94.9c-0.1,0-0.2,0-0.2-0.1c-1.4-0.8-2.8-1.5-4.2-2.2
					c-0.2-0.1-0.3-0.4-0.2-0.6c0.1-0.2,0.4-0.3,0.6-0.2c1.4,0.7,2.8,1.5,4.2,2.2c0.2,0.1,0.3,0.4,0.2,0.7
					C420.6,94.8,420.5,94.9,420.3,94.9z M334.1,92.1c-0.2,0-0.3-0.1-0.4-0.2c-0.1-0.2-0.1-0.5,0.2-0.7c1.4-0.8,2.8-1.6,4.2-2.4
					c0.2-0.1,0.5,0,0.6,0.2c0.1,0.2,0,0.5-0.2,0.6c-1.4,0.7-2.8,1.5-4.1,2.3C334.3,92.1,334.2,92.1,334.1,92.1z M411.8,90.6
					c-0.1,0-0.1,0-0.2,0c-1.4-0.6-2.9-1.3-4.4-1.8c-0.2-0.1-0.4-0.4-0.3-0.6c0.1-0.2,0.4-0.4,0.6-0.3c1.5,0.6,3,1.2,4.4,1.9
					c0.2,0.1,0.4,0.4,0.2,0.6C412.1,90.5,412,90.6,411.8,90.6z M342.6,87.7c-0.2,0-0.4-0.1-0.4-0.3c-0.1-0.2,0-0.5,0.2-0.6
					c1.5-0.7,3-1.3,4.4-1.8c0.2-0.1,0.5,0,0.6,0.3c0.1,0.2,0,0.5-0.3,0.6c-1.5,0.5-2.9,1.2-4.4,1.8
					C342.7,87.7,342.6,87.7,342.6,87.7z M402.9,87.1c-0.1,0-0.1,0-0.2,0c-1.5-0.5-3-1-4.5-1.5c-0.3-0.1-0.4-0.3-0.3-0.6
					c0.1-0.3,0.3-0.4,0.6-0.3c1.5,0.5,3.1,1,4.6,1.5c0.3,0.1,0.4,0.4,0.3,0.6C403.3,87,403.1,87.1,402.9,87.1z M393.8,84.3
					c0,0-0.1,0-0.1,0c-1.5-0.4-3.1-0.8-4.6-1.1c-0.3-0.1-0.4-0.3-0.4-0.6c0.1-0.3,0.3-0.4,0.6-0.4c1.6,0.3,3.1,0.7,4.7,1.1
					c0.3,0.1,0.4,0.3,0.3,0.6C394.2,84.2,394,84.3,393.8,84.3z M351.5,84.3c-0.2,0-0.4-0.1-0.5-0.3c-0.1-0.3,0.1-0.5,0.3-0.6
					c1.5-0.5,3.1-0.9,4.6-1.2c0.3-0.1,0.5,0.1,0.6,0.4c0.1,0.3-0.1,0.5-0.4,0.6c-1.5,0.4-3.1,0.8-4.6,1.2
					C351.6,84.3,351.5,84.3,351.5,84.3z M384.5,82.3C384.5,82.3,384.4,82.3,384.5,82.3l-0.6-0.1c-1.4-0.2-2.8-0.4-4.2-0.6
					c-0.3,0-0.5-0.3-0.4-0.5c0-0.3,0.3-0.5,0.5-0.4c1.4,0.2,2.8,0.3,4.2,0.6l0.5,0.1c0.3,0,0.4,0.3,0.4,0.6
					C384.9,82.2,384.7,82.3,384.5,82.3z M360.8,82.2c-0.2,0-0.4-0.2-0.5-0.4c0-0.3,0.1-0.5,0.4-0.6c1.6-0.3,3.2-0.5,4.8-0.6
					c0.3,0,0.5,0.2,0.5,0.4c0,0.3-0.2,0.5-0.4,0.5C364,81.7,362.4,81.9,360.8,82.2C360.8,82.2,360.8,82.2,360.8,82.2z M375,81.3
					C375,81.3,375,81.3,375,81.3c-1.6-0.1-3.2-0.1-4.8,0c0,0,0,0,0,0c-0.3,0-0.5-0.2-0.5-0.5c0-0.3,0.2-0.5,0.5-0.5
					c1.6,0,3.2,0,4.8,0c0.3,0,0.5,0.2,0.5,0.5C375.5,81.1,375.3,81.3,375,81.3z"/>
			</g>
			<g>
				<path class="st3" d="M581.1,159c-0.1,0-0.2,0-0.2-0.1c-0.2-0.1-0.3-0.4-0.2-0.7c0.4-0.7,0.8-1.4,1.1-2.1
					c0.1-0.2,0.4-0.3,0.6-0.2c0.2,0.1,0.3,0.4,0.2,0.6c-0.4,0.7-0.8,1.4-1.1,2.1C581.4,158.9,581.2,159,581.1,159z"/>
			</g>
		</g>
	</g>
	<g>
		<g>
			<g>
				<g>
					<path class="st4" d="M670.7,175.9c-9.4-3.6-0.9-7.8,5-9.4c4.8-1.3,16.7-3.5,11.9-11.7c-5.1-8.5-9.9,2-14,3.2
						c-9,2.7,0.4-8.7,2.6-11.7c3.1-4.1,9.5-12.6,1.6-14c-6.5-1.1-13.1,7.9-15.8,12.3c-1.9,3.2-6.6,18.2-11.5,14.8
						c-3.7-2.5,0.1-17.5-8.7-6.8c-3.6,4.4-3,11.4-4.6,16.3c-2.4,7.3-3.4,10.3-9.8,8.4c-3.4-1-3.5-5.2-7.6-2.3
						c-2.1,1.5-2.8,8.2-2.7,10.5c0.2,21.5,8.8,35.9,12.8,37.8c5.5,2.5,15.7-1.1,20.4-3.8c2.3-1.3,6.6-3.6,6.3-7
						c-0.3-3.8-6.2-3.3-6.4-5.5c-0.6-6.4,11.1-0.3,14.3-1.2c4.2-1.2,11.1-8.7,6.7-12.6c-0.5-0.4-18.7-1.7-8.3-7.5
						c5.8-3.2,12,5.7,17.6-0.6C688.3,176,674.2,177.2,670.7,175.9z"/>
				</g>
				<path class="st5" d="M669.1,179.3c-4-1.7-8.2-3.2-12.6-3.6c3.1-3.9,6.3-7.7,8.7-12c0.7-1.2-1.3-2-2-0.8c-0.3,0.5-0.6,1-0.9,1.5
					c-0.3-1.3,0.1-3.3,0.2-4.3c0.3-2.7,1.3-5.1,2.4-7.6c0.5-1.3-1.4-2.1-2-0.8c-1.4,3.2-2.5,6.3-2.7,9.8c-0.1,1.7-0.2,3.6,0.8,5
					c-3.3,4.9-7.5,9.5-10.9,14.3c-1.5-2.3-2.6-4.8-3.1-7.6c-0.5-3-0.2-6.1-0.5-9.2c-0.1-1.4-2.3-1.1-2.1,0.3
					c0.4,3.7-0.1,7.3,0.9,10.9c0.7,2.7,1.9,5.1,3.5,7.5c-4,5.8-7.7,11.7-10.7,18.1c-1,2.1-1.9,4.2-2.8,6.4c-2-3-3.7-6.1-4.8-9.5
					c-0.6-1.9-1.4-3.9-1.6-5.9c-0.2-1.5,0-2.9-0.6-4.4c-0.5-1.3-2.5-0.5-2,0.8c0.7,1.8,0.5,4.1,0.9,5.9c0.4,1.8,1,3.6,1.6,5.4
					c1.3,3.6,3.2,6.9,5.4,10c0,0,0.1,0.1,0.1,0.1c-1.5,3.7-3,7.5-4.6,11.1c-0.1,0.1-0.3,0.2-0.3,0.4c-0.2,0.4-0.5,1-0.6,1.5
					c-3,7.5-6,15-8.9,22.6c-0.5,1.3,1.5,2.1,2,0.8c2.9-7.5,5.9-15,8.8-22.5c0,0,0-0.1,0.1-0.1c1-2,1.8-4,2.7-6
					c3.9,1,8.2-0.1,11.9-1.6c1.3-0.5,0.5-2.5-0.8-2c-3.2,1.3-6.8,2.3-10.2,1.6c1.9-4.6,3.6-9.3,5.8-13.8c0.9-1.8,1.8-3.5,2.7-5.3
					c0.1,0.1,0.1,0.1,0.2,0.1c5.3,2.2,11.1,3,16.8,2.1c1.4-0.2,1.1-2.3-0.3-2.1c-5.3,0.8-10.7,0.1-15.6-2c0,0,0,0,0,0
					c2.9-5.1,6.2-10,9.7-14.8c0.6-0.8,1.2-1.6,1.8-2.4c0.1,0.3,0.4,0.5,0.8,0.6c4.3,0.3,8.3,1.8,12.2,3.5
					C669.5,181.8,670.4,179.8,669.1,179.3z"/>
			</g>
			<g>
				<path class="st3" d="M615.5,265.3c-3.6,2.9-8.2,6.6-11.9,9.3c-4.8,3.5-4.8,7-0.7,11.2c5.1,5.2,14.3,8,21.4,9.1
					c2.5,0.4,3,0.2,3-2.6c0-2.1-0.2-4-0.1-6.2c0.4-4.1,1-7.6,3.4-11c3.8-5.3,4.1,1.3,3,4.3c-1.3,3.6-2.1,7.4-2.1,11.3
					c-0.1,6.6,21.6-3.3,24.8-7.1c-2.5-1.9-5.4-9.7-3.4-12.7c1.7-2.7,2.4,0.3,2.8,2c0.4,2,0.6,4,1.8,5.7c5,6.9,15.3-11.4,17.3-15.2
					c2.6-5,5.5-5.7,10.7-5.9c-3.7-4.8-9-11.8-15.5-12c-3.1-0.1-5.8,2.1-8.3,3.7c-1.7,1.1-7.3,3.9-4.3-0.3c2.1-2.9,6.1-3.9,8.1-7
					c-1.7-2.1-7.4-5.9-10.2-5.3c-3.3,0.7-4.3,7.3-6.5,9.5c-2.4-4,2.2-8,3.7-11.3c-4.4-3.2-13.3-7.1-19-5.5c-8.3,2.2-0.6,13.1,1,14.8
					c1.2,1.3,3,3.7-0.1,2.7c-2.7-0.9-6.3-7-7.4-9.6c-0.6-1.3-0.7-4.9-1.8-5.7c-1.3-0.9-23.5,9-26,16.3
					C596.7,255.8,609.1,264.3,615.5,265.3z"/>
			</g>
			<g>
				<g>
					<g>
						<path class="st6" d="M707.8,190.9c-9.5,3.7-19.2,5.9-28.1,11.1c-8.5,5-16.8,10.6-24.6,16.7c-7.2,5.6-14,11.6-21.2,17.2
							c-8.4,6.5-14.3,14.5-21.5,22.1c-1.1,1.2-3.2-0.4-2-1.7c6.5-7,11.9-14.5,19.3-20.5c7.9-6.4,15.8-13,23.8-19.3
							c8.1-6.3,16.7-12.2,25.6-17.3c8.7-5,18.3-7.2,27.6-10.8C708.5,187.8,709.4,190.3,707.8,190.9L707.8,190.9z"/>
					</g>
					<path class="st6" d="M706.1,190.2c2-0.9,5.6-0.6,7.3,1c1.9,1.8,0.2,3.6-1.9,4c-2.3,0.4-4.7-0.4-7-0.9c-2.4-0.5-4.9,0.1-7.1-0.7
						c1.4-1.1,3.9-1.7,5.6-2.1c1.7-0.4,3.4-1.3,5.1-1.8"/>
					<path class="st6" d="M702,192c3.6-1.3,8.9-0.9,11.4-4.4c1.6-2.3,1.1-4.4-1.9-4.6c-2.2-0.2-4,1.3-5.5,2.8
						c-1.8,1.9-4,4.4-5.3,6.6"/>
					<path class="st6" d="M692,194.2c1.3-4.2,2.8-9.5,6.9-12c2.5-1.6,3,1.5,2.4,3.3c-1.4,4-5.3,7.4-8.8,9.5L692,194.2z"/>
					<path class="st6" d="M682.6,198.1c0.8-5.3,1.6-12,6-15.8c2.7-2.4,3.9,1.3,3.5,3.5c-1,5.1-5,9.9-8.9,13.1L682.6,198.1z"/>
					<path class="st6" d="M662.6,210.7c-0.1-5.3-0.5-12.1,3.2-16.6c2.3-2.8,4.1,0.5,4,2.8c-0.1,5.2-3.2,10.6-6.5,14.4L662.6,210.7z"
						/>
					<path class="st6" d="M646.5,223.3c-1.8-6-4.3-13.6-1.6-19.9c1.7-3.9,4.8-0.7,5.5,1.9c1.6,5.9-0.3,13.1-2.8,18.5L646.5,223.3z"
						/>
					<path class="st6" d="M669.3,205.7c1.7-5.9,3.7-13.4,9.3-17c3.5-2.2,4.2,2.1,3.4,4.6c-1.9,5.6-7.2,10.4-12.1,13.4L669.3,205.7z"
						/>
					<path class="st6" d="M692.8,196.4c3.7,2.4,8.2,5.5,13,4.8c2.9-0.4,1.3-3.1-0.3-4c-3.6-2.2-8.8-2.3-12.9-1.6L692.8,196.4z"/>
					<path class="st6" d="M671.1,204.5c4.8,1.4,10.8,3.3,15.7,1.1c3.1-1.4,0.5-3.8-1.6-4.3c-4.7-1.2-10.3,0.4-14.5,2.4L671.1,204.5z
						"/>
					<path class="st6" d="M660.2,215.1c5.1,1.5,11.5,3.5,16.8,1.1c3.3-1.5,0.5-4.1-1.7-4.6c-5-1.3-11.1,0.4-15.6,2.6L660.2,215.1z"
						/>
					<path class="st6" d="M648.8,223.8c6.8,1.7,15.4,4.1,22.6,0.6c4.5-2.1,0.9-5.4-2-6c-6.7-1.4-14.9,1.1-21.2,4.2L648.8,223.8z"/>
					<path class="st6" d="M654.9,217.1c-1.2-3.3-2.9-6.1-3.1-9.7c-0.1-3.1,1.2-5.9,3.2-8.2c0.9-1,1.8-2.4,3.3-2.5
						c2.1-0.2,1.2,2,0.8,3.3c-0.8,2.9-1.5,5.8-2,8.7c-0.3,1.6-0.6,3.1-1,4.6c-0.3,1-0.3,3-0.7,3.7"/>
					<path class="st6" d="M662,228c-3.8,0-16.1,1.2-20.9,1.3c-1.1,0.9-2.2,1.7-3.3,2.6c7.7,1.9,20.5,3.1,23.8,2.3
						c1.5-0.3,4.5-1.6,5-3.1C667.6,228.4,663.7,228,662,228z"/>
					<path class="st6" d="M651.1,246.8c-4.6-1-19.7-3.1-25.4-4.3c-1.5,0.7-3.1,1.4-4.7,2.1c8.7,4.4,23.6,9.5,27.9,9.4
						c1.8,0,5.8-0.7,6.8-2.3C657.6,248.9,653.1,247.3,651.1,246.8z"/>
					<path class="st6" d="M635.2,233.2c-0.6-2.1-5.9-8.2-3.6-19.4c0.3-1.6,0.9-3.7,2.6-4.3c2.4-0.9,2.5,1.8,2.6,3.5
						c0.1,3.3-0.3,15.8,0,18.9"/>
					<path class="st6" d="M628.9,238.7c2.3,0.7,4.6,2.1,7,2.9c2.6,0.8,16.8,3.2,21.3,2.3c2-0.4,5.8-0.3,6.2-2.7
						c0.5-2.4-2.5-3.9-4.3-4.5c-4.4-1.4-25,0-30.3,1.1"/>
					<path class="st6" d="M627,239.6c-5.4-7.7-7.6-23.6-6.2-25.2c2.9-3.5,6.5,2,7.2,4.6c1.6,5.9,0.2,19.9-0.8,20.2"/>
				</g>
			</g>
		</g>
		<g>
			<g>
				<g>
					<path class="st4" d="M80.5,179.5c9.4-3.6,0.9-7.8-5-9.4c-4.8-1.3-16.7-3.5-11.9-11.7c5.1-8.5,9.9,2,14,3.2
						c9,2.7-0.4-8.7-2.6-11.7c-3.1-4.1-9.5-12.6-1.6-14c6.5-1.1,13.1,7.9,15.8,12.3c1.9,3.2,6.6,18.2,11.5,14.8
						c3.7-2.5-0.1-17.5,8.7-6.8c3.6,4.4,3,11.4,4.6,16.3c2.4,7.3,3.4,10.3,9.8,8.4c3.4-1,3.5-5.2,7.6-2.3c2.1,1.5,2.8,8.2,2.7,10.5
						c-0.2,21.5-8.8,35.9-12.8,37.8c-5.5,2.5-15.7-1.1-20.4-3.8c-2.3-1.3-6.6-3.6-6.3-7c0.3-3.8,6.2-3.3,6.4-5.5
						c0.6-6.4-11.1-0.3-14.3-1.2c-4.2-1.2-11.1-8.7-6.7-12.6c0.5-0.4,18.7-1.7,8.3-7.5c-5.8-3.2-12,5.7-17.6-0.6
						C62.8,179.6,77,180.8,80.5,179.5z"/>
				</g>
				<path class="st5" d="M82,182.9c4-1.7,8.2-3.2,12.6-3.6c-3.1-3.9-6.3-7.7-8.7-12c-0.7-1.2,1.3-2,2-0.8c0.3,0.5,0.6,1,0.9,1.5
					c0.3-1.3-0.1-3.3-0.2-4.3c-0.3-2.7-1.3-5.1-2.4-7.6c-0.5-1.3,1.4-2.1,2-0.8c1.4,3.2,2.5,6.3,2.7,9.8c0.1,1.7,0.2,3.6-0.8,5
					c3.3,4.9,7.5,9.5,10.9,14.3c1.5-2.3,2.6-4.8,3.1-7.6c0.5-3,0.2-6.1,0.5-9.2c0.1-1.4,2.3-1.1,2.1,0.3c-0.4,3.7,0.1,7.3-0.9,10.9
					c-0.7,2.7-1.9,5.1-3.5,7.5c4,5.8,7.7,11.7,10.7,18.1c1,2.1,1.9,4.2,2.8,6.4c2-3,3.7-6.1,4.8-9.5c0.6-1.9,1.4-3.9,1.6-5.9
					c0.2-1.5,0-2.9,0.6-4.4c0.5-1.3,2.5-0.5,2,0.8c-0.7,1.8-0.5,4.1-0.9,5.9c-0.4,1.8-1,3.6-1.6,5.4c-1.3,3.6-3.2,6.9-5.4,10
					c0,0-0.1,0.1-0.1,0.1c1.5,3.7,3,7.5,4.6,11.1c0.1,0.1,0.3,0.2,0.3,0.4c0.2,0.4,0.5,1,0.6,1.5c3,7.5,6,15,8.9,22.6
					c0.5,1.3-1.5,2.1-2,0.8c-2.9-7.5-5.9-15-8.8-22.5c0,0,0-0.1-0.1-0.1c-1-2-1.8-4-2.7-6c-3.9,1-8.2-0.1-11.9-1.6
					c-1.3-0.5-0.5-2.5,0.8-2c3.2,1.3,6.8,2.3,10.2,1.6c-1.9-4.6-3.6-9.3-5.8-13.8c-0.9-1.8-1.8-3.5-2.7-5.3
					c-0.1,0.1-0.1,0.1-0.2,0.1c-5.3,2.2-11.1,3-16.8,2.1c-1.4-0.2-1.1-2.3,0.3-2.1c5.3,0.8,10.7,0.1,15.6-2c0,0,0,0,0,0
					c-2.9-5.1-6.2-10-9.7-14.8c-0.6-0.8-1.2-1.6-1.8-2.4c-0.1,0.3-0.4,0.5-0.8,0.6c-4.3,0.3-8.3,1.8-12.2,3.5
					C81.6,185.4,80.8,183.4,82,182.9z"/>
			</g>
			<g>
				<path class="st3" d="M135.6,268.9c3.6,2.9,8.2,6.6,11.9,9.3c4.8,3.5,4.8,7,0.7,11.2c-5.1,5.2-14.3,8-21.4,9.1
					c-2.5,0.4-3,0.2-3-2.6c0-2.1,0.2-4,0.1-6.2c-0.4-4.1-1-7.6-3.4-11c-3.8-5.3-4.1,1.3-3,4.3c1.3,3.6,2.1,7.4,2.1,11.3
					c0.1,6.6-21.6-3.3-24.8-7.1c2.5-1.9,5.4-9.7,3.4-12.7c-1.7-2.7-2.4,0.3-2.8,2c-0.4,2-0.6,4-1.8,5.7c-5,6.9-15.3-11.4-17.3-15.2
					c-2.6-5-5.5-5.7-10.7-5.9c3.7-4.8,9-11.8,15.5-12c3.1-0.1,5.8,2.1,8.3,3.7c1.7,1.1,7.3,3.9,4.3-0.3c-2.1-2.9-6.1-3.9-8.1-7
					c1.7-2.1,7.4-5.9,10.2-5.3c3.3,0.7,4.3,7.3,6.5,9.5c2.4-4-2.2-8-3.7-11.3c4.4-3.2,13.3-7.1,19-5.5c8.3,2.2,0.6,13.1-1,14.8
					c-1.2,1.3-3,3.7,0.1,2.7c2.7-0.9,6.3-7,7.4-9.6c0.6-1.3,0.7-4.9,1.8-5.7c1.3-0.9,23.5,9,26,16.3
					C154.5,259.4,142.1,267.9,135.6,268.9z"/>
			</g>
			<g>
				<g>
					<g>
						<path class="st6" d="M42.2,200.1c9.5,3.7,19.2,5.9,28.1,11.1c8.5,5,16.8,10.6,24.6,16.7c7.2,5.6,14,11.6,21.2,17.2
							c8.4,6.5,14.3,14.5,21.5,22.1c1.1,1.2,3.2-0.4,2-1.7c-6.5-7-11.9-14.5-19.3-20.5c-7.9-6.4-15.8-13-23.8-19.3
							c-8.1-6.3-16.7-12.2-25.6-17.3c-8.7-5-18.3-7.2-27.6-10.8C41.5,197,40.6,199.4,42.2,200.1L42.2,200.1z"/>
					</g>
					<path class="st6" d="M43.9,199.3c-2-0.9-5.6-0.6-7.3,1c-1.9,1.8-0.2,3.6,1.9,4c2.3,0.4,4.7-0.4,7-0.9c2.4-0.5,4.9,0.1,7.1-0.7
						c-1.4-1.1-3.9-1.7-5.6-2.1c-1.7-0.4-3.4-1.3-5.1-1.8"/>
					<path class="st6" d="M48,201.1c-3.6-1.3-8.9-0.9-11.4-4.4c-1.6-2.3-1.1-4.4,1.9-4.6c2.2-0.2,4,1.3,5.5,2.8
						c1.8,1.9,4,4.4,5.3,6.6"/>
					<path class="st6" d="M58,203.4c-1.3-4.2-2.8-9.5-6.9-12c-2.5-1.6-3,1.5-2.4,3.3c1.4,4,5.3,7.4,8.8,9.5L58,203.4z"/>
					<path class="st6" d="M67.4,207.3c-0.8-5.3-1.6-12-6-15.8c-2.7-2.4-3.9,1.3-3.5,3.5c1,5.1,5,9.9,8.9,13.1L67.4,207.3z"/>
					<path class="st6" d="M87.4,219.9c0.1-5.3,0.5-12.1-3.2-16.6c-2.3-2.8-4.1,0.5-4,2.8c0.1,5.2,3.2,10.6,6.5,14.4L87.4,219.9z"/>
					<path class="st6" d="M103.5,232.5c1.8-6,4.3-13.6,1.6-19.9c-1.7-3.9-4.8-0.7-5.5,1.9c-1.6,5.9,0.3,13.1,2.8,18.5L103.5,232.5z"
						/>
					<path class="st6" d="M80.7,214.8c-1.7-5.9-3.7-13.4-9.3-17c-3.5-2.2-4.2,2.1-3.4,4.6c1.9,5.6,7.2,10.4,12.1,13.4L80.7,214.8z"
						/>
					<path class="st6" d="M57.2,205.6c-3.7,2.4-8.2,5.5-13,4.8c-2.9-0.4-1.3-3.1,0.3-4c3.6-2.2,8.8-2.3,12.9-1.6L57.2,205.6z"/>
					<path class="st6" d="M78.9,213.7c-4.8,1.4-10.8,3.3-15.7,1.1c-3.1-1.4-0.5-3.8,1.6-4.3c4.7-1.2,10.3,0.4,14.5,2.4L78.9,213.7z"
						/>
					<path class="st6" d="M89.8,224.2c-5.1,1.5-11.5,3.5-16.8,1.1c-3.3-1.5-0.5-4.1,1.7-4.6c5-1.3,11.1,0.4,15.6,2.6L89.8,224.2z"/>
					<path class="st6" d="M101.2,232.9c-6.8,1.7-15.4,4.1-22.6,0.6c-4.5-2.1-0.9-5.4,2-6c6.7-1.4,14.9,1.1,21.2,4.2L101.2,232.9z"/>
					<path class="st6" d="M95.1,226.2c1.2-3.3,2.9-6.1,3.1-9.7c0.1-3.1-1.2-5.9-3.2-8.2c-0.9-1-1.8-2.4-3.3-2.5
						c-2.1-0.2-1.2,2-0.8,3.3c0.8,2.9,1.5,5.8,2,8.7c0.3,1.6,0.6,3.1,1,4.6c0.3,1,0.3,3,0.7,3.7"/>
					<path class="st6" d="M88,237.2c3.8,0,16.1,1.2,20.9,1.3c1.1,0.9,2.2,1.7,3.3,2.6c-7.7,1.9-20.5,3.1-23.8,2.3
						c-1.5-0.3-4.5-1.6-5-3.1C82.4,237.5,86.3,237.1,88,237.2z"/>
					<path class="st6" d="M98.9,256c4.6-1,19.7-3.1,25.4-4.3c1.5,0.7,3.1,1.4,4.7,2.1c-8.7,4.4-23.6,9.5-27.9,9.4
						c-1.8,0-5.8-0.7-6.8-2.3C92.4,258,96.9,256.5,98.9,256z"/>
					<path class="st6" d="M114.8,242.3c0.6-2.1,5.9-8.2,3.6-19.4c-0.3-1.6-0.9-3.7-2.6-4.3c-2.4-0.9-2.5,1.8-2.6,3.5
						c-0.1,3.3,0.3,15.8,0,18.9"/>
					<path class="st6" d="M121.1,247.9c-2.3,0.7-4.6,2.1-7,2.9c-2.6,0.8-16.8,3.2-21.3,2.3c-2-0.4-5.8-0.3-6.2-2.7
						c-0.5-2.4,2.5-3.9,4.3-4.5c4.4-1.4,25,0,30.3,1.1"/>
					<path class="st6" d="M123,248.8c5.4-7.7,7.6-23.6,6.2-25.2c-2.9-3.5-6.5,2-7.2,4.6c-1.6,5.9-0.2,19.9,0.8,20.2"/>
				</g>
			</g>
		</g>
	</g>
	<rect x="216.8" y="158.8" class="st7" width="310.1" height="206.6"/>
	<rect x="216.8" y="158.8" class="st8" width="310.1" height="13"/>
	<path class="st9" d="M504.4,136.2h-265c-12.4,0-22.5,10.1-22.5,22.5l0,0h310.1l0,0C526.9,146.3,516.8,136.2,504.4,136.2z"/>
	<rect x="116.2" y="200.3" class="st10" width="503.3" height="165.1"/>
	<path class="st11" d="M468.3,214.1H267.5c-83.6,0-151.3,67.7-151.3,151.3v0h503.3v0C619.5,281.8,551.8,214.1,468.3,214.1z"/>
	<rect x="116.2" y="200.3" class="st8" width="503.3" height="13.8"/>
	<path class="st9" d="M619.5,200.3H116.2l0,0c0-7.7,6.2-13.9,13.9-13.9h475.5C613.3,186.4,619.5,192.6,619.5,200.3L619.5,200.3z"/>
	<g>
		<rect x="253.3" y="222.9" class="st9" width="15.8" height="142.5"/>
		<rect x="263" y="222.9" class="st12" width="6.2" height="142.5"/>
		<rect x="285.1" y="222.9" class="st9" width="15.8" height="142.5"/>
		<rect x="293" y="222.9" class="st12" width="7.9" height="142.5"/>
	</g>
	<g>
		<rect x="441.5" y="222.9" class="st9" width="15.8" height="142.5"/>
		<rect x="441.5" y="222.9" class="st12" width="7.9" height="142.5"/>
		<rect x="473.2" y="222.9" class="st9" width="15.8" height="142.5"/>
		<rect x="473.2" y="222.9" class="st12" width="7.9" height="142.5"/>
	</g>
	<g>
		<path class="st13" d="M496.7,191.7v33.4c0,5.9-4.8,10.7-10.7,10.7h-230c-4.3,0-8-2.5-9.7-6.2c-0.7-1.4-1-2.9-1-4.6v-33.4
			c0-5.6,4.5-10.1,10.1-10.1h231.3c0.4,0,0.8,0,1.1,0.1C492.7,182.2,496.7,186.5,496.7,191.7z"/>
		<path class="st14" d="M496.7,191.7v33.4c0,5.9-4.8,10.7-10.7,10.7h-230c-4.3,0-8-2.5-9.7-6.2l241.5-48
			C492.7,182.2,496.7,186.5,496.7,191.7z"/>
	</g>
	<g>
		<g>
			<g>
				<path class="st3" d="M155.7,235.8H150c-10.4,0-18.8,8.4-18.8,18.8v58.5h43.2v-58.5C174.4,244.2,166,235.8,155.7,235.8z
					 M152.9,238.8c10.4,0,18.8,8.4,18.8,18.8v17.8h-37.5v-17.8C134.1,247.2,142.5,238.8,152.9,238.8z M134.1,310.1v-31.7h37.5v31.7
					H134.1z"/>
				<path class="st15" d="M171.6,257.5v17.8h-37.5v-17.8c0-10.4,8.4-18.8,18.8-18.8c5.9,0,11.2,2.7,14.6,7
					C170.1,249,171.6,253.1,171.6,257.5z"/>
				<path class="st16" d="M171.6,257.5v17.8h-37.5c0-8.2,3.3-15.6,8.7-20.9c5.4-5.4,12.8-8.7,20.9-8.7h3.8
					C170.1,249,171.6,253.1,171.6,257.5z"/>
				<rect x="134.1" y="278.5" class="st15" width="37.5" height="31.7"/>
				<path class="st16" d="M165.7,278.5h5.9v31.7h-37.5v0C134.1,292.6,148.3,278.5,165.7,278.5z"/>
			</g>
			<rect x="128.4" y="306" class="st3" width="49" height="9"/>
		</g>
		<g>
			<g>
				<path class="st3" d="M218.2,235.8h-5.7c-10.4,0-18.8,8.4-18.8,18.8v58.5h43.2v-58.5C236.9,244.2,228.5,235.8,218.2,235.8z
					 M215.3,238.8c10.4,0,18.8,8.4,18.8,18.8v17.8h-37.5v-17.8C196.6,247.2,205,238.8,215.3,238.8z M196.6,310.1v-31.7h37.5v31.7
					H196.6z"/>
				<path class="st15" d="M234.1,257.5v17.8h-37.5v-17.8c0-10.4,8.4-18.8,18.8-18.8c5.9,0,11.2,2.7,14.6,7
					C232.5,249,234.1,253.1,234.1,257.5z"/>
				<path class="st16" d="M234.1,257.5v17.8h-37.5c0-8.2,3.3-15.6,8.7-20.9c5.4-5.4,12.8-8.7,20.9-8.7h3.8
					C232.5,249,234.1,253.1,234.1,257.5z"/>
				<rect x="196.6" y="278.5" class="st15" width="37.5" height="31.7"/>
				<path class="st16" d="M228.2,278.5h5.9v31.7h-37.5v0C196.6,292.6,210.7,278.5,228.2,278.5z"/>
			</g>
			<rect x="190.8" y="306" class="st3" width="49" height="9"/>
		</g>
	</g>
	<g>
		<g>
			<g>
				<path class="st3" d="M524,235.8h-5.7c-10.4,0-18.8,8.4-18.8,18.8v58.5h43.2v-58.5C542.7,244.2,534.3,235.8,524,235.8z
					 M521.1,238.8c10.4,0,18.8,8.4,18.8,18.8v17.8h-37.5v-17.8C502.4,247.2,510.8,238.8,521.1,238.8z M502.4,310.1v-31.7h37.5v31.7
					H502.4z"/>
				<path class="st15" d="M539.9,257.5v17.8h-37.5v-17.8c0-10.4,8.4-18.8,18.8-18.8c5.9,0,11.2,2.7,14.6,7
					C538.3,249,539.9,253.1,539.9,257.5z"/>
				<path class="st16" d="M539.9,257.5v17.8h-37.5c0-8.2,3.3-15.6,8.7-20.9c5.4-5.4,12.8-8.7,20.9-8.7h3.8
					C538.3,249,539.9,253.1,539.9,257.5z"/>
				<rect x="502.4" y="278.5" class="st15" width="37.5" height="31.7"/>
				<path class="st16" d="M534,278.5h5.9v31.7h-37.5v0C502.4,292.6,516.5,278.5,534,278.5z"/>
			</g>
			<rect x="496.7" y="306" class="st3" width="49" height="9"/>
		</g>
		<g>
			<g>
				<path class="st3" d="M586.4,235.8h-5.7c-10.4,0-18.8,8.4-18.8,18.8v58.5h43.2v-58.5C605.2,244.2,596.8,235.8,586.4,235.8z
					 M583.6,238.8c10.4,0,18.8,8.4,18.8,18.8v17.8h-37.5v-17.8C564.8,247.2,573.2,238.8,583.6,238.8z M564.8,310.1v-31.7h37.5v31.7
					H564.8z"/>
				<path class="st15" d="M602.4,257.5v17.8h-37.5v-17.8c0-10.4,8.4-18.8,18.8-18.8c5.9,0,11.2,2.7,14.6,7
					C600.8,249,602.4,253.1,602.4,257.5z"/>
				<path class="st16" d="M602.4,257.5v17.8h-37.5c0-8.2,3.3-15.6,8.7-20.9c5.4-5.4,12.8-8.7,20.9-8.7h3.8
					C600.8,249,602.4,253.1,602.4,257.5z"/>
				<rect x="564.8" y="278.5" class="st15" width="37.5" height="31.7"/>
				<path class="st16" d="M596.5,278.5h5.9v31.7h-37.5v0C564.8,292.6,579,278.5,596.5,278.5z"/>
			</g>
			<rect x="559.1" y="306" class="st3" width="49" height="9"/>
		</g>
	</g>
	<g>
		<g>
			<path class="st3" d="M375,238.6L375,238.6c-23.7,0-42.9,19.2-42.9,42.9v84.4h6.8v-83.4c0-18.9,14.5-34.4,33-36v119.3h6.6V246.6
				c18.3,1.8,32.5,17.2,32.5,35.9v83.4h6.8v-84.4C417.9,257.8,398.7,238.6,375,238.6z"/>
			<path class="st15" d="M378.6,246.6v119.3h32.5v-83.4C411.1,263.7,396.8,248.3,378.6,246.6z"/>
			<path class="st16" d="M411.1,282.5v7.6L378.6,304v-38.7c0-10.9,13-16.7,21-9.2C406.7,262.6,411.1,272,411.1,282.5z"/>
			<polygon class="st16" points="378.6,326 411.1,312.1 411.1,365.9 378.6,365.9 			"/>
			<path class="st15" d="M338.9,282.5v83.4h33V246.5C353.4,248.1,338.9,263.6,338.9,282.5z"/>
		</g>
		<path class="st16" d="M371.9,267.3v39.6L338.9,321v-38.5c0-9.5,3.7-18.2,9.7-24.6C356.9,248.9,371.9,255.1,371.9,267.3z"/>
		<polygon class="st16" points="338.9,343 371.9,328.9 371.9,365.9 338.9,365.9 		"/>
	</g>
	<rect x="106.5" y="371.6" class="st8" width="537.1" height="16.3"/>
	<path class="st9" d="M635.4,364.4H114.6c-4.5,0-8.2,3.7-8.2,8.2l0,0h537.1l0,0C643.5,368.1,639.9,364.4,635.4,364.4z"/>
	<g>
		<path class="st4" d="M190.2,425.7c-1.6,4.2,2.1,4.2,10.3,4.2c1.1,0,1.9-1.2,0-1.8l-6-2.5c0,0-3.5-0.1-4.1,0L190.2,425.7z"/>
		<path class="st9" d="M175.9,363.1h18l2.7,9.6c2.6,9.2,3.9,30.1,1.9,39.4l-4,13.5h-4.1l1-6.4c1.3-13.3-3.2-37.9-10.7-49
			L175.9,363.1z"/>
		<path class="st9" d="M189.2,363.1c-7.6,19.2-17.5,46.3-34,56.6h-4.6c14.6-15.5,24.7-42,25.2-56.6H189.2z"/>
		<path class="st4" d="M150.6,419.7h4.6l1.5,4.4c0.4,1.3,1.4,2.3,2.6,2.8c0.3,0.1,0.5,0.2,0.7,0.4c0.8,0.5,0.3,1.8-0.6,1.8H157
			c-1.5,0-2.9-0.7-3.7-2l-2.7-4C150.6,422.9,149.2,421.2,150.6,419.7z"/>
		<g>
			<path class="st17" d="M189.8,317c0,0-1.4,4.8-2,8.9c-0.3,2,4.7,4.3,4.9,4.2c0.2-0.1,0.4-0.3,0.4-0.6c-0.1-2,0-5.7,1.6-8.4
				L189.8,317z"/>
			<g>
				<path class="st18" d="M187.9,319.3c1.4,2.6,4.2,4.9,6.5,4.4c2.4-0.5,4.1-3.3,4.6-5.8c0,0,0,0,0.1,0c0.3-0.1,0.7-0.2,0.7-0.4
					c0-0.3-0.3-0.5-0.6-0.7c0-0.4,0-0.2,0-0.5c-0.8-8.1-3.6-9.5-6.8-9.1c-2.4,0.3-4.7,4.1-5.2,7.4
					C186.9,314.5,186.9,319.1,187.9,319.3z"/>
				<g>
					<path class="st4" d="M196.7,319.3c-0.5-0.4-1.1-1-1-2c0-0.1,0.1-0.2,0.2-0.2c0.1,0,0.2,0.1,0.2,0.2c0,1.9,1.8,2.2,1.9,2.2
						c0.1,0,0.1,0.1,0.1,0.2c0,0.1-0.1,0.1-0.2,0.1C197.9,319.7,197.3,319.6,196.7,319.3z"/>
				</g>
				<g>
					<path class="st4" d="M197.1,316c0,0.3,0.3,0.6,0.6,0.6c0.3,0,0.6-0.3,0.6-0.6c0-0.3-0.3-0.6-0.6-0.6
						C197.4,315.4,197.1,315.7,197.1,316z"/>
				</g>
				<g>
					<path class="st4" d="M196.3,314.4C196.3,314.4,196.3,314.4,196.3,314.4c-0.1,0-0.1-0.1-0.1-0.2c0.5-0.9,1.3-0.8,1.7-0.6
						c0.1,0,0.1,0.1,0.1,0.2c0,0.1-0.1,0.1-0.2,0.1c0,0-0.9-0.4-1.3,0.5C196.5,314.4,196.4,314.4,196.3,314.4z"/>
				</g>
			</g>
			<g>
				<path class="st4" d="M199.6,308.3c-1.7-0.4-3.2-1.5-5-1.7c-3.6-0.4-8.1,1.4-8.9,5.2c-0.4,1.7-0.4,3.7,0.4,5.3
					c2.2,4.6,4.4,5.3,4.4,5.3c0-0.1,0.3-1.9,0.2-2.2c-0.2-0.4-0.8-0.9-1-1.3c-0.4-0.7-0.7-1.5-0.5-2.3c0.3-1,1.4-1.3,2-0.6
					c0.4,0.4,0.6,1.9,0.8,2.4c0.3,0.1,0.8-1.1,1-2.3c0.2-1.1,1-2,2.2-2.3c2.2-0.5,5.3-1.6,6.2-4.2
					C201.6,308.5,200.4,308.5,199.6,308.3z"/>
			</g>
		</g>
		<linearGradient id="SVGID_2_" gradientUnits="userSpaceOnUse" x1="174.6134" y1="355.4887" x2="202.9138" y2="334.4859">
			<stop  offset="0" style="stop-color:#E3808E"/>
			<stop  offset="0.2686" style="stop-color:#E38693"/>
			<stop  offset="0.6356" style="stop-color:#E398A1"/>
			<stop  offset="1" style="stop-color:#E4B0B5"/>
		</linearGradient>
		<path class="st19" d="M184.8,325.6c-5.6,5.6-1.7,23.8-8.9,37.5h18.6c2.8-17.4,5-22.5,5.6-28.8c0-0.1,0-0.1,0-0.2
			c0.4-4.9-3.2-9.2-8.1-9.8l-2.6-0.3C187.7,323.9,186,324.4,184.8,325.6z"/>
		<g>
			<g>
				<polygon class="st4" points="251.7,322.7 252.5,369.5 207.8,372.1 139.4,376 138.7,329.1 				"/>
				<path class="st20" d="M248,334.3l0.4,24c-3.7,1.5-6.6,4.7-7.6,8.5L151,372c-1.2-3.7-4.1-6.6-7.9-7.6l-0.4-24
					c3.7-1.5,6.6-4.7,7.6-8.5l89.7-5.1C241.3,330.4,244.2,333.3,248,334.3z"/>
				<g>
					<path class="st4" d="M195.8,359c-3.4-0.1-5.9-1.8-6-4.9l4-0.2c0.1,1.2,0.8,2,2,2.2l-0.1-5c-2.7-0.5-6-1.1-6-5
						c-0.1-3.1,2.4-5.3,5.8-5.7l0-2.1l1.7-0.1l0,2.1c3.3,0.1,5.6,1.7,5.9,4.8l-4,0.2c-0.1-1-0.8-1.8-1.8-2l0.1,5
						c2.8,0.6,6,1.1,6.1,5c0,2.7-2,5.3-5.9,5.8l0,2.1l-1.7,0.1L195.8,359z M195.6,347.7l-0.1-4.6c-1.2,0.3-2,1-2,2.4
						C193.5,346.8,194.4,347.4,195.6,347.7z M197.4,351.3l0.1,4.6c1.3-0.3,2.1-1.3,2.1-2.5C199.5,352.2,198.6,351.7,197.4,351.3z"/>
				</g>
				<path class="st20" d="M146.6,334c0,1.1-0.9,2-2,2.1c-1.1,0.1-2-0.8-2-1.9c0-1.1,0.9-2,2-2.1C145.7,332.1,146.6,332.9,146.6,334z
					"/>
				<path class="st20" d="M147.2,370.2c0,1.1-0.9,2-2,2.1c-1.1,0.1-2-0.8-2-1.9c0-1.1,0.9-2,2-2.1
					C146.3,368.3,147.2,369.1,147.2,370.2z"/>
				<path class="st20" d="M247.9,328.2c0,1.1-0.9,2-2,2.1c-1.1,0.1-2-0.8-2-1.9c0-1.1,0.9-2,2-2.1
					C247,326.3,247.9,327.1,247.9,328.2z"/>
				<path class="st20" d="M248.5,364.4c0,1.1-0.9,2-2,2.1c-1.1,0.1-2-0.8-2-1.9c0-1.1,0.9-2,2-2.1
					C247.5,362.5,248.5,363.3,248.5,364.4z"/>
				<path class="st4" d="M196.3,332.3c-9.6,0.5-17.2,8.7-17.1,18.3c0.2,9.6,8.1,16.9,17.6,16.3c9.6-0.5,17.2-8.7,17.1-18.3
					C213.7,339,205.8,331.7,196.3,332.3z M196.8,365.2c-8.7,0.5-15.8-6.1-15.9-14.7c-0.1-8.6,6.8-16,15.4-16.5
					c8.7-0.5,15.8,6.1,15.9,14.7C212.3,357.3,205.4,364.7,196.8,365.2z"/>
				<path class="st4" d="M234.9,346.8c0.1,3.2-2.5,5.9-5.7,6.1c-3.2,0.2-5.8-2.2-5.9-5.4c-0.1-3.2,2.5-5.9,5.7-6.1
					C232.2,341.2,234.9,343.6,234.9,346.8z"/>
				
					<ellipse transform="matrix(0.7206 -0.6933 0.6933 0.7206 -198.1782 210.0661)" class="st4" cx="161.6" cy="351" rx="5.9" ry="5.7"/>
				<path class="st4" d="M167.7,364.7l-11.8,0.7c-0.6,0-1.2-0.4-1.2-1.1l0,0c0-0.6,0.5-1.2,1.1-1.2l11.8-0.7c0.6,0,1.2,0.4,1.2,1.1
					l0,0C168.9,364.2,168.4,364.7,167.7,364.7z"/>
				<path class="st4" d="M235.3,360.9l-11.8,0.7c-0.6,0-1.2-0.4-1.2-1.1l0,0c0-0.6,0.5-1.2,1.1-1.2l11.8-0.7c0.6,0,1.2,0.4,1.2,1.1
					l0,0C236.4,360.3,235.9,360.8,235.3,360.9z"/>
				<path class="st4" d="M167.3,339.7l-11.8,0.7c-0.6,0-1.2-0.4-1.2-1.1l0,0c0-0.6,0.5-1.2,1.1-1.2l11.8-0.7c0.6,0,1.2,0.4,1.2,1.1
					l0,0C168.4,339.1,167.9,339.6,167.3,339.7z"/>
				<path class="st4" d="M234.9,335.8l-11.8,0.7c-0.6,0-1.2-0.4-1.2-1.1l0,0c0-0.6,0.5-1.2,1.1-1.2l11.8-0.7c0.6,0,1.2,0.4,1.2,1.1
					l0,0C236,335.2,235.5,335.8,234.9,335.8z"/>
			</g>
			<polygon class="st21" points="251.7,322.7 252.5,369.5 207.8,372.1 138.7,329.1 			"/>
		</g>
		<g>
			<path class="st18" d="M204.7,366.4c1.5,0.5,3.2,0.8,4.2,0.3c0.3-0.2,0.3-0.5,0-0.7c-2.7-1.5-4.2-2.3-6.1-3.4
				c-1.3-1.4-2.3-1.1-3.2-0.8l-0.3,0.1l0.7,1C201.2,364.5,202.8,365.7,204.7,366.4z"/>
			<path class="st8" d="M203.6,362c-6.6-10.5-11.3-22.2-9.7-32.5c0.2-1.3-0.2-2.7-1.2-3.7l0,0c-2.2-2.1-5.8-1.4-6.9,1.5l0,0
				c-1.2,3-1.5,6.3-0.8,9.5c1.8,8.8,8.5,18.6,15.1,26.8L203.6,362z"/>
		</g>
		<path class="st18" d="M206.5,327.6c0,2.2-1.1,4-2.5,4c-1.4,0-2.5-1.8-2.5-4c0-2.2,1.1-4,2.5-4
			C205.4,323.5,206.5,325.3,206.5,327.6z"/>
	</g>
	<g>
		<g>
			<path class="st4" d="M401.2,88c-1.4-0.5-2.9-0.7-4.3-1.3c0,0,0,0,0,0c-1.6-0.8-2.7-2.4-2.8-4.2l0-0.1c0,0-3.6,1.5-3.6,1.5
				c-1.5,0.2,2.5,7.5,2.9,8.2c2.5,5,4.8,10,6,15.5c0.1,0.2,0.2,0.5,0.4,0.5c0.1,0,0.2-0.1,0.2-0.1c1.6-1,2.7-2.3,3.7-4
				c0.4-0.6,0.7-1.3,1-2c0.2-0.4,0.3-1.4,0.7-1.6c0.3,0.7,0.1,1.2,0.1,1.8c0.6-0.7,0.8-1.6,1.2-2.4c0.4-0.9,0.9-1.9,1.2-2.9
				C408.8,92.6,405,89.3,401.2,88z"/>
		</g>
		<path class="st17" d="M395,92.5l-0.5-0.8c0,0,0,0,0,0l0,0l-2.2-3.2l-3.9,1.9c1.1,1.3,2.2,2.4,2.5,3.6c0.1,0.4,0.1,0.8-0.1,1.1
			l-1.9,3.8l3.6,1.8l4.7-6.1C396.4,93.9,395.6,93.1,395,92.5z"/>
		<path class="st22" d="M389,108.5c-1.9-2.9-1.9-6.6-0.1-9.5l0,0c1.9,0.5,3.2-0.2,4.1-2l2.1-4.4c7.8,4.1,4.2,19.5,8.3,22.2
			l-12.1,0.5c-0.1-1.1-0.3-2.2-0.9-3.4L389,108.5z"/>
		<path class="st4" d="M391.1,118c0.2-0.9,0.3-1.8,0.2-2.8l12.1-0.5c0,0.9,0.1,1.8,0.3,2.7L391.1,118z"/>
		<path class="st18" d="M384.5,118.1l-4.4,12.4l-2.7-1.5l-3.9-2.1l-1.4-0.8c-1.1-0.6-2.4-0.9-3.7-0.9c-1.4,0-2.7,0.4-3.9,1.2
			c-2.6,1.7-3.9,4.8-3.2,7.8l1,4.3l0,0.1l-8.7,11.5l-0.1,0.1c0,0.1,0,0.2,0,0.2l-2.3-1.2l10.5-27.7c2.1-5.4,8-8.5,13.5-6.7l1.6,0.6
			l6.2,2.2l0,0L384.5,118.1z"/>
		<path class="st17" d="M379.3,129.6v6.6l-4.7,0l-4.6,0c4.6,0,1,16.8,1.4,31.4v0.1c0,0,0,0.1,0.1,0.1l-2.5,0.5l-6.7-29.8l-1-4.3
			c-0.7-3,0.6-6.1,3.2-7.8c1.2-0.8,2.5-1.2,3.9-1.2c1.3,0,2.6,0.3,3.7,0.9l1.4,0.8l3.9,1.9L379.3,129.6z"/>
		<path class="st23" d="M383.2,115l-0.8,2.3l-16.2-5.6c0,0-3.2-18.1-3-18.1c0.2,0,2.4-0.1,2.4-0.1l3.2,16.2L383.2,115z"/>
		<g>
			<g>
				<path class="st18" d="M392.3,82.9c-0.2-0.4-0.4-0.8-0.7-1.1c-1.3-1.8-3.4-4.2-5.9-3.8c-2.8,0.5-4.8,2.5-3.3,9.8
					c0.1,0.3-0.2,1.4-0.1,1.7c0.1,0.2,0.5,0.2,0.7,0.2c0,0,0,0,0.1,0c1.1,2,3.3,3.4,5.5,3.2c2.1-0.2,3.5-2.5,4.1-4.4
					C393.4,86.5,393.2,84.6,392.3,82.9z"/>
				<g>
					<g>
						<path class="st4" d="M385.4,89.5c0.4-0.5,0.6-1.1,0.3-2.1c0-0.1-0.1-0.1-0.2-0.1c-0.1,0-0.1,0.1-0.1,0.2c0.6,1.6-1,2.4-1,2.4
							c-0.1,0-0.1,0.1-0.1,0.2c0,0.1,0.1,0.1,0.2,0.1C384.5,90.3,385,90,385.4,89.5z"/>
					</g>
				</g>
				<g>
					<g>
						<path class="st4" d="M384.1,86.9c0.1,0.3,0,0.6-0.3,0.6c-0.3,0.1-0.5-0.1-0.6-0.3c-0.1-0.3,0-0.6,0.3-0.6
							C383.7,86.5,384,86.6,384.1,86.9z"/>
					</g>
				</g>
				<g>
					<g>
						<path class="st4" d="M384.4,85.2C384.4,85.2,384.4,85.2,384.4,85.2c0.1-0.1,0.1-0.2,0-0.2c-0.7-0.7-1.4-0.3-1.7-0.1
							c-0.1,0.1-0.1,0.1,0,0.2c0.1,0.1,0.1,0.1,0.2,0c0,0,0.6-0.6,1.3,0.1C384.2,85.3,384.3,85.3,384.4,85.2z"/>
					</g>
				</g>
			</g>
		</g>
		<path class="st18" d="M404.3,115c-1.7,4.6-27.9-2.4-27.9-2.4l-6.9-2.5c1-2.7,4.1-2.5,7.9,0.8l22.5,0.4c0,0-0.1-0.1-0.2-0.4
			C401,111.4,402.6,112.5,404.3,115z"/>
		<path class="st8" d="M404.3,114.9C404.3,115,404.3,115,404.3,114.9c-1.7-2.5-3.3-3.6-4.6-4.1c-1.1-2.3-7-14.4-7.2-15.2
			c-0.5-1.7,1-3.6,3.2-3.2C400.8,93.6,405.6,110.9,404.3,114.9z"/>
		<path class="st6" d="M342.9,151.9c-1.1-0.2-1.5-1.6,0.4-1.7l7.8-0.8l0,0l0-0.1l2.3,1.2C353.9,154.4,350.4,153.7,342.9,151.9z"/>
		<path class="st6" d="M363.6,174.9c-1,0.4-2.2-0.4-0.6-1.6l6-5l0-0.1l2.5-0.5C374.1,171,370.8,172.2,363.6,174.9z"/>
		<g>
			<path class="st4" d="M394.3,83.7c-0.4-4-3.9-7.7-8.1-6.9c-0.3,0.1-0.7,0.2-1,0.3c-0.9,0.3-1.7,0.7-2.5,1.2
				c-0.2,0.1-0.4,0.2-0.7,0.3c-1.9,0.8-2.6,3.3-1.1,4.8c0,0,0,0,0,0c0.1,0.1,0.3,0.2,0.5,0.3c1.1,0.2,2.1,0.4,2.4,0.3
				c-0.3-0.6-0.4-1-0.4-1.7c0,0.2,0.7,0.6,0.8,0.7c0.3,0.2,0.6,0.4,0.9,0.6c0.6,0.4,1.1,0.8,1.5,1.4c0.9,1.1,1.5,2.5,2,3.8
				c0,0.1,1.3-1.5,0.9-3.7c-0.1-0.6,0.3-1.1,0.8-1c0.6,0,1.1,0.6,1.3,1.2c0.2,0.7,0.2,1.6-0.6,2c0,0,0.2,1,0.2,1.1
				c1.5,5.6,3.6,4.3,3.7,4.1c0.4-0.6-1.5-4.6-1.2-5.3C394.3,86.1,394.4,84.8,394.3,83.7z"/>
		</g>
		<path class="st9" d="M401.3,134c5.5-6.7,3.1-11.1,2.3-16.6l-12.6,0.5c-0.2,0.7-0.4,1.4-0.7,2l-5.9-1.9l-4.4,12.4l6.7,3.7
			c2,1.1,4.2,1.8,6.4,2.1h0c0.8,0.1,1.6,0.1,2.5,0.1c2.3-0.1,4.1-0.7,5.2-1.7l0,0c0,0,0,0,0,0C401,134.4,401.2,134.2,401.3,134z"/>
		<polygon class="st24" points="393.2,136.2 379.3,136.2 379.3,129.6 		"/>
	</g>
	<g>
		<g>
			<g>
				<g>
					<g>
						<path class="st6" d="M208.8,178.1v6.6c0,0.9-0.7,1.6-1.6,1.6h-53.3c-0.4,0-0.8-0.2-1.1-0.5c-0.3-0.3-0.4-0.7-0.4-1.1v-6.6
							c0-0.9,0.7-1.6,1.6-1.6h53.3C208.1,176.5,208.8,177.3,208.8,178.1z"/>
						<rect x="170.1" y="176.6" class="st6" width="30" height="9.8"/>
						<path class="st6" d="M164.5,176.6h-10.6c-0.9,0-1.6,0.7-1.6,1.6v6.6c0,0.9,0.7,1.6,1.6,1.6h10.6V176.6z"/>
						<path class="st6" d="M164.5,176.6h-10.6c-0.9,0-1.6,0.7-1.6,1.6v6.6c0,0.9,0.7,1.6,1.6,1.6h10.6V176.6z"/>
						<path class="st6" d="M207.3,176.6h-1.5v9.8h1.5c0.9,0,1.6-0.7,1.6-1.6v-6.6C208.8,177.3,208.1,176.6,207.3,176.6z"/>
					</g>
					<path class="st6" d="M208.8,178.1v6.6c0,0.9-0.7,1.6-1.6,1.6h-53.3c-0.4,0-0.8-0.2-1.1-0.5c7.2-1.6,31.7-6.5,45.9-9.3h8.6
						C208.1,176.5,208.8,177.3,208.8,178.1z"/>
				</g>
				<g>
					<g>
						<path class="st6" d="M203,168.3v6.6c0,0.9-0.7,1.6-1.6,1.6h-53.3c-0.4,0-0.8-0.2-1.1-0.5c-0.3-0.3-0.4-0.7-0.4-1.1v-6.6
							c0-0.9,0.7-1.6,1.6-1.6h53.3C202.3,166.7,203,167.4,203,168.3z"/>
						<rect x="164.2" y="166.7" class="st6" width="30" height="9.8"/>
						<path class="st6" d="M158.7,166.7h-10.6c-0.9,0-1.6,0.7-1.6,1.6v6.6c0,0.9,0.7,1.6,1.6,1.6h10.6V166.7z"/>
						<path class="st6" d="M158.7,166.7h-10.6c-0.9,0-1.6,0.7-1.6,1.6v6.6c0,0.9,0.7,1.6,1.6,1.6h10.6V166.7z"/>
						<path class="st6" d="M201.4,166.7h-1.5v9.8h1.5c0.9,0,1.6-0.7,1.6-1.6v-6.6C203,167.4,202.3,166.7,201.4,166.7z"/>
					</g>
					<path class="st6" d="M203,168.3v6.6c0,0.9-0.7,1.6-1.6,1.6h-53.3c-0.4,0-0.8-0.2-1.1-0.5c7.2-1.6,31.7-6.5,45.9-9.3h8.6
						C202.3,166.7,203,167.4,203,168.3z"/>
				</g>
				<g>
					<g>
						<path class="st6" d="M208.8,158.5v6.6c0,0.9-0.7,1.6-1.6,1.6h-53.3c-0.4,0-0.8-0.2-1.1-0.5c-0.3-0.3-0.4-0.7-0.4-1.1v-6.6
							c0-0.9,0.7-1.6,1.6-1.6h53.3C208.1,156.9,208.8,157.6,208.8,158.5z"/>
						<rect x="170.1" y="156.9" class="st6" width="30" height="9.8"/>
						<path class="st6" d="M164.5,156.9h-10.6c-0.9,0-1.6,0.7-1.6,1.6v6.6c0,0.9,0.7,1.6,1.6,1.6h10.6V156.9z"/>
						<path class="st6" d="M164.5,156.9h-10.6c-0.9,0-1.6,0.7-1.6,1.6v6.6c0,0.9,0.7,1.6,1.6,1.6h10.6V156.9z"/>
						<path class="st6" d="M207.3,156.9h-1.5v9.8h1.5c0.9,0,1.6-0.7,1.6-1.6v-6.6C208.8,157.6,208.1,156.9,207.3,156.9z"/>
					</g>
					<path class="st6" d="M208.8,158.5v6.6c0,0.9-0.7,1.6-1.6,1.6h-53.3c-0.4,0-0.8-0.2-1.1-0.5c7.2-1.6,31.7-6.5,45.9-9.3h8.6
						C208.1,156.9,208.8,157.6,208.8,158.5z"/>
				</g>
				<g>
					<g>
						<path class="st6" d="M203,148.7v6.6c0,0.9-0.7,1.6-1.6,1.6h-53.3c-0.4,0-0.8-0.2-1.1-0.5c-0.3-0.3-0.4-0.7-0.4-1.1v-6.6
							c0-0.9,0.7-1.6,1.6-1.6h53.3C202.3,147.1,203,147.8,203,148.7z"/>
						<rect x="164.2" y="147.1" class="st6" width="30" height="9.8"/>
						<path class="st6" d="M158.7,147.1h-10.6c-0.9,0-1.6,0.7-1.6,1.6v6.6c0,0.9,0.7,1.6,1.6,1.6h10.6V147.1z"/>
						<path class="st6" d="M158.7,147.1h-10.6c-0.9,0-1.6,0.7-1.6,1.6v6.6c0,0.9,0.7,1.6,1.6,1.6h10.6V147.1z"/>
						<path class="st6" d="M201.4,147.1h-1.5v9.8h1.5c0.9,0,1.6-0.7,1.6-1.6v-6.6C203,147.8,202.3,147.1,201.4,147.1z"/>
					</g>
					<path class="st6" d="M203,148.7v6.6c0,0.9-0.7,1.6-1.6,1.6h-53.3c-0.4,0-0.8-0.2-1.1-0.5c7.2-1.6,31.7-6.5,45.9-9.3h8.6
						C202.3,147.1,203,147.8,203,148.7z"/>
				</g>
				<g>
					<g>
						<path class="st6" d="M208.8,138.9v6.6c0,0.9-0.7,1.6-1.6,1.6h-53.3c-0.4,0-0.8-0.2-1.1-0.5c-0.3-0.3-0.4-0.7-0.4-1.1v-6.6
							c0-0.9,0.7-1.6,1.6-1.6h53.3C208.1,137.3,208.8,138,208.8,138.9z"/>
						<rect x="170.1" y="137.3" class="st6" width="30" height="9.8"/>
						<path class="st6" d="M164.5,137.3h-10.6c-0.9,0-1.6,0.7-1.6,1.6v6.6c0,0.9,0.7,1.6,1.6,1.6h10.6V137.3z"/>
						<path class="st6" d="M164.5,137.3h-10.6c-0.9,0-1.6,0.7-1.6,1.6v6.6c0,0.9,0.7,1.6,1.6,1.6h10.6V137.3z"/>
						<path class="st6" d="M207.3,137.3h-1.5v9.8h1.5c0.9,0,1.6-0.7,1.6-1.6v-6.6C208.8,138,208.1,137.3,207.3,137.3z"/>
					</g>
					<path class="st6" d="M208.8,138.9v6.6c0,0.9-0.7,1.6-1.6,1.6h-53.3c-0.4,0-0.8-0.2-1.1-0.5c7.2-1.6,31.7-6.5,45.9-9.3h8.6
						C208.1,137.3,208.8,138,208.8,138.9z"/>
				</g>
				<g>
					<g>
						<path class="st6" d="M203,129v6.6c0,0.9-0.7,1.6-1.6,1.6h-53.3c-0.4,0-0.8-0.2-1.1-0.5c-0.3-0.3-0.4-0.7-0.4-1.1V129
							c0-0.9,0.7-1.6,1.6-1.6h53.3C202.3,127.5,203,128.2,203,129z"/>
						<rect x="164.2" y="127.5" class="st6" width="30" height="9.8"/>
						<path class="st6" d="M158.7,127.5h-10.6c-0.9,0-1.6,0.7-1.6,1.6v6.6c0,0.9,0.7,1.6,1.6,1.6h10.6V127.5z"/>
						<path class="st6" d="M158.7,127.5h-10.6c-0.9,0-1.6,0.7-1.6,1.6v6.6c0,0.9,0.7,1.6,1.6,1.6h10.6V127.5z"/>
						<path class="st6" d="M201.4,127.5h-1.5v9.8h1.5c0.9,0,1.6-0.7,1.6-1.6V129C203,128.2,202.3,127.5,201.4,127.5z"/>
					</g>
					<path class="st6" d="M203,129v6.6c0,0.9-0.7,1.6-1.6,1.6h-53.3c-0.4,0-0.8-0.2-1.1-0.5c7.2-1.6,31.7-6.5,45.9-9.3h8.6
						C202.3,127.5,203,128.2,203,129z"/>
				</g>
				<g>
					<g>
						<path class="st6" d="M208.8,119.2v6.6c0,0.9-0.7,1.6-1.6,1.6h-53.3c-0.4,0-0.8-0.2-1.1-0.5c-0.3-0.3-0.4-0.7-0.4-1.1v-6.6
							c0-0.9,0.7-1.6,1.6-1.6h53.3C208.1,117.6,208.8,118.3,208.8,119.2z"/>
						<rect x="170.1" y="117.6" class="st6" width="30" height="9.8"/>
						<path class="st6" d="M164.5,117.6h-10.6c-0.9,0-1.6,0.7-1.6,1.6v6.6c0,0.9,0.7,1.6,1.6,1.6h10.6V117.6z"/>
						<path class="st6" d="M164.5,117.6h-10.6c-0.9,0-1.6,0.7-1.6,1.6v6.6c0,0.9,0.7,1.6,1.6,1.6h10.6V117.6z"/>
						<path class="st6" d="M207.3,117.6h-1.5v9.8h1.5c0.9,0,1.6-0.7,1.6-1.6v-6.6C208.8,118.3,208.1,117.6,207.3,117.6z"/>
					</g>
					<path class="st6" d="M208.8,119.2v6.6c0,0.9-0.7,1.6-1.6,1.6h-53.3c-0.4,0-0.8-0.2-1.1-0.5c7.2-1.6,31.7-6.5,45.9-9.3h8.6
						C208.1,117.6,208.8,118.3,208.8,119.2z"/>
				</g>
				<g>
					<path class="st25" d="M199.9,126.2l0.6,1.2c0.1,0.2,0.2,0.3,0.4,0.4l1.2,0.6c0.7,0.4,0.7,1.3,0,1.7l-1.2,0.6
						c-0.2,0.1-0.3,0.2-0.4,0.4l-0.6,1.2c-0.4,0.7-1.3,0.7-1.7,0l-0.6-1.2c-0.1-0.2-0.2-0.3-0.4-0.4l-1.2-0.6
						c-0.7-0.4-0.7-1.3,0-1.7l1.2-0.6c0.2-0.1,0.3-0.2,0.4-0.4l0.6-1.2C198.6,125.5,199.5,125.5,199.9,126.2z"/>
					<path class="st25" d="M154.7,144.1l0.6,1.2c0.1,0.2,0.2,0.3,0.4,0.4l1.2,0.6c0.7,0.4,0.7,1.3,0,1.7l-1.2,0.6
						c-0.2,0.1-0.3,0.2-0.4,0.4l-0.6,1.2c-0.4,0.7-1.3,0.7-1.7,0l-0.6-1.2c-0.1-0.2-0.2-0.3-0.4-0.4l-1.2-0.6
						c-0.7-0.4-0.7-1.3,0-1.7l1.2-0.6c0.2-0.1,0.3-0.2,0.4-0.4l0.6-1.2C153.4,143.4,154.3,143.4,154.7,144.1z"/>
					<path class="st25" d="M196.4,173.6l0.6,1.2c0.1,0.2,0.2,0.3,0.4,0.4l1.2,0.6c0.7,0.4,0.7,1.3,0,1.7l-1.2,0.6
						c-0.2,0.1-0.3,0.2-0.4,0.4l-0.6,1.2c-0.4,0.7-1.3,0.7-1.7,0l-0.6-1.2c-0.1-0.2-0.2-0.3-0.4-0.4l-1.2-0.6
						c-0.7-0.4-0.7-1.3,0-1.7l1.2-0.6c0.2-0.1,0.3-0.2,0.4-0.4l0.6-1.2C195.1,172.9,196,172.9,196.4,173.6z"/>
				</g>
			</g>
		</g>
		<g>
			<g>
				<g>
					<g>
						<path class="st6" d="M599.2,178.1v6.6c0,0.9-0.7,1.6-1.6,1.6h-53.3c-0.4,0-0.8-0.2-1.1-0.5c-0.3-0.3-0.4-0.7-0.4-1.1v-6.6
							c0-0.9,0.7-1.6,1.6-1.6h53.3C598.5,176.5,599.2,177.3,599.2,178.1z"/>
						<rect x="560.5" y="176.6" class="st6" width="30" height="9.8"/>
						<path class="st6" d="M554.9,176.6h-10.6c-0.9,0-1.6,0.7-1.6,1.6v6.6c0,0.9,0.7,1.6,1.6,1.6h10.6V176.6z"/>
						<path class="st6" d="M554.9,176.6h-10.6c-0.9,0-1.6,0.7-1.6,1.6v6.6c0,0.9,0.7,1.6,1.6,1.6h10.6V176.6z"/>
						<path class="st6" d="M597.6,176.6h-1.5v9.8h1.5c0.9,0,1.6-0.7,1.6-1.6v-6.6C599.2,177.3,598.5,176.6,597.6,176.6z"/>
					</g>
					<path class="st6" d="M599.2,178.1v6.6c0,0.9-0.7,1.6-1.6,1.6h-53.3c-0.4,0-0.8-0.2-1.1-0.5c7.2-1.6,31.7-6.5,45.9-9.3h8.6
						C598.5,176.5,599.2,177.3,599.2,178.1z"/>
				</g>
				<g>
					<g>
						<path class="st6" d="M593.4,168.3v6.6c0,0.9-0.7,1.6-1.6,1.6h-53.3c-0.4,0-0.8-0.2-1.1-0.5c-0.3-0.3-0.4-0.7-0.4-1.1v-6.6
							c0-0.9,0.7-1.6,1.6-1.6h53.3C592.7,166.7,593.4,167.4,593.4,168.3z"/>
						<rect x="554.6" y="166.7" class="st6" width="30" height="9.8"/>
						<path class="st6" d="M549.1,166.7h-10.6c-0.9,0-1.6,0.7-1.6,1.6v6.6c0,0.9,0.7,1.6,1.6,1.6h10.6V166.7z"/>
						<path class="st6" d="M549.1,166.7h-10.6c-0.9,0-1.6,0.7-1.6,1.6v6.6c0,0.9,0.7,1.6,1.6,1.6h10.6V166.7z"/>
						<path class="st6" d="M591.8,166.7h-1.5v9.8h1.5c0.9,0,1.6-0.7,1.6-1.6v-6.6C593.4,167.4,592.7,166.7,591.8,166.7z"/>
					</g>
					<path class="st6" d="M593.4,168.3v6.6c0,0.9-0.7,1.6-1.6,1.6h-53.3c-0.4,0-0.8-0.2-1.1-0.5c7.2-1.6,31.7-6.5,45.9-9.3h8.6
						C592.7,166.7,593.4,167.4,593.4,168.3z"/>
				</g>
				<g>
					<g>
						<path class="st6" d="M599.2,158.5v6.6c0,0.9-0.7,1.6-1.6,1.6h-53.3c-0.4,0-0.8-0.2-1.1-0.5c-0.3-0.3-0.4-0.7-0.4-1.1v-6.6
							c0-0.9,0.7-1.6,1.6-1.6h53.3C598.5,156.9,599.2,157.6,599.2,158.5z"/>
						<rect x="560.5" y="156.9" class="st6" width="30" height="9.8"/>
						<path class="st6" d="M554.9,156.9h-10.6c-0.9,0-1.6,0.7-1.6,1.6v6.6c0,0.9,0.7,1.6,1.6,1.6h10.6V156.9z"/>
						<path class="st6" d="M554.9,156.9h-10.6c-0.9,0-1.6,0.7-1.6,1.6v6.6c0,0.9,0.7,1.6,1.6,1.6h10.6V156.9z"/>
						<path class="st6" d="M597.6,156.9h-1.5v9.8h1.5c0.9,0,1.6-0.7,1.6-1.6v-6.6C599.2,157.6,598.5,156.9,597.6,156.9z"/>
					</g>
					<path class="st6" d="M599.2,158.5v6.6c0,0.9-0.7,1.6-1.6,1.6h-53.3c-0.4,0-0.8-0.2-1.1-0.5c7.2-1.6,31.7-6.5,45.9-9.3h8.6
						C598.5,156.9,599.2,157.6,599.2,158.5z"/>
				</g>
				<g>
					<g>
						<path class="st6" d="M593.4,148.7v6.6c0,0.9-0.7,1.6-1.6,1.6h-53.3c-0.4,0-0.8-0.2-1.1-0.5c-0.3-0.3-0.4-0.7-0.4-1.1v-6.6
							c0-0.9,0.7-1.6,1.6-1.6h53.3C592.7,147.1,593.4,147.8,593.4,148.7z"/>
						<rect x="554.6" y="147.1" class="st6" width="30" height="9.8"/>
						<path class="st6" d="M549.1,147.1h-10.6c-0.9,0-1.6,0.7-1.6,1.6v6.6c0,0.9,0.7,1.6,1.6,1.6h10.6V147.1z"/>
						<path class="st6" d="M549.1,147.1h-10.6c-0.9,0-1.6,0.7-1.6,1.6v6.6c0,0.9,0.7,1.6,1.6,1.6h10.6V147.1z"/>
						<path class="st6" d="M591.8,147.1h-1.5v9.8h1.5c0.9,0,1.6-0.7,1.6-1.6v-6.6C593.4,147.8,592.7,147.1,591.8,147.1z"/>
					</g>
					<path class="st6" d="M593.4,148.7v6.6c0,0.9-0.7,1.6-1.6,1.6h-53.3c-0.4,0-0.8-0.2-1.1-0.5c7.2-1.6,31.7-6.5,45.9-9.3h8.6
						C592.7,147.1,593.4,147.8,593.4,148.7z"/>
				</g>
				<g>
					<g>
						<path class="st6" d="M599.2,138.9v6.6c0,0.9-0.7,1.6-1.6,1.6h-53.3c-0.4,0-0.8-0.2-1.1-0.5c-0.3-0.3-0.4-0.7-0.4-1.1v-6.6
							c0-0.9,0.7-1.6,1.6-1.6h53.3C598.5,137.3,599.2,138,599.2,138.9z"/>
						<rect x="560.5" y="137.3" class="st6" width="30" height="9.8"/>
						<path class="st6" d="M554.9,137.3h-10.6c-0.9,0-1.6,0.7-1.6,1.6v6.6c0,0.9,0.7,1.6,1.6,1.6h10.6V137.3z"/>
						<path class="st6" d="M554.9,137.3h-10.6c-0.9,0-1.6,0.7-1.6,1.6v6.6c0,0.9,0.7,1.6,1.6,1.6h10.6V137.3z"/>
						<path class="st6" d="M597.6,137.3h-1.5v9.8h1.5c0.9,0,1.6-0.7,1.6-1.6v-6.6C599.2,138,598.5,137.3,597.6,137.3z"/>
					</g>
					<path class="st6" d="M599.2,138.9v6.6c0,0.9-0.7,1.6-1.6,1.6h-53.3c-0.4,0-0.8-0.2-1.1-0.5c7.2-1.6,31.7-6.5,45.9-9.3h8.6
						C598.5,137.3,599.2,138,599.2,138.9z"/>
				</g>
				<g>
					<g>
						<path class="st6" d="M593.4,129v6.6c0,0.9-0.7,1.6-1.6,1.6h-53.3c-0.4,0-0.8-0.2-1.1-0.5c-0.3-0.3-0.4-0.7-0.4-1.1V129
							c0-0.9,0.7-1.6,1.6-1.6h53.3C592.7,127.5,593.4,128.2,593.4,129z"/>
						<rect x="554.6" y="127.5" class="st6" width="30" height="9.8"/>
						<path class="st6" d="M549.1,127.5h-10.6c-0.9,0-1.6,0.7-1.6,1.6v6.6c0,0.9,0.7,1.6,1.6,1.6h10.6V127.5z"/>
						<path class="st6" d="M549.1,127.5h-10.6c-0.9,0-1.6,0.7-1.6,1.6v6.6c0,0.9,0.7,1.6,1.6,1.6h10.6V127.5z"/>
						<path class="st6" d="M591.8,127.5h-1.5v9.8h1.5c0.9,0,1.6-0.7,1.6-1.6V129C593.4,128.2,592.7,127.5,591.8,127.5z"/>
					</g>
					<path class="st6" d="M593.4,129v6.6c0,0.9-0.7,1.6-1.6,1.6h-53.3c-0.4,0-0.8-0.2-1.1-0.5c7.2-1.6,31.7-6.5,45.9-9.3h8.6
						C592.7,127.5,593.4,128.2,593.4,129z"/>
				</g>
				<g>
					<g>
						<path class="st6" d="M599.2,119.2v6.6c0,0.9-0.7,1.6-1.6,1.6h-53.3c-0.4,0-0.8-0.2-1.1-0.5c-0.3-0.3-0.4-0.7-0.4-1.1v-6.6
							c0-0.9,0.7-1.6,1.6-1.6h53.3C598.5,117.6,599.2,118.3,599.2,119.2z"/>
						<rect x="560.5" y="117.6" class="st6" width="30" height="9.8"/>
						<path class="st6" d="M554.9,117.6h-10.6c-0.9,0-1.6,0.7-1.6,1.6v6.6c0,0.9,0.7,1.6,1.6,1.6h10.6V117.6z"/>
						<path class="st6" d="M554.9,117.6h-10.6c-0.9,0-1.6,0.7-1.6,1.6v6.6c0,0.9,0.7,1.6,1.6,1.6h10.6V117.6z"/>
						<path class="st6" d="M597.6,117.6h-1.5v9.8h1.5c0.9,0,1.6-0.7,1.6-1.6v-6.6C599.2,118.3,598.5,117.6,597.6,117.6z"/>
					</g>
					<path class="st6" d="M599.2,119.2v6.6c0,0.9-0.7,1.6-1.6,1.6h-53.3c-0.4,0-0.8-0.2-1.1-0.5c7.2-1.6,31.7-6.5,45.9-9.3h8.6
						C598.5,117.6,599.2,118.3,599.2,119.2z"/>
				</g>
				<g>
					<path class="st25" d="M590.3,126.2l0.6,1.2c0.1,0.2,0.2,0.3,0.4,0.4l1.2,0.6c0.7,0.4,0.7,1.3,0,1.7l-1.2,0.6
						c-0.2,0.1-0.3,0.2-0.4,0.4l-0.6,1.2c-0.4,0.7-1.3,0.7-1.7,0L588,131c-0.1-0.2-0.2-0.3-0.4-0.4l-1.2-0.6c-0.7-0.4-0.7-1.3,0-1.7
						l1.2-0.6c0.2-0.1,0.3-0.2,0.4-0.4l0.6-1.2C589,125.5,589.9,125.5,590.3,126.2z"/>
					<path class="st25" d="M545.1,144.1l0.6,1.2c0.1,0.2,0.2,0.3,0.4,0.4l1.2,0.6c0.7,0.4,0.7,1.3,0,1.7l-1.2,0.6
						c-0.2,0.1-0.3,0.2-0.4,0.4l-0.6,1.2c-0.4,0.7-1.3,0.7-1.7,0l-0.6-1.2c-0.1-0.2-0.2-0.3-0.4-0.4l-1.2-0.6
						c-0.7-0.4-0.7-1.3,0-1.7l1.2-0.6c0.2-0.1,0.3-0.2,0.4-0.4l0.6-1.2C543.8,143.4,544.7,143.4,545.1,144.1z"/>
					<path class="st25" d="M586.8,173.6l0.6,1.2c0.1,0.2,0.2,0.3,0.4,0.4l1.2,0.6c0.7,0.4,0.7,1.3,0,1.7l-1.2,0.6
						c-0.2,0.1-0.3,0.2-0.4,0.4l-0.6,1.2c-0.4,0.7-1.3,0.7-1.7,0l-0.6-1.2c-0.1-0.2-0.2-0.3-0.4-0.4l-1.2-0.6
						c-0.7-0.4-0.7-1.3,0-1.7l1.2-0.6c0.2-0.1,0.3-0.2,0.4-0.4l0.6-1.2C585.5,172.9,586.4,172.9,586.8,173.6z"/>
				</g>
			</g>
		</g>
		<g>
			<g>
				<g>
					<g>
						<g>
							<path class="st6" d="M695.8,404.9v6.6c0,0.9-0.7,1.6-1.6,1.6h-53.3c-0.4,0-0.8-0.2-1.1-0.5c-0.3-0.3-0.4-0.7-0.4-1.1v-6.6
								c0-0.9,0.7-1.6,1.6-1.6h53.3C695.1,403.3,695.8,404,695.8,404.9z"/>
							<rect x="657.1" y="403.3" class="st6" width="30" height="9.8"/>
							<path class="st6" d="M651.5,403.3h-10.6c-0.9,0-1.6,0.7-1.6,1.6v6.6c0,0.9,0.7,1.6,1.6,1.6h10.6V403.3z"/>
							<path class="st6" d="M651.5,403.3h-10.6c-0.9,0-1.6,0.7-1.6,1.6v6.6c0,0.9,0.7,1.6,1.6,1.6h10.6V403.3z"/>
							<path class="st6" d="M694.3,403.3h-1.5v9.8h1.5c0.9,0,1.6-0.7,1.6-1.6v-6.6C695.8,404,695.1,403.3,694.3,403.3z"/>
						</g>
						<path class="st6" d="M695.8,404.9v6.6c0,0.9-0.7,1.6-1.6,1.6h-53.3c-0.4,0-0.8-0.2-1.1-0.5c7.2-1.6,31.7-6.5,45.9-9.3h8.6
							C695.1,403.3,695.8,404,695.8,404.9z"/>
					</g>
					<g>
						<g>
							<path class="st6" d="M690,395.1v6.6c0,0.9-0.7,1.6-1.6,1.6h-53.3c-0.4,0-0.8-0.2-1.1-0.5c-0.3-0.3-0.4-0.7-0.4-1.1v-6.6
								c0-0.9,0.7-1.6,1.6-1.6h53.3C689.3,393.5,690,394.2,690,395.1z"/>
							<rect x="651.2" y="393.5" class="st6" width="30" height="9.8"/>
							<path class="st6" d="M645.7,393.5h-10.6c-0.9,0-1.6,0.7-1.6,1.6v6.6c0,0.9,0.7,1.6,1.6,1.6h10.6V393.5z"/>
							<path class="st6" d="M645.7,393.5h-10.6c-0.9,0-1.6,0.7-1.6,1.6v6.6c0,0.9,0.7,1.6,1.6,1.6h10.6V393.5z"/>
							<path class="st6" d="M688.4,393.5h-1.5v9.8h1.5c0.9,0,1.6-0.7,1.6-1.6v-6.6C690,394.2,689.3,393.5,688.4,393.5z"/>
						</g>
						<path class="st6" d="M690,395.1v6.6c0,0.9-0.7,1.6-1.6,1.6h-53.3c-0.4,0-0.8-0.2-1.1-0.5c7.2-1.6,31.7-6.5,45.9-9.3h8.6
							C689.3,393.5,690,394.2,690,395.1z"/>
					</g>
					<g>
						<g>
							<path class="st6" d="M695.8,385.3v6.6c0,0.9-0.7,1.6-1.6,1.6h-53.3c-0.4,0-0.8-0.2-1.1-0.5c-0.3-0.3-0.4-0.7-0.4-1.1v-6.6
								c0-0.9,0.7-1.6,1.6-1.6h53.3C695.1,383.7,695.8,384.4,695.8,385.3z"/>
							<rect x="657.1" y="383.7" class="st6" width="30" height="9.8"/>
							<path class="st6" d="M651.5,383.7h-10.6c-0.9,0-1.6,0.7-1.6,1.6v6.6c0,0.9,0.7,1.6,1.6,1.6h10.6V383.7z"/>
							<path class="st6" d="M651.5,383.7h-10.6c-0.9,0-1.6,0.7-1.6,1.6v6.6c0,0.9,0.7,1.6,1.6,1.6h10.6V383.7z"/>
							<path class="st6" d="M694.3,383.7h-1.5v9.8h1.5c0.9,0,1.6-0.7,1.6-1.6v-6.6C695.8,384.4,695.1,383.7,694.3,383.7z"/>
						</g>
						<path class="st6" d="M695.8,385.3v6.6c0,0.9-0.7,1.6-1.6,1.6h-53.3c-0.4,0-0.8-0.2-1.1-0.5c7.2-1.6,31.7-6.5,45.9-9.3h8.6
							C695.1,383.7,695.8,384.4,695.8,385.3z"/>
					</g>
					<g>
						<g>
							<path class="st6" d="M690,375.4v6.6c0,0.9-0.7,1.6-1.6,1.6h-53.3c-0.4,0-0.8-0.2-1.1-0.5c-0.3-0.3-0.4-0.7-0.4-1.1v-6.6
								c0-0.9,0.7-1.6,1.6-1.6h53.3C689.3,373.8,690,374.6,690,375.4z"/>
							<rect x="651.2" y="373.9" class="st6" width="30" height="9.8"/>
							<path class="st6" d="M645.7,373.9h-10.6c-0.9,0-1.6,0.7-1.6,1.6v6.6c0,0.9,0.7,1.6,1.6,1.6h10.6V373.9z"/>
							<path class="st6" d="M645.7,373.9h-10.6c-0.9,0-1.6,0.7-1.6,1.6v6.6c0,0.9,0.7,1.6,1.6,1.6h10.6V373.9z"/>
							<path class="st6" d="M688.4,373.9h-1.5v9.8h1.5c0.9,0,1.6-0.7,1.6-1.6v-6.6C690,374.6,689.3,373.9,688.4,373.9z"/>
						</g>
						<path class="st6" d="M690,375.4v6.6c0,0.9-0.7,1.6-1.6,1.6h-53.3c-0.4,0-0.8-0.2-1.1-0.5c7.2-1.6,31.7-6.5,45.9-9.3h8.6
							C689.3,373.8,690,374.6,690,375.4z"/>
					</g>
					<g>
						<g>
							<path class="st6" d="M695.8,365.6v6.6c0,0.9-0.7,1.6-1.6,1.6h-53.3c-0.4,0-0.8-0.2-1.1-0.5c-0.3-0.3-0.4-0.7-0.4-1.1v-6.6
								c0-0.9,0.7-1.6,1.6-1.6h53.3C695.1,364,695.8,364.7,695.8,365.6z"/>
							<rect x="657.1" y="364" class="st6" width="30" height="9.8"/>
							<path class="st6" d="M651.5,364h-10.6c-0.9,0-1.6,0.7-1.6,1.6v6.6c0,0.9,0.7,1.6,1.6,1.6h10.6V364z"/>
							<path class="st6" d="M651.5,364h-10.6c-0.9,0-1.6,0.7-1.6,1.6v6.6c0,0.9,0.7,1.6,1.6,1.6h10.6V364z"/>
							<path class="st6" d="M694.3,364h-1.5v9.8h1.5c0.9,0,1.6-0.7,1.6-1.6v-6.6C695.8,364.7,695.1,364,694.3,364z"/>
						</g>
						<path class="st6" d="M695.8,365.6v6.6c0,0.9-0.7,1.6-1.6,1.6h-53.3c-0.4,0-0.8-0.2-1.1-0.5c7.2-1.6,31.7-6.5,45.9-9.3h8.6
							C695.1,364,695.8,364.7,695.8,365.6z"/>
					</g>
					<g>
						<g>
							<path class="st6" d="M690,355.8v6.6c0,0.9-0.7,1.6-1.6,1.6h-53.3c-0.4,0-0.8-0.2-1.1-0.5c-0.3-0.3-0.4-0.7-0.4-1.1v-6.6
								c0-0.9,0.7-1.6,1.6-1.6h53.3C689.3,354.2,690,354.9,690,355.8z"/>
							<rect x="651.2" y="354.2" class="st6" width="30" height="9.8"/>
							<path class="st6" d="M645.7,354.2h-10.6c-0.9,0-1.6,0.7-1.6,1.6v6.6c0,0.9,0.7,1.6,1.6,1.6h10.6V354.2z"/>
							<path class="st6" d="M645.7,354.2h-10.6c-0.9,0-1.6,0.7-1.6,1.6v6.6c0,0.9,0.7,1.6,1.6,1.6h10.6V354.2z"/>
							<path class="st6" d="M688.4,354.2h-1.5v9.8h1.5c0.9,0,1.6-0.7,1.6-1.6v-6.6C690,354.9,689.3,354.2,688.4,354.2z"/>
						</g>
						<path class="st6" d="M690,355.8v6.6c0,0.9-0.7,1.6-1.6,1.6h-53.3c-0.4,0-0.8-0.2-1.1-0.5c7.2-1.6,31.7-6.5,45.9-9.3h8.6
							C689.3,354.2,690,354.9,690,355.8z"/>
					</g>
					<g>
						<g>
							<path class="st6" d="M695.8,346v6.6c0,0.9-0.7,1.6-1.6,1.6h-53.3c-0.4,0-0.8-0.2-1.1-0.5c-0.3-0.3-0.4-0.7-0.4-1.1V346
								c0-0.9,0.7-1.6,1.6-1.6h53.3C695.1,344.4,695.8,345.1,695.8,346z"/>
							<rect x="657.1" y="344.4" class="st6" width="30" height="9.8"/>
							<path class="st6" d="M651.5,344.4h-10.6c-0.9,0-1.6,0.7-1.6,1.6v6.6c0,0.9,0.7,1.6,1.6,1.6h10.6V344.4z"/>
							<path class="st6" d="M651.5,344.4h-10.6c-0.9,0-1.6,0.7-1.6,1.6v6.6c0,0.9,0.7,1.6,1.6,1.6h10.6V344.4z"/>
							<path class="st6" d="M694.3,344.4h-1.5v9.8h1.5c0.9,0,1.6-0.7,1.6-1.6V346C695.8,345.1,695.1,344.4,694.3,344.4z"/>
						</g>
						<path class="st6" d="M695.8,346v6.6c0,0.9-0.7,1.6-1.6,1.6h-53.3c-0.4,0-0.8-0.2-1.1-0.5c7.2-1.6,31.7-6.5,45.9-9.3h8.6
							C695.1,344.4,695.8,345.1,695.8,346z"/>
					</g>
					<g>
						<path class="st25" d="M686.9,352.9l0.6,1.2c0.1,0.2,0.2,0.3,0.4,0.4l1.2,0.6c0.7,0.4,0.7,1.3,0,1.7l-1.2,0.6
							c-0.2,0.1-0.3,0.2-0.4,0.4l-0.6,1.2c-0.4,0.7-1.3,0.7-1.7,0l-0.6-1.2c-0.1-0.2-0.2-0.3-0.4-0.4l-1.2-0.6
							c-0.7-0.4-0.7-1.3,0-1.7l1.2-0.6c0.2-0.1,0.3-0.2,0.4-0.4l0.6-1.2C685.6,352.3,686.5,352.3,686.9,352.9z"/>
						<path class="st25" d="M641.7,370.9l0.6,1.2c0.1,0.2,0.2,0.3,0.4,0.4l1.2,0.6c0.7,0.4,0.7,1.3,0,1.7l-1.2,0.6
							c-0.2,0.1-0.3,0.2-0.4,0.4l-0.6,1.2c-0.4,0.7-1.3,0.7-1.7,0l-0.6-1.2c-0.1-0.2-0.2-0.3-0.4-0.4l-1.2-0.6
							c-0.7-0.4-0.7-1.3,0-1.7l1.2-0.6c0.2-0.1,0.3-0.2,0.4-0.4l0.6-1.2C640.4,370.2,641.3,370.2,641.7,370.9z"/>
						<path class="st25" d="M683.4,400.3l0.6,1.2c0.1,0.2,0.2,0.3,0.4,0.4l1.2,0.6c0.7,0.4,0.7,1.3,0,1.7l-1.2,0.6
							c-0.2,0.1-0.3,0.2-0.4,0.4l-0.6,1.2c-0.4,0.7-1.3,0.7-1.7,0l-0.6-1.2c-0.1-0.2-0.2-0.3-0.4-0.4l-1.2-0.6
							c-0.7-0.4-0.7-1.3,0-1.7l1.2-0.6c0.2-0.1,0.3-0.2,0.4-0.4l0.6-1.2C682.1,399.7,683,399.7,683.4,400.3z"/>
					</g>
				</g>
			</g>
			<g>
				<g>
					<g>
						<g>
							<path class="st6" d="M688.3,337v6.6c0,0.9-0.7,1.6-1.6,1.6h-53.3c-0.4,0-0.8-0.2-1.1-0.5c-0.3-0.3-0.4-0.7-0.4-1.1V337
								c0-0.9,0.7-1.6,1.6-1.6h53.3C687.6,335.4,688.3,336.1,688.3,337z"/>
							<rect x="649.5" y="335.4" class="st6" width="30" height="9.8"/>
							<path class="st6" d="M644,335.4h-10.6c-0.9,0-1.6,0.7-1.6,1.6v6.6c0,0.9,0.7,1.6,1.6,1.6H644V335.4z"/>
							<path class="st6" d="M644,335.4h-10.6c-0.9,0-1.6,0.7-1.6,1.6v6.6c0,0.9,0.7,1.6,1.6,1.6H644V335.4z"/>
							<path class="st6" d="M686.7,335.4h-1.5v9.8h1.5c0.9,0,1.6-0.7,1.6-1.6V337C688.3,336.1,687.6,335.4,686.7,335.4z"/>
						</g>
						<path class="st6" d="M688.3,337v6.6c0,0.9-0.7,1.6-1.6,1.6h-53.3c-0.4,0-0.8-0.2-1.1-0.5c7.2-1.6,31.7-6.5,45.9-9.3h8.6
							C687.6,335.4,688.3,336.1,688.3,337z"/>
					</g>
					<g>
						<g>
							<path class="st6" d="M682.4,327.1v6.6c0,0.9-0.7,1.6-1.6,1.6h-53.3c-0.4,0-0.8-0.2-1.1-0.5c-0.3-0.3-0.4-0.7-0.4-1.1v-6.6
								c0-0.9,0.7-1.6,1.6-1.6h53.3C681.7,325.5,682.4,326.3,682.4,327.1z"/>
							<rect x="643.7" y="325.6" class="st6" width="30" height="9.8"/>
							<path class="st6" d="M638.1,325.6h-10.6c-0.9,0-1.6,0.7-1.6,1.6v6.6c0,0.9,0.7,1.6,1.6,1.6h10.6V325.6z"/>
							<path class="st6" d="M638.1,325.6h-10.6c-0.9,0-1.6,0.7-1.6,1.6v6.6c0,0.9,0.7,1.6,1.6,1.6h10.6V325.6z"/>
							<path class="st6" d="M680.8,325.6h-1.5v9.8h1.5c0.9,0,1.6-0.7,1.6-1.6v-6.6C682.4,326.3,681.7,325.6,680.8,325.6z"/>
						</g>
						<path class="st6" d="M682.4,327.1v6.6c0,0.9-0.7,1.6-1.6,1.6h-53.3c-0.4,0-0.8-0.2-1.1-0.5c7.2-1.6,31.7-6.5,45.9-9.3h8.6
							C681.7,325.5,682.4,326.3,682.4,327.1z"/>
					</g>
					<g>
						<g>
							<path class="st6" d="M688.3,317.3v6.6c0,0.9-0.7,1.6-1.6,1.6h-53.3c-0.4,0-0.8-0.2-1.1-0.5c-0.3-0.3-0.4-0.7-0.4-1.1v-6.6
								c0-0.9,0.7-1.6,1.6-1.6h53.3C687.6,315.7,688.3,316.4,688.3,317.3z"/>
							<rect x="649.5" y="315.7" class="st6" width="30" height="9.8"/>
							<path class="st6" d="M644,315.7h-10.6c-0.9,0-1.6,0.7-1.6,1.6v6.6c0,0.9,0.7,1.6,1.6,1.6H644V315.7z"/>
							<path class="st6" d="M644,315.7h-10.6c-0.9,0-1.6,0.7-1.6,1.6v6.6c0,0.9,0.7,1.6,1.6,1.6H644V315.7z"/>
							<path class="st6" d="M686.7,315.7h-1.5v9.8h1.5c0.9,0,1.6-0.7,1.6-1.6v-6.6C688.3,316.4,687.6,315.7,686.7,315.7z"/>
						</g>
						<path class="st6" d="M688.3,317.3v6.6c0,0.9-0.7,1.6-1.6,1.6h-53.3c-0.4,0-0.8-0.2-1.1-0.5c7.2-1.6,31.7-6.5,45.9-9.3h8.6
							C687.6,315.7,688.3,316.4,688.3,317.3z"/>
					</g>
					<g>
						<g>
							<path class="st6" d="M682.4,307.5v6.6c0,0.9-0.7,1.6-1.6,1.6h-53.3c-0.4,0-0.8-0.2-1.1-0.5c-0.3-0.3-0.4-0.7-0.4-1.1v-6.6
								c0-0.9,0.7-1.6,1.6-1.6h53.3C681.7,305.9,682.4,306.6,682.4,307.5z"/>
							<rect x="643.7" y="305.9" class="st6" width="30" height="9.8"/>
							<path class="st6" d="M638.1,305.9h-10.6c-0.9,0-1.6,0.7-1.6,1.6v6.6c0,0.9,0.7,1.6,1.6,1.6h10.6V305.9z"/>
							<path class="st6" d="M638.1,305.9h-10.6c-0.9,0-1.6,0.7-1.6,1.6v6.6c0,0.9,0.7,1.6,1.6,1.6h10.6V305.9z"/>
							<path class="st6" d="M680.8,305.9h-1.5v9.8h1.5c0.9,0,1.6-0.7,1.6-1.6v-6.6C682.4,306.6,681.7,305.9,680.8,305.9z"/>
						</g>
						<path class="st6" d="M682.4,307.5v6.6c0,0.9-0.7,1.6-1.6,1.6h-53.3c-0.4,0-0.8-0.2-1.1-0.5c7.2-1.6,31.7-6.5,45.9-9.3h8.6
							C681.7,305.9,682.4,306.6,682.4,307.5z"/>
					</g>
					<g>
						<g>
							<path class="st6" d="M688.3,297.7v6.6c0,0.9-0.7,1.6-1.6,1.6h-53.3c-0.4,0-0.8-0.2-1.1-0.5c-0.3-0.3-0.4-0.7-0.4-1.1v-6.6
								c0-0.9,0.7-1.6,1.6-1.6h53.3C687.6,296.1,688.3,296.8,688.3,297.7z"/>
							<rect x="649.5" y="296.1" class="st6" width="30" height="9.8"/>
							<path class="st6" d="M644,296.1h-10.6c-0.9,0-1.6,0.7-1.6,1.6v6.6c0,0.9,0.7,1.6,1.6,1.6H644V296.1z"/>
							<path class="st6" d="M644,296.1h-10.6c-0.9,0-1.6,0.7-1.6,1.6v6.6c0,0.9,0.7,1.6,1.6,1.6H644V296.1z"/>
							<path class="st6" d="M686.7,296.1h-1.5v9.8h1.5c0.9,0,1.6-0.7,1.6-1.6v-6.6C688.3,296.8,687.6,296.1,686.7,296.1z"/>
						</g>
						<path class="st6" d="M688.3,297.7v6.6c0,0.9-0.7,1.6-1.6,1.6h-53.3c-0.4,0-0.8-0.2-1.1-0.5c7.2-1.6,31.7-6.5,45.9-9.3h8.6
							C687.6,296.1,688.3,296.8,688.3,297.7z"/>
					</g>
					<g>
						<g>
							<path class="st6" d="M682.4,287.9v6.6c0,0.9-0.7,1.6-1.6,1.6h-53.3c-0.4,0-0.8-0.2-1.1-0.5c-0.3-0.3-0.4-0.7-0.4-1.1v-6.6
								c0-0.9,0.7-1.6,1.6-1.6h53.3C681.7,286.3,682.4,287,682.4,287.9z"/>
							<rect x="643.7" y="286.3" class="st6" width="30" height="9.8"/>
							<path class="st6" d="M638.1,286.3h-10.6c-0.9,0-1.6,0.7-1.6,1.6v6.6c0,0.9,0.7,1.6,1.6,1.6h10.6V286.3z"/>
							<path class="st6" d="M638.1,286.3h-10.6c-0.9,0-1.6,0.7-1.6,1.6v6.6c0,0.9,0.7,1.6,1.6,1.6h10.6V286.3z"/>
							<path class="st6" d="M680.8,286.3h-1.5v9.8h1.5c0.9,0,1.6-0.7,1.6-1.6v-6.6C682.4,287,681.7,286.3,680.8,286.3z"/>
						</g>
						<path class="st6" d="M682.4,287.9v6.6c0,0.9-0.7,1.6-1.6,1.6h-53.3c-0.4,0-0.8-0.2-1.1-0.5c7.2-1.6,31.7-6.5,45.9-9.3h8.6
							C681.7,286.3,682.4,287,682.4,287.9z"/>
					</g>
					<g>
						<g>
							<path class="st6" d="M688.3,278v6.6c0,0.9-0.7,1.6-1.6,1.6h-53.3c-0.4,0-0.8-0.2-1.1-0.5c-0.3-0.3-0.4-0.7-0.4-1.1V278
								c0-0.9,0.7-1.6,1.6-1.6h53.3C687.6,276.5,688.3,277.2,688.3,278z"/>
							<rect x="649.5" y="276.5" class="st6" width="30" height="9.8"/>
							<path class="st6" d="M644,276.5h-10.6c-0.9,0-1.6,0.7-1.6,1.6v6.6c0,0.9,0.7,1.6,1.6,1.6H644V276.5z"/>
							<path class="st6" d="M644,276.5h-10.6c-0.9,0-1.6,0.7-1.6,1.6v6.6c0,0.9,0.7,1.6,1.6,1.6H644V276.5z"/>
							<path class="st6" d="M686.7,276.5h-1.5v9.8h1.5c0.9,0,1.6-0.7,1.6-1.6V278C688.3,277.2,687.6,276.5,686.7,276.5z"/>
						</g>
						<path class="st6" d="M688.3,278v6.6c0,0.9-0.7,1.6-1.6,1.6h-53.3c-0.4,0-0.8-0.2-1.1-0.5c7.2-1.6,31.7-6.5,45.9-9.3h8.6
							C687.6,276.5,688.3,277.2,688.3,278z"/>
					</g>
					<g>
						<path class="st25" d="M679.3,285l0.6,1.2c0.1,0.2,0.2,0.3,0.4,0.4l1.2,0.6c0.7,0.4,0.7,1.3,0,1.7l-1.2,0.6
							c-0.2,0.1-0.3,0.2-0.4,0.4l-0.6,1.2c-0.4,0.7-1.3,0.7-1.7,0l-0.6-1.2c-0.1-0.2-0.2-0.3-0.4-0.4l-1.2-0.6
							c-0.7-0.4-0.7-1.3,0-1.7l1.2-0.6c0.2-0.1,0.3-0.2,0.4-0.4l0.6-1.2C678,284.3,679,284.3,679.3,285z"/>
						<path class="st25" d="M634.1,302.9l0.6,1.2c0.1,0.2,0.2,0.3,0.4,0.4l1.2,0.6c0.7,0.4,0.7,1.3,0,1.7l-1.2,0.6
							c-0.2,0.1-0.3,0.2-0.4,0.4l-0.6,1.2c-0.4,0.7-1.3,0.7-1.7,0l-0.6-1.2c-0.1-0.2-0.2-0.3-0.4-0.4l-1.2-0.6
							c-0.7-0.4-0.7-1.3,0-1.7l1.2-0.6c0.2-0.1,0.3-0.2,0.4-0.4l0.6-1.2C632.8,302.3,633.7,302.3,634.1,302.9z"/>
						<path class="st25" d="M675.8,332.4l0.6,1.2c0.1,0.2,0.2,0.3,0.4,0.4l1.2,0.6c0.7,0.4,0.7,1.3,0,1.7l-1.2,0.6
							c-0.2,0.1-0.3,0.2-0.4,0.4l-0.6,1.2c-0.4,0.7-1.3,0.7-1.7,0l-0.6-1.2c-0.1-0.2-0.2-0.3-0.4-0.4l-1.2-0.6
							c-0.7-0.4-0.7-1.3,0-1.7l1.2-0.6c0.2-0.1,0.3-0.2,0.4-0.4l0.6-1.2C674.5,331.7,675.5,331.7,675.8,332.4z"/>
					</g>
				</g>
			</g>
		</g>
		<g>
			<g>
				<g>
					<g>
						<g>
							<path class="st6" d="M115.1,404.9v6.6c0,0.9-0.7,1.6-1.6,1.6H60.2c-0.4,0-0.8-0.2-1.1-0.5c-0.3-0.3-0.4-0.7-0.4-1.1v-6.6
								c0-0.9,0.7-1.6,1.6-1.6h53.3C114.4,403.3,115.1,404,115.1,404.9z"/>
							<rect x="76.4" y="403.3" class="st6" width="30" height="9.8"/>
							<path class="st6" d="M70.8,403.3H60.2c-0.9,0-1.6,0.7-1.6,1.6v6.6c0,0.9,0.7,1.6,1.6,1.6h10.6V403.3z"/>
							<path class="st6" d="M70.8,403.3H60.2c-0.9,0-1.6,0.7-1.6,1.6v6.6c0,0.9,0.7,1.6,1.6,1.6h10.6V403.3z"/>
							<path class="st6" d="M113.5,403.3h-1.5v9.8h1.5c0.9,0,1.6-0.7,1.6-1.6v-6.6C115.1,404,114.4,403.3,113.5,403.3z"/>
						</g>
						<path class="st6" d="M115.1,404.9v6.6c0,0.9-0.7,1.6-1.6,1.6H60.2c-0.4,0-0.8-0.2-1.1-0.5c7.2-1.6,31.7-6.5,45.9-9.3h8.6
							C114.4,403.3,115.1,404,115.1,404.9z"/>
					</g>
					<g>
						<g>
							<path class="st6" d="M109.3,395.1v6.6c0,0.9-0.7,1.6-1.6,1.6H54.4c-0.4,0-0.8-0.2-1.1-0.5c-0.3-0.3-0.4-0.7-0.4-1.1v-6.6
								c0-0.9,0.7-1.6,1.6-1.6h53.3C108.6,393.5,109.3,394.2,109.3,395.1z"/>
							<rect x="70.5" y="393.5" class="st6" width="30" height="9.8"/>
							<path class="st6" d="M65,393.5H54.4c-0.9,0-1.6,0.7-1.6,1.6v6.6c0,0.9,0.7,1.6,1.6,1.6H65V393.5z"/>
							<path class="st6" d="M65,393.5H54.4c-0.9,0-1.6,0.7-1.6,1.6v6.6c0,0.9,0.7,1.6,1.6,1.6H65V393.5z"/>
							<path class="st6" d="M107.7,393.5h-1.5v9.8h1.5c0.9,0,1.6-0.7,1.6-1.6v-6.6C109.3,394.2,108.6,393.5,107.7,393.5z"/>
						</g>
						<path class="st6" d="M109.3,395.1v6.6c0,0.9-0.7,1.6-1.6,1.6H54.4c-0.4,0-0.8-0.2-1.1-0.5c7.2-1.6,31.7-6.5,45.9-9.3h8.6
							C108.6,393.5,109.3,394.2,109.3,395.1z"/>
					</g>
					<g>
						<g>
							<path class="st6" d="M115.1,385.3v6.6c0,0.9-0.7,1.6-1.6,1.6H60.2c-0.4,0-0.8-0.2-1.1-0.5c-0.3-0.3-0.4-0.7-0.4-1.1v-6.6
								c0-0.9,0.7-1.6,1.6-1.6h53.3C114.4,383.7,115.1,384.4,115.1,385.3z"/>
							<rect x="76.4" y="383.7" class="st6" width="30" height="9.8"/>
							<path class="st6" d="M70.8,383.7H60.2c-0.9,0-1.6,0.7-1.6,1.6v6.6c0,0.9,0.7,1.6,1.6,1.6h10.6V383.7z"/>
							<path class="st6" d="M70.8,383.7H60.2c-0.9,0-1.6,0.7-1.6,1.6v6.6c0,0.9,0.7,1.6,1.6,1.6h10.6V383.7z"/>
							<path class="st6" d="M113.5,383.7h-1.5v9.8h1.5c0.9,0,1.6-0.7,1.6-1.6v-6.6C115.1,384.4,114.4,383.7,113.5,383.7z"/>
						</g>
						<path class="st6" d="M115.1,385.3v6.6c0,0.9-0.7,1.6-1.6,1.6H60.2c-0.4,0-0.8-0.2-1.1-0.5c7.2-1.6,31.7-6.5,45.9-9.3h8.6
							C114.4,383.7,115.1,384.4,115.1,385.3z"/>
					</g>
					<g>
						<g>
							<path class="st6" d="M109.3,375.4v6.6c0,0.9-0.7,1.6-1.6,1.6H54.4c-0.4,0-0.8-0.2-1.1-0.5c-0.3-0.3-0.4-0.7-0.4-1.1v-6.6
								c0-0.9,0.7-1.6,1.6-1.6h53.3C108.6,373.8,109.3,374.6,109.3,375.4z"/>
							<rect x="70.5" y="373.9" class="st6" width="30" height="9.8"/>
							<path class="st6" d="M65,373.9H54.4c-0.9,0-1.6,0.7-1.6,1.6v6.6c0,0.9,0.7,1.6,1.6,1.6H65V373.9z"/>
							<path class="st6" d="M65,373.9H54.4c-0.9,0-1.6,0.7-1.6,1.6v6.6c0,0.9,0.7,1.6,1.6,1.6H65V373.9z"/>
							<path class="st6" d="M107.7,373.9h-1.5v9.8h1.5c0.9,0,1.6-0.7,1.6-1.6v-6.6C109.3,374.6,108.6,373.9,107.7,373.9z"/>
						</g>
						<path class="st6" d="M109.3,375.4v6.6c0,0.9-0.7,1.6-1.6,1.6H54.4c-0.4,0-0.8-0.2-1.1-0.5c7.2-1.6,31.7-6.5,45.9-9.3h8.6
							C108.6,373.8,109.3,374.6,109.3,375.4z"/>
					</g>
					<g>
						<g>
							<path class="st6" d="M115.1,365.6v6.6c0,0.9-0.7,1.6-1.6,1.6H60.2c-0.4,0-0.8-0.2-1.1-0.5c-0.3-0.3-0.4-0.7-0.4-1.1v-6.6
								c0-0.9,0.7-1.6,1.6-1.6h53.3C114.4,364,115.1,364.7,115.1,365.6z"/>
							<rect x="76.4" y="364" class="st6" width="30" height="9.8"/>
							<path class="st6" d="M70.8,364H60.2c-0.9,0-1.6,0.7-1.6,1.6v6.6c0,0.9,0.7,1.6,1.6,1.6h10.6V364z"/>
							<path class="st6" d="M70.8,364H60.2c-0.9,0-1.6,0.7-1.6,1.6v6.6c0,0.9,0.7,1.6,1.6,1.6h10.6V364z"/>
							<path class="st6" d="M113.5,364h-1.5v9.8h1.5c0.9,0,1.6-0.7,1.6-1.6v-6.6C115.1,364.7,114.4,364,113.5,364z"/>
						</g>
						<path class="st6" d="M115.1,365.6v6.6c0,0.9-0.7,1.6-1.6,1.6H60.2c-0.4,0-0.8-0.2-1.1-0.5c7.2-1.6,31.7-6.5,45.9-9.3h8.6
							C114.4,364,115.1,364.7,115.1,365.6z"/>
					</g>
					<g>
						<g>
							<path class="st6" d="M109.3,355.8v6.6c0,0.9-0.7,1.6-1.6,1.6H54.4c-0.4,0-0.8-0.2-1.1-0.5c-0.3-0.3-0.4-0.7-0.4-1.1v-6.6
								c0-0.9,0.7-1.6,1.6-1.6h53.3C108.6,354.2,109.3,354.9,109.3,355.8z"/>
							<rect x="70.5" y="354.2" class="st6" width="30" height="9.8"/>
							<path class="st6" d="M65,354.2H54.4c-0.9,0-1.6,0.7-1.6,1.6v6.6c0,0.9,0.7,1.6,1.6,1.6H65V354.2z"/>
							<path class="st6" d="M65,354.2H54.4c-0.9,0-1.6,0.7-1.6,1.6v6.6c0,0.9,0.7,1.6,1.6,1.6H65V354.2z"/>
							<path class="st6" d="M107.7,354.2h-1.5v9.8h1.5c0.9,0,1.6-0.7,1.6-1.6v-6.6C109.3,354.9,108.6,354.2,107.7,354.2z"/>
						</g>
						<path class="st6" d="M109.3,355.8v6.6c0,0.9-0.7,1.6-1.6,1.6H54.4c-0.4,0-0.8-0.2-1.1-0.5c7.2-1.6,31.7-6.5,45.9-9.3h8.6
							C108.6,354.2,109.3,354.9,109.3,355.8z"/>
					</g>
					<g>
						<g>
							<path class="st6" d="M115.1,346v6.6c0,0.9-0.7,1.6-1.6,1.6H60.2c-0.4,0-0.8-0.2-1.1-0.5c-0.3-0.3-0.4-0.7-0.4-1.1V346
								c0-0.9,0.7-1.6,1.6-1.6h53.3C114.4,344.4,115.1,345.1,115.1,346z"/>
							<rect x="76.4" y="344.4" class="st6" width="30" height="9.8"/>
							<path class="st6" d="M70.8,344.4H60.2c-0.9,0-1.6,0.7-1.6,1.6v6.6c0,0.9,0.7,1.6,1.6,1.6h10.6V344.4z"/>
							<path class="st6" d="M70.8,344.4H60.2c-0.9,0-1.6,0.7-1.6,1.6v6.6c0,0.9,0.7,1.6,1.6,1.6h10.6V344.4z"/>
							<path class="st6" d="M113.5,344.4h-1.5v9.8h1.5c0.9,0,1.6-0.7,1.6-1.6V346C115.1,345.1,114.4,344.4,113.5,344.4z"/>
						</g>
						<path class="st6" d="M115.1,346v6.6c0,0.9-0.7,1.6-1.6,1.6H60.2c-0.4,0-0.8-0.2-1.1-0.5c7.2-1.6,31.7-6.5,45.9-9.3h8.6
							C114.4,344.4,115.1,345.1,115.1,346z"/>
					</g>
					<g>
						<path class="st25" d="M106.2,352.9l0.6,1.2c0.1,0.2,0.2,0.3,0.4,0.4l1.2,0.6c0.7,0.4,0.7,1.3,0,1.7l-1.2,0.6
							c-0.2,0.1-0.3,0.2-0.4,0.4l-0.6,1.2c-0.4,0.7-1.3,0.7-1.7,0l-0.6-1.2c-0.1-0.2-0.2-0.3-0.4-0.4l-1.2-0.6
							c-0.7-0.4-0.7-1.3,0-1.7l1.2-0.6c0.2-0.1,0.3-0.2,0.4-0.4l0.6-1.2C104.9,352.3,105.8,352.3,106.2,352.9z"/>
						<path class="st25" d="M61,370.9l0.6,1.2c0.1,0.2,0.2,0.3,0.4,0.4l1.2,0.6c0.7,0.4,0.7,1.3,0,1.7l-1.2,0.6
							c-0.2,0.1-0.3,0.2-0.4,0.4l-0.6,1.2c-0.4,0.7-1.3,0.7-1.7,0l-0.6-1.2c-0.1-0.2-0.2-0.3-0.4-0.4l-1.2-0.6
							c-0.7-0.4-0.7-1.3,0-1.7l1.2-0.6c0.2-0.1,0.3-0.2,0.4-0.4l0.6-1.2C59.7,370.2,60.6,370.2,61,370.9z"/>
						<path class="st25" d="M102.7,400.3l0.6,1.2c0.1,0.2,0.2,0.3,0.4,0.4l1.2,0.6c0.7,0.4,0.7,1.3,0,1.7l-1.2,0.6
							c-0.2,0.1-0.3,0.2-0.4,0.4l-0.6,1.2c-0.4,0.7-1.3,0.7-1.7,0l-0.6-1.2c-0.1-0.2-0.2-0.3-0.4-0.4l-1.2-0.6
							c-0.7-0.4-0.7-1.3,0-1.7l1.2-0.6c0.2-0.1,0.3-0.2,0.4-0.4l0.6-1.2C101.4,399.7,102.3,399.7,102.7,400.3z"/>
					</g>
				</g>
			</g>
			<g>
				<g>
					<g>
						<g>
							<path class="st6" d="M107.6,337v6.6c0,0.9-0.7,1.6-1.6,1.6H52.7c-0.4,0-0.8-0.2-1.1-0.5c-0.3-0.3-0.4-0.7-0.4-1.1V337
								c0-0.9,0.7-1.6,1.6-1.6H106C106.9,335.4,107.6,336.1,107.6,337z"/>
							<rect x="68.8" y="335.4" class="st6" width="30" height="9.8"/>
							<path class="st6" d="M63.2,335.4H52.6c-0.9,0-1.6,0.7-1.6,1.6v6.6c0,0.9,0.7,1.6,1.6,1.6h10.6V335.4z"/>
							<path class="st6" d="M63.2,335.4H52.6c-0.9,0-1.6,0.7-1.6,1.6v6.6c0,0.9,0.7,1.6,1.6,1.6h10.6V335.4z"/>
							<path class="st6" d="M106,335.4h-1.5v9.8h1.5c0.9,0,1.6-0.7,1.6-1.6V337C107.6,336.1,106.8,335.4,106,335.4z"/>
						</g>
						<path class="st6" d="M107.6,337v6.6c0,0.9-0.7,1.6-1.6,1.6H52.7c-0.4,0-0.8-0.2-1.1-0.5c7.2-1.6,31.7-6.5,45.9-9.3h8.6
							C106.9,335.4,107.6,336.1,107.6,337z"/>
					</g>
					<g>
						<g>
							<path class="st6" d="M101.7,327.1v6.6c0,0.9-0.7,1.6-1.6,1.6H46.8c-0.4,0-0.8-0.2-1.1-0.5c-0.3-0.3-0.4-0.7-0.4-1.1v-6.6
								c0-0.9,0.7-1.6,1.6-1.6h53.3C101,325.5,101.7,326.3,101.7,327.1z"/>
							<rect x="63" y="325.6" class="st6" width="30" height="9.8"/>
							<path class="st6" d="M57.4,325.6H46.8c-0.9,0-1.6,0.7-1.6,1.6v6.6c0,0.9,0.7,1.6,1.6,1.6h10.6V325.6z"/>
							<path class="st6" d="M57.4,325.6H46.8c-0.9,0-1.6,0.7-1.6,1.6v6.6c0,0.9,0.7,1.6,1.6,1.6h10.6V325.6z"/>
							<path class="st6" d="M100.1,325.6h-1.5v9.8h1.5c0.9,0,1.6-0.7,1.6-1.6v-6.6C101.7,326.3,101,325.6,100.1,325.6z"/>
						</g>
						<path class="st6" d="M101.7,327.1v6.6c0,0.9-0.7,1.6-1.6,1.6H46.8c-0.4,0-0.8-0.2-1.1-0.5c7.2-1.6,31.7-6.5,45.9-9.3h8.6
							C101,325.5,101.7,326.3,101.7,327.1z"/>
					</g>
					<g>
						<g>
							<path class="st6" d="M107.6,317.3v6.6c0,0.9-0.7,1.6-1.6,1.6H52.7c-0.4,0-0.8-0.2-1.1-0.5c-0.3-0.3-0.4-0.7-0.4-1.1v-6.6
								c0-0.9,0.7-1.6,1.6-1.6H106C106.9,315.7,107.6,316.4,107.6,317.3z"/>
							<rect x="68.8" y="315.7" class="st6" width="30" height="9.8"/>
							<path class="st6" d="M63.2,315.7H52.6c-0.9,0-1.6,0.7-1.6,1.6v6.6c0,0.9,0.7,1.6,1.6,1.6h10.6V315.7z"/>
							<path class="st6" d="M63.2,315.7H52.6c-0.9,0-1.6,0.7-1.6,1.6v6.6c0,0.9,0.7,1.6,1.6,1.6h10.6V315.7z"/>
							<path class="st6" d="M106,315.7h-1.5v9.8h1.5c0.9,0,1.6-0.7,1.6-1.6v-6.6C107.6,316.4,106.8,315.7,106,315.7z"/>
						</g>
						<path class="st6" d="M107.6,317.3v6.6c0,0.9-0.7,1.6-1.6,1.6H52.7c-0.4,0-0.8-0.2-1.1-0.5c7.2-1.6,31.7-6.5,45.9-9.3h8.6
							C106.9,315.7,107.6,316.4,107.6,317.3z"/>
					</g>
					<g>
						<g>
							<path class="st6" d="M101.7,307.5v6.6c0,0.9-0.7,1.6-1.6,1.6H46.8c-0.4,0-0.8-0.2-1.1-0.5c-0.3-0.3-0.4-0.7-0.4-1.1v-6.6
								c0-0.9,0.7-1.6,1.6-1.6h53.3C101,305.9,101.7,306.6,101.7,307.5z"/>
							<rect x="63" y="305.9" class="st6" width="30" height="9.8"/>
							<path class="st6" d="M57.4,305.9H46.8c-0.9,0-1.6,0.7-1.6,1.6v6.6c0,0.9,0.7,1.6,1.6,1.6h10.6V305.9z"/>
							<path class="st6" d="M57.4,305.9H46.8c-0.9,0-1.6,0.7-1.6,1.6v6.6c0,0.9,0.7,1.6,1.6,1.6h10.6V305.9z"/>
							<path class="st6" d="M100.1,305.9h-1.5v9.8h1.5c0.9,0,1.6-0.7,1.6-1.6v-6.6C101.7,306.6,101,305.9,100.1,305.9z"/>
						</g>
						<path class="st6" d="M101.7,307.5v6.6c0,0.9-0.7,1.6-1.6,1.6H46.8c-0.4,0-0.8-0.2-1.1-0.5c7.2-1.6,31.7-6.5,45.9-9.3h8.6
							C101,305.9,101.7,306.6,101.7,307.5z"/>
					</g>
					<g>
						<g>
							<path class="st6" d="M107.6,297.7v6.6c0,0.9-0.7,1.6-1.6,1.6H52.7c-0.4,0-0.8-0.2-1.1-0.5c-0.3-0.3-0.4-0.7-0.4-1.1v-6.6
								c0-0.9,0.7-1.6,1.6-1.6H106C106.9,296.1,107.6,296.8,107.6,297.7z"/>
							<rect x="68.8" y="296.1" class="st6" width="30" height="9.8"/>
							<path class="st6" d="M63.2,296.1H52.6c-0.9,0-1.6,0.7-1.6,1.6v6.6c0,0.9,0.7,1.6,1.6,1.6h10.6V296.1z"/>
							<path class="st6" d="M63.2,296.1H52.6c-0.9,0-1.6,0.7-1.6,1.6v6.6c0,0.9,0.7,1.6,1.6,1.6h10.6V296.1z"/>
							<path class="st6" d="M106,296.1h-1.5v9.8h1.5c0.9,0,1.6-0.7,1.6-1.6v-6.6C107.6,296.8,106.8,296.1,106,296.1z"/>
						</g>
						<path class="st6" d="M107.6,297.7v6.6c0,0.9-0.7,1.6-1.6,1.6H52.7c-0.4,0-0.8-0.2-1.1-0.5c7.2-1.6,31.7-6.5,45.9-9.3h8.6
							C106.9,296.1,107.6,296.8,107.6,297.7z"/>
					</g>
					<g>
						<g>
							<path class="st6" d="M101.7,287.9v6.6c0,0.9-0.7,1.6-1.6,1.6H46.8c-0.4,0-0.8-0.2-1.1-0.5c-0.3-0.3-0.4-0.7-0.4-1.1v-6.6
								c0-0.9,0.7-1.6,1.6-1.6h53.3C101,286.3,101.7,287,101.7,287.9z"/>
							<rect x="63" y="286.3" class="st6" width="30" height="9.8"/>
							<path class="st6" d="M57.4,286.3H46.8c-0.9,0-1.6,0.7-1.6,1.6v6.6c0,0.9,0.7,1.6,1.6,1.6h10.6V286.3z"/>
							<path class="st6" d="M57.4,286.3H46.8c-0.9,0-1.6,0.7-1.6,1.6v6.6c0,0.9,0.7,1.6,1.6,1.6h10.6V286.3z"/>
							<path class="st6" d="M100.1,286.3h-1.5v9.8h1.5c0.9,0,1.6-0.7,1.6-1.6v-6.6C101.7,287,101,286.3,100.1,286.3z"/>
						</g>
						<path class="st6" d="M101.7,287.9v6.6c0,0.9-0.7,1.6-1.6,1.6H46.8c-0.4,0-0.8-0.2-1.1-0.5c7.2-1.6,31.7-6.5,45.9-9.3h8.6
							C101,286.3,101.7,287,101.7,287.9z"/>
					</g>
					<g>
						<g>
							<path class="st6" d="M107.6,278v6.6c0,0.9-0.7,1.6-1.6,1.6H52.7c-0.4,0-0.8-0.2-1.1-0.5c-0.3-0.3-0.4-0.7-0.4-1.1V278
								c0-0.9,0.7-1.6,1.6-1.6H106C106.9,276.5,107.6,277.2,107.6,278z"/>
							<rect x="68.8" y="276.5" class="st6" width="30" height="9.8"/>
							<path class="st6" d="M63.2,276.5H52.6c-0.9,0-1.6,0.7-1.6,1.6v6.6c0,0.9,0.7,1.6,1.6,1.6h10.6V276.5z"/>
							<path class="st6" d="M63.2,276.5H52.6c-0.9,0-1.6,0.7-1.6,1.6v6.6c0,0.9,0.7,1.6,1.6,1.6h10.6V276.5z"/>
							<path class="st6" d="M106,276.5h-1.5v9.8h1.5c0.9,0,1.6-0.7,1.6-1.6V278C107.6,277.2,106.8,276.5,106,276.5z"/>
						</g>
						<path class="st6" d="M107.6,278v6.6c0,0.9-0.7,1.6-1.6,1.6H52.7c-0.4,0-0.8-0.2-1.1-0.5c7.2-1.6,31.7-6.5,45.9-9.3h8.6
							C106.9,276.5,107.6,277.2,107.6,278z"/>
					</g>
					<g>
						<path class="st25" d="M98.6,285l0.6,1.2c0.1,0.2,0.2,0.3,0.4,0.4l1.2,0.6c0.7,0.4,0.7,1.3,0,1.7l-1.2,0.6
							c-0.2,0.1-0.3,0.2-0.4,0.4l-0.6,1.2c-0.4,0.7-1.3,0.7-1.7,0l-0.6-1.2c-0.1-0.2-0.2-0.3-0.4-0.4l-1.2-0.6
							c-0.7-0.4-0.7-1.3,0-1.7l1.2-0.6c0.2-0.1,0.3-0.2,0.4-0.4l0.6-1.2C97.3,284.3,98.2,284.3,98.6,285z"/>
						<path class="st25" d="M53.4,302.9l0.6,1.2c0.1,0.2,0.2,0.3,0.4,0.4l1.2,0.6c0.7,0.4,0.7,1.3,0,1.7l-1.2,0.6
							c-0.2,0.1-0.3,0.2-0.4,0.4l-0.6,1.2c-0.4,0.7-1.3,0.7-1.7,0l-0.6-1.2c-0.1-0.2-0.2-0.3-0.4-0.4l-1.2-0.6
							c-0.7-0.4-0.7-1.3,0-1.7l1.2-0.6c0.2-0.1,0.3-0.2,0.4-0.4l0.6-1.2C52.1,302.3,53,302.3,53.4,302.9z"/>
						<path class="st25" d="M95.1,332.4l0.6,1.2c0.1,0.2,0.2,0.3,0.4,0.4l1.2,0.6c0.7,0.4,0.7,1.3,0,1.7l-1.2,0.6
							c-0.2,0.1-0.3,0.2-0.4,0.4l-0.6,1.2c-0.4,0.7-1.3,0.7-1.7,0l-0.6-1.2c-0.1-0.2-0.2-0.3-0.4-0.4l-1.2-0.6
							c-0.7-0.4-0.7-1.3,0-1.7l1.2-0.6c0.2-0.1,0.3-0.2,0.4-0.4l0.6-1.2C93.8,331.7,94.8,331.7,95.1,332.4z"/>
					</g>
				</g>
			</g>
		</g>
	</g>
	<linearGradient id="SVGID_3_" gradientUnits="userSpaceOnUse" x1="300.7111" y1="209.144" x2="433.3424" y2="209.144">
		<stop  offset="0" style="stop-color:#7E51FF"/>
		<stop  offset="1" style="stop-color:#FA4A84"/>
	</linearGradient>
	<rect x="300.7" y="181.2" class="st26" width="132.6" height="55.9"/>
	<text transform="matrix(1 0 0 1 315.0799 221.0913)" class="st13 st27 st28">BANK</text>
	<text transform="matrix(1 0 0 1 294.3376 420.9857)"><tspan x="0" y="0" class="st9 st27 st29">verification no</tspan><tspan x="11.5" y="32.4" class="st9 st27 st29">1234567890</tspan></text>
</g>
<g id="DESIGNED_BY_FREEPIK">
</g>
</svg>
