<?xml version="1.0" encoding="utf-8"?>
<!-- Generator: Adobe Illustrator 23.0.2, SVG Export Plug-In . SVG Version: 6.00 Build 0)  -->
<svg version="1.1" id="Layer_1" xmlns="http://www.w3.org/2000/svg" xmlns:xlink="http://www.w3.org/1999/xlink" x="0px" y="0px"
	 viewBox="0 0 255.2 237.1" style="enable-background:new 0 0 255.2 237.1;" xml:space="preserve">
<style type="text/css">
	.st0{fill:#260350;}
	.st1{fill:#9D9FA1;}
	.st2{fill:#316364;}
	.st3{fill:#E7EAEC;}
	.st4{opacity:9.000000e-02;fill:url(#SVGID_1_);}
	.st5{fill:url(#SVGID_2_);}
	.st6{fill:#252526;}
	.st7{fill:#3F7674;}
	.st8{fill:#DED1A7;}
	.st9{fill:#AD8D22;}
	.st10{fill:#F8C295;}
</style>
<g>
	<path class="st0" d="M253.6,178.2c-7-1.1-14-2.1-21.1-3.2c-4.5-0.7-9.1-1.3-13.6-2c-3.6-0.5-3.6-0.5-3.2-4.1
		c0.4-8.8,0.9-17.6,1.2-26.3c0-1.1,0.8-2.1,0-3.2c0-2.4,1.3-2.8,3.4-2.4c2.6,0.5,5.3,0.8,7.9,1.1c7.7,0.9,15.3,1.7,23,2.5
		c1.3,0.5,2.7,0.5,4.1,0.5c0.2,0,0.3,0,0.5,0c0,12.4,0,24.9,0,37.3C255.1,178.2,254.4,178.2,253.6,178.2z"/>
	<path class="st2" d="M255.9,178.6c-0.7,0.2-0.4,0.8-0.6,1.3c-0.4-0.8-1.6-0.8-1.7-1.8c0.8,0,1.5,0,2.3,0
		C255.9,178.3,255.9,178.5,255.9,178.6z"/>
	<path class="st3" d="M147.3,162.3c3.7,3,8,5.1,12,7.6c6.7,4.1,13.5,8.2,20.2,12.2c1.5,0.9,1.7,1.3,0.1,2.4
		c-23.4,15.1-46.8,30.3-70.1,45.4c-1.8,1.2-3.5,2-5.5,0.7c-0.4-0.7-1.2-1-1.8-1.3c-13-7.9-26-15.5-38.9-23.6
		c-7.9-5-12.5-12.2-12.4-21.9c0-7.1,0-14.2,0-21.4c0-5.3-0.1-10.6-0.1-15.8c0-0.5,0.1-1.1,0.1-1.6c0-17.9,0-35.8,0-53.7
		c0-1.6-0.3-3.2-0.4-4.8c-0.9-5.8-2.9-11.3-6.2-16.2c-3.2-4.7-6.8-9-13.2-9.2c-0.2,0-0.4-0.4-0.6-0.6c6.6-4.2,13.2-8.4,19.7-12.7
		c17.5-11.3,35-22.7,52.4-34c1.9-1.3,4-1.4,6.2-0.8c3.6,1,6.2,3.3,8.4,6.1c5.9,7.5,8.7,16,8.7,25.6c0,30.5,0,61,0,91.5
		c0,1.8,0.1,3.5,0.6,5.2c2.5,8.7,8.2,14.5,16.2,18.4c-0.4,1-0.9,1.9-1.3,2.9c-0.5,0.5-0.1,1.5-0.8,1.8c-2.9,1.1-1.9,3.9-2.7,5.8
		c-0.3,0.8,0.4,1.2,1,0.6c1.6-1.4,4.4-1.7,4.4-4.7c0-0.4,0.6-0.9,0.9-1.3C145.6,164.6,145.5,162.1,147.3,162.3z M94.1,77.9
		c0.2-0.2,0.5-0.4,0.7-0.6c1.1,0.1,1-0.7,1-1.4c0.1-1,0.2-2,0.3-3c0.1-1.2,1-2.3,1.9-2.1c1.3,0.4-0.2,1.3-0.2,2
		c0,0.7-0.4,1.4,0.3,1.9c0.7,0.5,1-0.4,1.5-0.6c2.7-1.4,1.8-3.8,1.8-6c0-1.3-0.9-1-1.6-0.5c-1.7,1.3-3.3,2.7-5,4.1
		c-0.5,0-0.9-0.1-1.4-0.1c-0.2-1.6-0.6-0.5-0.9-0.1c-1.1,1.8-0.5,3.8-0.5,5.7c0,0.6-0.4,1.4,0.3,1.6C93.4,79.4,93.8,78.6,94.1,77.9z
		 M60.6,135.3c0.2,0.3,0.5,0.6,0.7,0.9c20.1-14.4,40.2-28.7,60.2-43.2c-0.2-0.3-0.4-0.6-0.6-0.8C100.8,106.5,80.7,120.9,60.6,135.3z
		 M60.2,114.7c1.7,0.5,2.1-0.2,2.7-0.6c19-13.5,37.9-27,56.8-40.6c0.6-0.4,1.7-0.8,1.3-2.4C100.8,85.7,80.8,100.1,60.2,114.7z
		 M121.5,96.7c-0.2-0.2-0.3-0.5-0.5-0.7c-1.1,0.2-1.9,1-2.8,1.7c-9.5,6.8-19.1,13.6-28.6,20.4c-9.2,6.6-18.3,13.1-27.4,19.7
		c-0.6,0.4-1.5,0.7-1.1,2.1C81.4,125.5,101.5,111.1,121.5,96.7z M121.5,68.5c-0.1-0.2-0.3-0.4-0.4-0.5c-2.5,0.7-59.6,41.9-60.1,43.8
		C81.4,97.2,101.5,82.9,121.5,68.5z M121.6,117.5c-0.2-0.3-0.4-0.5-0.6-0.8c-0.4,0.2-0.8,0.4-1.2,0.6c-11,7.9-21.9,15.7-32.9,23.6
		c-8,5.8-16.1,11.5-24.1,17.3c-0.7,0.5-2,0.8-1.8,2.6C81.4,146.2,101.5,131.8,121.6,117.5z M60.4,128c1.3,0.6,1.7,0.1,2.1-0.1
		c19.1-13.7,38.3-27.3,57.4-41c0.6-0.4,1.5-0.8,1.1-2.2C100.8,99.1,80.8,113.4,60.4,128z M60.6,142.7c0.2,0.2,0.3,0.4,0.5,0.6
		c3.7-1.5,59.6-42.2,60.1-44C100.8,113.9,80.7,128.3,60.6,142.7z M121.5,64.8c-0.2-0.3-0.5-0.6-0.7-0.9
		c-20,14.4-40.1,28.7-60.1,43.1c0.2,0.3,0.4,0.6,0.6,0.9C81.4,93.5,101.5,79.2,121.5,64.8z M60.7,131.5c0.2,0.3,0.5,0.6,0.7,0.9
		c20-14.3,40.1-28.6,60.1-43.1c-0.2-0.3-0.4-0.6-0.6-0.8C100.8,102.8,80.8,117.1,60.7,131.5z M121.6,121.2c-0.2-0.3-0.4-0.6-0.7-0.9
		c-3.6,2.6-7.2,5.1-10.8,7.7c-15.8,11.3-31.7,22.6-47.5,34c-0.7,0.5-1.8,0.9-1.6,2.6C81.4,149.9,101.5,135.5,121.6,121.2z
		 M121.5,113.8c-0.2-0.3-0.4-0.6-0.6-0.9c-20.1,14.4-40.2,28.7-60.2,43.2c0.2,0.3,0.4,0.6,0.6,0.9
		C81.4,142.5,101.5,128.2,121.5,113.8z M60.6,167.1c0.2,0.2,0.4,0.4,0.5,0.7c4.3-2.1,35.1-24.7,35.7-26.6
		C84.5,150,72.6,158.6,60.6,167.1z M97.3,121.5c-0.8-0.8-1.1-0.5-1.4-0.3c-11.4,8.2-22.8,16.3-34.2,24.5c-0.5,0.3-1.1,0.7-0.3,1.6
		C73.2,138.7,85.1,130.2,97.3,121.5z M81.8,160.3c0.2,0.3,0.4,0.6,0.6,0.9c11.4-8.1,22.9-16.2,34.2-24.5c-0.2-0.3-0.4-0.6-0.6-0.8
		C104.6,143.9,93.2,152.1,81.8,160.3z M60.7,118.1c0.1,0.2,0.3,0.4,0.4,0.6c3.1-1.1,25.6-17.7,25.9-19.4
		C78.1,105.6,69.4,111.9,60.7,118.1z M108.6,146.1c-0.2-0.3-0.5-0.6-0.7-0.9c-8.7,6.2-17.4,12.5-26.1,18.7c0.2,0.3,0.4,0.6,0.6,0.9
		C91.1,158.6,99.8,152.4,108.6,146.1z M80.9,85.2c-1.4,0.4-1.1,1.8-1.8,2.4c-0.5,0.4-1,1.1-1.5,0.4c-0.7-1.3-0.4-2.7,0.1-4
		c0.3-0.9,0.6-2.1,2-1.7c0.8,0.2,1.1-0.1,1.4-0.7c0.2-0.4,0-0.7-0.3-1c-0.6-0.6-1.1-0.2-1.7,0.1c-2.1,1.2-3.7,6.2-2.8,8.4
		c0.4,1,1,1.4,1.9,0.9C79.9,88.9,80.7,87.4,80.9,85.2z M87.2,83.3c2.1-1.9-0.1-5,2.4-6.5c0.6,1.4-0.2,2.9,0.7,4.7
		c1-2.3,0.7-4.1,0.7-6c0-0.4-0.5-0.8-0.8-0.6c-1.1,1-2.9,1.3-2.9,3.1C87.1,79.7,87.2,81.3,87.2,83.3z M81.9,83.9
		c0.1,0.9-0.2,1.9,0.8,2.2c0.9,0.3,1.5-0.5,2.1-1.1c1.1-1.3,1.6-2.9,1.5-4.7c-0.1-1.6-1-1.8-2.2-1C82.6,80.5,82,82.1,81.9,83.9z
		 M128.1,190.1c-2.1,1.8-4.3,2.2-6.7,0.5c-2.4-1.7-1.9-4.1-1.8-6.7c-1.5,2.8-0.8,5.8,1.6,7.4C123.8,193,126.4,192.7,128.1,190.1z
		 M102.4,68.7c0,0.7,0,1,0,1.3c0,0.6,0.2,1.1,0.8,1.3c0.6,0.2,1.1-0.1,1.4-0.5c0.5-0.8-0.5-0.7-0.7-1.1c-0.8-1.4-0.2-3.2,1.4-3.7
		c0.6-0.2,1-0.4,1-1c0-0.2-0.1-0.4-0.3-0.6c-0.5-0.4-1-0.2-1.5,0.2C103,65.6,102.5,67.2,102.4,68.7z M108.2,60.3
		c-2,2.1-0.8,4.4-1,6.6c0,0.5-0.3,1.1,0.4,1.4c0.4,0.1,0.7-0.1,1-0.4c0.4-0.5,0.7-0.9,0.1-1.6c-0.7-0.8-0.6-2.1-0.2-2.8
		C109.5,62.2,109,61.3,108.2,60.3z M129.2,172.9c-0.9,5.2,0.2,10.5-0.5,15.7C130.3,183.4,129,178.1,129.2,172.9z M119.4,182.6
		c0.2,0.1,0.4,0.2,0.5,0.3c1.1-2.6,2.1-5.2,3.2-7.8C121.3,177.3,120.3,179.9,119.4,182.6z"/>
	<linearGradient id="SVGID_1_" gradientUnits="userSpaceOnUse" x1="1.025" y1="181.8245" x2="103.9125" y2="181.8245">
		<stop  offset="0" style="stop-color:#7E51FF"/>
		<stop  offset="1" style="stop-color:#FA4A84"/>
	</linearGradient>
	<path class="st4" d="M50.7,146.4c0,5.3,0.1,10.6,0.1,15.8c0,7.1,0,14.2,0,21.4c0,9.7,4.6,17,12.4,21.9
		c12.8,8.1,25.9,15.8,38.9,23.6c0.6,0.4,1.4,0.6,1.8,1.3c-3.5-0.3-6.8-1.5-10.2-2.4c-3.9-1.1-7.7-2.3-11.5-3.5
		c-2.9-0.9-5.9-1.6-8.8-2.4c-3.9-1.1-7.9-2.3-11.8-3.4c-5.2-1.5-10.3-3.2-15.5-4.6c-7.5-2.1-15.2-4-22.7-6.3
		c-6-1.8-12.2-3.2-18.2-5.3c-1.4-0.5-2.8-0.6-4.2-1c0-22.9,0-45.7,0-68.6c3.2,0.1,6,1.5,9,2.2c5.4,1.3,10.6,3.1,16,4.6
		c5.8,1.7,11.7,3.4,17.5,4.9C45.9,145.4,48.2,146.5,50.7,146.4z"/>
	<linearGradient id="SVGID_2_" gradientUnits="userSpaceOnUse" x1="141.2648" y1="136.8608" x2="181.8503" y2="136.8608">
		<stop  offset="0" style="stop-color:#7E51FF"/>
		<stop  offset="1" style="stop-color:#FA4A84"/>
	</linearGradient>
	<path class="st5" d="M150.5,156.1c-0.2,0.9-0.4,1.8-0.6,2.7c-1.5,0.6-2.6,1.7-2.6,3.5c-1.8-0.1-1.7,2.3-3.2,2.5
		c-0.7-1-1.9-1.5-2.8-2.3c0.4-1,0.9-1.9,1.3-2.9c0.3-0.6,1-0.9,0.9-1.7c0.5-0.1,0.8-0.5,1-0.9c5.5-9,11.2-17.9,17-26.7
		c0.3-0.4,0.9-0.9,0.5-1.4c-0.4-0.5-1.2-0.1-1.8-0.1c0.8-0.5,1.9,0.2,2.7-0.9c4.3-6.3,8.7-12.5,13.1-18.8c0.7-0.1,1.3,0,1.9,0.3
		c-2.7,4.3-5.5,8.6-8.2,12.9c-0.3,0.5-1.5,1.2-0.5,1.8c0.8,0.5,1.2-0.7,1.6-1.3c3-4.2,6-8.5,9-12.7c0.4-0.5,0.6-1.5,1.3-1.3
		c0.9,0.2,0.7,1.3,0.7,2c-0.3,0.3-0.8,0.5-1,0.9c-2.8,4.4-5.7,8.8-8.4,13.3c-0.7,1.1-0.2,2,1.3,1.6c-2.2-0.2-3.5,1-4.5,2.8
		c-1.4,2.5-3.5,4.7-4.6,7.3c-2.9,3.8-5.7,7.7-8.1,11.9c-1.1,0.5-2.3,0.8-3.5,0.9c-1.4,0.1-2.7,0.5-3.4,2c-1.2,1.4-1.2,2.8,0.3,4.1
		C150,155.9,150.2,156.1,150.5,156.1L150.5,156.1z"/>
	<path class="st3" d="M210.9,166.1c0.2-4.2,0.4-8.5,0.6-12.7c0.2-3.6,0.6-7.1-0.2-10.7c0.7-3.7,0.7-3.7,4.6-3.4c0.4,0,0.8,0,1.1-0.1
		c0.8,1.1,0,2.2,0,3.2c-0.4,8.8-0.8,17.6-1.2,26.3c-0.6,0-1.2,0-1.8,0C212,169,210.7,168.3,210.9,166.1z"/>
	<path class="st1" d="M50.4,86.4c-4,1.4-7.2,4.3-10.8,6.5c-5.1,3.2-10.1,6.6-15.1,9.9c-1.2,0.8-1.5,0.4-1.5-0.8
		c0-10.4-0.1-20.9,0.2-31.3c0.1-4.7,2.8-8.3,7.2-10.4c0.2,0.2,0.4,0.6,0.6,0.6c6.4,0.3,10,4.6,13.2,9.2
		C47.5,75.1,49.5,80.6,50.4,86.4z"/>
	<path class="st1" d="M60.6,135.3c20.1-14.4,40.2-28.8,60.3-43.2c0.2,0.3,0.4,0.6,0.6,0.8c-20,14.5-40.1,28.8-60.2,43.2
		C61.1,135.8,60.8,135.5,60.6,135.3z"/>
	<path class="st1" d="M60.2,114.7c20.5-14.7,40.5-29.1,60.8-43.6c0.3,1.6-0.7,1.9-1.3,2.4c-18.9,13.6-37.9,27.1-56.8,40.6
		C62.4,114.5,62,115.2,60.2,114.7z"/>
	<path class="st1" d="M121.5,96.7c-20.1,14.4-40.2,28.8-60.4,43.3c-0.4-1.4,0.5-1.7,1.1-2.1c9.1-6.6,18.3-13.2,27.4-19.7
		c9.5-6.8,19.1-13.6,28.6-20.4c0.9-0.6,1.7-1.5,2.8-1.7C121.2,96.2,121.4,96.5,121.5,96.7z"/>
	<path class="st1" d="M121.5,68.5c-20,14.4-40.1,28.7-60.5,43.3c0.5-1.9,57.6-43.2,60.1-43.8C121.3,68.2,121.4,68.3,121.5,68.5z"/>
	<path class="st1" d="M121.6,117.5c-20.1,14.4-40.2,28.8-60.5,43.3c-0.2-1.8,1-2.1,1.8-2.6c8-5.8,16.1-11.5,24.1-17.3
		c11-7.9,21.9-15.7,32.9-23.6c0.4-0.3,0.8-0.4,1.2-0.6C121.2,116.9,121.4,117.2,121.6,117.5z"/>
	<path class="st1" d="M60.4,128c20.4-14.6,40.4-28.9,60.6-43.4c0.4,1.4-0.5,1.8-1.1,2.2c-19.1,13.7-38.2,27.4-57.4,41
		C62.1,128.1,61.7,128.6,60.4,128z"/>
	<path class="st1" d="M60.6,142.7c20.1-14.4,40.2-28.8,60.6-43.4c-0.5,1.9-56.4,42.5-60.1,44C60.9,143.1,60.8,142.9,60.6,142.7z"/>
	<path class="st1" d="M121.5,64.8c-20.1,14.4-40.1,28.7-60.2,43.1c-0.2-0.3-0.4-0.6-0.6-0.9c20-14.4,40.1-28.7,60.1-43.1
		C121.1,64.2,121.3,64.5,121.5,64.8z"/>
	<path class="st1" d="M60.7,131.5c20.1-14.4,40.1-28.7,60.2-43.1c0.2,0.3,0.4,0.6,0.6,0.8c-19.9,14.5-40,28.7-60.1,43.1
		C61.2,132,60.9,131.8,60.7,131.5z"/>
	<path class="st1" d="M121.6,121.2c-20.1,14.4-40.2,28.8-60.6,43.4c-0.1-1.7,0.9-2,1.6-2.6c15.8-11.3,31.7-22.7,47.5-34
		c3.6-2.6,7.2-5.1,10.8-7.7C121.1,120.6,121.4,120.9,121.6,121.2z"/>
	<path class="st1" d="M121.5,113.8c-20.1,14.4-40.2,28.8-60.2,43.1c-0.2-0.3-0.4-0.6-0.6-0.9c20-14.5,40.2-28.8,60.2-43.2
		C121.1,113.2,121.3,113.5,121.5,113.8z"/>
	<path class="st1" d="M60.6,167.1c11.9-8.6,23.9-17.1,36.2-26c-0.6,2-31.4,24.6-35.7,26.6C61,167.6,60.8,167.4,60.6,167.1z"/>
	<path class="st1" d="M97.3,121.5c-12.1,8.7-24,17.2-35.9,25.8c-0.8-0.9-0.1-1.3,0.3-1.6c11.4-8.2,22.8-16.3,34.2-24.5
		C96.1,120.9,96.5,120.7,97.3,121.5z"/>
	<path class="st1" d="M81.8,160.3c11.4-8.2,22.8-16.3,34.2-24.5c0.2,0.3,0.4,0.6,0.6,0.8c-11.3,8.3-22.7,16.4-34.2,24.5
		C82.2,160.8,82,160.6,81.8,160.3z"/>
	<path class="st1" d="M60.7,118.1c8.7-6.2,17.4-12.5,26.3-18.9c-0.2,1.8-22.7,18.4-25.9,19.4C61,118.5,60.9,118.3,60.7,118.1z"/>
	<path class="st1" d="M108.6,146.1c-8.7,6.3-17.4,12.5-26.2,18.8c-0.2-0.3-0.4-0.6-0.6-0.9c8.7-6.2,17.4-12.5,26.1-18.7
		C108.1,145.6,108.3,145.8,108.6,146.1z"/>
	<path class="st1" d="M141.3,162.5c1,0.7,2.1,1.2,2.8,2.3c-0.3,0.4-0.9,0.9-0.9,1.3c0,3-2.9,3.3-4.4,4.7c-0.6,0.6-1.4,0.2-1-0.6
		c0.8-2-0.2-4.8,2.7-5.8C141.2,164.1,140.8,163.1,141.3,162.5z"/>
	<path class="st6" d="M81.9,83.9c0.1-1.8,0.7-3.4,2.2-4.5c1.2-0.9,2-0.6,2.2,1c0.1,1.7-0.3,3.3-1.5,4.7c-0.5,0.6-1.2,1.4-2.1,1.1
		C81.6,85.8,81.9,84.8,81.9,83.9z M83.2,82.5c-0.1,1.2-0.1,2,0.4,1.9c1.1-0.2,1.3-1.3,1.4-2.3c0.1-0.5,0.2-1.5-0.6-1.4
		C83.2,80.9,83.2,82.1,83.2,82.5z"/>
	<path class="st7" d="M128.1,190.1c-1.7,2.6-4.3,2.9-6.9,1.2c-2.3-1.5-3.1-4.6-1.6-7.4c-0.1,2.5-0.6,5,1.8,6.7
		C123.8,192.3,126,191.9,128.1,190.1z"/>
	<path class="st6" d="M102.4,68.7c0.1-1.4,0.6-3.1,2.1-4.2c0.4-0.3,0.9-0.6,1.5-0.2c0.2,0.1,0.3,0.4,0.3,0.6c-0.1,0.6-0.4,0.8-1,1
		c-1.6,0.5-2.2,2.4-1.4,3.7c0.2,0.4,1.2,0.4,0.7,1.1c-0.3,0.4-0.8,0.7-1.4,0.5c-0.6-0.2-0.7-0.7-0.8-1.3
		C102.4,69.7,102.4,69.3,102.4,68.7z"/>
	<path class="st6" d="M94.1,77.9c-0.4,0.7-0.8,1.5-1.7,1.2c-0.7-0.2-0.3-1.1-0.3-1.6c0-1.9-0.7-3.9,0.5-5.7c0.2-0.4,0.7-1.5,0.9,0.1
		c0.4,0.9,0.3,1.8,0.4,2.8C94,75.7,93,76.9,94.1,77.9z"/>
	<path class="st2" d="M129.2,172.9c-0.2,5.2,1,10.5-0.5,15.7C129.4,183.4,128.4,178.1,129.2,172.9z"/>
	<path class="st7" d="M119.4,182.6c0.9-2.7,1.9-5.3,3.7-7.6c-1.1,2.6-2.1,5.2-3.2,7.8C119.7,182.7,119.6,182.7,119.4,182.6z"/>
	<path class="st1" d="M94.1,77.9c-1.1-1-0.1-2.2-0.2-3.3c-0.1-0.9,0-1.9-0.4-2.8c0.5,0,0.9,0.1,1.4,0.1c0,1.8,0,3.6-0.1,5.4
		C94.6,77.6,94.4,77.7,94.1,77.9z"/>
	<path class="st8" d="M149.9,155.6c-1.4-1.3-1.5-2.6-0.3-4.1c1.2-0.1,2.4-0.3,3.6-0.4c2.1-0.2,2.2,1.2,2.3,2.8
		c0.1,1.7-0.6,2.3-2.3,2.1c-0.9-0.1-1.8-0.3-2.7,0.1c0,0,0,0,0,0C150.4,155.7,150.2,155.6,149.9,155.6z"/>
	<g>
		<path class="st9" d="M210.9,166.1c-4,0.6-8,1.4-12,1.9c-6.7,0.8-12.9-1.1-18.7-4.1c-3.8-2-7.7-3.7-12-4.5
			c-1.3-0.2-2.1-0.1-2.8,1.2c-1.5,2.9-3,2.8-4.6,0c-0.6-1.1-1-0.4-1.5,0.1c-2.3,2.3-2.7,2.3-4.3-0.4c-0.4-0.7-0.7-1-1.4-0.4
			c-1.7,1.5-2.7,0.2-3.7-1c0.2-0.9,0.4-1.8,0.6-2.7c0.9-0.4,1.8-0.2,2.7-0.1c1.7,0.2,2.4-0.4,2.3-2.1c-0.1-1.6-0.2-3-2.3-2.8
			c-1.2,0.1-2.4,0.3-3.6,0.4c0.7-1.4,2-1.8,3.4-2c1.2-0.1,2.4-0.3,3.5-0.9c0.2,0.5,0.6,0.7,1.1,0.7c6.8,0.1,13.4,1.9,20.3,1.5
			c5.9-0.4,7.3-1.3,4.4-7.7c-0.2-0.5-0.6-1-1-1.5c-4.4-5.6-10.4-5.5-16.7-4.9c1.1-2.7,3.2-4.8,4.6-7.3c1-1.8,2.3-3,4.5-2.8
			c1.5,0.1,2.9-0.1,4.3-0.4c3.4-0.6,6.7-0.1,9.6,2c2.3,1.7,4.6,3.3,7,4.8c5.4,3.5,10.3,7.8,16.7,9.5c0.8,3.5,0.3,7.1,0.2,10.7
			C211.3,157.6,211.1,161.9,210.9,166.1z"/>
		<path class="st9" d="M143.5,158c-0.7-2-0.1-3.9,0.6-5.8c2.8-6.7,6.3-13.1,9.6-19.6c0.7-1.4,2-2.2,3.5-2.7c1-0.3,2.2-0.2,3-1
			c0.6,0,1.3-0.4,1.8,0.1c0.4,0.5-0.2,1-0.5,1.4c-5.8,8.8-11.5,17.7-17,26.7C144.3,157.5,144,157.9,143.5,158z"/>
	</g>
	<path class="st1" d="M178.3,105.5c1.7-0.3,2.9,0.7,4,1.7c1.7,1.5-0.6,2.5-0.4,3.8c0-0.7,0.2-1.8-0.7-2c-0.8-0.2-1,0.8-1.3,1.3
		c-3,4.2-5.9,8.5-9,12.7c-0.4,0.6-0.9,1.7-1.6,1.3c-1-0.6,0.2-1.3,0.5-1.8c2.7-4.3,5.4-8.6,8.2-12.9
		C180,108.3,177.8,106.8,178.3,105.5z"/>
	<path class="st2" d="M178.3,105.5c-0.4,1.3,1.7,2.8-0.3,4c-0.6-0.3-1.3-0.4-1.9-0.3C176.4,107.7,177.8,106.8,178.3,105.5z"/>
	<path class="st10" d="M149.9,155.6c0.3,0,0.6,0.1,0.7,0.4C150.2,156.1,150,155.9,149.9,155.6z"/>
	<path class="st3" d="M83.2,82.5c0.1-0.3,0-1.6,1.2-1.8c0.8-0.2,0.7,0.8,0.6,1.4c-0.1,1-0.3,2.1-1.4,2.3
		C83.1,84.5,83.1,83.6,83.2,82.5z"/>
	
		<rect x="66.5" y="60.3" transform="matrix(0.8175 -0.5759 0.5759 0.8175 -23.283 65.8251)" class="st3" width="51.4" height="18.6"/>
	<g>
		<path class="st1" d="M87.3,79c-0.2,0.4-0.9,1.1-1.9,1.8c-2.3,1.5-5.1,1.1-7.1-1.7c-1.9-2.6-1.6-5.5,0.9-7.1c1-0.7,1.8-0.9,2.2-0.9
			l0.4,1.1c-0.5,0.1-1.2,0.3-1.9,0.7c-1.9,1.2-2.2,3.3-0.6,5.5c1.5,2,3.6,2.6,5.6,1.4c0.6-0.4,1.2-1,1.5-1.4L87.3,79z"/>
		<path class="st1" d="M88.2,74.9l1.1,3.2l-1.1,0.7l-3.5-10.3l1.3-0.8l9.2,6.7l-1.2,0.7L91.2,73L88.2,74.9z M90.3,72.2l-2.6-1.9
			c-0.6-0.4-1.1-0.9-1.6-1.3l0,0c0.3,0.6,0.5,1.2,0.7,1.8l1,3L90.3,72.2z"/>
		<path class="st1" d="M102,69.6c-0.3,0.5-0.9,1.2-2,1.9c-2.4,1.5-5.3,1.2-7.4-1.7c-2-2.7-1.6-5.7,1-7.4c1.1-0.7,1.9-0.9,2.3-1
			l0.4,1.1c-0.6,0.1-1.3,0.3-2,0.8c-2,1.3-2.3,3.5-0.7,5.7c1.6,2.1,3.8,2.7,5.8,1.4c0.7-0.4,1.3-1,1.5-1.5L102,69.6z"/>
	</g>
</g>
</svg>
