<svg width="32" height="32" viewBox="0 0 32 32" fill="none" xmlns="http://www.w3.org/2000/svg">
<g clip-path="url(#clip0)">
<path d="M17.2095 15.0052L2.09251 30.1222C1.36987 29.4386 0.979248 28.5011 0.979248 27.4855V3.77487C0.979248 2.73972 1.3894 1.80224 2.13158 1.09912L17.2095 15.0052Z" fill="#2196F3"/>
<path d="M30.2757 15.6303C30.2757 16.9975 29.5335 18.2084 28.3031 18.892L24.0063 21.2747L18.6743 16.3529L17.2095 15.0053L22.8539 9.36084L28.3031 12.3686C29.5335 13.0522 30.2757 14.2631 30.2757 15.6303Z" fill="#FFC107"/>
<path d="M17.2094 15.0051L2.13147 1.09901C2.32678 0.903705 2.58068 0.727926 2.83459 0.571678C4.06504 -0.1705 5.54939 -0.190031 6.81891 0.513085L22.8539 9.36063L17.2094 15.0051Z" fill="#4CAF50"/>
<path d="M24.0063 21.2743L6.81903 30.7469C6.21357 31.0984 5.52999 31.2547 4.86593 31.2547C4.16282 31.2547 3.4597 31.0789 2.83471 30.6883C2.56127 30.532 2.30737 30.3367 2.09253 30.1219L17.2095 15.0049L18.6744 16.3525L24.0063 21.2743Z" fill="#F44336"/>
</g>
<defs>
<clipPath id="clip0">
<rect width="31.2548" height="31.2548" fill="white"/>
</clipPath>
</defs>
</svg>
