<?xml version="1.0" encoding="utf-8"?>
<!-- Generator: Adobe Illustrator 23.0.2, SVG Export Plug-In . SVG Version: 6.00 Build 0)  -->
<svg version="1.1" id="Layer_1" xmlns="http://www.w3.org/2000/svg" xmlns:xlink="http://www.w3.org/1999/xlink" x="0px" y="0px"
	 viewBox="0 0 228.2 205.2" style="enable-background:new 0 0 228.2 205.2;" xml:space="preserve">
<style type="text/css">
	.st0{fill-rule:evenodd;clip-rule:evenodd;fill:#260350;}
	.st1{fill-rule:evenodd;clip-rule:evenodd;fill:#FFFFFF;}
	.st2{fill-rule:evenodd;clip-rule:evenodd;fill:url(#SVGID_1_);}
	.st3{fill:#EFF1F2;}
	.st4{fill:#260350;}
	.st5{fill:#7D6896;}
	.st6{fill:#B1A4C0;}
	.st7{fill:#CBC3D5;}
	.st8{fill:#E1EBF1;}
	.st9{fill:#AEDDE8;}
	.st10{fill:#FA4A84;}
	.st11{fill:#171616;}
	.st12{fill:#2FBEDD;}
	.st13{fill:#B28C44;}
	.st14{fill:#C6EBEC;}
	.st15{fill:#EAF6FA;}
	.st16{fill:#F2EDF4;}
	.st17{fill:url(#SVGID_2_);}
	.st18{fill:#C1C5C7;}
	.st19{fill:#FDFEFE;}
	.st20{fill:#D3EBF7;}
	.st21{fill:#F3FAFB;}
	.st22{fill:#721F80;}
	.st23{fill:url(#SVGID_3_);}
	.st24{fill:#A58BAA;}
	.st25{fill:url(#SVGID_4_);}
	.st26{fill:#FDBC45;}
</style>
<path class="st3" d="M0.2,91.6c2.1-0.4,4.1-0.5,6.1,0.1c0.6,0.2,0.8,0.1,1-0.5c1.1-3.2,3.6-5.3,6.3-7.2c4.3-1.9,8.7-1.6,13.1-0.4
	c0,0.1,0,0.3,0,0.4c-0.1,4.5,0,9.1,0.9,13.6c0.6,3.2,1.4,6.4,2.1,9.6c-4.4-0.4-8.7,0.2-13.1,0c-5.5,0-10.9,0-16.4,0
	C0.2,102,0.2,96.8,0.2,91.6z"/>
<path class="st3" d="M0.2,73c1.4,0.5,2.9,0.4,4.3,0.4c3.1,0.1,5.4,2.5,5.3,5.7c0,2.9-2.1,4.8-5.3,4.8c-1.5,0-2.9,0-4.4,0
	C0.2,80.3,0.2,76.7,0.2,73z"/>
<path class="st4" d="M154.3,143.6c-7.2-0.2-14.4-0.2-21.5,0c-2.6-0.3-5.3-0.2-7.9,0c-0.6-1.2-1.6-2.1-3-2.3
	c-0.1-0.1-0.1-0.2-0.1-0.3c1.9-0.8,2.8-3,1.8-4.7c-0.9-1.7-2.5-2-4.3-0.9l0,0c-1.5,0.5-2,1.9-2.3,3.1c-0.2,0.8,1.1,1.2,2,1.1
	c0.1,0,0.2,0,0.2,0.1c0.4,0.4,0.5,0.8,0,1.2c-0.3,0-0.6,0-0.8,0c-1.4,0.3-2.7-0.6-4-0.2c-1.4-0.8-3.6-1.4-4.1-2.6
	c-0.9-2.4-2-4.9-1.4-7.7c0.1-0.6,0.3-1.1-0.2-1.5c-0.2-0.1-0.6-0.1-0.8,0c-0.5,0.3-0.7,0.9-0.6,1.5c0,0.8,0.2,1.5,0.2,2.3
	c-0.5,4.9,0.9,8.9,5.9,10.9c-2.5,0.1-5,0.2-7.5,0.2c-2.1-0.1-4.2-0.1-6.4-0.2c-0.1-0.1-0.2-0.1-0.3,0c-0.6-0.2-1.2-0.3-1.8-0.5
	c-1.3-1.3-1.6-3-1.6-4.8c0-13.9,0-27.9,0-41.8c5.6-0.1,11.1-0.1,16.7-0.2c1.8,2,3.5,3.9,6,5.1c5.6,3.1,11.2,3.4,16.9,0.1
	c2.9-0.9,4.5-3.3,6.6-5.2c5.8,0,11.6,0,17.4,0.1c0,0.1,0,0.3,0.1,0.4c0,13.4-0.1,26.8-0.1,40.1c0,0.7,0,1.4,0,2.1
	c0,2.6-0.8,3.7-3.4,4.6C155.4,143.6,154.9,143.6,154.3,143.6z M125.6,119.4c6.7,0,13.5,0,20.2,0c1,0,2.7,0.7,2.7-1
	c0-1.3-1.6-1-2.6-1c-13.5,0-27.1,0-40.6,0c-0.6,0-1.1,0-1.7,0c-0.5,0.1-0.9,0.4-0.9,1c0,0.5,0.3,0.9,0.9,1c0.6,0.1,1.1,0,1.7,0
	C112,119.4,118.8,119.4,125.6,119.4z M125.9,111.3c-7.1,0-14.2,0-21.2,0c-0.8,0-2-0.3-1.9,1c0.1,1,1.2,0.8,1.9,0.8c14,0,28,0,42.1,0
	c0.7,0,1.8,0.3,1.9-0.8c0.1-1.3-1.1-1-1.9-1C139.7,111.3,132.8,111.3,125.9,111.3z M117.6,125.6c4.4,0,8.8,0,13.2,0
	c0.8,0,1.8,0.1,1.8-0.9c0.1-1.2-1-1.1-1.8-1.1c-8.8,0-17.5,0-26.3,0c-0.8,0-1.9-0.2-1.9,1c0,1.2,1.1,1,2,1
	C109,125.6,113.3,125.6,117.6,125.6z"/>
<path class="st5" d="M26.7,83.6c-4.4-1.2-8.8-1.4-13.1,0.4c0.4-5,1.1-10,2.3-14.8c2.4-9.4,6.6-17.9,12.4-25.6
	c3.5-4.7,7.6-8.8,12.2-12.6c6.7-5.5,14.2-9.6,22.4-12.4c5.7-2,11.6-3.2,17.8-3.7c13.4-1.1,26,1.4,38,7.2c0.7,0.3,1.5,0.5,1.8,1.3
	c-1.4,1-3.1,0.2-4.7,0.6c-4.4,1-8.2,3-11.3,6.1c-0.9,0.1-1.6-0.2-2.5-0.5c-4.1-1.2-8.3-1.8-12.5-2c-9.9-0.4-19.4,1.4-28.4,5.7
	c-4.9,2.3-9.7,4.9-13.5,9c-0.6,0.2-1.2,0.5-1.8,0.7c-5.3,1.9-9,5.4-10.6,10.9c-0.3,0.9,0.1,2-0.7,2.8c-4.3-1.7-8-0.8-10.9,2.7
	c-2.3,2.8-2.6,6.1-1.3,9.4c1.1,2.6,2.9,4.4,5.8,4.8l0,0C27.4,76.8,27.2,80.2,26.7,83.6z M32.6,50.3c-1,0.1-1.7,0.7-1.7,1.7
	c-0.1,1.1,0.6,1.5,1.5,1.6c1,0.1,1.8-0.5,1.9-1.5C34.3,51,33.6,50.5,32.6,50.3z"/>
<path class="st5" d="M105.9,143.7c2.5-0.1,5-0.2,7.5-0.2c0.1,0,0.1,0,0.2,0c1.9,0.5,3.2,1.5,2.7,3.7c-0.7,3.1-1.3,6.3-2.4,9.3
	c-2.2-0.6-4.2,0.6-6.2,1.2c-4.9,1.3-9.9,2.1-15,2.7c-11.8,1.2-23.1-0.7-34-5.2c-7.2-2.9-13.8-7-19.7-12.1c-1.8-1.6-3.7-2.9-5-5
	c0.4-2,1.9-3.5,2-5.6c0.1-0.2,0.2-0.4,0.3-0.6c0.1-0.1,0.2-0.3,0.3-0.4c0-0.1,0-0.2,0.1-0.3c1-0.7,1.2-1.9,1.6-3c0.2,0,0.5,0,0.7,0
	c0.1,0.5-0.3,1.3,0.4,1.4c0.7,0.2,0.8-0.6,0.9-1.1c0.1-0.4,0.2-0.8,0.2-1.2c1.2,0,1.8,1,2.5,1.7c5.1,5.4,11.1,9.5,17.8,12.8
	c6.9,3.4,14.3,5.1,21.9,5.7c6.2,0.5,12.4-0.1,18.5-1.7C103,145.4,105,145.6,105.9,143.7z"/>
<path class="st6" d="M159.4,96.7c0-0.1,0-0.3-0.1-0.4c0-6,0-12.1,0-18.1c1.9-1.7,3.6-3.8,6.3-4.3c2.3-0.5,4.6-0.7,6.8,0.2
	c1.4,0.6,1.5-0.4,1.8-1.3c1.8-5.5,5.7-9.1,10.9-11.3c1.2-0.5,2.4-0.7,3.7-0.7c0.2,2.5,0.8,4.9,1.2,7.4c1.1,6.2,2.1,12.3,2.9,18.5
	c0.4,3.3,1.6,6.5,1.3,9.9C182.6,96.6,171,96.6,159.4,96.7z M172.8,81.5c-3.2-0.3-4.7,1.8-4.9,4.2c-0.2,2.1,2.6,4.5,4.9,4.5
	c2.5,0,5-2.3,5-4.5C177.8,83.4,175.6,81.5,172.8,81.5z M179.7,82.7c0.7-0.3,1.4-0.7,1.4-1.7c0-1.1-0.7-1.7-1.7-1.7
	c-0.9,0-1.6,0.6-1.6,1.6C177.9,82.1,178.6,82.6,179.7,82.7z"/>
<path class="st6" d="M104.6,30.1c3.2-3.1,7-5.1,11.3-6.1c1.6-0.4,3.2,0.4,4.7-0.6c5,0.5,9.7,1.7,13.5,5.2c0.5,0.5,1.2,0.8,1.7,1.1
	c0.6,0.7,1.2,1.4,2.1,1.7c0.6,1,0.4,2.2,0.5,3.3c-0.5,2.6-2.1,4.7-3.6,6.8c-1,1.3-2.4,2.4-2.5,4.2c-0.8-2.3-1.7-4.6-2.5-6.9
	c-0.4-0.9-0.8-1.9-2.1-1.3c-2.5,1-5.2,1.6-7.6,2.8c-3.4,1-3.4,1-2.5,3.7c-5.6,0-11.1,0-16.7,0c-0.7,0-1.5,0.3-2.2-0.4
	C98.8,38.3,101.2,34,104.6,30.1z"/>
<path class="st3" d="M199.3,105c1,1.6,2.8,2.6,3.5,4.4c0.2,0.6,0.8,0.6,1.4,0.5c3-0.4,4.9,0.9,5.6,3.9c0.4,1.7,0.8,3.4,2.2,4.7
	c0.2,0.2,0.5,0.6,0.5,0.9c-0.1,0.5-0.6,0.4-1,0.4c-1.9,0-3.8,0-5.7,0c-7.2,0-14.5-0.1-21.7,0.1c-2.6,0.1-4.1-2.2-4.2-4
	c-0.1-2.1,1.9-4.6,3.9-4.4c2.3,0.2,3.2-0.8,4-2.7c1.7-4,5.4-4.7,9.3-4.5C197.5,105.4,198.3,105.6,199.3,105z"/>
<path class="st3" d="M124.9,143.6c2.6-0.2,5.3-0.3,7.9,0c-0.3,0.9-1.1,1.4-1.8,2c-0.5,0.4-1.3,0.6-1.1,1.4c0.3,0.9,1.2,0.5,1.8,0.5
	c6.2-0.1,12.2,0.7,18.2,2.1c1.3,0.3,2.5,0.8,3.6,1.5c0.8,0.5,1.7,1,1.5,2.1c-0.2,1-0.9,1.5-1.8,1.9c-3.2,1.3-6.5,2.1-9.9,2.5
	c-4.4,0.5-8.8,1-13.3,1.2c-2.4,0.1-4.8,0.2-7.2-0.3c0-0.7,0-1.4,0.1-2.1c0.2-0.2,0.4-0.3,0.5-0.5c1.1-3.3,2.7-6.5,1.6-10.1
	C125.2,145.1,125.4,144.3,124.9,143.6L124.9,143.6z"/>
<path class="st3" d="M13.9,178.8c1,0.1,1-1.1,1.7-1.4c2.9,0,5.7,0.1,8.6-0.3c2.2-0.3,4.6-0.6,6.8,0.3c-0.1,3.3-1.6,6.4-1.3,9.7
	c-5.2,0.6-10.4,0.4-15.6,0.4c-3.2,0-3.8-0.7-3-3.9c0.2-0.6,0.4-1.2,0.6-1.8c0.6,0.8,1.3,1.5,2.5,0.8C13.1,181.4,13,180.1,13.9,178.8
	z"/>
<path class="st7" d="M16.6,107.2c4.4,0.2,8.7-0.5,13.1,0c0.1,0,0.3,0,0.4,0c0.8,3.3,2.6,6.1,3.8,9.2c-0.4,0.2-0.4,0.5-0.4,0.8
	c0,0.3,0,0.5-0.1,0.8c-0.4-0.1-0.8-0.3-1.2-0.3c-0.9-0.2-2.2-1-2.5,0.1c-0.3,1.1,1.3,0.8,2,1.2c0,0.2,0,0.5,0,0.7
	c-1.4-0.4-2.9-0.4-4.2-1.2c-0.4-0.3-0.8-0.2-1,0.3c-0.2,0.4,0.1,0.6,0.4,0.8c1.1,0.8,2.3,1,3.5,1.1c0,0.2,0,0.4,0,0.7
	c-1.2-0.3-2.4-0.2-3.6-0.7c-1-0.4-2-2.1-2.9-0.9c-0.5,0.7,1.4,1.5,2.3,2.1c0,0.2,0,0.4,0,0.7c-1.9-0.3-2.9-2.3-4.9-2.2
	c-1.5-3.4-3-6.9-4.2-10.4C16.8,109,16.5,108.1,16.6,107.2z"/>
<path class="st6" d="M146.7,39.3c6.5-0.8,13.4,4.6,14,12.4c0.4,5.2,2.7,11.3,10,15.2c-1.7,0.5-3.5-0.4-5.1,0.5
	c-1.2-0.6-2.3-0.5-3.5,0c-0.9-0.8-1.9-0.2-2.9-0.4c0-5.6,0-11.3,0-16.9c0-2.5-0.9-3.7-3.4-4.6c-0.3-1.7-1.8-1.5-2.9-1.6
	c-1.6-0.2-3.1,0-4.7,0c-0.7-1.1-0.7-2.4-1.6-3.4C146.7,40.2,146.7,39.8,146.7,39.3z"/>
<path class="st8" d="M29.6,187.1c-0.3-3.3,1.2-6.4,1.3-9.7c1.5,0,3.1,0,4.6,0c0.8,0.7,0.7,2,1.8,2.5c0.2,0.6-0.1,1.8,0.7,1.8
	c1.5-0.1,3.1-0.1,4.8-1.5c-1.7,0-3.2,0.5-3.9-1.1c0.1-0.4,0.3-0.8,0.4-1.2c2.2,0.4,4.4,0.7,6.4,1.6c1,0.5,1.9,1,2,2.2
	c0,1.2-1,1.6-1.9,2c-4.4,1.9-9,2.7-13.7,3.1C31.3,186.8,30.5,187,29.6,187.1z"/>
<path class="st5" d="M225,85.8c-0.5-4.6-4.2-8.6-8.8-9.4c-1.8,0.1-3.6-0.3-5.4,0.3c-0.9,0.4-1.2,0.2-1.4-0.9
	c-0.8-5-3.1-9.2-7.4-12.1c-4-2.8-8.3-4-13.2-2.9c0.2,2.5,0.8,4.9,1.2,7.4c1.1,6.2,2.1,12.3,2.9,18.5c0.4,3.3,1.6,6.5,1.3,9.9
	c8.1,0,16.3,0,24.4,0C222.8,94.9,225.5,90.5,225,85.8z"/>
<path class="st4" d="M164.4,118.9c-1.1-1.8-1.3-3.5,0.3-5.1c0.6-0.6,0.6-1.2,0.2-1.9c-0.6-1-0.9-2.3-0.3-3.2
	c1.1-1.5,1.2-3.1,1.1-4.9c-0.1-1.4,0.3-3.2,1.9-3.3c1.9-0.1,2.3,2,2.2,3.3c-0.2,1.9,0.9,3.5,1,5c0.1,2.7,0.1,5.2,1.2,7.7
	c0.3,0.8-0.5,1.6-0.8,2.3C168.9,118.9,166.6,118.9,164.4,118.9z"/>
<path class="st9" d="M196,142.1c-1.1,2.8-2.9,5-5.7,6.3c-0.8-1.1-1.3-0.4-1.9,0.2c-1.5,1.5-2.9,3.3-5.4,2.8c-3.1-0.6-5.8-2-7.7-4.6
	c0.6-0.3,0.9-0.7,1-1.3c1.9,0.8,3.8,1.5,5.7,2.3c1.3,0.5,1.7-0.4,2.3-1.2c0.5-0.6,0.8-1.2-0.2-1.6c-0.1-0.3-0.3-0.5-0.4-0.8
	c0-0.1,0.1-0.3,0.1-0.4c0.5,0,1.1,0,1.6,0c0.6,0,1.2,0,1.8,0c0.5-0.4,1.1-0.8,1.6-1.2c0.4,0,0.7-0.1,0.8-0.5l-0.1,0
	c1.3,0.4,2.4-0.5,3.7-0.4C194.1,141.8,195.1,141.9,196,142.1z"/>
<path class="st10" d="M113.9,156.4c1.1-3,1.7-6.2,2.4-9.3c0.5-2.2-0.8-3.2-2.7-3.7c0.3-1,0.6-1.9,0.9-2.9c1.4-0.4,2.7,0.5,4,0.2
	c0,7.8-1.8,15.6-1.5,23.4c-0.3,0-0.7-0.1-1-0.1c-1-0.4-2-0.9-3-1.3c-0.8-0.6-0.4-1.3-0.2-2C113.2,159.4,113.9,158,113.9,156.4z"/>
<path class="st10" d="M138.4,34.7c-0.1-1.1,0-2.2-0.5-3.3c0.4-0.5,1-0.8,1.6-0.8c0.6,1.5,1.3,1.6,2.1,0.1c0.7-0.1,1.4-0.3,2,0.2
	c-1.1,0.2-1.4,0.9-0.9,1.9c1.9,4.1,2,8.5,1.9,12.9c-0.3,0-0.6,0.1-0.9,0.1c-1.4,0-2.8,0-4.2-0.1c0,0-0.1,0-0.1,0
	c0.2-2.9,0.3-5.8,0.5-8.8C140.1,35.7,139.3,35.2,138.4,34.7z"/>
<path class="st7" d="M113,180.8c-4.1,0.1-8.2,0.1-12.3-0.8c-0.3-0.1-0.7-0.1-1-0.3c-0.8-0.6-2.3-0.8-2.2-2c0-1.2,1.5-1.1,2.3-1.4
	c3.8-1.3,7.8-1.4,11.8-1.4c0,1.1,0.3,2.3-0.6,3.3c-0.5,0.2-1.2,0.1-1.6,0.7c0.8,0.5,1.6,0,2.3,0.3
	C111.7,180.1,113.1,179.9,113,180.8z"/>
<path class="st3" d="M164.4,118.9c2.2,0,4.5,0,6.7,0c0.7,0.6,3,0.8,0.4,2.3c-1,0.6-0.8,2.2-0.9,3.5c0,2.6-3.2,4.3-5.4,2.9
	c-0.8-0.5-0.7-1.5-0.8-2.3c-0.3-1.8,0.1-3.7-1.9-4.9c-0.4-0.2-0.3-0.9,0.3-1.1C163.4,119.3,164,119.5,164.4,118.9z"/>
<path class="st6" d="M113,180.8c0.1-1-1.3-0.7-1.3-1.6c0.9,0,1.7-0.1,1.3-1.4c0.2-1,0.3-2,0.9-2.9c1.7-0.2,3.4,0.7,5.2,0.4
	c0,0.3,0.1,0.7,0.1,1c0,0.4-0.7,0.9,0.1,1.1c0.6,0.2,1.1,0,1.3-0.7c0.1-0.3,0.1-0.7,0.2-1c1.4-0.1,2.7,0.4,4.1,0.8
	c0.6,0.2,1.2,0.5,1.2,1.2c0,0.7-0.4,1.1-1,1.4c-2.7,1.1-5.5,1.7-8.5,1.7C115.4,180.8,114.2,180.8,113,180.8z"/>
<path class="st11" d="M139.5,30.6c-0.7,0-1.2,0.3-1.6,0.8c-0.9-0.3-1.5-1-2.1-1.7c0-1.7-0.1-3.3,0.2-5c0.5-2,1.8-2.9,3.7-3
	c2-0.1,3.3,0.9,3.8,2.9c0.1,0.5,0.1,1,0.2,1.4c0.4,3.2,0.4,3.2-2.6,4.1c-0.8-1.3,1-2.2,0.6-3.6c-1.8,0.5-3.3-0.4-4.9-1.5
	c-0.4,1.8,0.4,3,1.3,4.1C138.7,29.6,139.7,29.5,139.5,30.6z"/>
<path class="st11" d="M193.3,136.3c0.4-2.2,1-2.8,3.2-2.5c0.5,0.1,0.9,0.3,1.4-0.1c1.2-0.9,2.2-0.4,2.8,0.6c0.6,1,0.8,2.3-0.4,3.2
	c-1.3,1-1.2,3.3-3.2,3.7c-1.2,0.2-2.5-0.1-2.7-1.2C194.2,138.7,193.3,137.6,193.3,136.3z"/>
<path class="st11" d="M174,144.5c-0.6-0.3-1.2-0.6-1.8-1c-0.2-0.1-0.6-0.5-0.7-0.2c-1.3,2.3-2.1,0.2-3.1-0.3c-0.5-0.2-0.9-1-1.4-0.7
	c-0.7,0.4,0,1,0.2,1.4c0.1,0.3,0.2,0.6-0.2,0.6c-0.2,0-0.7,0-0.8-0.2c-1-1.5-1.9-3.1-2.8-4.7c-0.1-0.1,0-0.5,0.1-0.5
	c0.3-0.2,0.6-0.3,1,0c0.5,0.4,1.1,0.9,1.6,1.2c0.7,0.4,1.3,0.5,1-0.6c-0.1-0.3-0.3-0.7,0.2-0.8c0.4-0.1,0.7,0.2,0.9,0.5
	c0.6,0.9,1.2,1.9,1.8,2.8c0.3,0.4,0.4,1.1,1.3,1.1c-0.4-1.6-0.7-3.3,1.8-3.1c0.6,0,1.2,0,1.6,0.7c0.6,1,1.4,2,2.1,2.9
	c0.6,0.8,0,0.8-0.6,0.8C175.4,143.1,174.8,144.8,174,144.5z M174.7,143c-0.4-0.8-0.6-1.9-1.7-2.2c-0.4-0.1-0.7,0.2-0.7,0.6
	c0.2,1,0.8,1.8,1.7,2.2C174.4,143.8,174.7,143.4,174.7,143z M167.1,142.1c-0.2-0.2-0.3-0.3-0.5-0.4c-0.1,0-0.2,0.1-0.3,0.1
	c-0.2,0.2,0,0.4,0.2,0.4C166.6,142.3,166.8,142.2,167.1,142.1z M167.7,141c-0.1-0.1-0.1-0.1-0.1-0.1c0,0.1-0.1,0.2-0.1,0.3
	c0,0,0.1,0.1,0.1,0.1C167.6,141.2,167.6,141.1,167.7,141z"/>
<path class="st12" d="M195.9,167.4c1.2-0.9,2-2.3,3.8-2.1c-0.5,3,0.2,6.1-0.1,9.2c-0.1,0.8-0.3,1.6-0.4,2.5c-1,0-1.9,0-2.9-0.1
	C196.2,173.7,196.1,170.5,195.9,167.4z"/>
<path class="st13" d="M121.4,164.5c-0.7,2.2,0.3,4.3-0.1,6.5c-0.8,0.1-1.7,0.1-2.5,0.2c-0.3-2.2,0.3-4.4-0.5-6.6
	c0.5-0.1,0.9-0.4,0.9-1c0.9-7.5,2.2-15,1.6-22.6c0.3,0,0.6,0,0.9-0.1c0,0.1,0,0.2,0.1,0.3c0,1.3,0.1,2.6,0.1,4
	c-0.3,5.9-0.8,11.9-1.8,17.7C119.9,164.1,120.3,164.6,121.4,164.5z"/>
<path class="st11" d="M185.4,143.7c-0.5,0-1.1,0-1.6,0c-0.2-1.4-1-2.3-2.2-3c-0.1-0.1-0.5,0.1-0.5,0.2c-0.1,1,0.9,1.5,1.1,2.4
	c-0.3,0-0.7,0.1-1,0.1c-0.6-0.8-1.2-1.5-1.8-2.2c-0.4-0.4-0.9-0.6-1.3-0.2c-0.4,0.4,0.2,0.7,0.4,1c0.5,0.7,0.9,1.3,1.4,2.1
	c-1.5,0.2-2.3-0.6-4.1-4.3c3,1.8,6.9-2,8.9,2.7c0.7-1.2-0.5-2.8,1.3-2.8c1.6,0,3,0.6,3.6,2.3c0,0,0.1,0,0.1,0
	c-0.3,0.1-0.7,0-0.8,0.5c-0.5,0.4-1.1,0.8-1.6,1.2c-0.7-0.6-1.2-1.6-2.6-1.9C184.9,142.6,185.2,143.2,185.4,143.7z"/>
<path class="st10" d="M121.4,164.5c-1.1,0.1-1.5-0.4-1.3-1.5c1.1-5.9,1.5-11.8,1.8-17.7c0.1-1.3,0-2.6-0.1-4c1.4,0.2,2.3,1.1,3,2.3
	c0,0,0,0,0,0c-0.9,0.9-1.6,1.9-1.8,3.1c0,0.1-0.1,0.2-0.1,0.3c-1.4,3.2-0.2,6.3,0,9.5c0,0.7,0,1.4-0.1,2.1c0,1.4-0.1,2.9-0.1,4.3
	C122.9,163.9,122.4,164.4,121.4,164.5z"/>
<path class="st11" d="M191.1,178.3c-0.3,2.5-1.7,4.7-1.9,7.2c-0.1,0.6-0.6,0.6-1,0.6c-1.8,0-3.7,0-5.7-0.2c5-0.9,4.6-5,5.1-8.4
	C188.8,177.8,190,178,191.1,178.3z"/>
<path class="st5" d="M162.2,67.5c1.2-0.5,2.3-0.6,3.5,0c2.4,2.1,2.3,3.6,0,5.6c-2,0.7-3.9,0.5-4.9-1.5C160,70,160.6,68.5,162.2,67.5
	z"/>
<path class="st13" d="M144.6,45.6c0.1-4.4,0-8.8-1.9-12.9c-0.5-1-0.2-1.6,0.9-1.9c1.9,2.5,2.3,5.5,3.1,8.5c0,0.4,0,0.8,0,1.2
	c0,1.7,0,3.4,0,5.1C146,46.9,145.3,46.5,144.6,45.6z"/>
<path class="st13" d="M25,135.2c0.3-0.1,0.6-1.1,0.9-0.1c0.5,1.3,1,0.7,1.5,0.1c-0.7,2.7-1.4,5.5-2,8.2c-1.2,1-2.9,0.8-4.2,1.7
	c0.1-0.7,0.3-1.4,0.4-2.1c1.4-1.2,1.1-3.1,1.7-4.6C24.6,137.7,24.8,136.5,25,135.2z"/>
<path class="st11" d="M196.4,176.8c1,0,1.9,0.1,2.9,0.1c0.3,2.3-1,4.5-0.6,6.8c0.1,0.6-0.5,0.6-0.9,0.6c-1.6,0-3.1-0.1-4.9-0.2
	C194.7,182.7,194.7,182.7,196.4,176.8z"/>
<path class="st4" d="M162.2,67.5c-1.6,1-2.2,2.5-1.4,4.1c1,2,2.9,2.2,4.9,1.5c0,0.2,0,0.5,0,0.7c-2.7,0.6-4.4,2.7-6.3,4.3
	c0-3.7,0-7.3,0-11C160.3,67.3,161.3,66.8,162.2,67.5z"/>
<path class="st12" d="M191.1,178.3c-1.2-0.3-2.3-0.5-3.5-0.8c0-0.9,0-1.9,0.1-2.8c1.5-1.1,2.3-3.3,4.6-3.5
	C192.2,173.6,192,176,191.1,178.3z"/>
<path class="st8" d="M22.5,122.2c2.2,1.1,4.3,2.3,6.8,2.5c1,0.1,1.8,0.5,1.7,1.7c-0.1,1.4-1.2,1.7-2.3,1.6c-1.8-0.1-3.5-0.8-5.1-1.6
	c-1.2-0.6-2.6-1.1-3.5-2.4c1.1-0.3,1.8,0.4,2.6,0.8c1.7,0.9,3.6,1.6,5.5,2c0.6,0.1,1.4,0.5,1.6-0.4c0.1-0.8-0.7-0.6-1.2-0.7
	c-2-0.4-3.9-1-5.6-2.2C22.8,123,22.6,122.6,22.5,122.2z"/>
<path class="st13" d="M113,162.8c1,0.4,2,0.9,3,1.3c-1.3,2.3-1.8,4.8-1.7,7.3c-0.8-0.1-1.6-0.3-2.4-0.4
	C112.2,168.3,112.1,165.5,113,162.8z"/>
<path class="st11" d="M23.3,138.4c-0.6,1.5-0.3,3.4-1.7,4.6c-2.2-0.9-3-2.5-2.1-4.3C20.5,136.8,21.9,136.7,23.3,138.4z"/>
<path class="st13" d="M139.5,30.6c0.2-1-0.8-1-1.2-1.4c-0.9-1.1-1.7-2.3-1.3-4.1c1.6,1.1,3.1,1.9,4.9,1.5c0.4,1.4-1.4,2.3-0.6,3.6
	c0.1,0.2,0.3,0.4,0.4,0.6C140.9,32.2,140.2,32.1,139.5,30.6z"/>
<path class="st10" d="M111.8,171.1c0.8,0.1,1.6,0.3,2.4,0.4c0.2,1.2-0.4,2.3-0.4,3.4c-0.6,0.9-0.7,1.9-0.9,2.9c-0.7,0-1.2,0.6-2,0.4
	c0.9-1,0.7-2.2,0.6-3.3C111.7,173.6,111.8,172.4,111.8,171.1z"/>
<path class="st10" d="M118.9,171.2c0.8-0.1,1.7-0.1,2.5-0.2c-0.2,1.6-0.4,3.2-0.6,4.8c-0.1,0.3-0.1,0.7-0.2,1
	c-0.2,0.6-0.7,0.8-1.3,0.7c-0.8-0.3-0.1-0.7-0.1-1.1c0-0.3-0.1-0.7-0.1-1C119,173.9,118.9,172.6,118.9,171.2z"/>
<path class="st13" d="M193.3,136.3c-0.1,1.4,0.8,2.5,1.1,3.8c0.2,1.1,1.5,1.4,2.7,1.2c-0.1,0.3-0.2,0.5-0.3,0.8
	c-0.3,0-0.5,0.1-0.8,0.1c-1-0.2-1.9-0.4-2.9-0.5C191.8,139.8,191.8,138,193.3,136.3z"/>
<path class="st11" d="M13.9,178.8c-0.9,1.3-0.8,2.6,0.2,3.9c-1.2,0.7-1.9,0-2.5-0.8c-1.4-1.6-0.3-2.6,0.9-3.5
	C13,178.3,13.5,178.5,13.9,178.8z"/>
<path class="st4" d="M177.4,59c0,1.2-0.9,1.7-1.8,1.7c-1,0.1-1.8-0.7-1.8-1.6c0-1,0.6-1.7,1.8-1.6C176.6,57.5,177.2,58,177.4,59z"/>
<path class="st4" d="M152.2,37.3c-0.9-0.1-1.7-0.3-1.8-1.4c-0.1-1.2,0.7-1.7,1.6-1.8c0.8-0.1,1.7,0.4,1.8,1.4
	C153.9,36.6,153.2,37.1,152.2,37.3z"/>
<path class="st8" d="M199.3,105c-1,0.5-1.8,0.4-2.1-0.9c0.1-1.1,0.8-1.5,1.7-1.1C200.1,103.4,199.8,104.3,199.3,105z"/>
<path class="st13" d="M174,144.5c0.7,0.3,1.4-1.4,2.2-0.1c0,0.3,0,0.7,0,1c-0.1,0.6-0.4,1.1-1,1.3
	C174.5,146.2,174.2,145.4,174,144.5z"/>
<path class="st14" d="M26.2,130.2c-0.1-0.4-0.3-0.7-0.4-1.1c0-0.1,0-0.3,0-0.4c1.4,0.3,2.8,0.6,4.2,0.4c0,0.1,0,0.3,0,0.4
	c-1.3,0.4-2.5,0.8-3.8,1.2C26.2,130.5,26.2,130.4,26.2,130.2z"/>
<path class="st13" d="M181.1,143.5c0.3,0,0.7-0.1,1-0.1c0.7,0,1.1,0.4,1.5,0.9c0.1,0.3,0.3,0.5,0.4,0.8
	C182.8,145,181.5,145.1,181.1,143.5z"/>
<path class="st3" d="M154.3,143.6c0.5,0,1-0.1,1.6-0.1C155.4,143.9,154.9,143.9,154.3,143.6z"/>
<path class="st15" d="M22.5,130.3c0,0.1,0.1,0.2,0.1,0.3c0,0,0,0.1-0.1,0.1c-0.2,0-0.3,0-0.5,0C22.1,130.5,22.2,130.3,22.5,130.3z"
	/>
<path class="st15" d="M26.7,83.6c0.5-3.4,0.8-6.8,1.7-10.1c4.5-0.2,8.9,0.3,13.4-0.4c2-0.3,2.5,0.5,1.9,2.7
	c-1.3,4.6-1.8,9.3-1.4,14.1c-1.8,0.7-1.7,2.3-1.7,3.9c-1.5-2.2-1.8-2.2-3.3-0.5c-2.2,0.8-3.1,0.1-3.7-2.2c-1-3.4-3.3-5.9-6.8-7.1
	C26.7,83.9,26.7,83.7,26.7,83.6z"/>
<path class="st8" d="M26.7,84c3.5,1.2,5.8,3.6,6.8,7.1c0.6,2.3,1.6,3,3.7,2.2c0.9,2.9-2.3,5.6-0.6,8.6c0,0.1-0.2,0.3-0.3,0.5
	c-1.5,2.5-1.1,3.7,1.4,4.7c-0.4,0.7-0.6,1.4,0.4,1.6c1.3,0.3,1.3,1.2,1.3,2.2c0,1,0,1.9,0,2.9c-3.3,0.1-3.3,0.1-3.4-3.3
	c0-0.9-0.3-1.6-1-2.3c-1.5-1.5-3.1-1.3-4.9-1.1c-0.1,0-0.3,0-0.4,0c-0.7-3.2-1.5-6.4-2.1-9.6C26.7,93.1,26.6,88.5,26.7,84z"/>
<path class="st16" d="M159.3,67.2c0,3.7,0,7.3,0,11c0,6,0,12.1,0,18.1c-5.8,0-11.6,0-17.4-0.1c0.4-0.8,0.8-1.6,1.2-2.4
	c4.5-9,0.8-19.9-8.3-24.2c-9.1-4.3-19.9-0.4-24,8.8c-2.8,6.2-1.8,12.1,1.6,17.8c-5.6,0.1-11.1,0.1-16.7,0.2c0-9.3,0-18.6-0.1-27.9
	c0-3.8,0-7.6,0-11.3c0.4-1.6,0.3-3.5,0.1-5c-0.2-2.4,0.3-4.4,1.2-6.4c0.2,0,0.5,0,0.7,0c0.5,0,0.9,0,1.4,0c6.3,0,12.7,0,19,0
	c1.2,0,2.4,0,3.6,0.1c0.4,1.1,0.7,2.3,1.2,3.3c0.8,1.8,2.2,2.8,4.2,3c3.5,0.2,5.3-1.9,5.2-6.2c0.7,0.5,1.3,0.3,1.9-0.2
	c1.7,0,3.4,0,5.1,0.1c0,0,0.1,0,0.1,0c1.4,0.6,2.8,0.5,4.2,0.1c0.3,0,0.6-0.1,0.9-0.1c0.7,0.8,1.4,1.2,2.1,0.1c0.7,0,1.3,0,2,0
	c2.4,0,4.8,0,7.2,0c2.5,0.8,3.4,2,3.4,4.6C159.3,55.9,159.3,61.5,159.3,67.2z"/>
<path class="st7" d="M30.1,107.2c1.8-0.2,3.4-0.4,4.9,1.1c0.7,0.7,1,1.4,1,2.3c0.1,3.4,0.1,3.4,3.4,3.3c0.1,0,0.3,0,0.4,0.1
	c0.7,2.4,2.6,0.9,4,1.2c1.3,0.2,1.5-1,1.5-2c0.1-1.7-0.4-3.7,1.7-4.7c0.6,0.5,0.4,1.3,0.4,2c0,3.1,0,6.2,0,9.2c0,2.3,1,3.4,3.4,3.5
	c1.7,0.5,3.4,0.4,5.2,0.4c4.3,0,8.6,0,12.9,0c0,2.5,0,5,0,7.5c0,3.2,0.9,4.2,4.3,4.6c6.9,0,13.7,0,20.6,0c0.1,1.8-0.4,3.7,0.5,5.3
	c0.7,1.1,1.2,3.1,3.3,1.8c0.6,0.2,1.2,0.3,1.8,0.5c0.1,0,0.2,0,0.3,0c2.1,0.1,4.2,0.1,6.4,0.2c-0.9,1.9-2.9,1.7-4.4,2.1
	c-6,1.7-12.3,2.2-18.5,1.7c-7.6-0.6-15-2.3-21.9-5.7c-6.7-3.3-12.6-7.4-17.8-12.8c-0.7-0.7-1.3-1.7-2.5-1.7c0.1-5.4-2.5-9.6-6.9-11
	C32.6,113.3,30.8,110.4,30.1,107.2z"/>
<linearGradient id="SVGID_1_" gradientUnits="userSpaceOnUse" x1="109.2129" y1="84.5714" x2="145.0526" y2="84.5714">
	<stop  offset="0" style="stop-color:#7E51FF"/>
	<stop  offset="1" style="stop-color:#FA4A84"/>
</linearGradient>
<path style="fill:url(#SVGID_1_);" d="M112.5,96.1c-3.5-5.7-4.4-11.6-1.6-17.8c4.1-9.2,14.9-13.1,24-8.8c9.1,4.3,12.8,15.2,8.3,24.2
	c-0.4,0.8-0.8,1.6-1.2,2.4c-2.1,1.9-3.7,4.3-6.6,5.2c-0.1-1.6-1.5-2.1-2.6-2.7c-0.5-0.3-1.4-0.5-1.3-1.1c0.1-0.8,1-0.4,1.6-0.4
	c0.6-0.1,1.3,0,1.9,0c1.2-0.1,1.7-0.8,0.9-1.8c-0.9-1.2-0.9-2.5-0.8-3.8c0.1-1.7,0.3-3.3,0.3-5c-0.3-6.6-5.6-10.5-11.2-8.3
	c-3.3,1.3-4.9,4-5.2,7.5c-0.3,3.3,0.7,6.7-0.9,9.9c-0.5,1,0.3,1.5,1.3,1.5c1.1,0,2.1,0,3.3,0c-0.3,1.3-1,1.5-1.7,1.8
	c-1.1,0.5-2.2,1-2.4,2.4C116,100.1,114.2,98.1,112.5,96.1z"/>
<path class="st8" d="M97.4,142.9c-2.1,1.3-2.7-0.7-3.3-1.8c-0.9-1.6-0.4-3.5-0.5-5.3c0.1-0.3,0.4-0.6,0.4-0.9c0-4.5,0-9,0-13.4
	c0-0.9-0.4-1.3-1.2-1.3c-0.4,0-0.7-0.1-0.8-0.6c0-0.3,0.2-0.6,0.5-0.6c2,0,1.5-1.4,1.5-2.5c0-0.8-0.4-1.7-0.3-2.5
	c0.3-4.3,0.4-8.6,0.3-12.9c0-6.8,0-13.7,0-20.5c-0.8-2.4-0.3-4.9-0.3-7.3c0-1.5-0.6-1.8-1.9-1.3c-3,1.2-5.4,3.1-7.4,5.6
	c-0.6-0.7-1.4-0.4-2.2-0.4c-3.9,0-7.8,0-11.7,0c0-1-0.1-2.1,0-3.1c0.1-1.3-0.5-1.7-1.7-1.6c-0.5-0.3-0.9-0.1-1.4,0
	c-3.3,0.6-5.7,2.6-7.8,5.1c-0.3-0.5-0.5-1,0-1.5c1.8-1.6,2.5-3.8,2.8-6c0.4-3.3,3.6-5.3,6.7-4.7c1.1,0.2,1.5,0,1.8-1
	c1.4-3.7,5-5.7,8.7-5.8c4.2-0.1,7.3,2.4,9,7.2c0.2,0.6,0.3,1.5,1.1,1.2c2.4-0.8,4.1,0.7,6.1,1.3c0,9.3,0,18.6,0.1,27.9
	c0,13.9,0,27.9,0,41.8C95.8,139.9,96.1,141.6,97.4,142.9z"/>
<path class="st3" d="M118.5,101.2c0.2-1.4,1.3-1.9,2.4-2.4c0.7-0.3,1.5-0.5,1.7-1.8c-1.2,0-2.2,0-3.3,0c-1,0-1.8-0.5-1.3-1.5
	c1.6-3.2,0.6-6.6,0.9-9.9c0.3-3.5,1.9-6.2,5.2-7.5c5.6-2.3,10.9,1.6,11.2,8.3c0.1,1.7-0.2,3.3-0.3,5c-0.1,1.3-0.1,2.6,0.8,3.8
	c0.7,1,0.3,1.7-0.9,1.8c-0.6,0.1-1.3,0-1.9,0c-0.6,0.1-1.5-0.4-1.6,0.4c-0.1,0.7,0.8,0.9,1.3,1.1c1.2,0.6,2.5,1,2.6,2.7
	C129.7,104.6,124.1,104.4,118.5,101.2z"/>
<path class="st18" d="M125.6,119.4c-6.8,0-13.6,0-20.4,0c-0.6,0-1.1,0-1.7,0c-0.6-0.1-0.9-0.5-0.9-1c0-0.6,0.4-0.9,0.9-1
	c0.6-0.1,1.1,0,1.7,0c13.5,0,27.1,0,40.6,0c1,0,2.6-0.4,2.6,1c0,1.7-1.7,1-2.7,1C139.1,119.4,132.4,119.4,125.6,119.4z"/>
<path class="st18" d="M125.9,111.3c6.9,0,13.9,0,20.8,0c0.8,0,2-0.3,1.9,1c-0.1,1-1.2,0.8-1.9,0.8c-14,0-28,0-42.1,0
	c-0.7,0-1.8,0.3-1.9-0.8c-0.1-1.3,1.1-1,1.9-1C111.7,111.3,118.8,111.3,125.9,111.3z"/>
<path class="st18" d="M117.6,125.6c-4.3,0-8.7,0-13,0c-0.8,0-1.9,0.2-2-1c0-1.2,1.1-1,1.9-1c8.8,0,17.5,0,26.3,0
	c0.8,0,1.9-0.2,1.8,1.1c-0.1,1-1.1,0.9-1.8,0.9C126.5,125.6,122.1,125.6,117.6,125.6z"/>
<path class="st13" d="M114.5,140.6c-0.3,1-0.6,1.9-0.9,2.9c-0.1,0-0.1,0-0.2,0c-5-2-6.3-5.9-5.9-10.9c0.1-0.7-0.1-1.5-0.2-2.3
	c0-0.6,0.1-1.1,0.6-1.5c0.2-0.1,0.6-0.2,0.8,0c0.6,0.4,0.4,0.9,0.2,1.5c-0.6,2.7,0.4,5.3,1.4,7.7C110.8,139.2,113,139.7,114.5,140.6
	z"/>
<path class="st11" d="M121.8,141c-0.3,0-0.6,0-0.9,0.1c-0.5-0.1-1.1-0.2-1.6-0.2l0,0c0.5-0.4,0.4-0.8,0-1.2c1.2-1.7,1.2-3.3,0-4.3
	c1.9-1.1,3.4-0.8,4.3,0.9C124.6,138,123.7,140.2,121.8,141z"/>
<path class="st13" d="M117,164.2c-0.3-7.9,1.5-15.6,1.5-23.4c0.3,0,0.6,0,0.8,0l0,0c0,2.2,0.2,4.4-0.2,6.5
	c-1.1,5.7-1.2,11.3-1.2,17.1C117.6,164.3,117.3,164.3,117,164.2z"/>
<path class="st13" d="M119.3,135.4c1.2,1,1.3,2.6,0,4.3c-0.1-0.1-0.1-0.1-0.2-0.1C117.7,138.1,119,136.8,119.3,135.4L119.3,135.4z"
	/>
<path class="st11" d="M119.3,135.4c-0.3,1.4-1.7,2.7-0.2,4.2c-1,0.1-2.3-0.4-2-1.1C117.4,137.3,117.8,135.8,119.3,135.4z"/>
<path class="st12" d="M99.5,143.4c-0.1,0-0.2,0-0.3,0C99.3,143.4,99.4,143.4,99.5,143.4z"/>
<path class="st6" d="M50.7,123.1c-2.4-0.2-3.4-1.2-3.4-3.5c0-3.1,0-6.2,0-9.2c0-0.7,0.2-1.4-0.4-2c0.1-0.9-0.4-1.4-1.3-1.3
	c0.1-1,1.3-1.9,0.8-2.7c-1.2-2.1-1.3-4.3-1.1-6.6c0-0.4-0.1-0.9-0.4-1.2c-1-0.8-0.7-1.7-0.6-2.8c0.2-1.6,0.2-3.4-2-3.9
	c-0.3-4.8,0.1-9.5,1.4-14.1c0.6-2.2,0.1-3-1.9-2.7c-4.5,0.7-8.9,0.2-13.4,0.4c0,0,0,0,0,0c-0.1-0.8,0.2-1.5,0.4-2.2
	c1.2-5.2,3.8-9.8,5.9-14.6c0.8-0.8,0.4-1.8,0.7-2.8c1.6-5.5,5.3-9,10.6-10.9c0.6-0.2,1.2-0.4,1.8-0.7c0.4,0,0.9,0,1.3,0
	c-0.4,3,0.7,3.4,2.3,3.6c1.7,0.2,2.9-0.8,2.8-2.8c2.6,0.4,4.8,1.7,6.6,3.6c2.6,2.6,2.5,2.5,5.9,1c1.1-0.5,2.1-2,3.7-1.2
	c-0.9,1.1-1.1,2.2-0.3,3.5c0.9,1.3,2.2,1.2,3.6,1.2c1.3,0,1.9-0.9,2.1-2c0.5-2-0.8-2.9-2.4-3.5c0.1-0.8,0.7-1,1.3-1.2
	c3.9-1.1,8-1.2,12-1.7c0.6-0.1,0.9,0.2,1,0.8C87,44,86.4,44.5,85.7,45c-2.5,1.8-4.6,3.9-5.1,7c-3.2,0-6.5-0.1-9.7,0.4
	c-0.4-0.6-0.8-0.4-1.3-0.2c-1.4,0.5-2.9,1-4.4,1.5c-3.6,1.2-2.9,1-1.7,4c-2.4-0.1-4.7-0.1-7.1-0.3c-1.2-0.1-2.3,0.4-3.5,0.4
	c-3.1-0.1-4.4,1-4.4,4.2c0,9.9,0,19.7,0,29.6c0,8.5,0.1,17-0.1,25.5C48.5,119.5,48.8,121.5,50.7,123.1z M35.8,71.4
	c1.9,0,3.1-1,3.1-2.7c0-1.4-1.6-2.8-3.4-2.8c-1.4,0-2.8,1.4-2.9,2.9C32.6,70.4,33.8,71.4,35.8,71.4z"/>
<path class="st7" d="M70.4,46.5c-1.6-0.8-2.6,0.7-3.7,1.2c-3.4,1.5-3.4,1.6-5.9-1c-1.9-1.9-4-3.2-6.6-3.6c-1.4-2.6-2.6-2.8-5.1-0.8
	c-0.4,0-0.9,0-1.3,0c3.8-4.1,8.6-6.7,13.5-9c9-4.3,18.5-6.1,28.4-5.7c4.2,0.2,8.4,0.9,12.5,2c0.8,0.2,1.6,0.6,2.5,0.5
	c-3.4,3.9-5.8,8.2-5.9,13.5c-0.4,0-0.8,0-1.3,0c-3.2-1.3-6.5-1-9.7,0c-0.1-0.6-0.4-0.9-1-0.8c-4,0.5-8.1,0.6-12,1.7
	c-0.6,0.2-1.2,0.4-1.3,1.2C72.3,45.5,71.3,45.8,70.4,46.5z M83.9,35.7c-0.1-0.6-0.8-1-1.7-0.9c-1,0-1.7,0.5-1.6,1.7
	c0.1,1,0.9,1.5,1.7,1.5C83.3,37.9,84,37.3,83.9,35.7z"/>
<path class="st15" d="M34.7,56.6c-2.1,4.8-4.7,9.4-5.9,14.6c-0.2,0.7-0.5,1.5-0.4,2.2c-2.9-0.4-4.8-2.2-5.8-4.8
	c-1.4-3.3-1.1-6.5,1.3-9.4C26.7,55.8,30.4,54.9,34.7,56.6z"/>
<path class="st4" d="M32.6,50.3c1,0.2,1.7,0.7,1.6,1.8c-0.1,1.1-0.8,1.6-1.9,1.5c-0.9-0.1-1.6-0.5-1.5-1.6
	C31,51,31.6,50.4,32.6,50.3z"/>
<path class="st14" d="M38.5,128.2c0.5-3.9-0.9-7.1-3.8-9.7c2.2,0.4,4.3,3,4.6,6c0.1,1.2,0.2,2.5-0.1,3.8
	C39,128.2,38.7,128.2,38.5,128.2z"/>
<path class="st13" d="M37.1,128.6c1.1,1,0,1.7-0.3,2.6c0,0.1,0,0.2-0.1,0.3c-0.1,0.1-0.2,0.3-0.3,0.4c-0.1,0.2-0.2,0.4-0.3,0.6
	c-0.6-0.1-1.1-0.4-1.4-0.8c0-0.6,0-1.1,0-1.7c0.7,0.5,0.8-0.4,1.3-0.6c0.1-0.1,0.3-0.2,0.4-0.3l0,0
	C36.6,128.9,36.8,128.7,37.1,128.6z"/>
<path class="st12" d="M36.4,131.9c0.1-0.1,0.2-0.3,0.3-0.4C36.7,131.6,36.6,131.7,36.4,131.9z"/>
<path class="st8" d="M172.8,81.5c2.8,0,5,1.9,5,4.2c0,2.2-2.5,4.5-5,4.5c-2.3,0-5.1-2.4-4.9-4.5C168.1,83.2,169.6,81.2,172.8,81.5z"
	/>
<path class="st8" d="M179.7,82.7c-1.2-0.1-1.9-0.7-1.9-1.7c0-1,0.6-1.6,1.6-1.6c1,0,1.7,0.6,1.7,1.7
	C181.2,82.1,180.5,82.5,179.7,82.7z"/>
<path class="st5" d="M132.4,45.8c0,4.3-1.8,6.4-5.2,6.2c-2-0.1-3.4-1.2-4.2-3c-0.5-1.1-0.8-2.2-1.2-3.3c-0.5-1.8-1.6-3.5-1.7-5.4
	c2.4-1.2,5.1-1.8,7.6-2.8c1.4-0.5,1.8,0.4,2.1,1.3c0.9,2.3,1.7,4.6,2.5,6.9C132.3,45.7,132.4,45.8,132.4,45.8z M129,48.6
	c1.6-0.6,1.2-1.8,0.7-2.8c-0.6-1.2-1.7-1.9-3.2-1.2c-1.4,0.7-2.1,1.7-1.5,3.3c0.4,1.1,1.2,1.8,2.4,1.8
	C128.1,49.8,129.1,49.9,129,48.6L129,48.6z"/>
<path class="st8" d="M97.4,43.6c0.4,0,0.8,0,1.3,0c0.6,0.7,1.4,0.4,2.2,0.4c5.6,0,11.1,0,16.7,0c0.2,0.5,0.4,1.1,0.6,1.6
	c-6.3,0-12.7,0-19,0c-0.4-0.6-0.9-1.4-1.4,0c-0.2,0-0.5,0-0.7,0c-0.6,0.1-1.3-0.2-1.7,0.4c-0.1,0-0.3,0-0.4,0
	C94.7,44.1,96.6,44.4,97.4,43.6z"/>
<path class="st13" d="M132.4,45.8c0,0-0.1-0.2-0.1-0.2c0.1-1.9,1.6-2.9,2.5-4.2c1.5-2.1,3.1-4.2,3.6-6.8c0.9,0.5,1.7,1.1,1.5,2.3
	c-1.3,3.3-3.9,5.7-5.6,8.7C133.7,46.1,133.1,46.3,132.4,45.8z"/>
<path class="st4" d="M118.1,45.6c-0.2-0.5-0.4-1.1-0.6-1.6c-0.9-2.7-0.9-2.7,2.5-3.7c0.1,1.9,1.2,3.6,1.7,5.4
	C120.5,45.7,119.3,45.6,118.1,45.6z"/>
<path class="st13" d="M125.1,145.9c1.1,3.6-0.5,6.8-1.6,10.1c-0.8-1.2-0.5-2.6-0.3-3.8c0.3-1.8,0.4-3.5-0.3-5.2
	c0.1-0.1,0.1-0.2,0.1-0.3C123.7,146.4,124.4,146.1,125.1,145.9z"/>
<path class="st14" d="M122.9,147c0.7,1.7,0.6,3.4,0.3,5.2c-0.2,1.2-0.5,2.6,0.3,3.8c-0.2,0.2-0.4,0.3-0.5,0.5
	C122.8,153.3,121.5,150.1,122.9,147z"/>
<path class="st4" d="M125.1,145.9c-0.7,0.3-1.4,0.6-2,0.8c0.2-1.3,1-2.2,1.8-3.1C125.4,144.3,125.2,145.1,125.1,145.9z"/>
<path class="st19" d="M35.5,177.5c-1.5,0-3.1,0-4.6,0c-2.2-0.9-4.6-0.6-6.8-0.3c-2.9,0.4-5.7,0.2-8.6,0.3c2.6-4.7,6.2-8.8,8.6-13.6
	c0.4-0.8,0.9-0.8,1.5-0.3c2.3,1.9,5.1,3.3,5.8,6.7C32,173,34.2,175,35.5,177.5z"/>
<path class="st20" d="M30.5,120.7c4.7,1.4,6,4.3,4,8.9c-1.6,2-4,1.9-6.1,2.6c0.1-0.3,0.2-0.7,0.3-1c0.7-0.2,1.4-0.3,2-0.5
	c2.3-0.6,3.6-1.9,3.8-4.2c0.2-2.2-0.9-3.7-2.8-4.7c-0.4-0.2-0.8-0.3-1.2-0.5C30.5,121.2,30.5,120.9,30.5,120.7z"/>
<path class="st20" d="M30.1,129.5c0-0.1,0-0.3,0-0.4c1.4-0.7,2.5-1.6,2.2-3.4c-0.3-1.8-1.6-2.2-3.2-2.4c-0.9-0.1-2-0.1-2.8-0.8
	c0-0.2,0-0.4,0-0.7c1.3,0.2,2.6,0.4,3.9,0.7c1.9,0.4,3,1.5,3.1,3.4C33.4,127.9,32.2,129.1,30.1,129.5z"/>
<path class="st20" d="M36.3,129c0-1.1,0.2-2.2,0.1-3.3c-0.1-3.1-2.2-4.8-4.7-6c0-0.2,0-0.5,0-0.7c4.5,1.2,6.3,4.4,5.4,9.6
	C36.8,128.7,36.6,128.9,36.3,129z"/>
<path class="st14" d="M34.3,118.1c-0.3,0-0.6-0.1-0.9-0.1c0-0.3,0-0.5,0.1-0.8C33.7,117.5,34,117.8,34.3,118.1z"/>
<path class="st21" d="M25.4,143.4c0.7-2.7,1.4-5.5,2-8.2c0.2-0.3,0.4-0.7,0.6-1c0.2,0,0.3,0,0.5,0c-0.2,0.9,0.1,1.3,1.1,1.1
	c1.2-0.3,2.4-0.7,3.5-1C31.8,138.3,29,141.2,25.4,143.4z"/>
<g>
	<g>
		<path class="st10" d="M21.3,120.4c2,0,3.1,2,4.9,2.2c0.8,0.6,1.8,0.7,2.8,0.8c1.6,0.2,2.9,0.6,3.2,2.4c0.3,1.8-0.8,2.7-2.2,3.4
			c-1.4,0.2-2.8-0.1-4.2-0.4c-1.3-0.4-2.4-1.5-4.3-1.2c1.3,0.8,0.9,1.9,0.9,2.8l0,0c-0.3,0-0.4,0.2-0.5,0.4c-0.5,0.2-0.9,1-1.4,0.5
			c-0.6-0.5,0-1,0.3-1.4c0.6-0.7,0.4-1.4-0.4-1.6c-1.6-0.6-1.1-1.2-0.4-2.2c0.1-0.2-2.4-0.9-0.2-1.9c0.1-0.1,0.2-0.2,0.3-0.3
			c0.4-1.6,0.4-1.6,2-0.6c0.2,0.1,0.5,0.2,0.8,0.4c1.7,1.2,3.6,1.7,5.6,2.2c0.5,0.1,1.4,0,1.2,0.7c-0.1,0.9-1,0.5-1.6,0.4
			c-1.9-0.4-3.7-1.1-5.5-2c-0.7-0.4-1.4-1.1-2.6-0.8c0.9,1.4,2.3,1.8,3.5,2.4c1.6,0.9,3.3,1.5,5.1,1.6c1.1,0,2.1-0.3,2.3-1.6
			c0.1-1.2-0.7-1.7-1.7-1.7c-2.5-0.1-4.7-1.3-6.8-2.5C22.1,121.6,20.9,121.5,21.3,120.4z"/>
		<path class="st10" d="M34.7,131.6c-0.2,0.1-0.3,0.3-0.5,0.4c-0.5,0-1-0.1-1.2,0.5l0,0c-1.8,0.3-3.6,0.3-5,1.7
			c-0.2,0.3-0.4,0.7-0.6,1c-0.5,0.6-1,1.2-1.5-0.1c-0.4-1-0.6,0.1-0.9,0.1c-1.4,0.1-1-0.9-0.9-1.5c0.2-1.3,1.2-2.2,2.1-2.9
			c1.3-0.4,2.5-0.8,3.8-1.2c2.1-0.4,3.3-1.6,3.2-3.4c-0.1-1.9-1.2-3.1-3.1-3.4c-1.3-0.3-2.6-0.5-3.9-0.7c-0.9-0.6-2.8-1.4-2.3-2.1
			c0.8-1.2,1.9,0.5,2.9,0.9c1.2,0.5,2.4,0.4,3.6,0.7c0.4,0.2,0.8,0.3,1.2,0.5c1.9,1,3,2.5,2.8,4.7c-0.2,2.2-1.5,3.6-3.8,4.2
			c-0.7,0.2-1.4,0.3-2,0.5c-0.9,0.2-1.9,0.3-2.2,1.5c0,0.1,0.1,0.5,0.2,0.5c0.8,0.2,1.1-0.7,1.7-0.9c2.1-0.7,4.5-0.6,6.1-2.6
			c0.1,0.1,0.2,0.2,0.3,0.3C34.7,130.5,34.7,131,34.7,131.6z"/>
		<path class="st10" d="M26.2,130.2c-1.3,0.1-2.4,0.6-2.9,1.9c-0.2,0.5-0.3,1.5-1.2,1c-0.7-0.4-0.1-1.1,0.1-1.6
			c0.1-0.3,0.2-0.5,0.3-0.8c0-0.1,0.1-0.1,0.1-0.1c0-0.1-0.1-0.2-0.1-0.3c0,0,0,0,0,0c1.2-0.2,2-1.4,3.4-1.2
			C26,129.5,26.1,129.8,26.2,130.2z"/>
		<path class="st10" d="M33.8,116.4c4.5,1.4,7.1,5.5,6.9,11c-0.1,0.4-0.1,0.8-0.2,1.2c-0.2,0.5-0.2,1.3-0.9,1.1
			c-0.7-0.2-0.3-0.9-0.4-1.4c0.3-1.2,0.2-2.5,0.1-3.8c-0.3-3-2.4-5.6-4.6-6l0,0c0.1-0.4-0.2-0.4-0.4-0.4l0,0
			c-0.3-0.3-0.5-0.6-0.8-0.9C33.4,116.9,33.5,116.5,33.8,116.4z"/>
		<path class="st10" d="M31.7,119c-0.7-0.4-2.3-0.1-2-1.2c0.3-1.1,1.6-0.3,2.5-0.1c0.4,0.1,0.8,0.2,1.2,0.3c0.3,0,0.6,0.1,0.9,0.1
			c0,0,0,0,0,0c-0.1,0.4,0.1,0.4,0.4,0.4c0,0,0,0,0,0c2.9,2.6,4.4,5.7,3.8,9.7c-0.5,1-0.6,2.2-1.6,3c0.3-0.8,1.4-1.6,0.3-2.6
			C38,123.4,36.2,120.2,31.7,119z"/>
		<path class="st10" d="M36,129.3c-0.4,0.2-0.5,1.1-1.3,0.6c-0.1-0.1-0.2-0.2-0.3-0.3c2-4.6,0.7-7.6-4-8.9c-1.3-0.1-2.5-0.4-3.5-1.1
			c-0.3-0.2-0.6-0.4-0.4-0.8c0.2-0.5,0.6-0.5,1-0.3c1.3,0.9,2.8,0.9,4.2,1.2c2.6,1.2,4.6,2.9,4.7,6c0,1.1-0.1,2.2-0.1,3.3
			c0,0,0,0,0,0C36.1,128.9,36,129.2,36,129.3z"/>
	</g>
	<path class="st10" d="M33.1,134.2c-1.2,0.3-2.3,0.7-3.5,1c-0.9,0.2-1.3-0.1-1.1-1.1c1.7-0.2,3.3-0.4,4.5-1.7c0,0,0,0,0,0
		c0.3,0,0.6,0,0.9,0.1C33.9,133.2,33.6,133.7,33.1,134.2z"/>
</g>
<path class="st14" d="M33.9,132.5c-0.3,0-0.6,0-0.9-0.1c0.3-0.5,0.8-0.5,1.2-0.5C34.1,132.1,34,132.3,33.9,132.5z"/>
<path class="st8" d="M155.9,45.7c-2.4,0-4.8,0-7.2,0c-0.1-0.5-0.3-1.1-0.4-1.6c1.6,0,3.2-0.1,4.7,0C154.2,44.1,155.6,44,155.9,45.7z
	"/>
<path class="st10" d="M148.3,44c0.1,0.5,0.3,1.1,0.4,1.6c-0.7,0-1.3,0-2,0c0-1.7,0-3.4,0-5.1C147.6,41.6,147.7,42.9,148.3,44z"/>
<path class="st8" d="M183.6,144.2c-0.4-0.4-0.8-0.9-1.5-0.9c-0.2-0.9-1.2-1.4-1.1-2.4c0-0.1,0.4-0.2,0.5-0.2c1.2,0.7,2,1.6,2.2,3
	C183.7,143.9,183.7,144,183.6,144.2z"/>
<path class="st18" d="M185.4,143.7c-0.2-0.5-0.5-1.1-0.9-2c1.4,0.4,1.9,1.3,2.6,1.9C186.6,143.7,186,143.7,185.4,143.7z"/>
<path class="st19" d="M188.8,142.5c0.1-0.5,0.5-0.5,0.8-0.5C189.5,142.4,189.2,142.5,188.8,142.5z"/>
<path class="st21" d="M117,164.2c0.3,0,0.6,0.1,0.9,0.1c0.2,0.1,0.3,0.2,0.5,0.2c0.8,2.1,0.2,4.4,0.5,6.6c0.1,1.4,0.1,2.8,0.2,4.2
	c-1.8,0.3-3.4-0.6-5.2-0.4c0-1.2,0.6-2.2,0.4-3.4c0-2.6,0.4-5.1,1.7-7.3C116.3,164.2,116.7,164.2,117,164.2z"/>
<path class="st8" d="M134.3,45.6c1.7-3,4.3-5.4,5.6-8.7c-0.2,2.9-0.3,5.8-0.5,8.8C137.8,45.7,136,45.6,134.3,45.6z"/>
<path class="st8" d="M143.7,45.8c-1.4,0.5-2.8,0.6-4.2-0.1C140.9,45.7,142.3,45.8,143.7,45.8z"/>
<path class="st22" d="M111.1,178.2c0.7,0.3,1.3-0.4,2-0.4c0.4,1.3-0.4,1.4-1.3,1.4c-0.7-0.3-1.5,0.2-2.3-0.3
	C109.8,178.3,110.5,178.4,111.1,178.2z"/>
<path class="st15" d="M25.8,128.7c0,0.1,0,0.3,0,0.4c-1.3-0.2-2.2,1-3.4,1.2c0-1,0.4-2-0.9-2.8C23.4,127.2,24.5,128.2,25.8,128.7z"
	/>
<path class="st14" d="M33,132.4c-1.2,1.3-2.9,1.5-4.5,1.7c-0.2,0-0.3,0-0.5,0C29.4,132.7,31.2,132.7,33,132.4z"/>
<path class="st13" d="M28.6,131.2c-0.1,0.3-0.2,0.7-0.3,1c-0.6,0.2-0.9,1.1-1.7,0.9c-0.1,0-0.2-0.3-0.2-0.5
	C26.6,131.5,27.7,131.4,28.6,131.2z"/>
<path class="st8" d="M174.7,143c0,0.4-0.3,0.8-0.7,0.6c-1-0.4-1.6-1.2-1.7-2.2c-0.1-0.4,0.3-0.7,0.7-0.6
	C174.1,141.2,174.3,142.2,174.7,143z"/>
<path class="st19" d="M167.1,142.1c-0.3,0.1-0.5,0.2-0.6,0.2c-0.1,0-0.4-0.2-0.2-0.4c0.1-0.1,0.2-0.2,0.3-0.1
	C166.7,141.8,166.8,141.9,167.1,142.1z"/>
<path class="st19" d="M167.7,141c0,0.1-0.1,0.2-0.1,0.3c0,0-0.1-0.1-0.1-0.1c0-0.1,0.1-0.2,0.1-0.3
	C167.6,140.9,167.6,140.9,167.7,141z"/>
<path class="st4" d="M118.4,164.6c-0.2-0.1-0.3-0.2-0.5-0.2c0-5.7,0.1-11.4,1.2-17.1c0.4-2.1,0.2-4.3,0.2-6.5
	c0.5,0.1,1.1,0.2,1.6,0.2c0.6,7.6-0.7,15.1-1.6,22.6C119.2,164.2,118.9,164.5,118.4,164.6z"/>
<path class="st5" d="M42.2,89.9c2.3,0.5,2.3,2.3,2,3.9c-0.1,1.1-0.4,2,0.6,2.8c0.3,0.2,0.4,0.8,0.4,1.2c-0.1,2.3-0.1,4.5,1.1,6.6
	c0.5,0.9-0.7,1.8-0.8,2.7c-1,0-2,0-2.9,0c-0.8-0.7-0.3-1.7-0.4-2.6c-0.3-1.3-0.9-2.8-2.1-2.6c-1.4,0.2-1.8,1.7-1.5,3.2
	c0.1,0.3,0.3,0.7,0.3,1c0.1,0.9-0.5,1-1.2,1c-2.5-1-2.9-2.2-1.4-4.7c0.1-0.2,0.4-0.4,0.3-0.5c-1.8-3,1.5-5.7,0.6-8.6
	c1.5-1.7,1.8-1.7,3.3,0.5C40.6,92.2,40.4,90.5,42.2,89.9z M41.4,100.1c0.1-1.5-0.3-2.4-1.3-2.8c-0.6-0.2-0.8,0.6-0.8,1.2
	c0,1.1,0.3,2.2,1.3,2.6C41.4,101.2,41.4,100.2,41.4,100.1z"/>
<path class="st18" d="M37.7,107.1c0.7,0,1.3-0.1,1.2-1c0-0.3-0.2-0.7-0.3-1c-0.3-1.4,0.1-3,1.5-3.2c1.3-0.2,1.9,1.4,2.1,2.6
	c0.2,0.9-0.3,1.8,0.4,2.6c-0.9,1.5-1.6,3-1.7,4.7c-0.1,0.9-0.2,1.8-1.3,2.1c-0.1,0-0.2-0.1-0.4-0.1c0-1,0-1.9,0-2.9
	c0-1,0-1.9-1.3-2.2C37.1,108.5,37.3,107.8,37.7,107.1z"/>
<path class="st3" d="M48.6,91.6c0-9.9,0-19.7,0-29.6c0-3.1,1.3-4.3,4.4-4.2c1.2,0,2.3-0.4,3.5-0.4c2.4,0.1,4.7,0.2,7.1,0.3
	c1.5-0.2,2.7,0.1,3,2c0.2,1.1,1,1.8,2.2,2.1c0.1,0.2,0.3,0.6,0.4,0.7c1.8,0.1,4.3-2.6,3.7-4.3c-0.5-1.5-0.7-3.1-1.6-4.4
	c0-0.4-0.1-0.7-0.5-0.9c0-0.1,0-0.3,0.1-0.4c3.2-0.5,6.4-0.4,9.7-0.4c2.8,0,5.7,0,8.5-0.1c0.1,0,0.2,0.1,0.3,0.2
	c0.2,0.1,0.3,0.2,0.5,0.2c1.8-0.4,3,0.1,3.3,2.1c0.1,0.5,0.3,1,0.8,1.1c0.1,1.1,0.7,1.5,1.7,1.5c0,3.8,0,7.6,0,11.3
	c-2-0.6-3.8-2.1-6.1-1.3c-0.8,0.3-0.9-0.6-1.1-1.2c-1.7-4.7-4.8-7.3-9-7.2c-3.6,0.1-7.3,2.1-8.7,5.8c-0.3,1-0.7,1.2-1.8,1
	c-3.1-0.6-6.3,1.4-6.7,4.7c-0.3,2.2-0.9,4.4-2.8,6c-0.6,0.5-0.3,1,0,1.5c-2.3,4-2.9,8.2-0.7,12.4c0.9,1.7,0.1,1.5-1,1.5
	C54.7,91.6,51.7,91.6,48.6,91.6z"/>
<linearGradient id="SVGID_2_" gradientUnits="userSpaceOnUse" x1="93.9583" y1="51.365" x2="97.03" y2="51.365">
	<stop  offset="0" style="stop-color:#7E51FF"/>
	<stop  offset="1" style="stop-color:#FA4A84"/>
</linearGradient>
<path class="st17" d="M95.7,57.1c-1,0-1.7-0.4-1.7-1.5c0-1.1,0-2.1,0-3.2c0-2.2-0.4-4.5,1.3-6.4c0.5-0.6,1.1-0.3,1.7-0.4
	c-0.8,2.1-1.4,4-1.2,6.4C96,53.6,96.2,55.4,95.7,57.1z"/>
<path class="st9" d="M97.8,45.7c0.5-1.4,0.9-0.6,1.4,0C98.7,45.7,98.2,45.7,97.8,45.7z"/>
<path class="st18" d="M48.6,91.6c3.1,0,6.2,0,9.2,0c1.1,0,1.9,0.1,1-1.5c-2.2-4.2-1.6-8.4,0.7-12.4c2.1-2.5,4.5-4.4,7.8-5.1
	c0.5-0.1,0.9-0.3,1.4,0c0,1.5,0.1,3.1,0,4.6c-0.1,1.3,0.4,1.9,1.7,1.7c0,0.1,0,0.3,0,0.4c0,3.8,0,7.7,0,11.5c0,4.6,0,4.6,4.7,4.5
	c2.7,0,5.3,0,8,0c0.8,0,1.4,0,0.8-1.2c-3.2-5.6-2.6-11.1,0.5-16.5c2-2.5,4.4-4.4,7.4-5.6c1.4-0.5,1.9-0.2,1.9,1.3
	c0.1,2.4-0.4,4.9,0.4,7.3c-2.4,0.5-4.1,2.8-4.2,5.5c-0.1,2.4,0.4,4.8-0.3,7.1c-0.3,0.9-0.9,1.7-0.2,2.5c0.6,0.8,1.5,0.5,2.3,0.2
	c0.5-0.1,1.1-0.4,1.3,0.2c0.3,0.6-0.4,0.8-0.8,1c-1,0.5-2.7,0.5-2.6,2c0.2,1.4,1.8,1.5,3,1.9c0.4,0.2,0.9,0.2,1.4,0.3
	c0.2,4.3,0,8.6-0.3,12.9c-0.1,0.8,0.3,1.6,0.3,2.5c0,1.1,0.5,2.5-1.5,2.5c-0.3,0-0.5,0.3-0.5,0.6c0,0.4,0.4,0.6,0.8,0.6
	c0.9,0,1.2,0.4,1.2,1.3c0,4.5,0,9,0,13.4c0,0.3-0.3,0.6-0.4,0.9c-6.9,0-13.7,0-20.6,0c-2.3-1.4-2.8-3.6-2.6-6.1c0.1-1.7,0.1-3.4,0-5
	c0-1-0.3-1.9-1.7-1c-4.3,0-8.6,0-12.9,0c-1.7,0-3.5,0.1-5.2-0.4c-1.9-1.6-2.2-3.6-2.2-6C48.6,108.6,48.6,100.1,48.6,91.6z M66,92.4
	c-0.6,0.5-0.7,0.7-0.9,0.8c-0.7,0.2-1.4,0.4-1.4,1.3c0,1,0.9,1.1,1.6,1.3c0.6,0.2,1.2,0.3,1.8,0.4c1,0.1,1.5-0.2,1.5-1.4
	c0-4.7,0-9.4,0-14.1c0-1.6-0.8-1.6-1.9-1c-2.1,1.1-3.1,2.9-3.1,5.3c0,1.3,0.3,2.6-0.1,3.8C63.1,90.8,62.8,92.3,66,92.4z"/>
<path class="st3" d="M39.7,113.9c1.1-0.3,1.2-1.2,1.3-2.1c0.1-1.7,0.8-3.2,1.7-4.7c1,0,2,0,2.9,0c0.9-0.1,1.4,0.3,1.3,1.3
	c-2.1,1-1.6,2.9-1.7,4.7c0,1-0.2,2.2-1.5,2C42.3,114.9,40.4,116.4,39.7,113.9z"/>
<path class="st8" d="M68.8,123.6c1.3-0.9,1.6,0,1.7,1c0.1,1.7,0.1,3.4,0,5c-0.2,2.5,0.3,4.7,2.6,6.1c-3.3-0.4-4.3-1.4-4.3-4.6
	C68.8,128.6,68.8,126.1,68.8,123.6z"/>
<path class="st3" d="M84.4,77.7c-3.1,5.4-3.7,10.9-0.5,16.5c0.6,1.1,0,1.2-0.8,1.2c-2.7,0-5.3,0-8,0c0.1-0.9-0.3-1.5-1-1.9
	c-0.7-0.4-0.7-1.1,0-1.2c1.8-0.3,1.3-1.3,1.1-2.4c-0.3-1.2-0.3-2.4-0.1-3.7c0.5-3.3-1.6-6.2-4.6-6.7c0-0.1,0-0.3,0-0.4
	c0-0.6,0-1.1,0-1.7c3.9,0,7.8,0,11.7,0C82.9,77.3,83.8,77,84.4,77.7z"/>
<path class="st24" d="M94,101.2c-0.5-0.1-1-0.1-1.4-0.3c-1.1-0.4-2.8-0.5-3-1.9c-0.2-1.5,1.6-1.5,2.6-2c0.4-0.2,1.1-0.4,0.8-1
	c-0.2-0.5-0.8-0.3-1.3-0.2c-0.8,0.3-1.7,0.6-2.3-0.2c-0.7-0.8-0.1-1.6,0.2-2.5c0.7-2.3,0.2-4.7,0.3-7.1c0.1-2.7,1.8-5,4.2-5.5
	C94,87.5,94,94.4,94,101.2z"/>
<path class="st14" d="M70.5,77.3c0,0.6,0,1.1,0,1.7c-1.3,0.1-1.7-0.4-1.7-1.7c0.1-1.5,0-3.1,0-4.6c1.2-0.2,1.8,0.2,1.7,1.6
	C70.4,75.2,70.5,76.2,70.5,77.3z"/>
<path class="st7" d="M89.1,51.9c-2.8,0-5.7,0-8.5,0.1c0.6-3.2,2.6-5.3,5.1-7c0.7-0.5,1.4-0.9,2.1-1.4c3.2-1,6.5-1.3,9.7,0
	c-0.8,0.8-2.7,0.6-2.5,2.5c-1.1,0.4-2.2,0.8-3.3,1.3C88.4,48.6,88.4,48.6,89.1,51.9z"/>
<path class="st4" d="M68.8,61.7c-1.1-0.2-2-1-2.2-2.1c-0.4-1.8-1.5-2.1-3-2c-1.2-3-1.9-2.8,1.7-4c1.5-0.5,2.9-1,4.4-1.5
	c0.5-0.2,0.9-0.4,1.3,0.2c-0.1,0.1-0.1,0.2-0.1,0.4c-2.5,1.4-3.2,5.8-1.2,7.7C69.7,61.1,69.2,61.4,68.8,61.7z"/>
<path class="st4" d="M70.4,46.5c0.9-0.8,1.9-1,3-0.9c1.6,0.7,2.9,1.5,2.4,3.5c-0.3,1-0.9,1.9-2.1,2c-1.3,0-2.7,0.1-3.6-1.2
	C69.3,48.7,69.6,47.6,70.4,46.5z"/>
<path class="st4" d="M35.8,71.4c-2,0-3.2-1-3.1-2.6c0-1.4,1.4-2.8,2.9-2.9c1.7,0,3.4,1.3,3.4,2.8C38.9,70.3,37.7,71.4,35.8,71.4z"/>
<path class="st4" d="M49,42.3c2.5-2,3.8-1.8,5.1,0.8c0.1,1.9-1.1,2.9-2.8,2.8C49.7,45.7,48.6,45.3,49,42.3z"/>
<path class="st4" d="M83.9,35.7c0.1,1.6-0.7,2.2-1.6,2.2c-0.9,0-1.6-0.4-1.7-1.5c-0.1-1.2,0.6-1.7,1.6-1.7
	C83.1,34.7,83.9,35.1,83.9,35.7z"/>
<path class="st14" d="M34.7,118.5c-0.3,0-0.5-0.1-0.4-0.4C34.5,118.1,34.8,118.1,34.7,118.5z"/>
<path class="st20" d="M36,129.3c0.1-0.2,0.1-0.4,0.4-0.3C36.2,129.1,36.1,129.2,36,129.3z"/>
<path class="st11" d="M129,48.6c0,1.3-1,1.2-1.7,1.1c-1.2,0-2-0.7-2.4-1.8c-0.5-1.5,0.2-2.6,1.5-3.3c1.4-0.7,2.5,0,3.2,1.2
	C130.2,46.8,130.6,48.1,129,48.6c0-0.3,0.2-0.6,0.2-1c0.2-1.3-0.5-2.3-1.8-2.3c-1,0-1.9,0.8-1.8,1.9c0.1,1.4,1.1,1.9,2.4,1.6
	C128.4,48.8,128.7,48.7,129,48.6z"/>
<path class="st4" d="M89.1,51.9c-0.7-3.4-0.7-3.4,2.5-4.6c1.1-0.4,2.2-0.8,3.3-1.3c0.1,0,0.3,0,0.4,0c-1.7,1.9-1.3,4.2-1.3,6.4
	c0,1.1,0,2.1,0,3.2c-0.5-0.2-0.7-0.7-0.8-1.1c-0.3-2-1.5-2.5-3.3-2.1c-0.2-0.1-0.3-0.2-0.5-0.2C89.4,52,89.2,52,89.1,51.9z"/>
<path class="st18" d="M41.4,100.1c0,0.2,0,1.2-0.8,0.9c-1-0.3-1.3-1.5-1.3-2.6c0-0.6,0.2-1.4,0.8-1.2C41,97.6,41.5,98.6,41.4,100.1z
	"/>
<path class="st8" d="M68.8,61.7c0.5-0.3,0.9-0.6,0.8-1.3c1-1,0.9-2.2,0.9-3.5c0-1.2-0.3-2.4,0.8-3.3c0.9,1.3,1.1,2.9,1.6,4.4
	c0.5,1.7-2,4.4-3.7,4.3C69,62.4,68.9,62,68.8,61.7z"/>
<linearGradient id="SVGID_3_" gradientUnits="userSpaceOnUse" x1="68.4495" y1="56.6372" x2="71.3257" y2="56.6372">
	<stop  offset="0" style="stop-color:#7E51FF"/>
	<stop  offset="1" style="stop-color:#FA4A84"/>
</linearGradient>
<path class="st23" d="M71.3,53.7c-1.1,0.9-0.8,2.1-0.8,3.3c0,1.3,0.1,2.5-0.9,3.5c-1.9-1.8-1.2-6.3,1.2-7.7
	C71.2,52.9,71.3,53.3,71.3,53.7z"/>
<path class="st20" d="M89.4,52.1c0.2,0.1,0.3,0.2,0.5,0.2C89.8,52.3,89.6,52.2,89.4,52.1z"/>
<path class="st24" d="M66,92.4c-3.2-0.1-3-1.6-2.4-3.6c0.3-1.2,0.1-2.5,0.1-3.8c0-2.4,1-4.2,3.1-5.3c1.1-0.6,1.9-0.6,1.9,1
	c0,4.7,0,9.4,0,14.1c0,1.1-0.5,1.5-1.5,1.4c-0.6-0.1-1.2-0.2-1.8-0.4c-0.7-0.2-1.6-0.3-1.6-1.3c0-0.9,0.7-1.1,1.4-1.3
	C65.3,93.1,65.4,92.9,66,92.4z"/>
<path class="st8" d="M70.5,79.4c3,0.5,5.1,3.4,4.6,6.7c-0.2,1.3-0.1,2.5,0.1,3.7c0.3,1.2,0.7,2.1-1.1,2.4c-0.7,0.1-0.7,0.8,0,1.2
	c0.7,0.5,1.1,1.1,1,1.9c-4.7,0.2-4.7,0.2-4.7-4.5C70.5,87,70.5,83.2,70.5,79.4z"/>
<path class="st7" d="M129,48.6c-0.3,0.1-0.6,0.2-1,0.3c-1.3,0.3-2.3-0.2-2.4-1.6c-0.1-1.2,0.7-1.9,1.8-1.9c1.3,0,1.9,0.9,1.8,2.3
	C129.2,48,129.1,48.3,129,48.6C129,48.6,129,48.6,129,48.6z"/>
<rect x="51" y="163.3" transform="matrix(-1 -1.224647e-16 1.224647e-16 -1 101.9123 328.9501)" class="st26" width="0" height="2.4"/>
<rect x="8.5" y="170.4" class="st19" width="53.8" height="23.8"/>
<path class="st19" d="M228.4,9.4c0-1.2-0.2-1.6-1.6-1.6c-75.1,0-150.1,0-225.2,0c-1.3,0-1.5,0.3-1.5,1.5c0,21.3,0,42.5,0,63.8
	c1.4,0.5,2.9,0.4,4.3,0.4c3.1,0.1,5.4,2.5,5.3,5.7c0,2.9-2.1,4.8-5.3,4.8c-1.5,0-2.9,0-4.4,0c0,2.5,0,5.1,0,7.6
	c2.1-0.4,4.1-0.5,6.1,0.1c0.6,0.2,0.8,0.1,1-0.5c1.1-3.2,3.6-5.3,6.3-7.2c0.4-5,1.1-10,2.3-14.8c2.4-9.4,6.6-17.9,12.4-25.6
	c3.5-4.7,7.6-8.8,12.2-12.6c6.7-5.5,14.2-9.6,22.4-12.4c5.7-2,11.6-3.2,17.8-3.7c13.4-1.1,26,1.4,38,7.2c0.7,0.3,1.5,0.5,1.8,1.3
	c5,0.5,9.7,1.7,13.5,5.2c0.5,0.5,1.2,0.8,1.7,1.1c0-1.7-0.1-3.3,0.2-5c0.5-2,1.8-2.9,3.7-3c2-0.1,3.3,0.9,3.8,2.9
	c0.1,0.5,0.1,1,0.2,1.4c0.4,3.2,0.4,3.2-2.6,4.1c0.1,0.2,0.3,0.4,0.4,0.6c0.7-0.1,1.4-0.3,2,0.2c1.9,2.5,2.3,5.5,3.1,8.5
	c6.5-0.8,13.4,4.6,14,12.4c0.4,5.2,2.7,11.3,10,15.2c-1.7,0.5-3.5-0.4-5.1,0.5c2.4,2.1,2.3,3.6,0,5.6c0,0.2,0,0.5,0,0.7
	c2.3-0.5,4.6-0.7,6.8,0.2c1.4,0.6,1.5-0.4,1.8-1.3c1.8-5.5,5.7-9.1,10.9-11.3c1.2-0.5,2.4-0.7,3.7-0.7c4.9-1.1,9.2,0.2,13.2,2.9
	c4.3,2.9,6.6,7.1,7.4,12.1c0.2,1.1,0.5,1.3,1.4,0.9c1.8-0.7,3.6-0.3,5.4-0.3c4.6,0.8,8.4,4.7,8.8,9.4c0.5,4.7-2.1,9.1-6.3,10.8
	c-8.1,0-16.3,0-24.4,0c-11.6,0-23.2,0.1-34.9,0.1c0,13.4-0.1,26.8-0.1,40.1c0,0.7,0,1.4,0,2.1c0,2.6-0.8,3.7-3.4,4.6
	c-0.5,0.4-1,0.4-1.6,0.1c-7.2-0.2-14.4-0.2-21.5,0c-0.3,0.9-1.1,1.4-1.8,2c-0.5,0.4-1.3,0.6-1.1,1.4c0.3,0.9,1.2,0.5,1.8,0.5
	c6.2-0.1,12.2,0.7,18.2,2.1c1.3,0.3,2.5,0.8,3.6,1.5c0.8,0.5,1.7,1,1.5,2.1c-0.2,1-0.9,1.5-1.8,1.9c-3.2,1.3-6.5,2.1-9.9,2.5
	c-4.4,0.5-8.8,1-13.3,1.2c-2.4,0.1-4.8,0.2-7.2-0.3c0,1.4-0.1,2.9-0.1,4.3c0,1.1-0.4,1.5-1.4,1.6c-0.7,2.2,0.3,4.3-0.1,6.5
	c-0.2,1.6-0.4,3.2-0.6,4.8c1.4-0.1,2.7,0.4,4.1,0.8c0.6,0.2,1.2,0.5,1.2,1.2c0,0.7-0.4,1.1-1,1.4c-2.7,1.1-5.5,1.7-8.5,1.7
	c-1.2,0-2.4,0-3.5,0c-4.1,0.1-8.2,0.1-12.3-0.8c-0.3-0.1-0.7-0.1-1-0.3c-0.8-0.6-2.3-0.8-2.2-2c0-1.2,1.5-1.1,2.3-1.4
	c3.8-1.3,7.8-1.4,11.8-1.4c0.1-1.3,0.1-2.6,0.2-3.8c0.4-2.8,0.2-5.6,1.1-8.3c-0.8-0.6-0.4-1.3-0.2-2c0.4-1.4,1.1-2.8,1.2-4.4
	c-2.2-0.6-4.2,0.6-6.2,1.2c-4.9,1.3-9.9,2.1-15,2.7c-11.8,1.2-23.1-0.7-34-5.2c-7.2-2.9-13.8-7-19.7-12.1c-1.8-1.6-3.7-2.9-5-5
	c0.4-2,1.9-3.5,2-5.6c-0.6-0.1-1.1-0.4-1.4-0.8c-0.2,0.1-0.3,0.3-0.5,0.4c-0.1,0.2-0.2,0.3-0.3,0.5c0.1,0.7-0.3,1.2-0.8,1.7
	c-0.4,1.4-1.1,2.6-1.8,3.7v-2.2h-6.4c0-0.2,0-0.4,0.1-0.5c-1.4,0.1-1-0.9-0.9-1.5c0.2-1.3,1.2-2.2,2.1-2.9c0-0.2,0-0.3,0-0.5
	c-1.3,0.1-2.4,0.6-2.9,1.9c-0.2,0.5-0.3,1.5-1.2,1c-0.7-0.4-0.1-1.1,0.1-1.6c0.1-0.3,0.2-0.5,0.3-0.8c-0.2,0-0.3,0-0.5,0
	c-0.5,0.2-0.9,1-1.4,0.5c-0.6-0.5,0-1,0.3-1.4c0.6-0.7,0.4-1.4-0.4-1.6c-1.6-0.6-1.1-1.2-0.4-2.2c0.1-0.2-2.4-0.9-0.2-1.9
	c0.1-0.1,0.2-0.2,0.3-0.3c0.4-1.6,0.4-1.6,2-0.6c0.2,0.1,0.5,0.2,0.8,0.4c-0.1-0.4-0.2-0.8-0.4-1.2c-0.4-0.6-1.6-0.7-1.2-1.8
	c-1.5-3.4-3-6.9-4.2-10.4c-0.3-0.9-0.6-1.8-0.5-2.8c-5.5,0-10.9,0-16.4,0c0,29.5,0,59.1,0,88.6c0,1.2,0.2,1.5,1.5,1.5
	c75.1,0,150.1,0,225.2,0c1.4,0,1.6-0.4,1.6-1.6C228.4,133.6,228.4,71.5,228.4,9.4z M152.2,37.3c-0.9-0.1-1.7-0.3-1.8-1.4
	c-0.1-1.2,0.7-1.7,1.6-1.8c0.8-0.1,1.7,0.4,1.8,1.4C153.9,36.6,153.2,37.1,152.2,37.3z M175.6,60.7c-1,0.1-1.8-0.7-1.8-1.6
	c0-1,0.6-1.7,1.8-1.6c1.1,0,1.7,0.6,1.8,1.6C177.4,60.2,176.5,60.7,175.6,60.7z M45.8,183.7c-4.4,1.9-9,2.7-13.7,3.1
	c-0.8,0.1-1.6,0.3-2.5,0.4c-5.2,0.6-10.4,0.4-15.6,0.4c-3.2,0-3.8-0.7-3-3.9c0.2-0.6,0.4-1.2,0.6-1.8c-1.4-1.6-0.3-2.6,0.9-3.5
	c-0.3-0.3-0.4-0.7-0.3-1c-0.1,0.3,0,0.7,0.3,1c0.5,0,1,0.1,1.4,0.5c1,0.1,1-1.1,1.7-1.4c2.6-4.7,6.2-8.8,8.6-13.6
	c0.4-0.8,0.9-0.8,1.5-0.3c2.3,1.9,5.1,3.3,5.8,6.7c0.6,2.7,2.8,4.8,4.1,7.2c0.8,0.7,0.7,2,1.8,2.5c0.5-0.4,0.9-0.9,1.6-0.9
	c0.1-0.4,0.3-0.8,0.4-1.2c2.2,0.4,4.4,0.7,6.4,1.6c1,0.5,1.9,1,2,2.2C47.7,182.9,46.7,183.3,45.8,183.7z M171.5,121.3
	c-1,0.6-0.8,2.2-0.9,3.5c0,2.6-3.2,4.3-5.4,2.9c-0.8-0.5-0.7-1.5-0.8-2.3c-0.3-1.8,0.1-3.7-1.9-4.9c-0.4-0.2-0.3-0.9,0.3-1.1
	c0.5-0.2,1.1,0.1,1.5-0.5c-1.1-1.8-1.3-3.5,0.3-5.1c0.6-0.6,0.6-1.2,0.2-1.9c-0.6-1-0.9-2.3-0.3-3.2c1.1-1.5,1.2-3.1,1.1-4.9
	c-0.1-1.4,0.3-3.2,1.9-3.3c1.9-0.1,2.3,2,2.2,3.3c-0.2,1.9,0.9,3.5,1,5c0.1,2.7,0.1,5.2,1.2,7.7c0.3,0.8-0.5,1.6-0.8,2.3
	C171.8,119.6,174.1,119.8,171.5,121.3z M211.5,119.8c-1.9,0-3.8,0-5.7,0c-7.2,0-14.5-0.1-21.7,0.1c-2.6,0.1-4.1-2.2-4.2-4
	c-0.1-2.1,1.9-4.6,3.9-4.4c2.3,0.2,3.2-0.8,4-2.7c1.7-4,5.4-4.7,9.3-4.5c0.1-1.1,0.8-1.5,1.7-1.1c1.1,0.4,0.8,1.2,0.4,2
	c1,1.6,2.8,2.6,3.5,4.4c0.2,0.6,0.8,0.6,1.4,0.5c3-0.4,4.9,0.9,5.6,3.9c0.4,1.7,0.8,3.4,2.2,4.7c0.2,0.2,0.5,0.6,0.5,0.9
	C212.5,119.9,211.9,119.8,211.5,119.8z"/>
</svg>
