<?xml version="1.0" encoding="utf-8"?>
<!-- Generator: Adobe Illustrator 23.0.0, SVG Export Plug-In . SVG Version: 6.00 Build 0)  -->
<svg version="1.1" id="Layer_1" xmlns="http://www.w3.org/2000/svg" xmlns:xlink="http://www.w3.org/1999/xlink" x="0px" y="0px"
	 viewBox="0 0 1440 1400" style="enable-background:new 0 0 1440 1400;" xml:space="preserve">
<style type="text/css">
	.st0{fill:url(#SVGID_1_);}
	.st1{fill:#F5F6F7;}
</style>
<g transform="translate(0.000000,1865.000000) scale(0.100000,-0.100000)">
	
		<linearGradient id="SVGID_1_" gradientUnits="userSpaceOnUse" x1="-18023.791" y1="14821.6777" x2="-14862.0352" y2="14821.6777" gradientTransform="matrix(1.024 0.1073 -0.1299 1.0306 1509.2822 -866.9728)">
		<stop  offset="0" style="stop-color:#E74B97"/>
		<stop  offset="0.9994" style="stop-color:#9550E8"/>
	</linearGradient>
</g>
<path class="st1" d="M-273.2-125.5c400.8-593.2,490.3-213.3,773.7-162.5C784-237.2,844-535.2,861-770.3
	c20.8-287.4,282.4-468.1,554-335.4c217.6,106.3,432.3,394,285.9,683.1c-140.4,277.4-212.7,559.4-108.5,827.2
	c104.2,267.8,229,544.7,47.7,775.2c-140.1,178.1-373.1,136.5-518.9-72.1c-147.7-211.3-284-217-448.4-155.5
	c-164.5,61.5-304.6,182.2-457.8,85.4C-446.2,619.8-447.6,132.6-273.2-125.5z"/>
</svg>
