<?xml version="1.0" encoding="utf-8"?>
<!-- Generator: Adobe Illustrator 23.0.2, SVG Export Plug-In . SVG Version: 6.00 Build 0)  -->
<svg version="1.1" id="cc774093-8b64-45c7-8077-699a43d4914b"
	 xmlns="http://www.w3.org/2000/svg" xmlns:xlink="http://www.w3.org/1999/xlink" x="0px" y="0px" viewBox="0 0 814 778.2"
	 style="enable-background:new 0 0 814 778.2;" xml:space="preserve">
<style type="text/css">
	.st0{fill:url(#SVGID_1_);}
	.st1{fill:url(#SVGID_2_);}
	.st2{fill:#FAFAFA;}
	.st3{fill:#E0E0E0;}
	.st4{fill:url(#SVGID_3_);}
	.st5{fill:#F5F5F5;}
	.st6{fill:url(#SVGID_4_);}
	.st7{fill:#EEEEEE;}
	.st8{fill:url(#SVGID_5_);}
	.st9{fill:url(#SVGID_6_);}
	.st10{fill:url(#SVGID_7_);}
	.st11{fill:url(#SVGID_8_);}
	.st12{fill:#FFFFFF;}
	.st13{fill:url(#SVGID_9_);}
	.st14{fill:url(#SVGID_10_);}
	.st15{fill:none;}
	.st16{font-family:'MyriadPro-Regular';}
	.st17{font-size:72px;}
</style>
<linearGradient id="SVGID_1_" gradientUnits="userSpaceOnUse" x1="195.928" y1="673.8049" x2="669.5548" y2="44.5341">
	<stop  offset="0" style="stop-color:#FA4A84"/>
	<stop  offset="1" style="stop-color:#7E51FF"/>
</linearGradient>
<rect x="-2.4" y="-3.8" class="st0" width="818" height="795.5"/>
<title>files1</title>
<linearGradient id="SVGID_2_" gradientUnits="userSpaceOnUse" x1="320.941" y1="185.3326" x2="320.941" y2="557.0411" gradientTransform="matrix(1 0 0 -1 0 780)">
	<stop  offset="1.000000e-02" style="stop-color:#808080;stop-opacity:0.25"/>
	<stop  offset="0.54" style="stop-color:#808080;stop-opacity:0.12"/>
	<stop  offset="1" style="stop-color:#808080;stop-opacity:0.1"/>
</linearGradient>
<polygon class="st1" points="460.8,594.7 181.1,594.7 181.1,269.8 223.4,223 460.8,223 "/>
<polygon class="st2" points="456.5,584.8 186,584.8 186,272.4 226.9,227.3 456.5,227.3 "/>
<rect x="212.4" y="265.9" class="st3" width="131.8" height="22.2"/>
<rect x="212.7" y="326.7" class="st3" width="96.5" height="22.2"/>
<linearGradient id="SVGID_3_" gradientUnits="userSpaceOnUse" x1="212.6982" y1="458.8247" x2="429.2667" y2="458.8247">
	<stop  offset="0" style="stop-color:#FA4A84"/>
	<stop  offset="1" style="stop-color:#7E51FF"/>
</linearGradient>
<rect x="212.7" y="418.1" class="st4" width="216.6" height="81.5"/>
<rect x="380.2" y="266.2" class="st5" width="49.1" height="22.2"/>
<rect x="380.2" y="300.8" class="st5" width="49.1" height="22.2"/>
<linearGradient id="SVGID_4_" gradientUnits="userSpaceOnUse" x1="208.5676" y1="503.3214" x2="208.5676" y2="552.7173" gradientTransform="matrix(1 0 0 -1 0 780)">
	<stop  offset="0" style="stop-color:#B3B3B3;stop-opacity:0.25"/>
	<stop  offset="0.54" style="stop-color:#B3B3B3;stop-opacity:0.1"/>
	<stop  offset="1" style="stop-color:#B3B3B3;stop-opacity:5.000000e-02"/>
</linearGradient>
<polygon class="st6" points="231.1,227.3 231.1,276.7 186,276.7 186,272.4 226.8,227.3 "/>
<polygon class="st7" points="185.9,272.4 226.8,227.3 226.8,272.4 "/>
<linearGradient id="SVGID_5_" gradientUnits="userSpaceOnUse" x1="406.7667" y1="216.2071" x2="406.7667" y2="587.9101" gradientTransform="matrix(1 0 0 -1 0 780)">
	<stop  offset="1.000000e-02" style="stop-color:#808080;stop-opacity:0.25"/>
	<stop  offset="0.54" style="stop-color:#808080;stop-opacity:0.12"/>
	<stop  offset="1" style="stop-color:#808080;stop-opacity:0.1"/>
</linearGradient>
<polygon class="st8" points="546.6,563.8 266.9,563.8 266.9,239 309.2,192.1 546.6,192.1 "/>
<polygon class="st2" points="542.3,553.9 271.9,553.9 271.9,241.5 312.7,196.4 542.3,196.4 "/>
<rect x="298.3" y="235" class="st3" width="131.8" height="22.2"/>
<rect x="298.5" y="295.8" class="st3" width="96.5" height="22.2"/>
<linearGradient id="SVGID_6_" gradientUnits="userSpaceOnUse" x1="298.5238" y1="427.9557" x2="515.0923" y2="427.9557">
	<stop  offset="0" style="stop-color:#FA4A84"/>
	<stop  offset="1" style="stop-color:#7E51FF"/>
</linearGradient>
<rect x="298.5" y="387.2" class="st9" width="216.6" height="81.5"/>
<rect x="466" y="235.3" class="st5" width="49.1" height="22.2"/>
<rect x="466" y="269.9" class="st5" width="49.1" height="22.2"/>
<linearGradient id="SVGID_7_" gradientUnits="userSpaceOnUse" x1="294.3932" y1="534.1959" x2="294.3932" y2="583.5917" gradientTransform="matrix(1 0 0 -1 0 780)">
	<stop  offset="0" style="stop-color:#B3B3B3;stop-opacity:0.25"/>
	<stop  offset="0.54" style="stop-color:#B3B3B3;stop-opacity:0.1"/>
	<stop  offset="1" style="stop-color:#B3B3B3;stop-opacity:5.000000e-02"/>
</linearGradient>
<polygon class="st10" points="316.9,196.4 316.9,245.8 271.9,245.8 271.9,241.5 312.6,196.4 "/>
<polygon class="st7" points="271.7,241.5 312.6,196.4 312.6,241.5 "/>
<linearGradient id="SVGID_8_" gradientUnits="userSpaceOnUse" x1="490.7423" y1="243.3707" x2="490.7423" y2="615.0792" gradientTransform="matrix(1 0 0 -1 0 780)">
	<stop  offset="1.000000e-02" style="stop-color:#808080;stop-opacity:0.25"/>
	<stop  offset="0.54" style="stop-color:#808080;stop-opacity:0.12"/>
	<stop  offset="1" style="stop-color:#808080;stop-opacity:0.1"/>
</linearGradient>
<polygon class="st11" points="630.6,536.6 350.9,536.6 350.9,211.8 393.1,164.9 630.6,164.9 "/>
<polygon class="st12" points="626.3,526.8 355.8,526.8 355.8,214.3 396.7,169.2 626.3,169.2 "/>
<rect x="382.2" y="207.8" class="st3" width="131.8" height="22.2"/>
<rect x="382.5" y="268.7" class="st3" width="96.5" height="22.2"/>
<linearGradient id="SVGID_9_" gradientUnits="userSpaceOnUse" x1="382.4995" y1="400.7866" x2="599.0681" y2="400.7866">
	<stop  offset="0" style="stop-color:#FA4A84"/>
	<stop  offset="1" style="stop-color:#7E51FF"/>
</linearGradient>
<rect x="382.5" y="360" class="st13" width="216.6" height="81.5"/>
<rect x="550" y="208.1" class="st3" width="49.1" height="22.2"/>
<rect x="550" y="242.7" class="st3" width="49.1" height="22.2"/>
<rect x="550" y="277.3" class="st3" width="49.1" height="22.2"/>
<linearGradient id="SVGID_10_" gradientUnits="userSpaceOnUse" x1="378.3661" y1="561.3595" x2="378.3661" y2="610.7553" gradientTransform="matrix(1 0 0 -1 0 780)">
	<stop  offset="0" style="stop-color:#B3B3B3;stop-opacity:0.25"/>
	<stop  offset="0.54" style="stop-color:#B3B3B3;stop-opacity:0.1"/>
	<stop  offset="1" style="stop-color:#B3B3B3;stop-opacity:5.000000e-02"/>
</linearGradient>
<polygon class="st14" points="400.9,169.2 400.9,218.6 355.8,218.6 355.8,214.3 396.6,169.2 "/>
<polygon class="st7" points="355.7,214.3 396.6,169.2 396.6,214.3 "/>
<rect x="426.8" y="372.1" class="st15" width="144.6" height="54.9"/>
<text transform="matrix(1 0 0 1 426.7725 423.2083)" class="st12 st16 st17">CAC</text>
</svg>
