<?xml version="1.0" encoding="utf-8"?>
<!-- Generator: Adobe Illustrator 23.0.2, SVG Export Plug-In . SVG Version: 6.00 Build 0)  -->
<svg version="1.1" id="a0b12775-6e5f-4473-9cb3-a305020561f5"
	 xmlns="http://www.w3.org/2000/svg" xmlns:xlink="http://www.w3.org/1999/xlink" x="0px" y="0px" viewBox="0 0 824.8 785.8"
	 style="enable-background:new 0 0 824.8 785.8;" xml:space="preserve">
<style type="text/css">
	.st0{fill:url(#SVGID_1_);}
	.st1{fill:#DFDFED;}
	.st2{fill:#3F3D56;}
	.st3{fill:url(#SVGID_2_);}
	.st4{fill:#2F2E41;}
	.st5{fill:url(#SVGID_3_);}
	.st6{fill:url(#SVGID_4_);}
	.st7{fill:#FFB8B8;}
	.st8{opacity:0.1;enable-background:new    ;}
	.st9{fill:#D0CDE1;}
</style>
<linearGradient id="SVGID_1_" gradientUnits="userSpaceOnUse" x1="199.0959" y1="670.3924" x2="674.6077" y2="38.6172">
	<stop  offset="0" style="stop-color:#FA4A84"/>
	<stop  offset="1" style="stop-color:#7E51FF"/>
</linearGradient>
<rect x="-2.1" y="-8.3" class="st0" width="825.4" height="795.5"/>
<title>online_cv</title>
<g>
	<polyline class="st1" points="579.8,599 267.3,599 267.3,206.9 572.2,206.9 	"/>
	<path class="st2" d="M242.6,577c8.4,15.5,26.2,22.2,26.2,22.2s4.2-18.5-4.2-34.1s-26.2-22.2-26.2-22.2S234.2,561.5,242.6,577z"/>
	<linearGradient id="SVGID_2_" gradientUnits="userSpaceOnUse" x1="214.4875" y1="582.6143" x2="269.3067" y2="582.6143">
		<stop  offset="0" style="stop-color:#FA4A84"/>
		<stop  offset="1" style="stop-color:#7E51FF"/>
	</linearGradient>
	<path class="st3" d="M248.3,571.9c15.1,9.1,21,27.2,21,27.2s-18.7,3.3-33.9-5.8c-15.1-9.1-21-27.2-21-27.2S233.2,562.8,248.3,571.9
		z"/>
	<rect x="336.5" y="510.1" class="st4" width="167.3" height="6.7"/>
	<rect x="336.5" y="525" class="st4" width="167.3" height="6.7"/>
	<rect x="336.5" y="539.8" class="st4" width="56.7" height="6.7"/>
	<linearGradient id="SVGID_3_" gradientUnits="userSpaceOnUse" x1="359.1595" y1="402.8539" x2="481.0803" y2="402.8539">
		<stop  offset="0" style="stop-color:#FA4A84"/>
		<stop  offset="1" style="stop-color:#7E51FF"/>
	</linearGradient>
	<path class="st5" d="M481.1,402.9c0,18.4-8.3,35.8-22.6,47.4c-2.6,2.1-5.4,4-8.3,5.7c-1.8,1-3.6,1.9-5.5,2.7
		c-6.2,2.7-12.8,4.4-19.5,4.9c-1.7,0.1-3.3,0.2-5,0.2c-3.3,0-6.7-0.3-10-0.8c-1.2-0.2-2.3-0.4-3.4-0.7c-2-0.4-3.9-1-5.9-1.6
		c-7.9-2.6-15.2-6.9-21.4-12.4c-1.6-1.4-3.1-2.9-4.5-4.5c-22.6-25-20.6-63.5,4.3-86.1s63.5-20.6,86.1,4.3
		C475.5,373.2,481.1,387.7,481.1,402.9z"/>
	<rect x="566.8" y="206.9" class="st4" width="13.1" height="392"/>
	<linearGradient id="SVGID_4_" gradientUnits="userSpaceOnUse" x1="364.5789" y1="196.7848" x2="486.5395" y2="196.7848">
		<stop  offset="0" style="stop-color:#FA4A84"/>
		<stop  offset="1" style="stop-color:#7E51FF"/>
	</linearGradient>
	<path class="st6" d="M446.6,201.1V191c0-11.6-9.4-21-21.1-21c-11.6,0-21,9.4-21,21v10.2h-39.9v22.5h122v-22.5H446.6z M425.6,175.7
		c6.8,0,12.3,5.5,12.3,12.3c0,6.8-5.5,12.3-12.3,12.3c-6.8,0-12.3-5.5-12.3-12.3v0C413.2,181.3,418.7,175.7,425.6,175.7L425.6,175.7
		L425.6,175.7z"/>
	<path class="st7" d="M430.9,398.8c0,0-6.1,17.3-2.3,19.9c3.7,2.7-12.6,24.3-12.6,24.3l-19.6-5.3l10.7-18.1c0,0,1.4-18.1,1.4-20.8
		S430.9,398.8,430.9,398.8z"/>
	<path class="st8" d="M430.9,398.8c0,0-6.1,17.3-2.3,19.9c3.7,2.7-12.6,24.3-12.6,24.3l-19.6-5.3l10.7-18.1c0,0,1.4-18.1,1.4-20.8
		S430.9,398.8,430.9,398.8z"/>
	<circle class="st7" cx="418.5" cy="395.7" r="15.9"/>
	<path class="st9" d="M406.7,462.3c-2-0.4-3.9-1-5.9-1.6l3-20.9l0.9-6.4l4.8,1.8c0.7,0.2,1.4,0.5,2.2,0.8c1.3,0.5,2.8,0.5,4.1-0.1
		c4.7-2.1,7.5-10.5,7.5-10.5s0.2,2.3,0.4,6.3c0.4,6.9,1.1,18.9,1.3,31.9c-1.7,0.1-3.3,0.2-5,0.2c-3.3,0-6.7-0.3-10-0.8
		C409,462.8,407.8,462.6,406.7,462.3z"/>
	<path class="st9" d="M411,422.7l-1.4,12.4l-0.7,6l-2.3,21.1c-2-0.4-3.9-1-5.9-1.6c-7.9-2.6-15.2-6.9-21.4-12.4l-2.9-10.5
		c0-0.6,0.1-1.2,0.2-1.9c0,0,0,0,0,0c0.1-0.5,0.2-1.1,0.4-1.6c0,0,0,0,0,0c0.5-2,1.5-3.8,3-5.3c3.5-3.5,27-14.6,27-14.6l0.4,0.9
		L411,422.7z"/>
	<path class="st4" d="M418.2,373.2c3.5-0.1,7.3-0.2,10.3,1.7c1.4,1,2.6,2.1,3.6,3.5c2.9,3.7,5.4,8.3,4.3,12.8l-1.3-0.5
		c0,1.2,0.3,2.4,0.8,3.5c-0.2-0.5-0.8,0.3-0.6,0.8l1.4,4.5c-2.2-0.7-4.6,0.6-5.3,2.8c0,0.1-0.1,0.3-0.1,0.4
		c-0.2-5.3-0.7-11.3-5-14.3c-2.1-1.6-4.9-2-7.5-2.4c-2.4-0.4-4.9-0.8-7.3,0s-4.3,3.2-3.8,5.5c-1.1-0.3-2.3,0.3-2.8,1.4
		c-0.4,1-0.6,2.2-0.6,3.3c-1.1,0.8-2.4-0.8-2.9-2.1c-1.1-3.1-2.1-6.4-1.5-9.6s3.2-6.3,6.5-6.3c-0.4-0.4-0.6-1-0.6-1.6l2.7-0.2
		c-0.7-0.1-1.3-0.4-1.8-0.9C408,376.8,416.5,373.3,418.2,373.2z"/>
	<path class="st9" d="M455.3,434.2c-0.4,3.3-2.8,12.7-5.2,21.7c-1.8,1-3.6,1.9-5.5,2.7c-6.2,2.7-12.8,4.4-19.5,4.9
		c-1.7,0.1-3.3,0.2-5,0.2c-3.3,0-6.7-0.3-10-0.8c1.2-4.8,2.9-12.6,4.5-20.3c0.5-2.3,0.9-4.6,1.4-6.8c1.7-8.7,3-15.8,3-15.8
		s5.3-5.2,8.4-6.4c0.4-0.2,0.9-0.3,1.4-0.2c2.6,0.4,6.1,6.6,6.1,6.6s15.9,5.3,19.6,11.3C455.1,432.2,455.4,433.2,455.3,434.2z"/>
	<path class="st9" d="M388,434.2l-0.9,19.9c-2.7-1.7-5.3-3.7-7.6-5.8c-1.6-1.4-3.1-2.9-4.5-4.5c0.8-3.3,1.4-6.2,1.8-7.8c0,0,0,0,0,0
		c0.2-0.9,0.3-1.5,0.4-1.6c0,0,0,0,0,0H388z"/>
	<path class="st9" d="M458.5,450.2c-2.6,2.1-5.4,4-8.3,5.7c-1.8,1-3.6,1.9-5.5,2.7l-1.8-10.3l1.8-19.5l9.9,2.5l0.7,0.2L458.5,450.2z
		"/>
</g>
</svg>
