<?xml version="1.0" encoding="utf-8"?>
<!-- Generator: Adobe Illustrator 23.0.2, SVG Export Plug-In . SVG Version: 6.00 Build 0)  -->
<svg version="1.1" id="Layer_1" xmlns="http://www.w3.org/2000/svg" xmlns:xlink="http://www.w3.org/1999/xlink" x="0px" y="0px"
	 viewBox="0 0 228.2 205.2" style="enable-background:new 0 0 228.2 205.2;" xml:space="preserve">
<style type="text/css">
	.st0{fill-rule:evenodd;clip-rule:evenodd;fill:#260350;}
	.st1{fill-rule:evenodd;clip-rule:evenodd;fill:#FFFFFF;}
	.st2{fill-rule:evenodd;clip-rule:evenodd;fill:url(#SVGID_1_);}
	.st3{fill:#EFF1F2;}
	.st4{fill:#260350;}
	.st5{fill:#7D6896;}
	.st6{fill:#B1A4C0;}
	.st7{fill:#CBC3D5;}
	.st8{fill:#E1EBF1;}
	.st9{fill:#AEDDE8;}
	.st10{fill:#FA4A84;}
	.st11{fill:#171616;}
	.st12{fill:#2FBEDD;}
	.st13{fill:#B28C44;}
	.st14{fill:#C6EBEC;}
	.st15{fill:#EAF6FA;}
	.st16{fill:#F2EDF4;}
	.st17{fill:url(#SVGID_2_);}
	.st18{fill:#C1C5C7;}
	.st19{fill:#FDFEFE;}
	.st20{fill:#D3EBF7;}
	.st21{fill:#F3FAFB;}
	.st22{fill:#721F80;}
	.st23{fill:url(#SVGID_3_);}
	.st24{fill:#A58BAA;}
	.st25{fill:url(#SVGID_4_);}
	.st26{fill:#FDBC45;}
</style>
<path class="st3" d="M17.4,93c1.8-0.4,3.6-0.4,5.4,0.1c0.5,0.2,0.7,0.1,0.9-0.5c1-2.9,3.2-4.7,5.6-6.4c3.8-1.7,7.7-1.4,11.6-0.4
	c0,0.1,0,0.2,0,0.4c-0.1,4,0,8,0.8,12c0.5,2.8,1.2,5.7,1.8,8.5c-3.9-0.4-7.7,0.2-11.6,0c-4.8,0-9.7,0-14.5,0
	C17.4,102.2,17.4,97.6,17.4,93z"/>
<path class="st3" d="M17.4,76.6c1.2,0.5,2.6,0.4,3.8,0.4c2.8,0.1,4.8,2.2,4.7,5c0,2.6-1.8,4.3-4.7,4.3c-1.3,0-2.6,0-3.9,0
	C17.4,83,17.4,79.8,17.4,76.6z"/>
<path class="st4" d="M154,139.1c-6.4-0.2-12.7-0.2-19.1,0c-2.3-0.3-4.7-0.2-7,0c-0.6-1.1-1.4-1.9-2.6-2.1c-0.1-0.1-0.1-0.2-0.1-0.3
	c1.7-0.7,2.4-2.6,1.6-4.2c-0.8-1.5-2.2-1.8-3.8-0.8l0,0c-1.3,0.4-1.7,1.7-2,2.7c-0.2,0.7,1,1.1,1.8,1c0.1,0,0.1,0,0.2,0.1
	c0.4,0.3,0.5,0.7,0,1c-0.2,0-0.5,0-0.7,0c-1.2,0.3-2.4-0.5-3.6-0.2c-1.3-0.7-3.2-1.2-3.7-2.3c-0.8-2.1-1.8-4.4-1.2-6.8
	c0.1-0.5,0.3-1-0.2-1.3c-0.2-0.1-0.5-0.1-0.7,0c-0.5,0.3-0.6,0.8-0.5,1.3c0,0.7,0.2,1.4,0.1,2c-0.4,4.4,0.8,7.9,5.2,9.6
	c-2.2,0.1-4.4,0.1-6.7,0.2c-1.9-0.1-3.8-0.1-5.6-0.2c-0.1-0.1-0.2-0.1-0.3,0c-0.5-0.2-1-0.3-1.6-0.5c-1.2-1.2-1.5-2.6-1.5-4.2
	c0-12.3,0-24.7,0-37c4.9,0,9.8-0.1,14.8-0.1c1.6,1.7,3.1,3.5,5.3,4.5c5,2.8,9.9,3,14.9,0.1c2.5-0.8,4-3,5.8-4.6
	c5.1,0,10.3,0,15.4,0.1c0,0.1,0,0.2,0.1,0.4c0,11.8,0,23.7-0.1,35.5c0,0.6,0,1.2,0,1.9c0,2.3-0.7,3.3-3,4.1
	C154.9,139,154.4,139,154,139.1z M128.5,117.6c6,0,11.9,0,17.9,0c0.9,0,2.4,0.6,2.4-0.9c0-1.2-1.4-0.8-2.3-0.9c-12,0-24,0-36,0
	c-0.5,0-1,0-1.5,0c-0.5,0-0.8,0.3-0.8,0.8c0,0.5,0.3,0.8,0.8,0.9c0.5,0,1,0,1.5,0C116.5,117.6,122.5,117.6,128.5,117.6z
	 M128.7,110.5c-6.3,0-12.5,0-18.8,0c-0.7,0-1.7-0.3-1.7,0.9c0.1,0.9,1,0.7,1.7,0.7c12.4,0,24.8,0,37.2,0c0.6,0,1.6,0.2,1.7-0.7
	c0.1-1.1-1-0.9-1.7-0.9C141,110.5,134.9,110.5,128.7,110.5z M121.5,123.1c3.9,0,7.8,0,11.7,0c0.7,0,1.6,0.1,1.6-0.8
	c0.1-1.1-0.9-1-1.6-1c-7.7,0-15.5,0-23.2,0c-0.7,0-1.7-0.2-1.7,0.9c0,1,1,0.9,1.7,0.9C113.8,123.1,117.6,123.1,121.5,123.1z"/>
<path class="st5" d="M40.9,85.9c-3.9-1.1-7.8-1.3-11.6,0.4c0.4-4.4,0.9-8.8,2.1-13.1c2.2-8.3,5.9-15.9,11-22.7
	c3.1-4.2,6.8-7.8,10.8-11.1c6-4.9,12.6-8.5,19.8-11c5.1-1.7,10.3-2.8,15.7-3.3c11.9-1,23,1.3,33.6,6.4c0.6,0.3,1.3,0.5,1.6,1.2
	c-1.3,0.9-2.7,0.2-4.1,0.5c-3.9,0.9-7.2,2.7-10,5.4c-0.8,0.1-1.5-0.2-2.2-0.4c-3.6-1-7.4-1.6-11.1-1.8c-8.8-0.4-17.2,1.3-25.1,5
	c-4.3,2.1-8.6,4.4-11.9,8c-0.5,0.2-1,0.4-1.6,0.6c-4.7,1.7-8,4.8-9.4,9.7c-0.2,0.8,0.1,1.8-0.6,2.4c-3.8-1.5-7.1-0.7-9.6,2.4
	c-2.1,2.5-2.3,5.4-1.1,8.3c0.9,2.3,2.6,3.9,5.2,4.2l0,0C41.6,79.9,41.4,82.9,40.9,85.9z M46.2,56.4c-0.9,0.1-1.5,0.6-1.5,1.5
	c-0.1,1,0.5,1.4,1.3,1.4c0.9,0.1,1.6-0.4,1.6-1.4C47.7,57.1,47,56.6,46.2,56.4z"/>
<path class="st5" d="M111,139.1c2.2-0.1,4.4-0.1,6.7-0.2c0.1,0,0.1,0,0.2,0c1.7,0.4,2.8,1.3,2.4,3.3c-0.6,2.8-1.1,5.5-2.1,8.2
	c-2-0.6-3.7,0.6-5.5,1c-4.4,1.2-8.8,1.9-13.3,2.4c-10.4,1.1-20.4-0.6-30.1-4.6c-6.4-2.6-12.2-6.2-17.5-10.7
	c-1.6-1.4-3.3-2.6-4.5-4.4c0.3-1.7,1.7-3.1,1.8-4.9c0.1-0.2,0.2-0.3,0.3-0.5c0.1-0.1,0.2-0.3,0.3-0.4c0-0.1,0-0.2,0-0.2
	c0.9-0.6,1.1-1.7,1.5-2.6c0.2,0,0.4,0,0.6,0c0.1,0.4-0.3,1.1,0.3,1.3c0.6,0.1,0.7-0.6,0.8-1c0.1-0.3,0.1-0.7,0.2-1.1
	c1.1,0,1.6,0.9,2.2,1.5c4.5,4.8,9.9,8.4,15.7,11.3c6.1,3,12.7,4.5,19.4,5c5.5,0.4,11,0,16.4-1.5C108.5,140.6,110.2,140.8,111,139.1z
	"/>
<path class="st6" d="M158.4,97.5c0-0.1,0-0.2-0.1-0.4c0-5.3,0-10.7,0-16c1.7-1.5,3.2-3.3,5.6-3.8c2-0.5,4.1-0.6,6,0.2
	c1.3,0.5,1.3-0.4,1.6-1.1c1.6-4.9,5-8,9.6-10c1-0.4,2.1-0.6,3.3-0.6c0.2,2.2,0.7,4.4,1.1,6.5c0.9,5.5,1.8,10.9,2.6,16.4
	c0.4,2.9,1.4,5.8,1.2,8.8C179,97.4,168.7,97.4,158.4,97.5z M170.3,84c-2.9-0.2-4.1,1.6-4.3,3.7c-0.2,1.9,2.3,4,4.3,4
	c2.2,0,4.4-2,4.4-4C174.8,85.7,172.8,84,170.3,84z M176.5,85.2c0.6-0.2,1.3-0.6,1.3-1.5c0-0.9-0.6-1.5-1.5-1.5
	c-0.8,0-1.4,0.6-1.4,1.4C174.8,84.6,175.4,85,176.5,85.2z"/>
<path class="st6" d="M109.9,38.5c2.8-2.8,6.2-4.5,10-5.4c1.4-0.3,2.8,0.3,4.1-0.5c4.4,0.4,8.6,1.5,12,4.6c0.4,0.4,1,0.7,1.5,1
	c0.5,0.6,1,1.3,1.8,1.5c0.5,0.9,0.4,1.9,0.4,2.9c-0.5,2.3-1.8,4.1-3.2,6c-0.9,1.2-2.2,2.1-2.2,3.7c-0.7-2-1.5-4.1-2.2-6.1
	c-0.3-0.8-0.7-1.6-1.9-1.2c-2.2,0.9-4.6,1.4-6.8,2.5c-3,0.9-3,0.9-2.2,3.3c-4.9,0-9.9,0-14.8,0c-0.6,0-1.4,0.2-1.9-0.4
	C104.7,45.8,106.9,42,109.9,38.5z"/>
<path class="st3" d="M193.8,104.9c0.9,1.4,2.5,2.3,3.1,3.9c0.2,0.5,0.7,0.5,1.3,0.4c2.7-0.4,4.3,0.8,5,3.4c0.4,1.5,0.7,3,1.9,4.1
	c0.2,0.2,0.5,0.5,0.4,0.8c-0.1,0.5-0.6,0.4-0.9,0.4c-1.7,0-3.4,0-5,0c-6.4,0-12.8-0.1-19.2,0.1c-2.3,0.1-3.6-1.9-3.7-3.5
	c-0.1-1.9,1.6-4.1,3.5-3.9c2,0.2,2.8-0.7,3.6-2.4c1.5-3.5,4.8-4.1,8.2-4C192.2,105.2,192.9,105.4,193.8,104.9z"/>
<path class="st3" d="M127.9,139.1c2.3-0.2,4.7-0.2,7,0c-0.3,0.8-1,1.3-1.6,1.8c-0.4,0.4-1.2,0.5-0.9,1.2c0.2,0.8,1.1,0.5,1.6,0.5
	c5.5-0.1,10.8,0.6,16.1,1.9c1.1,0.3,2.2,0.7,3.2,1.4c0.7,0.4,1.5,0.8,1.3,1.8c-0.2,0.9-0.8,1.3-1.6,1.7c-2.8,1.1-5.7,1.9-8.7,2.2
	c-3.9,0.4-7.8,0.9-11.8,1.1c-2.1,0.1-4.3,0.1-6.4-0.3c0-0.6,0-1.2,0-1.8c0.2-0.1,0.3-0.3,0.5-0.4c1-2.9,2.4-5.7,1.4-8.9
	C128.2,140.4,128.3,139.7,127.9,139.1L127.9,139.1z"/>
<path class="st3" d="M29.6,170.2c0.9,0.1,0.9-0.9,1.5-1.2c2.5,0,5,0.1,7.6-0.2c2-0.3,4-0.5,6,0.3c-0.1,2.9-1.4,5.6-1.1,8.6
	c-4.6,0.5-9.2,0.4-13.8,0.4c-2.8,0-3.3-0.6-2.6-3.5c0.1-0.5,0.3-1.1,0.5-1.6c0.5,0.7,1.1,1.3,2.2,0.7
	C28.9,172.5,28.8,171.4,29.6,170.2z"/>
<path class="st7" d="M32,106.8c3.9,0.2,7.7-0.4,11.6,0c0.1,0,0.2,0,0.4,0c0.7,2.9,2.3,5.4,3.4,8.2c-0.3,0.1-0.3,0.4-0.3,0.7
	c0,0.2,0,0.5-0.1,0.7c-0.3-0.1-0.7-0.2-1-0.3c-0.8-0.1-1.9-0.9-2.2,0.1c-0.3,0.9,1.1,0.7,1.8,1.1c0,0.2,0,0.4,0,0.7
	c-1.2-0.3-2.6-0.3-3.7-1.1c-0.4-0.2-0.7-0.2-0.9,0.2c-0.2,0.4,0.1,0.6,0.4,0.7c0.9,0.7,2,0.9,3.1,1c0,0.2,0,0.4,0,0.6
	c-1.1-0.3-2.2-0.2-3.2-0.6c-0.9-0.3-1.8-1.9-2.5-0.8c-0.4,0.7,1.2,1.3,2,1.9c0,0.2,0,0.4,0,0.6c-1.6-0.2-2.6-2-4.4-2
	c-1.4-3-2.7-6.1-3.7-9.2C32.2,108.4,31.9,107.6,32,106.8z"/>
<path class="st6" d="M147.2,46.7c5.8-0.7,11.9,4.1,12.4,11c0.4,4.6,2.4,10,8.8,13.5c-1.5,0.5-3.1-0.3-4.5,0.5c-1-0.5-2-0.5-3.1,0
	c-0.8-0.7-1.7-0.2-2.6-0.3c0-5,0-10,0-15c0-2.2-0.8-3.3-3-4c-0.3-1.5-1.6-1.4-2.6-1.5c-1.4-0.1-2.8,0-4.2,0c-0.6-1-0.6-2.2-1.4-3
	C147.2,47.4,147.2,47.1,147.2,46.7z"/>
<path class="st8" d="M43.5,177.6c-0.3-2.9,1.1-5.7,1.1-8.6c1.4,0,2.7,0,4.1,0c0.7,0.6,0.6,1.8,1.6,2.2c0.2,0.5-0.1,1.6,0.6,1.6
	c1.3-0.1,2.7-0.1,4.2-1.4c-1.5,0-2.9,0.5-3.4-1c0.1-0.4,0.2-0.7,0.4-1.1c1.9,0.3,3.9,0.6,5.7,1.4c0.9,0.4,1.7,0.9,1.7,1.9
	c0,1.1-0.9,1.4-1.7,1.8c-3.9,1.7-8,2.4-12.1,2.7C45,177.3,44.3,177.5,43.5,177.6z"/>
<path class="st5" d="M216.5,87.9c-0.4-4.1-3.7-7.6-7.8-8.3c-1.6,0.1-3.2-0.3-4.8,0.3c-0.8,0.3-1.1,0.2-1.3-0.8
	c-0.7-4.4-2.8-8.1-6.5-10.7c-3.5-2.4-7.4-3.6-11.7-2.6c0.2,2.2,0.7,4.4,1.1,6.5c0.9,5.5,1.8,10.9,2.6,16.4c0.4,2.9,1.4,5.8,1.2,8.8
	c7.2,0,14.4,0,21.6,0C214.6,95.9,216.9,92,216.5,87.9z"/>
<path class="st4" d="M162.9,117.2c-1-1.6-1.2-3.1,0.2-4.6c0.5-0.5,0.5-1,0.2-1.7c-0.5-0.9-0.8-2.1-0.2-2.8c1-1.4,1-2.7,1-4.3
	c-0.1-1.2,0.3-2.8,1.7-2.9c1.7-0.1,2,1.7,1.9,2.9c-0.2,1.7,0.8,3.1,0.9,4.5c0.1,2.4,0.1,4.6,1.1,6.9c0.3,0.7-0.4,1.4-0.7,2.1
	C166.8,117.2,164.8,117.2,162.9,117.2z"/>
<path class="st9" d="M190.9,137.7c-1,2.5-2.6,4.4-5,5.6c-0.7-1-1.2-0.3-1.7,0.2c-1.3,1.4-2.6,2.9-4.8,2.5c-2.8-0.5-5.2-1.8-6.9-4.1
	c0.5-0.2,0.8-0.6,0.8-1.2c1.7,0.7,3.4,1.3,5.1,2c1.1,0.5,1.5-0.4,2-1c0.4-0.6,0.7-1-0.2-1.4c-0.1-0.2-0.2-0.5-0.3-0.7
	c0-0.1,0.1-0.3,0.1-0.4c0.5,0,1,0,1.5,0c0.5,0,1,0,1.6,0c0.5-0.4,1-0.7,1.4-1.1c0.3,0,0.6-0.1,0.7-0.5l-0.1,0
	c1.1,0.4,2.2-0.4,3.3-0.3C189.2,137.4,190,137.6,190.9,137.7z"/>
<path class="st10" d="M118.2,150.4c1-2.7,1.5-5.5,2.1-8.2c0.4-1.9-0.7-2.9-2.4-3.3c0.3-0.9,0.5-1.7,0.8-2.6c1.2-0.3,2.4,0.5,3.6,0.2
	c0,6.9-1.6,13.8-1.3,20.8c-0.3,0-0.6-0.1-0.9-0.1c-0.9-0.4-1.8-0.8-2.7-1.2c-0.7-0.5-0.4-1.1-0.2-1.8
	C117.5,153,118.1,151.8,118.2,150.4z"/>
<path class="st10" d="M139.9,42.6c-0.1-1,0-2-0.4-2.9c0.4-0.5,0.8-0.7,1.4-0.7c0.6,1.3,1.2,1.5,1.9,0.1c0.6-0.1,1.2-0.2,1.8,0.2
	c-0.9,0.2-1.2,0.8-0.8,1.7c1.7,3.6,1.8,7.5,1.7,11.4c-0.3,0-0.5,0.1-0.8,0.1c-1.2,0-2.5,0-3.7-0.1c0,0-0.1,0-0.1,0
	c0.1-2.6,0.3-5.2,0.4-7.8C141.3,43.5,140.6,43,139.9,42.6z"/>
<path class="st7" d="M117.4,172c-3.6,0.1-7.3,0.1-10.9-0.7c-0.3-0.1-0.6-0.1-0.9-0.3c-0.7-0.5-2-0.7-2-1.7c0-1.1,1.3-1,2.1-1.2
	c3.4-1.1,6.9-1.3,10.4-1.2c0,1,0.3,2.1-0.5,2.9c-0.5,0.2-1.1,0.1-1.4,0.6c0.7,0.5,1.4,0,2,0.2C116.2,171.4,117.5,171.2,117.4,172z"
	/>
<path class="st3" d="M162.9,117.2c2,0,4,0,6,0c0.6,0.6,2.6,0.8,0.4,2.1c-0.9,0.5-0.7,2-0.8,3.1c0,2.3-2.8,3.8-4.8,2.6
	c-0.7-0.4-0.6-1.3-0.7-2c-0.2-1.6,0.1-3.3-1.7-4.3c-0.4-0.2-0.3-0.8,0.3-1C161.9,117.5,162.5,117.7,162.9,117.2z"/>
<path class="st6" d="M117.4,172c0.1-0.8-1.2-0.6-1.1-1.4c0.8,0,1.5-0.1,1.2-1.2c0.2-0.9,0.3-1.8,0.8-2.6c1.5-0.1,3,0.6,4.6,0.4
	c0,0.3,0.1,0.6,0.1,0.9c0,0.3-0.6,0.8,0.1,1c0.5,0.2,1,0,1.1-0.6c0.1-0.3,0.1-0.6,0.2-0.9c1.3-0.1,2.4,0.4,3.6,0.7
	c0.6,0.2,1,0.4,1.1,1.1c0,0.7-0.3,1-0.9,1.2c-2.4,1-4.9,1.5-7.5,1.5C119.5,172,118.4,172,117.4,172z"/>
<path class="st11" d="M140.8,38.9c-0.6,0-1.1,0.3-1.4,0.7c-0.8-0.3-1.3-0.9-1.8-1.5c0-1.5-0.1-2.9,0.2-4.4c0.4-1.8,1.6-2.6,3.3-2.6
	c1.8-0.1,2.9,0.8,3.4,2.5c0.1,0.4,0.1,0.8,0.2,1.3c0.4,2.9,0.4,2.9-2.3,3.6c-0.7-1.2,0.9-2,0.6-3.2c-1.6,0.4-2.9-0.3-4.3-1.3
	c-0.3,1.6,0.3,2.6,1.2,3.6C140.1,38.1,141,38,140.8,38.9z"/>
<path class="st11" d="M188.5,132.5c0.3-2,0.9-2.4,2.8-2.2c0.4,0.1,0.8,0.3,1.2-0.1c1-0.8,1.9-0.4,2.5,0.6c0.5,0.9,0.7,2-0.3,2.8
	c-1.2,0.9-1.1,2.9-2.8,3.3c-1,0.1-2.2-0.1-2.4-1.1C189.2,134.7,188.4,133.7,188.5,132.5z"/>
<path class="st11" d="M171.4,139.8c-0.5-0.3-1.1-0.6-1.6-0.9c-0.2-0.1-0.5-0.4-0.6-0.2c-1.1,2.1-1.9,0.1-2.8-0.2
	c-0.4-0.2-0.8-0.9-1.2-0.6c-0.6,0.4,0,0.8,0.1,1.3c0.1,0.3,0.1,0.5-0.2,0.5c-0.2,0-0.6,0-0.7-0.1c-0.9-1.4-1.7-2.7-2.5-4.1
	c-0.1-0.1,0-0.4,0-0.5c0.3-0.2,0.6-0.2,0.9,0c0.5,0.4,0.9,0.8,1.5,1.1c0.6,0.4,1.1,0.4,0.9-0.6c-0.1-0.3-0.2-0.6,0.2-0.7
	c0.3-0.1,0.6,0.2,0.8,0.4c0.6,0.8,1.1,1.7,1.6,2.5c0.3,0.4,0.4,1,1.2,0.9c-0.3-1.4-0.6-2.9,1.6-2.8c0.6,0,1.1,0,1.4,0.6
	c0.6,0.9,1.2,1.7,1.8,2.6c0.5,0.7,0,0.7-0.5,0.7C172.7,138.6,172,140.1,171.4,139.8z M172,138.5c-0.4-0.7-0.6-1.6-1.5-1.9
	c-0.3-0.1-0.6,0.2-0.6,0.5c0.1,0.9,0.7,1.6,1.5,1.9C171.8,139.2,172,138.9,172,138.5z M165.2,137.7c-0.2-0.2-0.3-0.3-0.4-0.3
	c-0.1,0-0.2,0.1-0.3,0.1c-0.2,0.2,0,0.3,0.2,0.4C164.8,137.9,165,137.8,165.2,137.7z M165.8,136.7c0,0-0.1-0.1-0.1-0.1
	c0,0.1-0.1,0.2-0.1,0.3c0,0,0.1,0.1,0.1,0.1C165.7,136.9,165.7,136.8,165.8,136.7z"/>
<path class="st12" d="M190.8,160.1c1-0.8,1.8-2.1,3.4-1.9c-0.5,2.7,0.2,5.4-0.1,8.1c-0.1,0.7-0.2,1.5-0.3,2.2c-0.9,0-1.7,0-2.6-0.1
	C191.1,165.7,190.9,162.9,190.8,160.1z"/>
<path class="st13" d="M124.8,157.5c-0.6,1.9,0.3,3.8,0,5.8c-0.7,0.1-1.5,0.1-2.2,0.1c-0.2-1.9,0.3-3.9-0.4-5.8
	c0.5-0.1,0.8-0.3,0.8-0.8c0.8-6.6,2-13.3,1.4-20c0.3,0,0.5,0,0.8,0c0,0.1,0,0.2,0.1,0.3c0,1.2,0.1,2.3,0.1,3.5
	c-0.3,5.3-0.7,10.5-1.6,15.7C123.5,157.2,123.8,157.6,124.8,157.5z"/>
<path class="st11" d="M181.5,139.1c-0.5,0-1,0-1.5,0c-0.2-1.2-0.9-2.1-1.9-2.7c-0.1-0.1-0.5,0.1-0.5,0.2c-0.1,0.9,0.8,1.3,1,2.1
	c-0.3,0-0.6,0.1-0.9,0.1c-0.5-0.7-1.1-1.3-1.6-2c-0.3-0.4-0.8-0.5-1.2-0.2c-0.4,0.4,0.2,0.6,0.4,0.9c0.4,0.6,0.8,1.2,1.3,1.8
	c-1.3,0.2-2-0.5-3.6-3.8c2.7,1.6,6.1-1.8,7.9,2.4c0.6-1-0.4-2.5,1.1-2.5c1.4,0,2.7,0.5,3.2,2c0,0,0.1,0,0.1,0
	c-0.3,0.1-0.7,0-0.7,0.5c-0.5,0.4-1,0.7-1.4,1.1c-0.7-0.5-1.1-1.4-2.3-1.7C181,138.2,181.3,138.7,181.5,139.1z"/>
<path class="st10" d="M124.8,157.5c-1,0.1-1.3-0.4-1.1-1.3c0.9-5.2,1.4-10.4,1.6-15.7c0.1-1.2,0-2.3-0.1-3.5c1.3,0.2,2.1,1,2.6,2.1
	c0,0,0,0,0,0c-0.8,0.8-1.4,1.6-1.6,2.8c0,0.1-0.1,0.2-0.1,0.2c-1.3,2.8-0.1,5.6,0,8.4c0,0.6,0,1.2,0,1.8c0,1.3-0.1,2.6,0,3.8
	C126.1,157.1,125.7,157.4,124.8,157.5z"/>
<path class="st11" d="M186.5,169.8c-0.3,2.2-1.5,4.2-1.7,6.4c0,0.5-0.5,0.5-0.8,0.5c-1.6,0-3.3,0-5.1-0.2c4.5-0.8,4-4.4,4.5-7.5
	C184.5,169.3,185.5,169.5,186.5,169.8z"/>
<path class="st5" d="M160.9,71.7c1-0.5,2-0.5,3.1,0c2.1,1.8,2.1,3.2,0,4.9c-1.8,0.6-3.4,0.4-4.3-1.3C159,73.9,159.5,72.5,160.9,71.7
	z"/>
<path class="st13" d="M145.4,52.3c0.1-3.9,0-7.8-1.7-11.4c-0.4-0.9-0.1-1.4,0.8-1.7c1.7,2.2,2,4.9,2.7,7.5c0,0.4,0,0.7,0,1.1
	c0,1.5,0,3,0,4.5C146.6,53.4,146,53,145.4,52.3z"/>
<path class="st13" d="M39.4,131.6c0.3-0.1,0.5-1,0.8-0.1c0.4,1.1,0.9,0.6,1.4,0.1c-0.6,2.4-1.2,4.8-1.8,7.3
	c-1.1,0.8-2.6,0.7-3.7,1.5c0.1-0.6,0.2-1.2,0.4-1.8c1.3-1.1,0.9-2.7,1.5-4.1C39.1,133.8,39.3,132.7,39.4,131.6z"/>
<path class="st11" d="M191.2,168.5c0.9,0,1.7,0,2.6,0.1c0.3,2.1-0.8,4-0.6,6c0.1,0.5-0.4,0.5-0.8,0.5c-1.4,0-2.8-0.1-4.3-0.2
	C189.7,173.6,189.7,173.6,191.2,168.5z"/>
<path class="st4" d="M160.9,71.7c-1.5,0.8-2,2.2-1.3,3.6c0.9,1.7,2.5,2,4.3,1.3c0,0.2,0,0.4,0,0.6c-2.4,0.5-3.9,2.3-5.6,3.8
	c0-3.2,0-6.5,0-9.7C159.2,71.5,160.2,71,160.9,71.7z"/>
<path class="st12" d="M186.5,169.8c-1-0.2-2.1-0.5-3.1-0.7c0-0.8,0-1.7,0-2.5c1.4-1,2.1-2.9,4-3.1
	C187.5,165.6,187.3,167.7,186.5,169.8z"/>
<path class="st8" d="M37.2,120.1c1.9,1,3.8,2.1,6,2.2c0.9,0,1.6,0.4,1.5,1.5c-0.1,1.2-1.1,1.5-2,1.4c-1.6-0.1-3.1-0.7-4.6-1.4
	c-1-0.6-2.3-0.9-3.1-2.2c1-0.2,1.6,0.3,2.3,0.7c1.5,0.8,3.1,1.4,4.9,1.8c0.5,0.1,1.3,0.4,1.4-0.4c0.1-0.7-0.6-0.5-1.1-0.6
	c-1.8-0.4-3.5-0.9-5-1.9C37.4,120.8,37.3,120.5,37.2,120.1z"/>
<path class="st13" d="M117.3,156.1c0.9,0.4,1.8,0.8,2.7,1.2c-1.2,2-1.6,4.2-1.5,6.5c-0.7-0.1-1.4-0.2-2.2-0.4
	C116.7,161,116.5,158.4,117.3,156.1z"/>
<path class="st11" d="M37.9,134.4c-0.6,1.3-0.2,3-1.5,4.1c-2-0.8-2.7-2.2-1.9-3.8C35.5,133,36.7,132.9,37.9,134.4z"/>
<path class="st13" d="M140.8,38.9c0.2-0.9-0.7-0.8-1.1-1.3c-0.8-1-1.5-2-1.2-3.6c1.4,1,2.7,1.7,4.3,1.3c0.3,1.2-1.2,2-0.6,3.2
	c0.1,0.2,0.2,0.3,0.4,0.5C142,40.4,141.4,40.3,140.8,38.9z"/>
<path class="st10" d="M116.3,163.4c0.7,0.1,1.4,0.2,2.2,0.4c0.2,1-0.3,2-0.3,3c-0.5,0.8-0.6,1.7-0.8,2.6c-0.6,0-1.1,0.5-1.8,0.3
	c0.8-0.9,0.6-1.9,0.5-2.9C116.2,165.7,116.3,164.5,116.3,163.4z"/>
<path class="st10" d="M122.6,163.4c0.7,0,1.5-0.1,2.2-0.1c-0.2,1.4-0.4,2.8-0.5,4.3c0,0.3-0.1,0.6-0.2,0.9c-0.2,0.5-0.6,0.7-1.1,0.6
	c-0.7-0.2-0.1-0.7-0.1-1c0-0.3-0.1-0.6-0.1-0.9C122.7,165.9,122.6,164.7,122.6,163.4z"/>
<path class="st13" d="M188.5,132.5c-0.1,1.2,0.7,2.2,0.9,3.3c0.2,1,1.4,1.2,2.4,1.1c-0.1,0.2-0.2,0.5-0.3,0.7c-0.2,0-0.5,0-0.7,0.1
	c-0.8-0.2-1.7-0.3-2.5-0.5C187.2,135.7,187.1,134.1,188.5,132.5z"/>
<path class="st11" d="M29.6,170.2c-0.8,1.2-0.7,2.3,0.2,3.4c-1.1,0.6-1.7,0-2.2-0.7c-1.3-1.4-0.3-2.3,0.8-3.1
	C28.8,169.8,29.2,169.9,29.6,170.2z"/>
<path class="st4" d="M174.4,64.1c0,1.1-0.8,1.5-1.6,1.5c-0.9,0-1.6-0.6-1.6-1.5c0-0.9,0.6-1.5,1.6-1.5
	C173.7,62.8,174.2,63.3,174.4,64.1z"/>
<path class="st4" d="M152.1,44.9c-0.8-0.1-1.5-0.3-1.6-1.3c-0.1-1,0.6-1.5,1.4-1.6c0.7-0.1,1.5,0.3,1.6,1.3
	C153.6,44.3,153,44.7,152.1,44.9z"/>
<path class="st8" d="M193.8,104.9c-0.9,0.5-1.6,0.3-1.9-0.8c0.1-0.9,0.7-1.3,1.5-1C194.4,103.5,194.2,104.2,193.8,104.9z"/>
<path class="st13" d="M171.4,139.8c0.7,0.3,1.3-1.2,1.9-0.1c0,0.3,0,0.6,0,0.9c-0.1,0.5-0.3,0.9-0.8,1.2
	C171.8,141.3,171.5,140.6,171.4,139.8z"/>
<path class="st14" d="M40.5,127.2c-0.1-0.3-0.2-0.7-0.4-1c0-0.1,0-0.2,0-0.4c1.2,0.3,2.5,0.5,3.7,0.4c0,0.1,0,0.2,0,0.3
	c-1.1,0.4-2.2,0.7-3.4,1.1C40.5,127.5,40.5,127.3,40.5,127.2z"/>
<path class="st13" d="M177.7,138.9c0.3,0,0.6-0.1,0.9-0.1c0.6,0,1,0.4,1.3,0.8c0.1,0.2,0.2,0.5,0.3,0.7
	C179.2,140.3,178,140.4,177.7,138.9z"/>
<path class="st3" d="M154,139.1c0.5,0,0.9-0.1,1.4-0.1C154.9,139.3,154.4,139.3,154,139.1z"/>
<path class="st15" d="M37.2,127.3c0,0.1,0.1,0.2,0.1,0.2c0,0,0,0.1-0.1,0.1c-0.2,0-0.3,0-0.5,0C36.8,127.4,36.9,127.2,37.2,127.3z"
	/>
<path class="st15" d="M40.9,85.9c0.4-3,0.7-6,1.5-9c3.9-0.2,7.9,0.3,11.9-0.3c1.8-0.3,2.2,0.5,1.7,2.4c-1.2,4.1-1.6,8.2-1.3,12.5
	c-1.6,0.6-1.5,2.1-1.5,3.5c-1.3-1.9-1.6-2-2.9-0.5c-1.9,0.7-2.7,0.1-3.3-1.9c-0.8-3-2.9-5.2-6-6.3C40.9,86.1,40.9,86,40.9,85.9z"/>
<path class="st8" d="M40.9,86.3c3.1,1.1,5.2,3.2,6,6.3c0.6,2,1.4,2.7,3.3,1.9c0.8,2.6-2.1,5-0.5,7.6c0,0.1-0.2,0.3-0.3,0.5
	c-1.3,2.3-1,3.3,1.2,4.2c-0.4,0.6-0.5,1.2,0.3,1.4c1.2,0.3,1.1,1.1,1.1,2c0,0.9,0,1.7,0,2.6c-2.9,0.1-2.9,0.1-3-2.9
	c0-0.8-0.2-1.4-0.9-2c-1.3-1.3-2.8-1.2-4.3-1c-0.1,0-0.2,0-0.4,0c-0.6-2.8-1.3-5.6-1.8-8.5C41,94.3,40.8,90.3,40.9,86.3z"/>
<path class="st16" d="M158.4,71.4c0,3.2,0,6.5,0,9.7c0,5.3,0,10.7,0,16c-5.1,0-10.3,0-15.4-0.1c0.4-0.7,0.7-1.4,1.1-2.1
	c4-7.9,0.7-17.6-7.3-21.4c-8.1-3.8-17.6-0.3-21.3,7.8c-2.5,5.5-1.6,10.7,1.5,15.8c-4.9,0-9.8,0.1-14.8,0.1c0-8.2,0-16.5-0.1-24.7
	c0-3.3,0-6.7,0-10c0.4-1.5,0.2-3.1,0.1-4.4c-0.2-2.1,0.3-3.9,1-5.7c0.2,0,0.4,0,0.6,0c0.4,0,0.8,0,1.2,0c5.6,0,11.2,0,16.8,0
	c1.1,0,2.1,0,3.2,0.1c0.3,1,0.6,2,1.1,3c0.7,1.6,1.9,2.5,3.7,2.6c3.1,0.2,4.7-1.7,4.6-5.5c0.6,0.4,1.2,0.2,1.7-0.2
	c1.5,0,3,0,4.6,0.1c0,0,0.1,0,0.1,0c1.2,0.6,2.4,0.5,3.7,0.1c0.3,0,0.5-0.1,0.8-0.1c0.6,0.7,1.2,1.1,1.9,0c0.6,0,1.2,0,1.8,0
	c2.1,0,4.3,0,6.4,0c2.2,0.7,3,1.8,3,4C158.4,61.4,158.4,66.4,158.4,71.4z"/>
<path class="st7" d="M43.9,106.8c1.6-0.2,3-0.4,4.3,1c0.6,0.7,0.9,1.2,0.9,2c0.1,3,0.1,3,3,2.9c0.1,0,0.2,0,0.3,0.1
	c0.6,2.2,2.3,0.8,3.5,1c1.2,0.2,1.3-0.9,1.3-1.8c0.1-1.5-0.3-3.2,1.5-4.1c0.6,0.5,0.4,1.1,0.4,1.7c0,2.7,0,5.4,0,8.2
	c0,2.1,0.9,3,3,3.1c1.5,0.4,3,0.4,4.6,0.4c3.8,0,7.6,0,11.4,0c0,2.2,0,4.5,0,6.7c0,2.9,0.8,3.8,3.8,4.1c6.1,0,12.1,0,18.2,0
	c0.1,1.6-0.4,3.3,0.4,4.7c0.6,1,1.1,2.7,2.9,1.6c0.5,0.2,1,0.3,1.6,0.5c0.1,0,0.2,0,0.3,0c1.9,0.1,3.8,0.1,5.6,0.2
	c-0.8,1.7-2.6,1.5-3.9,1.9c-5.3,1.5-10.9,2-16.4,1.5c-6.7-0.5-13.3-2-19.4-5c-5.9-2.9-11.2-6.6-15.7-11.3c-0.6-0.7-1.1-1.5-2.2-1.5
	c0.1-4.8-2.2-8.5-6.1-9.7C46.2,112.2,44.6,109.7,43.9,106.8z"/>
<linearGradient id="SVGID_1_" gradientUnits="userSpaceOnUse" x1="114.0033" y1="86.7741" x2="145.7391" y2="86.7741">
	<stop  offset="0" style="stop-color:#7E51FF"/>
	<stop  offset="1" style="stop-color:#FA4A84"/>
</linearGradient>
<path style="fill:url(#SVGID_1_);" d="M116.9,97c-3.1-5-3.9-10.2-1.5-15.8c3.6-8.1,13.2-11.6,21.3-7.8c8,3.8,11.4,13.5,7.3,21.4
	c-0.4,0.7-0.7,1.4-1.1,2.1c-1.9,1.6-3.3,3.8-5.8,4.6c-0.1-1.4-1.3-1.8-2.3-2.4c-0.5-0.2-1.3-0.4-1.2-1c0.1-0.7,0.9-0.3,1.4-0.4
	c0.5-0.1,1.1,0,1.7,0c1.1-0.1,1.5-0.7,0.8-1.6c-0.8-1.1-0.8-2.2-0.7-3.4c0.1-1.5,0.3-3,0.2-4.4c-0.3-5.9-4.9-9.3-9.9-7.3
	c-2.9,1.2-4.3,3.5-4.6,6.6c-0.2,2.9,0.6,5.9-0.8,8.8c-0.5,0.9,0.3,1.3,1.2,1.3c0.9,0,1.9,0,2.9,0c-0.3,1.1-0.9,1.3-1.5,1.6
	c-1,0.4-1.9,0.9-2.1,2.1C120,100.5,118.5,98.8,116.9,97z"/>
<path class="st8" d="M103.6,138.4c-1.9,1.1-2.4-0.6-2.9-1.6c-0.8-1.4-0.3-3.1-0.4-4.7c0.1-0.3,0.4-0.5,0.4-0.8c0-4,0-7.9,0-11.9
	c0-0.8-0.3-1.1-1.1-1.1c-0.3,0-0.6-0.1-0.7-0.5c0-0.3,0.1-0.5,0.4-0.5c1.7,0,1.3-1.3,1.3-2.2c0-0.7-0.3-1.5-0.3-2.2
	c0.3-3.8,0.4-7.6,0.2-11.4c0-6.1,0-12.1,0-18.2c-0.7-2.1-0.3-4.3-0.3-6.4c0-1.3-0.5-1.6-1.7-1.2c-2.7,1-4.8,2.7-6.5,5
	c-0.5-0.6-1.3-0.4-1.9-0.4c-3.5,0-6.9,0-10.4,0c0-0.9-0.1-1.8,0-2.7c0.1-1.2-0.5-1.5-1.5-1.4c-0.4-0.2-0.8-0.1-1.2,0
	c-2.9,0.6-5.1,2.3-6.9,4.5c-0.2-0.5-0.5-0.9,0-1.3c1.6-1.4,2.2-3.4,2.4-5.3c0.4-2.9,3.2-4.7,6-4.1c1,0.2,1.3,0,1.6-0.9
	c1.2-3.3,4.5-5.1,7.7-5.1c3.7-0.1,6.4,2.2,7.9,6.4c0.2,0.5,0.3,1.3,1,1c2.1-0.7,3.6,0.7,5.4,1.2c0,8.2,0,16.5,0.1,24.7
	c0,12.3,0,24.7,0,37C102.1,135.8,102.4,137.2,103.6,138.4z"/>
<path class="st3" d="M122.2,101.5c0.2-1.2,1.1-1.7,2.1-2.1c0.6-0.3,1.3-0.4,1.5-1.6c-1,0-2,0-2.9,0c-0.9,0-1.6-0.4-1.2-1.3
	c1.4-2.9,0.5-5.9,0.8-8.8c0.3-3.1,1.7-5.5,4.6-6.6c5-2,9.6,1.5,9.9,7.3c0.1,1.5-0.2,3-0.2,4.4c-0.1,1.2,0,2.3,0.7,3.4
	c0.7,0.9,0.3,1.5-0.8,1.6c-0.6,0.1-1.1,0-1.7,0c-0.5,0.1-1.3-0.4-1.4,0.4c-0.1,0.6,0.7,0.8,1.2,1c1,0.5,2.2,0.9,2.3,2.4
	C132.1,104.5,127.2,104.3,122.2,101.5z"/>
<path class="st18" d="M128.5,117.6c-6,0-12.1,0-18.1,0c-0.5,0-1,0-1.5,0c-0.5,0-0.8-0.4-0.8-0.9c0-0.5,0.3-0.8,0.8-0.8
	c0.5,0,1,0,1.5,0c12,0,24,0,36,0c0.9,0,2.3-0.3,2.3,0.9c0,1.5-1.5,0.9-2.4,0.9C140.5,117.6,134.5,117.6,128.5,117.6z"/>
<path class="st18" d="M128.7,110.5c6.1,0,12.3,0,18.4,0c0.7,0,1.7-0.3,1.7,0.9c-0.1,0.9-1,0.7-1.7,0.7c-12.4,0-24.8,0-37.2,0
	c-0.6,0-1.6,0.2-1.7-0.7c-0.1-1.1,1-0.9,1.7-0.9C116.2,110.5,122.5,110.5,128.7,110.5z"/>
<path class="st18" d="M121.5,123.1c-3.8,0-7.7,0-11.5,0c-0.7,0-1.7,0.1-1.7-0.9c0-1.1,1-0.9,1.7-0.9c7.7,0,15.5,0,23.2,0
	c0.7,0,1.7-0.1,1.6,1c-0.1,0.9-1,0.8-1.6,0.8C129.3,123.1,125.4,123.1,121.5,123.1z"/>
<path class="st13" d="M118.7,136.4c-0.3,0.9-0.5,1.7-0.8,2.6c-0.1,0-0.1,0-0.2,0c-4.4-1.7-5.6-5.2-5.2-9.6c0.1-0.7-0.1-1.3-0.1-2
	c0-0.5,0.1-1,0.5-1.3c0.2-0.1,0.5-0.1,0.7,0c0.5,0.3,0.3,0.8,0.2,1.3c-0.6,2.4,0.4,4.7,1.2,6.8C115.4,135.1,117.4,135.6,118.7,136.4
	z"/>
<path class="st11" d="M125.2,136.7c-0.3,0-0.5,0-0.8,0c-0.5-0.1-1-0.1-1.4-0.2l0,0c0.4-0.3,0.3-0.7,0-1c1.1-1.5,1.1-2.9,0-3.8
	c1.7-1,3.1-0.7,3.8,0.8C127.6,134.1,126.9,136,125.2,136.7z"/>
<path class="st13" d="M120.9,157.3c-0.3-7,1.3-13.8,1.3-20.8c0.2,0,0.5,0,0.7,0l0,0c0,1.9,0.2,3.9-0.2,5.7c-0.9,5-1.1,10-1.1,15.1
	C121.4,157.4,121.2,157.4,120.9,157.3z"/>
<path class="st13" d="M123,131.8c1.1,0.9,1.1,2.3,0,3.8c-0.1,0-0.1-0.1-0.2-0.1C121.5,134.2,122.7,133,123,131.8L123,131.8z"/>
<path class="st11" d="M123,131.7c-0.3,1.2-1.5,2.4-0.2,3.7c-0.9,0.1-2-0.3-1.8-1C121.2,133.5,121.6,132.1,123,131.7z"/>
<path class="st12" d="M105.4,138.9c-0.1,0-0.2,0-0.3,0C105.2,138.8,105.3,138.8,105.4,138.9z"/>
<path class="st6" d="M62.2,120.9c-2.1-0.1-3-1.1-3-3.1c0-2.7,0-5.4,0-8.2c0-0.6,0.2-1.3-0.4-1.7c0.1-0.8-0.3-1.2-1.1-1.1
	c0-0.9,1.1-1.7,0.7-2.4c-1.1-1.9-1.1-3.8-1-5.9c0-0.3-0.1-0.8-0.3-1c-0.8-0.7-0.6-1.5-0.5-2.5c0.2-1.5,0.2-3-1.8-3.5
	c-0.3-4.2,0.1-8.4,1.3-12.5c0.6-1.9,0.1-2.7-1.7-2.4c-3.9,0.6-7.9,0.2-11.9,0.3c0,0,0,0,0,0c-0.1-0.7,0.2-1.3,0.3-2
	c1.1-4.6,3.4-8.7,5.3-12.9c0.7-0.7,0.4-1.6,0.6-2.4c1.5-4.9,4.7-8,9.4-9.7c0.5-0.2,1-0.4,1.6-0.6c0.4,0,0.8,0,1.1,0
	c-0.3,2.6,0.6,3,2.1,3.2c1.5,0.2,2.5-0.7,2.5-2.4c2.3,0.3,4.2,1.5,5.9,3.2c2.3,2.3,2.2,2.2,5.3,0.9c1-0.4,1.9-1.7,3.3-1
	c-0.8,1-1,2-0.3,3.1c0.8,1.2,2,1.1,3.2,1.1c1.1,0,1.7-0.8,1.9-1.8c0.5-1.8-0.7-2.6-2.1-3.1c0.1-0.7,0.6-0.9,1.1-1
	c3.5-0.9,7.1-1.1,10.7-1.5c0.5-0.1,0.8,0.2,0.9,0.7c-0.6,0.4-1.2,0.8-1.8,1.2c-2.2,1.6-4,3.4-4.5,6.2c-2.9,0-5.7-0.1-8.6,0.4
	c-0.3-0.5-0.7-0.3-1.1-0.2c-1.3,0.5-2.6,0.9-3.9,1.3c-3.2,1.1-2.5,0.9-1.5,3.5c-2.1-0.1-4.2-0.1-6.3-0.2c-1.1-0.1-2.1,0.4-3.1,0.3
	c-2.8-0.1-3.9,0.9-3.9,3.7c0,8.7,0,17.5,0,26.2c0,7.5,0.1,15.1,0,22.6C60.2,117.7,60.5,119.5,62.2,120.9z M49,75.1
	c1.7,0,2.7-0.9,2.7-2.4c0-1.3-1.4-2.5-3-2.5c-1.3,0-2.5,1.3-2.5,2.5C46.2,74.2,47.3,75.1,49,75.1z"/>
<path class="st7" d="M79.7,53.1c-1.4-0.7-2.3,0.6-3.3,1c-3,1.3-3,1.4-5.3-0.9c-1.6-1.7-3.5-2.8-5.9-3.2c-1.2-2.3-2.3-2.5-4.5-0.7
	c-0.4,0-0.8,0-1.1,0c3.3-3.6,7.6-5.9,11.9-8c7.9-3.8,16.4-5.4,25.1-5c3.7,0.2,7.5,0.8,11.1,1.8c0.7,0.2,1.4,0.5,2.2,0.4
	c-3,3.4-5.2,7.2-5.2,11.9c-0.4,0-0.7,0-1.1,0c-2.9-1.1-5.7-0.9-8.6,0c-0.1-0.5-0.3-0.8-0.9-0.7c-3.6,0.4-7.2,0.6-10.7,1.5
	c-0.5,0.1-1.1,0.3-1.1,1C81.3,52.2,80.4,52.4,79.7,53.1z M91.6,43.5c0-0.5-0.7-0.8-1.5-0.8c-0.9,0-1.5,0.4-1.5,1.5
	c0.1,0.9,0.8,1.3,1.5,1.3C91,45.4,91.7,44.9,91.6,43.5z"/>
<path class="st15" d="M48,62c-1.9,4.3-4.2,8.3-5.3,12.9c-0.2,0.7-0.4,1.3-0.3,2c-2.6-0.4-4.2-1.9-5.2-4.2c-1.2-2.9-0.9-5.8,1.1-8.3
	C40.9,61.3,44.2,60.5,48,62z"/>
<path class="st4" d="M46.2,56.4c0.9,0.2,1.5,0.6,1.4,1.6c-0.1,0.9-0.7,1.4-1.6,1.4c-0.8-0.1-1.4-0.5-1.3-1.4
	C44.7,57,45.3,56.6,46.2,56.4z"/>
<path class="st14" d="M51.4,125.4c0.5-3.5-0.8-6.3-3.4-8.6c2,0.3,3.8,2.7,4.1,5.3c0.1,1.1,0.2,2.2-0.1,3.3
	C51.8,125.4,51.6,125.4,51.4,125.4z"/>
<path class="st13" d="M50.2,125.8c1,0.9,0,1.5-0.2,2.3c0,0.1,0,0.2,0,0.2c-0.1,0.1-0.2,0.3-0.3,0.4c-0.1,0.2-0.2,0.3-0.3,0.5
	c-0.5-0.1-0.9-0.3-1.3-0.7c0-0.5,0-1,0-1.5c0.7,0.5,0.8-0.3,1.1-0.5c0.1-0.1,0.2-0.2,0.3-0.3l0,0C49.7,126,49.9,125.9,50.2,125.8z"
	/>
<path class="st12" d="M49.6,128.7c0.1-0.1,0.2-0.3,0.3-0.4C49.8,128.4,49.7,128.5,49.6,128.7z"/>
<path class="st8" d="M170.3,84c2.4,0,4.4,1.7,4.4,3.7c0,2-2.2,4-4.4,4c-2.1,0-4.5-2.1-4.3-4C166.2,85.6,167.4,83.8,170.3,84z"/>
<path class="st8" d="M176.5,85.2c-1-0.1-1.7-0.6-1.6-1.5c0-0.8,0.6-1.4,1.4-1.4c0.9,0,1.5,0.5,1.5,1.5
	C177.7,84.6,177.1,84.9,176.5,85.2z"/>
<path class="st5" d="M134.5,52.5c0,3.8-1.6,5.6-4.6,5.5c-1.8-0.1-3-1-3.7-2.6c-0.4-1-0.7-2-1.1-3c-0.4-1.6-1.4-3.1-1.5-4.8
	c2.2-1.1,4.5-1.6,6.8-2.5c1.2-0.5,1.6,0.3,1.9,1.2c0.8,2,1.5,4.1,2.2,6.1C134.4,52.3,134.5,52.5,134.5,52.5z M131.5,55
	c1.4-0.5,1.1-1.6,0.6-2.4c-0.6-1-1.5-1.7-2.8-1.1c-1.2,0.6-1.8,1.5-1.4,2.9c0.3,1,1.1,1.6,2.1,1.6C130.7,56,131.6,56.1,131.5,55
	L131.5,55z"/>
<path class="st8" d="M103.6,50.5c0.4,0,0.7,0,1.1,0c0.5,0.6,1.3,0.4,1.9,0.4c4.9,0,9.9,0,14.8,0c0.2,0.5,0.3,1,0.5,1.4
	c-5.6,0-11.2,0-16.8,0c-0.4-0.6-0.8-1.3-1.2,0c-0.2,0-0.4,0-0.6,0c-0.5,0.1-1.1-0.2-1.5,0.4c-0.1,0-0.3,0-0.4,0
	C101.1,51,102.8,51.2,103.6,50.5z"/>
<path class="st13" d="M134.5,52.5c0,0-0.1-0.1-0.1-0.1c0.1-1.6,1.4-2.6,2.2-3.7c1.4-1.9,2.7-3.7,3.2-6c0.8,0.5,1.5,0.9,1.3,2
	c-1.1,2.9-3.5,5-5,7.7C135.7,52.7,135.1,52.9,134.5,52.5z"/>
<path class="st4" d="M121.9,52.3c-0.2-0.5-0.3-1-0.5-1.4c-0.8-2.4-0.8-2.4,2.2-3.3c0.1,1.7,1.1,3.2,1.5,4.8
	C124,52.3,123,52.3,121.9,52.3z"/>
<path class="st13" d="M128.1,141.1c1,3.2-0.4,6-1.4,8.9c-0.7-1.1-0.4-2.3-0.2-3.3c0.3-1.6,0.3-3.1-0.3-4.6c0.1-0.1,0.1-0.1,0.1-0.2
	C126.9,141.5,127.5,141.3,128.1,141.1z"/>
<path class="st14" d="M126.1,142c0.6,1.5,0.6,3,0.3,4.6c-0.2,1.1-0.4,2.3,0.2,3.3c-0.2,0.1-0.3,0.3-0.5,0.4
	C126,147.6,124.9,144.8,126.1,142z"/>
<path class="st4" d="M128.1,141.1c-0.6,0.2-1.2,0.5-1.8,0.7c0.2-1.1,0.9-2,1.6-2.8C128.3,139.7,128.2,140.4,128.1,141.1z"/>
<path class="st19" d="M48.8,169c-1.4,0-2.7,0-4.1,0c-2-0.8-4.1-0.5-6-0.3c-2.5,0.3-5.1,0.2-7.6,0.2c2.3-4.1,5.5-7.8,7.6-12.1
	c0.3-0.7,0.8-0.7,1.3-0.2c2,1.7,4.5,2.9,5.2,5.9C45.7,165.1,47.6,166.9,48.8,169z"/>
<path class="st20" d="M44.3,118.8c4.2,1.2,5.3,3.8,3.5,7.9c-1.4,1.7-3.5,1.7-5.4,2.3c0.1-0.3,0.1-0.6,0.2-0.9
	c0.6-0.1,1.2-0.3,1.8-0.4c2.1-0.5,3.2-1.7,3.4-3.7c0.2-1.9-0.8-3.3-2.5-4.2c-0.3-0.2-0.7-0.3-1-0.4C44.3,119.2,44.3,119,44.3,118.8z
	"/>
<path class="st20" d="M43.9,126.6c0-0.1,0-0.2,0-0.3c1.3-0.6,2.2-1.4,1.9-3c-0.3-1.6-1.4-2-2.8-2.1c-0.8-0.1-1.7-0.1-2.5-0.7
	c0-0.2,0-0.4,0-0.6c1.1,0.2,2.3,0.4,3.4,0.6c1.7,0.3,2.6,1.3,2.7,3C46.8,125.1,45.8,126.2,43.9,126.6z"/>
<path class="st20" d="M49.5,126.1c0-1,0.1-2,0.1-2.9c-0.1-2.8-1.9-4.2-4.2-5.3c0-0.2,0-0.4,0-0.7c3.9,1,5.5,3.9,4.8,8.5
	C49.9,125.9,49.7,126,49.5,126.1z"/>
<path class="st14" d="M47.6,116.5c-0.3,0-0.5,0-0.8-0.1c0-0.2,0-0.5,0.1-0.7C47.2,115.9,47.4,116.2,47.6,116.5z"/>
<path class="st21" d="M39.8,138.8c0.6-2.4,1.2-4.8,1.8-7.3c0.2-0.3,0.3-0.6,0.5-0.9c0.1,0,0.3,0,0.4,0c-0.2,0.8,0.1,1.2,0.9,1
	c1-0.3,2.1-0.6,3.1-0.9C45.4,134.3,43,136.9,39.8,138.8z"/>
<g>
	<g>
		<path class="st10" d="M36.2,118.5c1.8,0,2.7,1.7,4.4,2c0.7,0.6,1.6,0.6,2.5,0.7c1.4,0.1,2.6,0.6,2.8,2.1c0.3,1.6-0.7,2.4-1.9,3
			c-1.3,0.1-2.5-0.1-3.7-0.4c-1.2-0.4-2.2-1.3-3.8-1.1c1.1,0.7,0.8,1.7,0.8,2.5l0,0c-0.3,0-0.4,0.1-0.4,0.4
			c-0.4,0.2-0.8,0.9-1.3,0.5c-0.5-0.4,0-0.9,0.3-1.3c0.5-0.6,0.3-1.2-0.4-1.5c-1.5-0.5-0.9-1.1-0.3-2c0.1-0.2-2.1-0.8-0.2-1.7
			c0.1,0,0.2-0.2,0.2-0.3c0.4-1.4,0.4-1.4,1.8-0.6c0.2,0.1,0.4,0.2,0.7,0.3c1.5,1,3.2,1.5,5,1.9c0.4,0.1,1.2,0,1.1,0.6
			c-0.1,0.8-0.9,0.5-1.4,0.4c-1.7-0.3-3.3-1-4.9-1.8c-0.7-0.3-1.3-0.9-2.3-0.7c0.8,1.2,2,1.6,3.1,2.2c1.4,0.8,2.9,1.4,4.6,1.4
			c0.9,0,1.9-0.2,2-1.4c0.1-1.1-0.6-1.5-1.5-1.5c-2.2-0.1-4.1-1.2-6-2.2C36.8,119.6,35.8,119.5,36.2,118.5z"/>
		<path class="st10" d="M48,128.4c-0.1,0.1-0.3,0.2-0.4,0.3c-0.4,0-0.9-0.1-1.1,0.4l0,0c-1.6,0.2-3.2,0.3-4.4,1.5
			c-0.2,0.3-0.3,0.6-0.5,0.9c-0.5,0.5-0.9,1.1-1.4-0.1c-0.3-0.9-0.5,0.1-0.8,0.1c-1.2,0.1-0.9-0.8-0.8-1.4c0.2-1.2,1-1.9,1.9-2.6
			c1.1-0.4,2.2-0.7,3.4-1.1c1.9-0.4,2.9-1.4,2.8-3.1c-0.1-1.7-1.1-2.7-2.7-3c-1.1-0.2-2.3-0.4-3.4-0.6c-0.8-0.6-2.5-1.2-2-1.9
			c0.7-1.1,1.7,0.4,2.5,0.8c1.1,0.4,2.2,0.4,3.2,0.6c0.3,0.1,0.7,0.3,1,0.4c1.7,0.9,2.7,2.2,2.5,4.2c-0.2,2-1.3,3.1-3.4,3.7
			c-0.6,0.2-1.2,0.3-1.8,0.4c-0.8,0.2-1.7,0.2-1.9,1.3c0,0.1,0.1,0.4,0.2,0.4c0.7,0.2,1-0.6,1.5-0.8c1.9-0.6,4-0.6,5.4-2.3
			c0.1,0.1,0.2,0.1,0.2,0.2C48,127.4,48,127.9,48,128.4z"/>
		<path class="st10" d="M40.5,127.2c-1.2,0.1-2.1,0.5-2.6,1.7c-0.2,0.4-0.3,1.3-1,0.9c-0.6-0.3-0.1-1,0.1-1.4
			c0.1-0.2,0.2-0.5,0.3-0.7c0,0,0.1-0.1,0.1-0.1c0-0.1-0.1-0.2-0.1-0.2c0,0,0,0,0,0c1.1-0.2,1.8-1.3,3-1.1
			C40.3,126.5,40.4,126.9,40.5,127.2z"/>
		<path class="st10" d="M47.3,114.9c3.9,1.2,6.3,4.9,6.1,9.7c-0.1,0.4-0.1,0.7-0.2,1.1c-0.2,0.4-0.2,1.1-0.8,1
			c-0.6-0.1-0.3-0.8-0.3-1.3c0.3-1.1,0.2-2.2,0.1-3.3c-0.3-2.6-2.1-4.9-4.1-5.3l0,0c0.1-0.4-0.1-0.4-0.4-0.4l0,0
			c-0.2-0.3-0.5-0.5-0.7-0.8C46.9,115.4,46.9,115.1,47.3,114.9z"/>
		<path class="st10" d="M45.4,117.2c-0.6-0.4-2-0.1-1.8-1.1c0.3-1,1.4-0.2,2.2-0.1c0.4,0.1,0.7,0.2,1,0.3c0.3,0,0.5,0,0.8,0.1
			c0,0,0,0,0,0c-0.1,0.3,0.1,0.4,0.4,0.4c0,0,0,0,0,0c2.6,2.3,3.9,5.1,3.4,8.6c-0.4,0.9-0.5,2-1.5,2.6c0.2-0.7,1.2-1.4,0.2-2.3
			C50.9,121.2,49.3,118.3,45.4,117.2z"/>
		<path class="st10" d="M49.1,126.4c-0.4,0.2-0.5,1-1.1,0.5c-0.1-0.1-0.2-0.2-0.2-0.2c1.8-4.1,0.7-6.7-3.5-7.9
			c-1.1-0.1-2.2-0.3-3.1-1c-0.2-0.2-0.5-0.4-0.4-0.7c0.2-0.4,0.6-0.5,0.9-0.2c1.1,0.8,2.5,0.8,3.7,1.1c2.3,1.1,4.1,2.6,4.2,5.3
			c0,1-0.1,2-0.1,2.9c0,0,0,0,0,0C49.2,126.1,49.2,126.3,49.1,126.4z"/>
	</g>
	<path class="st10" d="M46.6,130.7c-1,0.3-2.1,0.6-3.1,0.9c-0.8,0.2-1.2-0.1-0.9-1c1.5-0.2,2.9-0.4,4-1.5c0,0,0,0,0,0
		c0.3,0,0.5,0,0.8,0C47.4,129.8,47,130.3,46.6,130.7z"/>
</g>
<path class="st14" d="M47.3,129.2c-0.3,0-0.5,0-0.8,0c0.2-0.5,0.7-0.4,1.1-0.4C47.5,128.9,47.4,129,47.3,129.2z"/>
<path class="st8" d="M155.4,52.3c-2.1,0-4.3,0-6.4,0c-0.1-0.5-0.2-1-0.4-1.5c1.4,0,2.8-0.1,4.2,0C153.8,51,155.1,50.8,155.4,52.3z"
	/>
<path class="st10" d="M148.6,50.8c0.1,0.5,0.2,1,0.4,1.5c-0.6,0-1.2,0-1.8,0c0-1.5,0-3,0-4.5C148,48.7,148.1,49.9,148.6,50.8z"/>
<path class="st8" d="M179.9,139.6c-0.4-0.4-0.7-0.8-1.3-0.8c-0.2-0.8-1-1.2-1-2.1c0-0.1,0.4-0.2,0.5-0.2c1,0.6,1.8,1.4,1.9,2.7
	C180,139.3,179.9,139.4,179.9,139.6z"/>
<path class="st18" d="M181.5,139.1c-0.2-0.5-0.4-0.9-0.8-1.7c1.2,0.3,1.7,1.2,2.3,1.7C182.5,139.1,182,139.1,181.5,139.1z"/>
<path class="st19" d="M184.5,138.1c0.1-0.4,0.4-0.4,0.7-0.5C185.1,138,184.8,138,184.5,138.1z"/>
<path class="st21" d="M120.9,157.3c0.3,0,0.5,0.1,0.8,0.1c0.1,0.1,0.3,0.1,0.4,0.2c0.7,1.9,0.2,3.9,0.4,5.8c0.1,1.2,0.1,2.5,0.2,3.7
	c-1.6,0.3-3-0.5-4.6-0.4c0-1,0.5-2,0.3-3c0-2.3,0.4-4.5,1.5-6.5C120.3,157.3,120.6,157.3,120.9,157.3z"/>
<path class="st8" d="M136.2,52.3c1.5-2.7,3.8-4.8,5-7.7c-0.1,2.6-0.3,5.2-0.4,7.8C139.3,52.3,137.8,52.3,136.2,52.3z"/>
<path class="st8" d="M144.5,52.4c-1.2,0.4-2.5,0.5-3.7-0.1C142.1,52.4,143.3,52.4,144.5,52.4z"/>
<path class="st22" d="M115.6,169.7c0.6,0.2,1.1-0.3,1.8-0.3c0.3,1.1-0.3,1.2-1.2,1.2c-0.6-0.2-1.3,0.2-2-0.2
	C114.6,169.8,115.1,169.9,115.6,169.7z"/>
<path class="st15" d="M40.2,125.8c0,0.1,0,0.2,0,0.4c-1.2-0.2-1.9,0.9-3,1.1c0-0.9,0.3-1.8-0.8-2.5C38,124.5,39,125.4,40.2,125.8z"
	/>
<path class="st14" d="M46.5,129.1c-1.1,1.2-2.5,1.4-4,1.5c-0.1,0-0.3,0-0.4,0C43.3,129.4,45,129.4,46.5,129.1z"/>
<path class="st13" d="M42.6,128.1c-0.1,0.3-0.1,0.6-0.2,0.9c-0.5,0.2-0.8,1-1.5,0.8c-0.1,0-0.2-0.3-0.2-0.4
	C40.9,128.3,41.8,128.3,42.6,128.1z"/>
<path class="st8" d="M172,138.5c0,0.4-0.3,0.7-0.6,0.6c-0.8-0.4-1.4-1-1.5-1.9c-0.1-0.3,0.2-0.6,0.6-0.5
	C171.5,136.9,171.7,137.8,172,138.5z"/>
<path class="st19" d="M165.2,137.7c-0.3,0.1-0.4,0.2-0.5,0.1c-0.1,0-0.3-0.2-0.2-0.4c0.1-0.1,0.2-0.2,0.3-0.1
	C164.9,137.5,165,137.6,165.2,137.7z"/>
<path class="st19" d="M165.8,136.7c0,0.1-0.1,0.2-0.1,0.2c0,0-0.1-0.1-0.1-0.1c0-0.1,0.1-0.2,0.1-0.3
	C165.7,136.6,165.7,136.7,165.8,136.7z"/>
<path class="st4" d="M122.1,157.6c-0.1-0.1-0.3-0.1-0.4-0.2c0-5.1,0.1-10.1,1.1-15.1c0.3-1.9,0.1-3.8,0.2-5.7c0.5,0.1,1,0.1,1.4,0.2
	c0.6,6.7-0.6,13.4-1.4,20C122.9,157.3,122.6,157.5,122.1,157.6z"/>
<path class="st5" d="M54.7,91.4c2,0.4,2,2,1.8,3.5c-0.1,1-0.3,1.8,0.5,2.5c0.2,0.2,0.3,0.7,0.3,1c-0.1,2,0,4,1,5.9
	c0.4,0.8-0.6,1.6-0.7,2.4c-0.9,0-1.7,0-2.6,0c-0.7-0.7-0.2-1.5-0.4-2.3c-0.2-1.1-0.8-2.5-1.9-2.3c-1.2,0.2-1.6,1.5-1.4,2.8
	c0.1,0.3,0.2,0.6,0.3,0.9c0.1,0.8-0.4,0.9-1,0.9c-2.2-0.9-2.5-1.9-1.2-4.2c0.1-0.2,0.3-0.4,0.3-0.5c-1.6-2.7,1.4-5,0.5-7.6
	c1.3-1.5,1.6-1.5,2.9,0.5C53.2,93.5,53.1,92.1,54.7,91.4z M53.9,100.5c0.1-1.3-0.3-2.2-1.1-2.5c-0.6-0.2-0.7,0.5-0.7,1
	c0,0.9,0.2,2,1.2,2.3C53.9,101.5,53.9,100.6,53.9,100.5z"/>
<path class="st18" d="M50.7,106.7c0.6,0,1.1-0.1,1-0.9c0-0.3-0.2-0.6-0.3-0.9c-0.2-1.3,0.1-2.7,1.4-2.8c1.1-0.1,1.7,1.2,1.9,2.3
	c0.1,0.8-0.3,1.6,0.4,2.3c-0.8,1.3-1.4,2.6-1.5,4.2c-0.1,0.8-0.1,1.6-1.1,1.8c-0.1,0-0.2,0-0.3-0.1c0-0.9,0-1.7,0-2.6
	c0-0.9,0-1.7-1.1-2C50.1,108,50.3,107.3,50.7,106.7z"/>
<path class="st3" d="M60.3,93c0-8.7,0-17.5,0-26.2c0-2.8,1.2-3.8,3.9-3.7c1,0,2-0.4,3.1-0.3c2.1,0.1,4.2,0.2,6.3,0.2
	c1.4-0.2,2.4,0.1,2.7,1.7c0.2,0.9,0.9,1.6,1.9,1.8c0.1,0.2,0.2,0.6,0.4,0.6c1.6,0.1,3.8-2.3,3.3-3.8c-0.4-1.3-0.6-2.7-1.4-3.9
	c0-0.3-0.1-0.6-0.5-0.8c0-0.1,0-0.2,0.1-0.3c2.8-0.4,5.7-0.4,8.6-0.4c2.5,0,5,0,7.6-0.1c0.1,0,0.2,0.1,0.3,0.2
	c0.1,0.1,0.3,0.1,0.4,0.2c1.6-0.3,2.6,0.1,2.9,1.9c0.1,0.4,0.2,0.8,0.7,1c0,1,0.6,1.3,1.5,1.3c0,3.3,0,6.7,0,10
	c-1.8-0.5-3.3-1.9-5.4-1.2c-0.7,0.2-0.8-0.5-1-1c-1.5-4.2-4.2-6.4-7.9-6.4c-3.2,0.1-6.5,1.8-7.7,5.1c-0.3,0.9-0.7,1.1-1.6,0.9
	c-2.8-0.6-5.6,1.2-6,4.1c-0.3,1.9-0.8,3.9-2.4,5.3c-0.5,0.4-0.3,0.9,0,1.3c-2,3.6-2.6,7.2-0.6,10.9c0.8,1.5,0.1,1.4-0.9,1.4
	C65.8,93,63,93,60.3,93z"/>
<linearGradient id="SVGID_2_" gradientUnits="userSpaceOnUse" x1="100.4954" y1="57.37" x2="103.2154" y2="57.37">
	<stop  offset="0" style="stop-color:#7E51FF"/>
	<stop  offset="1" style="stop-color:#FA4A84"/>
</linearGradient>
<path class="st17" d="M102.1,62.4c-0.9,0-1.5-0.3-1.5-1.3c0-0.9,0-1.9,0-2.8c0-2-0.4-4,1.2-5.7c0.4-0.6,1-0.3,1.5-0.4
	c-0.7,1.8-1.2,3.6-1,5.7C102.3,59.3,102.4,61,102.1,62.4z"/>
<path class="st9" d="M103.9,52.3c0.4-1.3,0.8-0.6,1.2,0C104.7,52.3,104.3,52.3,103.9,52.3z"/>
<path class="st18" d="M60.3,93c2.7,0,5.5,0,8.2,0c1,0,1.7,0.1,0.9-1.4c-2-3.7-1.4-7.4,0.6-10.9c1.9-2.2,4-3.9,6.9-4.5
	c0.4-0.1,0.8-0.2,1.2,0c0,1.4,0.1,2.7,0,4.1c-0.1,1.1,0.3,1.6,1.5,1.5c0,0.1,0,0.2,0,0.4c0,3.4,0,6.8,0,10.2c0,4.1,0,4.1,4.1,4
	c2.4,0,4.7,0,7.1,0c0.7,0,1.3,0,0.7-1c-2.8-4.9-2.3-9.8,0.4-14.6c1.7-2.2,3.9-3.9,6.5-5c1.2-0.5,1.7-0.2,1.7,1.2
	c0.1,2.1-0.4,4.3,0.3,6.4c-2.1,0.4-3.6,2.5-3.7,4.9c-0.1,2.1,0.4,4.2-0.3,6.3c-0.3,0.8-0.8,1.5-0.2,2.2c0.6,0.7,1.3,0.4,2.1,0.2
	c0.4-0.1,0.9-0.3,1.2,0.2c0.2,0.5-0.3,0.7-0.7,0.9c-0.9,0.4-2.4,0.5-2.3,1.7c0.1,1.2,1.6,1.3,2.6,1.7c0.4,0.1,0.8,0.2,1.3,0.2
	c0.1,3.8,0,7.6-0.2,11.4c-0.1,0.7,0.3,1.5,0.3,2.2c0,1,0.4,2.3-1.3,2.2c-0.3,0-0.4,0.2-0.4,0.5c0,0.4,0.3,0.5,0.7,0.5
	c0.8,0,1.1,0.4,1.1,1.1c0,4,0,7.9,0,11.9c0,0.3-0.2,0.5-0.4,0.8c-6.1,0-12.1,0-18.2,0c-2.1-1.3-2.5-3.2-2.3-5.4c0.1-1.5,0.1-3,0-4.5
	c0-0.9-0.3-1.7-1.5-0.9c-3.8,0-7.6,0-11.4,0c-1.5,0-3.1,0-4.6-0.4c-1.6-1.4-1.9-3.2-1.9-5.3C60.4,108.1,60.3,100.5,60.3,93z
	 M75.8,93.7c-0.5,0.5-0.6,0.6-0.8,0.7c-0.6,0.2-1.2,0.4-1.2,1.2c0,0.9,0.8,1,1.4,1.2c0.5,0.2,1.1,0.3,1.6,0.3
	c0.9,0.1,1.4-0.2,1.4-1.2c0-4.1,0-8.3,0-12.4c0-1.4-0.7-1.4-1.7-0.9c-1.9,1-2.7,2.6-2.8,4.7c0,1.1,0.2,2.3-0.1,3.3
	C73.1,92.3,72.9,93.6,75.8,93.7z"/>
<path class="st3" d="M52.5,112.8c1-0.2,1.1-1,1.1-1.8c0.1-1.5,0.7-2.9,1.5-4.2c0.9,0,1.7,0,2.6,0c0.8-0.1,1.2,0.3,1.1,1.1
	c-1.8,0.9-1.4,2.6-1.5,4.1c0,0.9-0.2,2-1.3,1.8C54.8,113.6,53.1,114.9,52.5,112.8z"/>
<path class="st8" d="M78.2,121.3c1.2-0.8,1.4,0,1.5,0.9c0.1,1.5,0.1,3,0,4.5c-0.2,2.2,0.3,4.2,2.3,5.4c-3-0.4-3.8-1.2-3.8-4.1
	C78.2,125.7,78.2,123.5,78.2,121.3z"/>
<path class="st3" d="M92,80.7c-2.8,4.8-3.2,9.7-0.4,14.6c0.6,1,0,1-0.7,1c-2.4,0-4.7,0-7.1,0c0.1-0.8-0.3-1.3-0.9-1.7
	c-0.6-0.4-0.6-1,0-1.1c1.6-0.3,1.2-1.1,0.9-2.2c-0.2-1.1-0.3-2.1-0.1-3.3c0.4-2.9-1.4-5.5-4-5.9c0-0.1,0-0.2,0-0.4c0-0.5,0-1,0-1.5
	c3.5,0,6.9,0,10.4,0C90.7,80.3,91.5,80.1,92,80.7z"/>
<path class="st24" d="M100.5,101.5c-0.4-0.1-0.9-0.1-1.3-0.2c-1-0.4-2.5-0.4-2.6-1.7c-0.1-1.3,1.4-1.3,2.3-1.7
	c0.4-0.2,0.9-0.3,0.7-0.9c-0.2-0.5-0.8-0.3-1.2-0.2c-0.7,0.2-1.5,0.5-2.1-0.2c-0.6-0.7-0.1-1.4,0.2-2.2c0.7-2,0.2-4.2,0.3-6.3
	c0.1-2.4,1.6-4.4,3.7-4.9C100.5,89.4,100.5,95.4,100.5,101.5z"/>
<path class="st14" d="M79.7,80.3c0,0.5,0,1,0,1.5c-1.1,0.1-1.5-0.4-1.5-1.5c0.1-1.4,0-2.7,0-4.1c1-0.1,1.6,0.2,1.5,1.4
	C79.6,78.5,79.7,79.4,79.7,80.3z"/>
<path class="st7" d="M96.2,57.9c-2.5,0-5,0-7.6,0.1c0.5-2.8,2.3-4.7,4.5-6.2c0.6-0.4,1.2-0.8,1.8-1.2c2.9-0.9,5.7-1.1,8.6,0
	c-0.7,0.7-2.4,0.5-2.2,2.2c-1,0.4-2,0.7-2.9,1.1C95.6,54.9,95.6,54.9,96.2,57.9z"/>
<path class="st4" d="M78.2,66.6c-1-0.2-1.7-0.9-1.9-1.8C76,63.1,75,62.8,73.6,63c-1-2.6-1.7-2.5,1.5-3.5c1.3-0.4,2.6-0.9,3.9-1.3
	c0.4-0.2,0.8-0.3,1.1,0.2C80,58.4,80,58.5,80,58.6c-2.2,1.2-2.8,5.2-1.1,6.8C79,66,78.6,66.3,78.2,66.6z"/>
<path class="st4" d="M79.7,53.1c0.8-0.7,1.7-0.9,2.6-0.8c1.4,0.6,2.6,1.4,2.1,3.1c-0.2,0.9-0.8,1.7-1.9,1.8c-1.2,0-2.4,0.1-3.2-1.1
	C78.7,55,78.9,54,79.7,53.1z"/>
<path class="st4" d="M49,75.1c-1.7,0-2.8-0.9-2.8-2.3c0-1.3,1.3-2.5,2.5-2.5c1.5,0,3,1.2,3,2.5C51.7,74.2,50.7,75.1,49,75.1z"/>
<path class="st4" d="M60.7,49.4c2.2-1.8,3.3-1.6,4.5,0.7c0.1,1.7-1,2.6-2.5,2.4C61.3,52.4,60.4,52,60.7,49.4z"/>
<path class="st4" d="M91.6,43.5c0.1,1.4-0.6,1.9-1.4,2c-0.8,0-1.4-0.4-1.5-1.3c-0.1-1.1,0.5-1.5,1.5-1.5
	C90.9,42.6,91.6,42.9,91.6,43.5z"/>
<path class="st14" d="M48,116.8c-0.3,0-0.5-0.1-0.4-0.4C47.9,116.5,48.1,116.5,48,116.8z"/>
<path class="st20" d="M49.1,126.4c0.1-0.2,0.1-0.4,0.3-0.3C49.4,126.2,49.3,126.3,49.1,126.4z"/>
<path class="st11" d="M131.5,54.9c0,1.1-0.8,1-1.5,1c-1,0-1.8-0.6-2.1-1.6c-0.5-1.3,0.2-2.3,1.4-2.9c1.3-0.6,2.2,0,2.8,1.1
	C132.6,53.4,132.9,54.5,131.5,54.9c0-0.3,0.1-0.6,0.2-0.9c0.1-1.2-0.4-2-1.6-2c-0.9,0-1.7,0.7-1.6,1.7c0.1,1.2,0.9,1.7,2.1,1.4
	C131,55.1,131.3,55,131.5,54.9z"/>
<path class="st4" d="M96.2,57.9c-0.7-3-0.7-3,2.2-4.1c1-0.4,2-0.7,2.9-1.1c0.1,0,0.3,0,0.4,0c-1.5,1.6-1.2,3.7-1.2,5.7
	c0,0.9,0,1.9,0,2.8c-0.5-0.2-0.6-0.6-0.7-1c-0.3-1.8-1.3-2.2-2.9-1.9c-0.1-0.1-0.3-0.1-0.4-0.2C96.4,58,96.3,57.9,96.2,57.9z"/>
<path class="st18" d="M53.9,100.5c0,0.2,0,1-0.7,0.8c-0.9-0.3-1.1-1.3-1.2-2.3c0-0.5,0.1-1.2,0.7-1C53.6,98.3,54,99.2,53.9,100.5z"
	/>
<path class="st8" d="M78.2,66.6c0.4-0.3,0.8-0.6,0.7-1.1c0.9-0.9,0.8-2,0.8-3.1c0-1-0.2-2.1,0.7-2.9c0.8,1.2,1,2.6,1.4,3.9
	c0.5,1.5-1.7,3.9-3.3,3.8C78.4,67.1,78.3,66.8,78.2,66.6z"/>
<linearGradient id="SVGID_3_" gradientUnits="userSpaceOnUse" x1="77.9075" y1="62.0385" x2="80.4544" y2="62.0385">
	<stop  offset="0" style="stop-color:#7E51FF"/>
	<stop  offset="1" style="stop-color:#FA4A84"/>
</linearGradient>
<path class="st23" d="M80.5,59.4c-1,0.8-0.8,1.9-0.7,2.9c0,1.1,0.1,2.2-0.8,3.1c-1.7-1.6-1.1-5.6,1.1-6.8
	C80.4,58.8,80.4,59.1,80.5,59.4z"/>
<path class="st20" d="M96.5,58c0.1,0.1,0.3,0.1,0.4,0.2C96.8,58.2,96.6,58.1,96.5,58z"/>
<path class="st24" d="M75.8,93.7c-2.8-0.1-2.6-1.4-2.1-3.2c0.3-1,0.1-2.2,0.1-3.3c0-2.1,0.9-3.7,2.8-4.7c0.9-0.5,1.7-0.5,1.7,0.9
	c0,4.1,0,8.3,0,12.4c0,1-0.4,1.3-1.4,1.2c-0.5-0.1-1.1-0.2-1.6-0.3c-0.6-0.2-1.4-0.2-1.4-1.2c0-0.8,0.6-1,1.2-1.2
	C75.1,94.3,75.2,94.1,75.8,93.7z"/>
<path class="st8" d="M79.7,82.2c2.6,0.5,4.5,3,4,5.9c-0.2,1.1-0.1,2.2,0.1,3.3c0.2,1,0.6,1.9-0.9,2.2c-0.6,0.1-0.6,0.7,0,1.1
	c0.6,0.4,1,0.9,0.9,1.7c-4.1,0.1-4.1,0.1-4.1-4C79.7,88.9,79.7,85.6,79.7,82.2z"/>
<path class="st7" d="M131.5,54.9c-0.3,0.1-0.6,0.2-0.9,0.3c-1.2,0.2-2-0.2-2.1-1.4c-0.1-1,0.6-1.7,1.6-1.7c1.2,0,1.7,0.8,1.6,2
	C131.7,54.4,131.6,54.7,131.5,54.9C131.5,55,131.5,54.9,131.5,54.9z"/>
<rect x="62.4" y="156.5" transform="matrix(-1 -1.224647e-16 1.224647e-16 -1 124.8345 315.0566)" class="st26" width="0" height="2.1"/>
<rect x="24.8" y="162.8" class="st19" width="47.7" height="21.1"/>
<path class="st19" d="M219.5,20.2c0-1.1-0.2-1.5-1.4-1.5c-66.5,0-132.9,0-199.4,0c-1.2,0-1.3,0.3-1.3,1.4c0,18.8,0,37.6,0,56.5
	c1.2,0.5,2.6,0.4,3.8,0.4c2.8,0.1,4.8,2.2,4.7,5c0,2.6-1.8,4.3-4.7,4.3c-1.3,0-2.6,0-3.9,0c0,2.2,0,4.5,0,6.7
	c1.8-0.4,3.6-0.4,5.4,0.1c0.5,0.2,0.7,0.1,0.9-0.5c1-2.9,3.2-4.7,5.6-6.4c0.4-4.4,0.9-8.8,2.1-13.1c2.2-8.3,5.9-15.9,11-22.7
	c3.1-4.2,6.8-7.8,10.8-11.1c6-4.9,12.6-8.5,19.8-11c5.1-1.7,10.3-2.8,15.7-3.3c11.9-1,23,1.3,33.6,6.4c0.6,0.3,1.3,0.5,1.6,1.2
	c4.4,0.4,8.6,1.5,12,4.6c0.4,0.4,1,0.7,1.5,1c0-1.5-0.1-2.9,0.2-4.4c0.4-1.8,1.6-2.6,3.3-2.6c1.8-0.1,2.9,0.8,3.4,2.5
	c0.1,0.4,0.1,0.8,0.2,1.3c0.4,2.9,0.4,2.9-2.3,3.6c0.1,0.2,0.2,0.3,0.4,0.5c0.6-0.1,1.2-0.2,1.8,0.2c1.7,2.2,2,4.9,2.7,7.5
	c5.8-0.7,11.9,4.1,12.4,11c0.4,4.6,2.4,10,8.8,13.5c-1.5,0.5-3.1-0.3-4.5,0.5c2.1,1.8,2.1,3.2,0,4.9c0,0.2,0,0.4,0,0.6
	c2-0.5,4.1-0.6,6,0.2c1.3,0.5,1.3-0.4,1.6-1.1c1.6-4.9,5-8,9.6-10c1-0.4,2.1-0.6,3.3-0.6c4.3-1,8.1,0.2,11.7,2.6
	c3.8,2.6,5.8,6.3,6.5,10.7c0.2,1,0.4,1.1,1.3,0.8c1.6-0.6,3.2-0.2,4.8-0.3c4.1,0.7,7.4,4.2,7.8,8.3c0.4,4.1-1.9,8.1-5.6,9.6
	c-7.2,0-14.4,0-21.6,0c-10.3,0-20.6,0.1-30.9,0.1c0,11.8,0,23.7-0.1,35.5c0,0.6,0,1.2,0,1.9c0,2.3-0.7,3.3-3,4.1
	c-0.4,0.4-0.9,0.3-1.4,0.1c-6.4-0.2-12.7-0.2-19.1,0c-0.3,0.8-1,1.3-1.6,1.8c-0.4,0.4-1.2,0.5-0.9,1.2c0.2,0.8,1.1,0.5,1.6,0.5
	c5.5-0.1,10.8,0.6,16.1,1.9c1.1,0.3,2.2,0.7,3.2,1.4c0.7,0.4,1.5,0.8,1.3,1.8c-0.2,0.9-0.8,1.3-1.6,1.7c-2.8,1.1-5.7,1.9-8.7,2.2
	c-3.9,0.4-7.8,0.9-11.8,1.1c-2.1,0.1-4.3,0.1-6.4-0.3c0,1.3-0.1,2.6,0,3.8c0,0.9-0.4,1.3-1.3,1.4c-0.6,1.9,0.3,3.8,0,5.8
	c-0.2,1.4-0.4,2.8-0.5,4.3c1.3-0.1,2.4,0.4,3.6,0.7c0.6,0.2,1,0.4,1.1,1.1c0,0.7-0.3,1-0.9,1.2c-2.4,1-4.9,1.5-7.5,1.5
	c-1,0-2.1,0-3.1,0c-3.6,0.1-7.3,0.1-10.9-0.7c-0.3-0.1-0.6-0.1-0.9-0.3c-0.7-0.5-2-0.7-2-1.7c0-1.1,1.3-1,2.1-1.2
	c3.4-1.1,6.9-1.3,10.4-1.2c0-1.1,0.1-2.3,0.1-3.4c0.4-2.4,0.2-4.9,1-7.3c-0.7-0.5-0.4-1.1-0.2-1.8c0.4-1.3,1-2.5,1-3.9
	c-2-0.6-3.7,0.6-5.5,1c-4.4,1.2-8.8,1.9-13.3,2.4c-10.4,1.1-20.4-0.6-30.1-4.6c-6.4-2.6-12.2-6.2-17.5-10.7
	c-1.6-1.4-3.3-2.6-4.5-4.4c0.3-1.7,1.7-3.1,1.8-4.9c-0.5-0.1-0.9-0.3-1.3-0.7c-0.1,0.1-0.3,0.2-0.4,0.3c-0.1,0.2-0.2,0.3-0.3,0.5
	c0.1,0.6-0.3,1.1-0.7,1.5c-0.4,1.2-0.9,2.3-1.6,3.3v-1.9h-5.6c0-0.2,0-0.3,0.1-0.5c-1.2,0.1-0.9-0.8-0.8-1.4c0.2-1.2,1-1.9,1.9-2.6
	c0-0.1,0-0.3,0-0.4c-1.2,0.1-2.1,0.5-2.6,1.7c-0.2,0.4-0.3,1.3-1,0.9c-0.6-0.3-0.1-1,0.1-1.4c0.1-0.2,0.2-0.5,0.3-0.7
	c-0.2,0-0.3,0-0.5,0c-0.4,0.2-0.8,0.9-1.3,0.5c-0.5-0.4,0-0.9,0.3-1.3c0.5-0.6,0.3-1.2-0.4-1.5c-1.5-0.5-0.9-1.1-0.3-2
	c0.1-0.2-2.1-0.8-0.2-1.7c0.1,0,0.2-0.2,0.2-0.3c0.4-1.4,0.4-1.4,1.8-0.6c0.2,0.1,0.4,0.2,0.7,0.3c-0.1-0.4-0.2-0.7-0.3-1.1
	c-0.4-0.5-1.4-0.6-1.1-1.6c-1.4-3-2.7-6.1-3.7-9.2c-0.3-0.8-0.5-1.6-0.5-2.5c-4.8,0-9.7,0-14.5,0c0,26.2,0,52.3,0,78.5
	c0,1.1,0.1,1.4,1.3,1.4c66.5,0,132.9,0,199.4,0c1.2,0,1.4-0.3,1.4-1.4C219.5,130.2,219.5,75.2,219.5,20.2z M152.1,44.9
	c-0.8-0.1-1.5-0.3-1.6-1.3c-0.1-1,0.6-1.5,1.4-1.6c0.7-0.1,1.5,0.3,1.6,1.3C153.6,44.3,153,44.7,152.1,44.9z M172.8,65.7
	c-0.9,0-1.6-0.6-1.6-1.5c0-0.9,0.6-1.5,1.6-1.5c0.9,0,1.5,0.5,1.6,1.4C174.4,65.2,173.6,65.6,172.8,65.7z M57.9,174.5
	c-3.9,1.7-8,2.4-12.1,2.7c-0.7,0.1-1.5,0.2-2.2,0.4c-4.6,0.5-9.2,0.4-13.8,0.4c-2.8,0-3.3-0.6-2.6-3.5c0.1-0.5,0.3-1.1,0.5-1.6
	c-1.3-1.4-0.3-2.3,0.8-3.1c-0.3-0.3-0.4-0.6-0.3-0.9c-0.1,0.3,0,0.6,0.3,0.9c0.5,0,0.9,0.1,1.2,0.4c0.9,0.1,0.9-0.9,1.5-1.2
	c2.3-4.1,5.5-7.8,7.6-12.1c0.3-0.7,0.8-0.7,1.3-0.2c2,1.7,4.5,2.9,5.2,5.9c0.6,2.4,2.5,4.2,3.6,6.4c0.7,0.6,0.6,1.8,1.6,2.2
	c0.4-0.3,0.8-0.8,1.4-0.8c0.1-0.4,0.2-0.7,0.4-1.1c1.9,0.3,3.9,0.6,5.7,1.4c0.9,0.4,1.7,0.9,1.7,1.9
	C59.6,173.8,58.6,174.2,57.9,174.5z M169.2,119.3c-0.9,0.5-0.7,2-0.8,3.1c0,2.3-2.8,3.8-4.8,2.6c-0.7-0.4-0.6-1.3-0.7-2
	c-0.2-1.6,0.1-3.3-1.7-4.3c-0.4-0.2-0.3-0.8,0.3-1c0.5-0.1,1,0.1,1.4-0.4c-1-1.6-1.2-3.1,0.2-4.6c0.5-0.5,0.5-1,0.2-1.7
	c-0.5-0.9-0.8-2.1-0.2-2.8c1-1.4,1-2.7,1-4.3c-0.1-1.2,0.3-2.8,1.7-2.9c1.7-0.1,2,1.7,1.9,2.9c-0.2,1.7,0.8,3.1,0.9,4.5
	c0.1,2.4,0.1,4.6,1.1,6.9c0.3,0.7-0.4,1.4-0.7,2.1C169.5,117.8,171.4,118,169.2,119.3z M204.6,117.9c-1.7,0-3.4,0-5,0
	c-6.4,0-12.8-0.1-19.2,0.1c-2.3,0.1-3.6-1.9-3.7-3.5c-0.1-1.9,1.6-4.1,3.5-3.9c2,0.2,2.8-0.7,3.6-2.4c1.5-3.5,4.8-4.1,8.2-4
	c0.1-0.9,0.7-1.3,1.5-1c1,0.3,0.7,1.1,0.4,1.8c0.9,1.4,2.5,2.3,3.1,3.9c0.2,0.5,0.7,0.5,1.3,0.4c2.7-0.4,4.3,0.8,5,3.4
	c0.4,1.5,0.7,3,1.9,4.1c0.2,0.2,0.5,0.5,0.4,0.8C205.4,118,205,117.9,204.6,117.9z"/>
</svg>
