<?xml version="1.0" encoding="utf-8"?>
<!-- Generator: Adobe Illustrator 23.0.2, SVG Export Plug-In . SVG Version: 6.00 Build 0)  -->
<svg version="1.1" id="fb638577-3af1-4e62-8e8d-f046cc0653af"
	 xmlns="http://www.w3.org/2000/svg" xmlns:xlink="http://www.w3.org/1999/xlink" x="0px" y="0px" viewBox="0 0 1150.4 866.5"
	 style="enable-background:new 0 0 1150.4 866.5;" xml:space="preserve">
<style type="text/css">
	.st0{fill:url(#SVGID_1_);}
	.st1{fill:none;stroke:#535461;stroke-width:2;stroke-miterlimit:10;}
	.st2{fill:#260350;}
	.st3{opacity:0.25;enable-background:new    ;}
	.st4{opacity:0.1;fill:#260350;enable-background:new    ;}
	.st5{fill:#C8CAD7;}
	.st6{opacity:0.1;enable-background:new    ;}
	.st7{fill:#474157;}
	.st8{fill:#F4F4F7;}
	.st9{fill:#FFFFFF;}
	.st10{fill:#EDEDF4;}
	.st11{fill:#65617D;}
	.st12{opacity:0.2;fill:#5A5773;enable-background:new    ;}
	.st13{fill:#3F3D56;}
	.st14{font-family:'Gilroy-ExtraBold';}
	.st15{font-size:27.7266px;}
</style>
<linearGradient id="SVGID_1_" gradientUnits="userSpaceOnUse" x1="345.5696" y1="723.7079" x2="821.0814" y2="91.9327">
	<stop  offset="0" style="stop-color:#FA4A84"/>
	<stop  offset="1" style="stop-color:#7E51FF"/>
</linearGradient>
<rect x="144.4" y="45" class="st0" width="825.4" height="795.5"/>
<title>site stats</title>
<g id="bcb547b9-8dd8-4d76-924a-52de61933c6c">
	<path class="st1" d="M413.4,306.4c0,0-26.6-47.1-66.6-60.7c-16.8-5.7-31.5-16.4-41.5-31c-4.7-7-8.8-14.3-12.2-22"/>
	<path class="st2" d="M267.8,184c4.6,4.4,25.8,9,25.8,9s-5.2-21.1-9.8-25.5c-4.6-4.4-11.9-4.2-16.3,0.4
		C263.3,172.4,263.4,179.6,267.8,184z"/>
	<path class="st2" d="M279.9,222.1c6.2,1.2,26.6-6.5,26.6-6.5s-15.8-14.9-22.1-16.1c-6.3-1.1-12.2,3.1-13.3,9.3
		C270,215,273.9,220.8,279.9,222.1L279.9,222.1z"/>
	<path class="st2" d="M323.6,263.5c6-2.1,19.6-19,19.6-19s-21.2-4.8-27.2-2.8c-6.1,1.9-9.5,8.3-7.6,14.4c1.9,6.1,8.3,9.5,14.4,7.6
		C323.1,263.6,323.4,263.5,323.6,263.5L323.6,263.5z"/>
	<path class="st2" d="M363.8,287.3c6.3-1,22.6-15.4,22.6-15.4s-20-8.4-26.3-7.3c-6.3,1-10.5,7-9.5,13.2S357.5,288.3,363.8,287.3z"/>
	<path class="st2" d="M324.2,199.2c0,6.4-11.5,24.8-11.5,24.8s-11.5-18.4-11.5-24.8c-0.1-6.4,4.9-11.6,11.3-11.8s11.6,4.9,11.8,11.3
		C324.2,198.9,324.2,199,324.2,199.2L324.2,199.2z"/>
	<path class="st2" d="M370.7,227.6c-1.9,6.1-18.4,20.2-18.4,20.2s-5.5-21-3.6-27.1c2.2-6,8.8-9.1,14.7-6.9
		C369.1,215.9,372.3,221.8,370.7,227.6L370.7,227.6z"/>
	<path class="st2" d="M412.2,261.5c-0.9,6.3-14.7,23-14.7,23s-9-19.8-8.1-26.1c0.8-6.3,6.5-10.8,12.8-10.1
		c6.3,0.8,10.8,6.5,10.1,12.8C412.3,261.2,412.3,261.4,412.2,261.5L412.2,261.5z"/>
	<path class="st3" d="M267.8,184c4.6,4.4,25.8,9,25.8,9s-5.2-21.1-9.8-25.5c-4.6-4.4-11.9-4.2-16.3,0.4
		C263.3,172.4,263.4,179.6,267.8,184z"/>
	<path class="st3" d="M279.9,222.1c6.2,1.2,26.6-6.5,26.6-6.5s-15.8-14.9-22.1-16.1c-6.3-1.1-12.2,3.1-13.3,9.3
		C270,215,273.9,220.8,279.9,222.1L279.9,222.1z"/>
	<path class="st3" d="M323.6,263.5c6-2.1,19.6-19,19.6-19s-21.2-4.8-27.2-2.8c-6.1,1.9-9.5,8.3-7.6,14.4c1.9,6.1,8.3,9.5,14.4,7.6
		C323.1,263.6,323.4,263.5,323.6,263.5L323.6,263.5z"/>
	<path class="st3" d="M363.8,287.3c6.3-1,22.6-15.4,22.6-15.4s-20-8.4-26.3-7.3c-6.3,1-10.5,7-9.5,13.2S357.5,288.3,363.8,287.3z"/>
	<path class="st3" d="M324.2,199.2c0,6.4-11.5,24.8-11.5,24.8s-11.5-18.4-11.5-24.8c-0.1-6.4,4.9-11.6,11.3-11.8s11.6,4.9,11.8,11.3
		C324.2,198.9,324.2,199,324.2,199.2L324.2,199.2z"/>
	<path class="st3" d="M370.7,227.6c-1.9,6.1-18.4,20.2-18.4,20.2s-5.5-21-3.6-27.1c2.2-6,8.8-9.1,14.7-6.9
		C369.1,215.9,372.3,221.8,370.7,227.6L370.7,227.6z"/>
	<path class="st3" d="M412.2,261.5c-0.9,6.3-14.7,23-14.7,23s-9-19.8-8.1-26.1c0.8-6.3,6.5-10.8,12.8-10.1
		c6.3,0.8,10.8,6.5,10.1,12.8C412.3,261.2,412.3,261.4,412.2,261.5L412.2,261.5z"/>
	<path class="st1" d="M411.9,305.5c0,0-5.2-53.8-36.3-82.4c-13-12-22.1-27.8-25.4-45.2c-1.5-8.3-2.3-16.7-2.3-25.1"/>
	<path class="st2" d="M328.4,134.6c2.4,5.9,19.9,18.7,19.9,18.7s3.8-21.4,1.4-27.3c-2.4-5.9-9.1-8.8-15-6.4
		C328.9,122,326,128.7,328.4,134.6L328.4,134.6z"/>
	<path class="st2" d="M323.9,174.3c5.2,3.7,26.9,4.9,26.9,4.9s-8.5-20-13.7-23.7c-5.2-3.6-12.4-2.2-16,3
		C317.7,163.7,318.9,170.7,323.9,174.3L323.9,174.3z"/>
	<path class="st2" d="M347.2,229.8c6.4,0.5,25.7-9.4,25.7-9.4s-17.4-13-23.7-13.5c-6.3-0.7-12,3.9-12.7,10.2s3.9,12,10.2,12.7
		C346.9,229.8,347,229.8,347.2,229.8L347.2,229.8z"/>
	<path class="st2" d="M374.3,267.9c6.2,1.6,26.9-4.9,26.9-4.9s-15-15.8-21.1-17.4c-6.2-1.6-12.4,2.1-14,8.3
		C364.4,260,368.1,266.3,374.3,267.9L374.3,267.9z"/>
	<path class="st2" d="M373.7,171.3c-2.6,5.8-20.6,18-20.6,18s-3.1-21.5-0.5-27.3c2.7-5.8,9.6-8.2,15.3-5.5
		C373.5,159.1,376.1,165.6,373.7,171.3z"/>
	<path class="st2" d="M404.8,216.2c-4.2,4.8-25,11-25,11s3.5-21.4,7.7-26.2c4.1-4.9,11.4-5.5,16.2-1.4c4.9,4.1,5.5,11.4,1.4,16.2
		C405,215.9,404.9,216,404.8,216.2z"/>
	<path class="st2" d="M429,263.9c-3.3,5.4-22.8,15.1-22.8,15.1s-0.2-21.7,3.2-27.1c3.3-5.4,10.4-7.1,15.8-3.8S432.4,258.5,429,263.9
		L429,263.9z"/>
</g>
<ellipse class="st4" cx="612.7" cy="609.5" rx="193.5" ry="9.7"/>
<path class="st2" d="M396.8,590.9c0,0-24.4-1.5-21.5,15.6c0,0-0.6,3,2.2,4.4c0,0,0-1.3,2.5-0.8c0.9,0.1,1.8,0.2,2.7,0.1
	c1.2-0.1,2.3-0.6,3.2-1.3l0,0c0,0,6.9-2.8,9.5-14.1c0,0,2-2.4,1.9-3.1l-4.1,1.7c0,0,1.4,3,0.3,5.4c0,0-0.1-5.3-0.9-5.2
	c-0.2,0-2.1,1-2.1,1s2.4,5.2,0.6,8.9c0,0,0.7-6.4-1.4-8.6l-2.9,1.7c0,0,2.8,5.4,0.9,9.7c0,0,0.5-6.7-1.5-9.3l-2.6,2.1
	c0,0,2.7,5.3,1,8.9c0,0-0.2-7.8-1.6-8.4c0,0-2.3,2-2.6,2.9c0,0,1.8,3.8,0.7,5.8c0,0-0.7-5.2-1.3-5.2c0,0-2.3,3.4-2.5,5.8
	c0,0,0.1-3.5,2-6.1c-1.3,0.2-2.5,0.9-3.5,1.8c0,0,0.4-2.4,4.1-2.6c0,0,1.9-2.6,2.4-2.8c0,0-3.7-0.3-5.9,0.7c0,0,2-2.3,6.6-1.3
	l2.6-2.1c0,0-4.9-0.7-6.9,0.1c0,0,2.4-2,7.6-0.5l2.8-1.7c0,0-4.1-0.9-6.6-0.6c0,0,2.6-1.4,7.5,0.1l2-0.9c0,0-3-0.6-3.9-0.7
	c-0.9-0.1-0.9-0.3-0.9-0.3c1.9-0.3,3.9-0.1,5.7,0.6C392.5,592.8,396.9,591.2,396.8,590.9z"/>
<ellipse class="st4" cx="380" cy="612.4" rx="17.3" ry="2.9"/>
<path class="st2" d="M354,591.8c0,0-13.8-0.8-12.1,8.8c-0.2,1,0.3,2,1.2,2.5c0,0,0-0.7,1.4-0.5c0.5,0.1,1,0.1,1.5,0.1
	c0.7,0,1.3-0.3,1.8-0.8l0,0c0,0,3.9-1.6,5.4-7.9c0,0,1.1-1.4,1.1-1.7l-2.3,1c0,0,0.8,1.7,0.2,3.1c0,0-0.1-3-0.5-2.9
	c-0.1,0-1.2,0.6-1.2,0.6s1.4,2.9,0.3,5c0,0,0.4-3.6-0.8-4.8l-1.7,1c0,0,1.6,3,0.5,5.5c0,0,0.3-3.8-0.9-5.2l-1.5,1.2c0,0,1.5,3,0.6,5
	c0,0-0.1-4.4-0.9-4.7c-0.6,0.5-1.1,1-1.5,1.6c0,0,1,2.2,0.4,3.3c0,0-0.4-2.9-0.7-2.9c0,0-1.3,1.9-1.4,3.3c0.1-1.2,0.4-2.4,1.1-3.5
	c-0.7,0.1-1.4,0.5-2,1c0,0,0.2-1.4,2.3-1.5c0,0,1.1-1.5,1.4-1.6c0,0-2.1-0.2-3.3,0.4c0,0,1.1-1.3,3.7-0.7l1.5-1.2c0,0-2.7-0.4-3.9,0
	c0,0,1.3-1.2,4.3-0.3l1.6-1c-1.2-0.3-2.5-0.4-3.7-0.3c0,0,1.5-0.8,4.2,0.1l1.2-0.5c0,0-1.7-0.3-2.2-0.4c-0.5-0.1-0.5-0.2-0.5-0.2
	c1.1-0.2,2.2-0.1,3.2,0.4C351.6,592.8,354,592,354,591.8z"/>
<ellipse class="st4" cx="344.5" cy="603.9" rx="9.7" ry="1.6"/>
<path class="st2" d="M380.2,571.3c0,0-16.6-1-14.7,10.7c-0.2,1.2,0.4,2.4,1.5,3c0,0,0-0.9,1.7-0.6c0.6,0.1,1.2,0.1,1.8,0.1
	c0.8-0.1,1.6-0.4,2.2-0.9l0,0c0,0,4.7-1.9,6.5-9.6c0,0,1.3-1.7,1.3-2.1l-2.8,1.2c0,0,1,2,0.2,3.7c0,0-0.1-3.6-0.6-3.5
	c-0.1,0-1.5,0.7-1.5,0.7s1.6,3.5,0.4,6.1c0,0,0.5-4.3-0.9-5.8l-2,1.2c0,0,1.9,3.6,0.6,6.6c0,0,0.3-4.6-1-6.4l-1.8,1.4
	c0,0,1.8,3.6,0.7,6c0,0-0.1-5.3-1.1-5.7c0,0-1.6,1.4-1.8,1.9c0,0,1.2,2.6,0.5,4c0,0-0.5-3.5-0.9-3.6c0,0-1.6,2.3-1.7,3.9
	c0.1-1.5,0.5-2.9,1.3-4.2c-0.9,0.2-1.7,0.6-2.4,1.2c0,0,0.2-1.7,2.8-1.8c0,0,1.3-1.8,1.6-1.9c0,0-2.5-0.2-4,0.5c0,0,1.3-1.6,4.5-0.8
	l1.8-1.4c0,0-3.3-0.5-4.7,0c0,0,1.6-1.4,5.2-0.4l1.9-1.2c0,0-2.8-0.6-4.5-0.4c0,0,1.8-1,5.1,0.1l1.4-0.6c0,0-2.1-0.4-2.7-0.5
	s-0.6-0.2-0.6-0.2c1.3-0.2,2.7-0.1,3.9,0.4C377.3,572.6,380.3,571.5,380.2,571.3z"/>
<ellipse class="st4" cx="368.7" cy="586" rx="11.8" ry="2"/>
<path class="st5" d="M634.1,596.3v4.5H500.5v-3.7c22.7-8.4,34.3-33.7,25.9-56.4c-4.1-10.9-12.3-19.8-22.9-24.7h129.7
	c-12.1,5.5-21,16.2-24.3,29.1c-4.4,17.5,2.3,35.9,17,46.5C628.4,593.5,631.2,595.1,634.1,596.3z"/>
<path class="st6" d="M633.2,516.1c-12.1,5.5-21,16.2-24.3,29.1h-81.1c-3.3-12.9-12.2-23.6-24.3-29.1H633.2z"/>
<path class="st5" d="M347.5,493.1v25.4c0,14,10.2,25.4,22.9,25.4h393c12.6,0,22.9-11.4,22.9-25.4v-25.4H347.5z"/>
<path class="st6" d="M634.1,596.3v4.5H500.5v-3.7c3.7-1.4,7.1-3.2,10.3-5.5h115.1C628.4,593.5,631.2,595.1,634.1,596.3z"/>
<path class="st5" d="M461.8,593.1h210.9c3,0,5.5,2.5,5.5,5.5v2.4c0,3-2.5,5.5-5.5,5.5H461.8c-3,0-5.5-2.5-5.5-5.5v-2.4
	C456.4,595.6,458.8,593.1,461.8,593.1z"/>
<path class="st7" d="M786.3,215.2c0-12.6-10.2-22.9-22.9-22.9l0,0h-393c-12.6,0-22.9,10.2-22.9,22.9l0,0V498h438.8V215.2z"/>
<path class="st8" d="M774.4,225.5v243c0,6.2-5,11.3-11.3,11.3c0,0,0,0,0,0H370.8c-6.2,0-11.3-5-11.3-11.3c0,0,0,0,0,0v-243
	c0-6.2,5-11.3,11.3-11.3h392.3C769.3,214.2,774.4,219.2,774.4,225.5L774.4,225.5z"/>
<circle class="st9" cx="566.9" cy="203.3" r="5.3"/>
<circle class="st9" cx="566.9" cy="519.5" r="13"/>
<path class="st9" d="M774.4,225.5H359.5c0-6.2,5-11.3,11.3-11.3c0,0,0,0,0,0h392.3C769.3,214.2,774.4,219.2,774.4,225.5
	C774.4,225.5,774.4,225.5,774.4,225.5z"/>
<circle class="st10" cx="370.8" cy="219.8" r="2.8"/>
<circle class="st10" cx="379.2" cy="219.8" r="2.8"/>
<circle class="st10" cx="387.7" cy="219.8" r="2.8"/>
<rect x="398.6" y="256.7" class="st9" width="334.8" height="195.7"/>
<path class="st11" d="M455.8,422h12.3v2.3h-12.3V422z M461.9,415.8c0.9,0,1.5-0.7,1.5-1.6s-0.7-1.5-1.6-1.5c-0.1,0-0.3,0-0.4,0.1
	l-3.2-2.4l-0.2,0.2l2.4,3.2c0,0.1-0.1,0.3-0.1,0.5C460.4,415.1,461.1,415.8,461.9,415.8C461.9,415.8,461.9,415.8,461.9,415.8z"/>
<path class="st11" d="M461.9,362.2c-0.7,0-1.4-0.2-2.1-0.5c-0.2-0.1-0.4,0-0.5,0.2c0,0.1,0,0.1,0,0.2l0.2,2.5c0,0.1,0.1,0.2,0.2,0.2
	c0,0,0.1,0,0.1,0l0.7-0.5c0.1-0.1,0.2,0,0.3,0c0,0,0,0,0,0l1,1.5c0.1,0.1,0.2,0.1,0.3,0.1c0,0,0,0,0.1-0.1l1-1.5
	c0.1-0.1,0.2-0.1,0.3,0c0,0,0,0,0,0l0.7,0.5c0.1,0.1,0.2,0,0.3,0c0,0,0-0.1,0-0.1l0.2-2.5c0-0.2-0.1-0.4-0.4-0.4c-0.1,0-0.1,0-0.2,0
	C463.4,362,462.7,362.2,461.9,362.2L461.9,362.2z"/>
<path class="st11" d="M468.8,356l-2.3-2.4c0-7.6-4.5-11-4.5-11s-4.5,3.4-4.5,11l-2.3,2.4c-0.1,0.1-0.1,0.2-0.1,0.3l0.9,5.4
	c0,0.2,0.2,0.4,0.4,0.3c0.1,0,0.1,0,0.2-0.1l3.2-2.2c0.6,0.6,1.4,0.9,2.3,1c0.8,0,1.6-0.4,2.2-1l3.2,2.2c0.2,0.1,0.4,0.1,0.5-0.1
	c0-0.1,0.1-0.1,0.1-0.2l0.9-5.4C468.9,356.2,468.9,356.1,468.8,356z M462,351.1c-0.9,0-1.6-0.6-1.6-1.5c0-0.9,0.6-1.6,1.5-1.6
	c0.9,0,1.6,0.6,1.6,1.5c0,0,0,0,0,0.1C463.5,350.4,462.8,351.1,462,351.1L462,351.1z"/>
<path class="st12" d="M680,354.2c0,3.6-2.9,6.4-6.4,6.4h0H508.6c-3.6-0.1-6.4-3.1-6.2-6.6c0.1-3.4,2.8-6.1,6.2-6.2h165.1
	C677.2,347.8,680,350.6,680,354.2z"/>
<path class="st2" d="M671.5,347.7v12.9H508.6c-3.6-0.1-6.4-3.1-6.2-6.6c0.1-3.4,2.8-6.1,6.2-6.2L671.5,347.7z"/>
<path class="st6" d="M764.4,335.8c0,0-0.6,0.5-0.8,3.6s-2.3,10.1-2.3,10.1s8.1-5.6,12.1-5L764.4,335.8z"/>
<path class="st6" d="M728.2,573.2c0.4,0,16.8,0.6,16.4,3.3C744.3,579.1,728.2,573.2,728.2,573.2z"/>
<path class="st6" d="M731.9,577.6c0,0,11,1.8,8.1,3.4S731.9,577.6,731.9,577.6z"/>
<path class="st6" d="M772.7,571.5c0,0,18.2,1.6,15.5,3.6c-2.7,2-9.2,2.3-9.5,2.4S772.7,571.5,772.7,571.5z"/>
<path class="st6" d="M770.5,579.5c0,0,10.1,1.7,10.4,3.7S770.5,579.5,770.5,579.5z"/>
<path class="st6" d="M776.1,532.6c0,0,9.2,2.2,9.8,3.7L776.1,532.6z"/>
<path class="st6" d="M740.4,539.3c0,0-4.8,1.4-0.2,4.2C744.9,546.3,740.4,539.3,740.4,539.3z"/>
<path class="st6" d="M761.8,464.4c0.5,0,9-2.8,12-1.6c2.1,0.8,4.4,1.2,6.6,1.2L761.8,464.4z"/>
<path class="st13" d="M774.2,439.7l-3,0.1h-0.1l-1.8-7.9l2.6-0.1L774.2,439.7z"/>
<path class="st6" d="M736.1,353.6c0,0,3.4,1.6,4.2,3.7C741.1,359.5,736.1,353.6,736.1,353.6z"/>
<path class="st6" d="M771.3,420.9c0.5-0.5,11.2-16.4,13.7-15L771.3,420.9z"/>
<path class="st6" d="M810.9,430.2l-1.9,1.6c-1.7-2.8-8.7-8.5-8.7-8.5l0.3-0.3l1-0.2L810.9,430.2z"/>
<path class="st6" d="M749.8,598.6c0,0-6.6,4.3-9.8,3.7c-3.3-0.6-6.6,1.1-6.6,1.1c-2.3,2.5-5.1,4.3-8.3,5.4
	c-5.3,1.8-12.7,1.1-16.9-0.3c-2-0.7-2.1-1.5-1.2-2.6c4.6,0.9,14.8,2.7,17.6,1.4c3.6-1.7,8.7-5.5,8.7-5.5s6.7-0.9,7.6-0.9
	c0.7,0,5.8-2.1,8.8-3.4L749.8,598.6z"/>
<path class="st6" d="M789.4,607.4c0,0.3-0.1,0.4-0.1,0.4s-1.6,3.4-10.2,4.7c-8.6,1.2-8.7-2.9-8.7-2.9s0-0.4,0.1-1.1
	C773.3,609.6,779.3,610.7,789.4,607.4z"/>
<text transform="matrix(1 0 0 1 544.6995 302.7845)" class="st2 st14 st15">BVN</text>
</svg>
